<svg width="1704" height="2129" viewBox="0 0 1704 2129" fill="none" xmlns="http://www.w3.org/2000/svg">
<path d="M-20.2846 1817.94C-66.1473 1808.49 -109.011 1788.21 -150.878 1768.42C-199.772 1745.3 -250.331 1721.39 -304.721 1715.27L-304.638 1714.19C-250.103 1720.33 -199.47 1744.27 -150.511 1767.42C-91.1933 1795.46 -29.8521 1824.48 39.0918 1822.22C102.495 1820.14 165.602 1787.12 203.803 1736.01C232.186 1698.04 244.018 1654.2 238.021 1609.24C227.002 1526.71 164.146 1465.96 103.358 1407.21C97.2136 1401.27 90.8625 1395.13 84.7468 1389.14C58.7111 1363.63 22.865 1323.45 -0.0877223 1276.87C-23.0789 1230.21 -28.492 1186.9 -16.1693 1148.15C-9.15937 1126.1 3.16229 1107.53 20.4504 1092.98C36.3455 1079.59 56.0384 1069.89 78.9548 1064.13C122.018 1053.32 172.545 1057.46 217.593 1075.5C258.654 1091.93 297.702 1116.21 335.463 1139.7C377.964 1166.13 421.904 1193.47 468.735 1209.57C553.46 1238.72 620.971 1236.12 663.967 1202.05C699.497 1173.92 718.397 1125.04 720.137 1056.8C720.798 1030.99 717.758 998.788 714.553 964.708C710.131 917.81 705.116 864.66 709.104 818.198C713.676 764.825 729.435 728.251 757.27 706.37C777.364 690.586 796.974 681.502 817.204 678.62C835.463 676.014 853.816 678.544 873.322 686.363C909.43 700.819 944.774 732.019 980.817 765.443C1001.26 784.406 1021.08 803.799 1040.25 822.552C1102.19 883.171 1160.71 940.432 1237.61 982.348C1325.27 1030.13 1414.99 1040.08 1490.26 1010.37C1560.06 982.819 1615.24 922.694 1649.81 836.508L1650.7 836.967C1616.02 923.416 1560.67 983.737 1490.6 1011.39C1452.88 1026.28 1411.87 1031.41 1368.7 1026.66C1325.45 1021.89 1281.21 1007.31 1237.2 983.319C1160.17 941.346 1101.62 884.032 1039.61 823.356C1020.46 804.606 1000.65 785.225 980.208 766.275C944.234 732.92 908.968 701.791 873.011 687.388C832.41 671.126 795.808 677.443 757.837 707.28C730.239 728.967 714.616 765.293 710.074 818.332C706.102 864.687 711.106 917.779 715.525 964.633C718.744 998.749 721.779 1030.98 721.117 1056.87C719.363 1125.47 700.333 1174.62 664.544 1202.97C630.293 1230.1 580.634 1237.4 519.222 1224.74C503.095 1221.41 486.155 1216.71 468.469 1210.63C421.544 1194.48 377.548 1167.13 335.011 1140.68C297.285 1117.22 258.274 1092.95 217.288 1076.54C172.418 1058.58 122.078 1054.45 79.1877 1065.22C31.5675 1077.18 -1.97121 1106.77 -15.2518 1148.57C-27.4692 1187.02 -22.0804 1230.02 0.764945 1276.39C23.6503 1322.83 59.4115 1362.92 85.3768 1388.37C91.4925 1394.36 97.8436 1400.5 103.988 1406.43C164.915 1465.31 227.909 1526.2 238.986 1609.14C245.025 1654.42 233.129 1698.55 204.563 1736.76C166.2 1788.09 102.813 1821.26 39.1408 1823.35C18.7042 1823.97 -1.05594 1821.91 -20.2846 1817.94Z" fill="#B7B7B7"/>
<path d="M-65.5562 1800.99C-110.609 1791.69 -152.693 1771.98 -193.807 1752.71C-242.753 1729.78 -293.364 1706.07 -348.006 1700.51L-347.933 1699.43C-293.146 1705.01 -242.461 1728.75 -193.45 1751.71C-134.064 1779.53 -72.6614 1808.3 -3.30628 1805.15C60.0916 1802.26 123.666 1768.13 162.626 1716.07C191.963 1676.87 204.485 1631.8 198.853 1585.75C188.582 1501.85 125.959 1440.78 65.3912 1381.71C59.276 1375.75 52.9447 1369.57 46.8486 1363.54C20.9131 1337.89 -14.7448 1297.42 -37.3682 1250.27C-60.03 1203.05 -65.0545 1159.03 -52.2869 1119.42C-45.0206 1096.88 -32.4571 1077.83 -14.9222 1062.8C1.19693 1048.97 21.086 1038.85 44.2016 1032.7C87.6106 1021.16 138.401 1024.74 183.53 1042.55C224.662 1058.77 263.698 1083.01 301.447 1106.46C343.924 1132.84 387.858 1160.13 434.788 1175.95C518.926 1204.3 586.443 1201.13 630.035 1166.78C666.8 1137.82 686.675 1087.49 689.125 1017.22C690.046 990.918 687.307 958.181 684.411 923.511C680.419 875.81 675.9 821.757 680.365 774.394C685.484 719.999 701.687 682.564 729.888 659.947C750.258 643.618 770.063 634.129 790.432 630.945C808.817 628.066 827.253 630.418 846.791 638.12C882.969 652.398 918.21 683.716 954.132 717.308C974.511 736.361 994.251 755.854 1013.33 774.716C1075.04 835.676 1133.33 893.248 1210.26 934.97C1296.65 981.819 1385.66 991.278 1460.93 961.619C1532.91 933.241 1590.08 870.899 1626.26 781.309L1627.15 781.767C1590.87 871.621 1533.51 934.166 1461.27 962.635C1423.53 977.513 1382.7 982.764 1339.91 978.235C1297.03 973.708 1253.27 959.471 1209.86 935.932C1132.81 894.141 1074.47 836.515 1012.71 775.511C993.627 756.659 973.896 737.168 953.525 718.128C916.299 683.333 882.557 653.368 846.492 639.135C805.819 623.084 768.95 629.976 730.47 660.826C702.505 683.249 686.426 720.446 681.335 774.528C676.885 821.784 681.402 875.782 685.381 923.436C688.282 958.141 691.027 990.911 690.104 1017.29C687.642 1087.91 667.626 1138.52 630.613 1167.68C608.34 1185.24 579.976 1194.81 546.3 1196.14C513.659 1197.43 476.056 1190.99 434.524 1176.99C387.48 1161.14 343.51 1133.83 300.979 1107.41C263.265 1083.99 224.266 1059.77 183.22 1043.57C138.268 1025.84 87.6837 1022.26 44.4489 1033.76C-3.56503 1046.53 -37.5996 1077.09 -51.3573 1119.82C-64.0212 1159.13 -59.0226 1202.86 -36.4954 1249.79C-13.9394 1296.79 21.6352 1337.16 47.51 1362.76C53.5965 1368.78 59.9294 1374.95 66.0446 1380.91C126.741 1440.11 189.511 1501.32 199.83 1585.64C205.506 1631.99 192.902 1677.33 163.391 1716.77C124.269 1769.06 60.4173 1803.33 -3.23967 1806.23C-24.7161 1807.21 -45.4294 1805.14 -65.5562 1800.99Z" fill="#B7B7B7"/>
<path d="M-110.764 1784.06C-155.018 1774.93 -196.341 1755.74 -236.732 1737C-285.729 1714.25 -336.401 1690.73 -391.287 1685.74L-391.225 1684.66C-336.184 1689.66 -285.438 1713.22 -236.375 1736C-176.927 1763.59 -115.456 1792.13 -45.6887 1788.07C17.7051 1784.39 81.7531 1749.16 121.451 1696.16C151.745 1655.72 164.966 1609.42 159.708 1562.29C150.185 1477.02 87.7947 1415.61 27.4558 1356.24C21.3602 1350.24 15.0581 1344.03 8.98161 1337.96C-16.8541 1312.17 -52.3241 1271.41 -74.6296 1223.7C-96.9639 1175.92 -101.589 1131.17 -88.3844 1090.7C-80.8728 1067.68 -68.0465 1048.14 -50.2839 1032.62C-33.9423 1018.35 -13.8457 1007.81 9.45006 1001.28C53.2153 988.997 104.25 992.03 149.461 1009.6C190.663 1025.62 229.687 1049.82 267.426 1073.22C309.889 1099.56 353.8 1126.79 400.848 1142.32C484.408 1169.91 551.921 1166.18 596.098 1131.56C634.097 1101.77 654.968 1049.99 658.139 977.655C659.309 950.876 656.874 917.579 654.283 882.339C650.729 833.847 646.697 778.877 651.632 730.61C657.297 675.181 673.945 636.885 702.514 613.532C723.147 596.666 743.147 586.773 763.667 583.278C782.188 580.128 800.699 582.29 820.277 589.898C856.516 603.986 891.661 635.448 927.464 669.197C947.775 688.342 967.435 707.945 986.449 726.911C1047.92 788.2 1105.98 846.097 1182.94 887.625C1268.09 933.566 1356.39 942.567 1431.61 912.963C1505.76 883.778 1564.93 819.178 1602.73 726.156L1603.62 726.625C1565.71 819.91 1506.35 884.702 1431.95 913.989C1394.2 928.85 1353.57 934.199 1311.15 929.915C1268.63 925.619 1225.35 911.715 1182.53 888.605C1105.44 847.007 1047.33 789.067 985.806 727.711C966.8 708.759 947.14 689.155 926.837 670.023C891.103 636.343 856.046 604.954 819.965 590.932C779.211 575.089 742.075 582.555 703.084 614.418C674.74 637.587 658.217 675.645 652.579 730.761C647.65 778.92 651.68 833.834 655.23 882.282C657.815 917.565 660.256 950.896 659.085 977.74C655.901 1050.42 634.89 1102.49 596.645 1132.46C574.081 1150.15 545.575 1159.93 511.931 1161.54C479.301 1163.11 441.835 1156.99 400.572 1143.37C353.42 1127.81 309.465 1100.55 266.948 1074.18C229.245 1050.79 190.267 1026.62 149.139 1010.64C104.106 993.131 53.2772 990.108 9.68774 1002.34C-38.7204 1015.92 -73.2414 1047.44 -87.4858 1091.11C-119.429 1188.96 -40.365 1287.29 9.60245 1337.18C15.6694 1343.24 21.973 1349.44 28.0686 1355.44C88.5451 1414.96 151.071 1476.51 160.643 1562.19C165.945 1609.62 152.642 1656.2 122.176 1696.87C82.3071 1750.09 18.0004 1785.46 -45.6444 1789.17C-68.1309 1790.47 -89.7884 1788.39 -110.764 1784.06Z" fill="#B7B7B7"/>
<path d="M-155.937 1767.16C-199.413 1758.19 -239.994 1739.52 -279.679 1721.27C-328.73 1698.71 -379.455 1675.38 -434.594 1670.96L-434.542 1669.88C-379.247 1674.32 -328.448 1697.68 -279.324 1720.28C-219.817 1747.66 -158.274 1775.96 -88.0849 1771C-24.686 1766.53 39.816 1730.23 80.2529 1676.27C111.504 1634.57 125.436 1587.04 120.551 1538.82C111.766 1452.17 49.6182 1390.44 -10.4907 1330.74C-16.5668 1324.7 -22.8412 1318.47 -28.8887 1312.38C-54.6152 1286.44 -89.9072 1245.38 -111.884 1197.1C-133.899 1148.76 -138.126 1103.29 -124.475 1061.96C-116.707 1038.45 -103.639 1018.42 -85.6294 1002.43C-69.0651 987.719 -48.7609 976.753 -25.2831 969.82C18.8386 956.806 70.118 959.286 115.411 976.631C156.694 992.436 195.706 1016.6 233.425 1039.96C275.875 1066.25 319.771 1093.44 366.928 1108.68C449.92 1135.51 517.429 1131.24 562.159 1096.35C601.392 1065.74 623.261 1012.48 627.166 938.067C628.596 910.811 626.453 876.961 624.18 841.132C621.056 791.834 617.519 735.959 622.931 686.8C629.142 630.348 646.234 591.19 675.172 567.09C696.069 549.687 716.274 539.381 736.944 535.586C755.593 532.153 774.187 534.138 793.804 541.653C830.114 555.565 865.157 587.147 900.839 621.065C921.083 640.303 940.672 660.02 959.608 679.086C1020.84 740.719 1078.67 798.929 1155.66 840.267C1239.6 885.33 1327.21 893.884 1402.35 864.33C1478.64 834.331 1539.81 767.475 1579.25 670.986L1580.14 671.454C1540.59 768.206 1479.23 835.265 1402.69 865.355C1364.97 880.194 1324.52 885.652 1282.49 881.582C1240.33 877.508 1197.52 863.934 1155.26 841.237C1078.14 799.829 1020.25 741.562 958.967 679.875C940.03 660.819 920.45 641.104 900.214 621.88C863.24 586.751 829.692 556.542 793.504 542.677C752.678 527.044 715.265 535.081 675.772 567.97C647.049 591.884 630.081 630.805 623.905 686.957C618.51 736.01 622.034 791.839 625.155 841.081C627.422 876.953 629.572 910.826 628.14 938.158C624.223 1012.92 602.217 1066.44 562.737 1097.25C539.891 1115.07 511.265 1125.06 477.641 1126.95C445.024 1128.78 407.694 1122.99 366.692 1109.73C319.432 1094.46 275.481 1067.23 232.987 1040.91C195.305 1017.57 156.328 993.435 115.129 977.659C70.0139 960.383 18.9405 957.913 -25.004 970.865C-73.8162 985.258 -108.814 1017.75 -123.555 1062.35C-156.593 1162.3 -78.0153 1261.39 -28.2349 1311.57C-22.1874 1317.66 -15.913 1323.89 -9.83692 1329.93C50.4095 1389.77 112.704 1451.64 121.537 1538.71C126.456 1587.22 112.444 1635.03 81.03 1676.95C40.4336 1731.12 -24.327 1767.57 -87.9766 1772.07C-111.541 1773.74 -134.103 1771.67 -155.937 1767.16Z" fill="#B7B7B7"/>
<path d="M-201.045 1750.29C-243.755 1741.47 -283.621 1723.3 -322.62 1705.53C-371.723 1683.15 -422.5 1660.01 -477.894 1656.16L-477.853 1655.08C-422.304 1658.96 -371.452 1682.12 -322.265 1704.54C-262.686 1731.69 -201.082 1759.76 -130.47 1753.91C-67.0656 1748.65 -2.11208 1711.28 39.053 1656.38C71.263 1613.42 85.9052 1564.65 81.3968 1515.33C73.3581 1427.31 11.4329 1365.24 -48.4482 1305.22C-54.4969 1299.16 -60.7598 1292.88 -66.7782 1286.75C-92.4069 1260.68 -127.512 1219.33 -149.168 1170.47C-170.855 1121.55 -174.693 1075.36 -160.598 1033.19C-152.575 1009.19 -139.254 988.673 -121.007 972.203C-104.229 957.052 -83.7172 945.663 -60.0494 938.344C-15.5806 924.593 35.9536 926.524 81.3283 943.64C122.684 959.235 161.684 983.362 199.392 1006.69C241.828 1032.94 285.711 1060.08 332.977 1075.03C415.422 1101.11 482.915 1096.31 528.171 1061.15C568.638 1029.71 591.513 974.973 596.165 898.468C597.845 870.722 596.003 836.331 594.047 799.912C591.354 749.809 588.314 693.016 594.202 642.965C600.968 585.491 618.494 545.468 647.809 520.634C668.98 502.697 689.383 491.976 710.191 487.88C728.968 484.175 747.644 485.982 767.294 493.393C803.676 507.118 838.613 538.842 874.179 572.91C894.355 592.24 913.865 612.069 932.732 631.239C993.723 693.215 1051.34 751.744 1128.36 792.894C1212.32 837.753 1296.94 845.649 1373.07 815.735C1451.47 784.93 1514.64 715.796 1555.75 615.801L1556.64 616.27C1515.42 716.527 1452.07 785.853 1373.41 816.748C1335.72 831.558 1295.48 837.12 1253.81 833.26C1212.01 829.395 1169.67 816.137 1127.96 793.852C1050.81 752.633 993.147 694.038 932.093 632.016C913.235 612.848 893.724 593.031 873.556 573.713C836.712 538.417 803.265 508.085 767.006 494.396C726.671 479.175 687.876 488.038 648.414 521.482C619.322 546.143 601.9 585.924 595.177 643.112C589.303 693.067 592.342 749.805 595.034 799.853C596.994 836.306 598.841 870.73 597.15 898.551C592.487 975.393 569.473 1030.4 528.75 1062.04C505.642 1079.99 476.885 1090.19 443.285 1092.34C410.681 1094.43 373.487 1088.95 332.746 1076.05C285.366 1061.07 241.438 1033.9 198.958 1007.61C161.286 984.31 122.331 960.214 81.0583 944.658C35.8609 927.611 -15.4674 925.691 -59.7496 939.381C-108.957 954.586 -144.432 988.042 -159.659 1033.58C-193.779 1135.62 -115.692 1235.5 -66.1073 1285.96C-60.0889 1292.09 -53.834 1298.36 -47.7854 1304.41C12.2317 1364.58 74.3038 1426.79 82.3783 1515.24C86.9125 1564.84 72.1893 1613.89 39.8184 1657.07C-1.49485 1712.18 -66.7084 1749.7 -130.362 1754.97C-154.934 1757.02 -178.392 1754.97 -201.045 1750.29Z" fill="#B7B7B7"/>
<path d="M-246.118 1733.45C-288.082 1724.78 -327.246 1707.1 -365.566 1689.79C-414.723 1667.6 -465.564 1644.65 -521.201 1641.35L-521.169 1640.27C-465.366 1643.59 -414.452 1666.57 -365.22 1688.79C-305.578 1715.71 -243.903 1743.56 -172.878 1736.81C-62.7539 1726.34 52.6421 1619.35 42.2289 1491.84C34.9271 1402.44 -26.7586 1340.05 -86.4111 1279.7C-92.4404 1273.61 -98.6741 1267.3 -104.673 1261.13C-130.203 1234.91 -165.121 1193.27 -186.46 1143.85C-207.82 1094.37 -211.269 1047.45 -196.718 1004.41C-188.439 979.929 -174.866 958.923 -156.391 941.974C-139.39 926.383 -118.671 914.571 -94.8221 906.865C-49.9977 892.391 1.78196 893.77 47.2503 910.649C88.6879 926.039 127.669 950.116 165.367 973.403C207.791 999.603 251.65 1026.7 299.026 1041.37C380.922 1066.73 448.398 1061.41 494.158 1025.99C535.869 993.708 559.753 937.482 565.163 858.864C567.103 830.639 565.554 795.684 563.915 758.685C561.661 707.778 559.106 650.076 565.472 599.121C572.785 540.611 590.763 499.739 620.438 474.156C641.873 455.682 662.48 444.559 683.431 440.151C702.344 436.176 721.105 437.796 740.785 445.112C777.229 458.649 812.073 490.509 847.52 524.748C867.629 544.172 887.07 564.104 905.857 583.386C966.618 645.7 1024.01 704.558 1101.05 745.518C1184.87 790.076 1269.7 797.21 1346.38 766.151C1425.67 734.036 1489.95 662.968 1532.24 560.629L1533.13 561.097C1490.73 663.698 1426.27 734.958 1346.73 767.165C1308.76 782.54 1268.33 788.585 1226.56 785.103C1184.66 781.614 1142.3 768.618 1100.65 746.486C1023.47 705.454 966.029 646.541 905.209 584.161C886.42 564.889 866.989 544.959 846.888 525.548C810.163 490.081 776.819 459.615 740.496 446.125C700.088 431.112 661.014 440.556 621.041 475.013C591.57 500.42 573.702 541.074 566.434 599.287C560.082 650.146 562.635 707.793 564.887 758.646C566.532 795.678 568.075 830.665 566.136 858.956C560.706 937.909 536.684 994.401 494.729 1026.86C471.359 1044.95 442.494 1055.34 408.925 1057.75C376.334 1060.1 339.285 1054.93 298.794 1042.4C251.305 1027.69 207.392 1000.56 164.913 974.327C127.252 951.059 88.3065 927.011 46.963 911.652C-43.3067 878.119 -161.801 904.196 -195.808 1004.8C-231.023 1108.94 -153.412 1209.6 -104.022 1260.34C-98.023 1266.5 -91.7876 1272.8 -85.7583 1278.9C-25.9589 1339.38 35.8721 1401.93 43.1985 1491.76C48.0318 1550.99 25.8336 1610.21 -19.3081 1658.52C-60.8953 1703.04 -118.269 1732.7 -172.771 1737.88C-198.323 1740.32 -222.667 1738.29 -246.118 1733.45Z" fill="#B7B7B7"/>
<path d="M-291.148 1716.63C-332.377 1708.11 -370.854 1690.9 -408.529 1674.06C-457.749 1652.05 -508.633 1629.28 -564.527 1626.55L-564.504 1625.47C-508.445 1628.22 -457.469 1651.02 -408.183 1673.06C-348.47 1699.77 -286.731 1727.38 -215.294 1719.74C-104.51 1707.88 12.4022 1597.86 3.05515 1468.37C-3.50054 1377.6 -64.9555 1314.86 -124.39 1254.19C-130.399 1248.06 -136.606 1241.72 -142.586 1235.52C-168.016 1209.15 -202.748 1167.21 -223.76 1117.22C-244.801 1067.17 -247.853 1019.53 -232.855 975.636C-224.321 950.669 -210.504 929.167 -191.782 911.741C-174.559 895.712 -153.641 883.475 -129.592 875.385C-84.4107 860.177 -32.3851 861.006 13.1661 877.658C54.6764 892.84 93.6465 916.881 131.334 940.132C173.745 966.295 217.592 993.345 265.078 1007.73C346.436 1032.37 413.886 1026.54 460.139 990.872C503.083 957.758 527.986 900.027 534.166 819.288C536.364 790.584 535.108 755.075 533.786 717.485C531.962 665.771 529.901 607.161 536.736 555.299C544.594 495.764 563.016 454.029 593.061 427.699C614.771 408.681 635.574 397.153 656.664 392.444C675.704 388.197 694.55 389.63 714.27 396.854C750.786 410.216 785.517 442.208 820.856 476.611C840.898 496.129 860.259 516.173 878.979 535.56C939.499 598.221 996.67 657.4 1073.75 698.173C1247.79 790.237 1422.6 712.808 1508.74 505.479L1509.61 505.945C1466.1 610.676 1400.7 683.806 1320.47 717.432C1282.18 733.482 1241.49 740.06 1199.54 736.992C1157.46 733.908 1114.99 721.175 1073.34 699.138C996.114 658.292 938.893 599.047 878.313 536.33C859.601 516.956 840.247 496.924 820.215 477.408C783.622 441.762 750.367 411.18 713.982 397.866C673.502 383.05 634.146 393.096 593.664 428.545C563.814 454.696 545.512 496.216 537.687 555.463C530.859 607.216 532.926 665.784 534.748 717.444C536.075 755.067 537.328 790.598 535.129 819.378C528.921 900.439 503.879 958.437 460.699 991.743C437.087 1009.96 408.103 1020.54 374.577 1023.21C342.009 1025.8 305.087 1020.94 264.849 1008.74C217.25 994.325 173.339 967.239 130.883 941.045C93.2304 917.823 54.3064 893.802 12.8807 878.649C-77.5552 845.571 -196.876 873.394 -231.945 976.01C-268.242 1082.24 -191.128 1183.69 -141.922 1234.71C-135.952 1240.91 -129.736 1247.24 -123.736 1253.37C-64.1644 1314.18 -2.56424 1377.07 4.0256 1468.28C8.37265 1528.42 -14.4579 1588.85 -60.2464 1638.44C-102.439 1684.14 -160.348 1714.91 -215.175 1720.79C-241.708 1723.64 -266.908 1721.64 -291.148 1716.63Z" fill="#B7B7B7"/>
<path d="M-336.132 1699.84C-376.648 1691.47 -414.449 1674.72 -451.484 1658.31C-500.759 1636.48 -551.707 1613.91 -607.846 1611.74L-607.833 1610.66C-551.519 1612.84 -500.488 1635.45 -451.138 1657.31C-391.361 1683.79 -329.541 1711.18 -257.69 1702.64C-146.255 1689.39 -27.8159 1576.35 -36.1068 1444.88C-41.9151 1352.71 -103.141 1289.65 -162.35 1228.66C-168.331 1222.49 -174.518 1216.12 -180.469 1209.89C-205.801 1183.37 -240.347 1141.14 -261.042 1090.58C-281.756 1039.96 -284.42 991.598 -268.976 946.839C-260.185 921.38 -246.117 899.394 -227.155 881.48C-209.709 865.011 -188.583 852.352 -164.352 843.864C-118.822 827.921 -66.5312 828.204 -20.9079 844.637C20.6849 859.614 59.6447 883.62 97.3129 906.835C139.702 932.959 183.547 959.963 231.143 974.061C311.981 998.001 379.395 991.673 426.111 955.759C470.29 921.79 496.213 862.554 503.184 779.677C505.642 750.484 504.686 714.433 503.672 676.25C502.277 623.727 500.701 564.206 508.022 511.453C516.425 450.891 535.294 408.282 565.706 381.216C587.68 361.662 608.68 349.719 629.921 344.711C649.089 340.182 668.017 341.449 687.781 348.56C724.37 361.738 758.998 393.865 794.219 428.44C814.193 448.053 833.476 468.211 852.128 487.703C912.417 550.703 969.353 610.212 1046.47 650.803C1220.59 742.462 1396.94 661.893 1485.27 450.317L1486.15 450.783C1441.52 557.656 1375.17 632.655 1294.28 667.68C1255.66 684.406 1214.71 691.526 1172.58 688.862C1130.31 686.192 1087.75 673.712 1046.06 651.767C968.807 611.104 911.81 551.539 851.462 488.472C832.817 468.993 813.535 448.835 793.569 429.235C757.094 393.416 723.939 362.71 687.493 349.572C646.939 334.962 607.304 345.588 566.32 382.053C536.101 408.951 517.345 451.332 508.981 511.629C501.674 564.287 503.247 623.764 504.64 676.231C505.651 714.435 506.611 750.531 504.153 779.79C497.163 862.991 471.092 922.492 426.679 956.641C402.827 974.977 373.751 985.764 340.249 988.675C307.704 991.511 270.919 986.947 230.92 975.097C183.201 960.962 139.313 933.916 96.8683 907.77C59.2352 884.584 20.3121 860.597 -21.1787 845.663C-111.791 813.037 -231.937 842.594 -268.06 947.236C-305.449 1055.56 -228.813 1157.8 -179.809 1209.09C-173.856 1215.32 -167.671 1221.7 -161.688 1227.85C-132.497 1257.92 -102.325 1289 -78.7158 1324.13C-51.9913 1363.89 -37.7391 1403.36 -35.1209 1444.81C-31.2695 1505.86 -54.7213 1567.5 -101.158 1618.37C-143.946 1665.25 -202.412 1697.15 -257.551 1703.7C-285.078 1706.98 -311.122 1705 -336.132 1699.84Z" fill="#B7B7B7"/>
<path d="M-381.081 1683.07C-420.894 1674.84 -458.038 1658.53 -494.444 1642.56C-543.773 1620.9 -594.777 1598.53 -651.179 1596.9L-651.167 1595.82C-594.597 1597.45 -543.511 1619.87 -494.097 1641.55C-434.246 1667.81 -372.363 1694.97 -300.087 1685.54C-187.992 1670.91 -68.0246 1554.82 -75.26 1421.37C-80.3325 1327.83 -141.329 1264.43 -200.311 1203.1C-206.273 1196.9 -212.431 1190.49 -218.364 1184.23C-243.6 1157.57 -277.96 1115.05 -298.326 1063.91C-318.715 1012.72 -320.99 963.63 -305.101 918.02C-287.823 868.428 -250.18 830.896 -199.13 812.35C-153.242 795.674 -100.704 795.408 -54.9879 811.617C-13.3217 826.388 25.628 850.359 63.298 873.531C105.677 899.608 149.499 926.574 197.216 940.39C277.534 963.643 344.921 956.827 392.08 920.661C437.483 885.847 464.447 825.089 472.211 740.064C474.918 710.389 474.265 673.774 473.566 635.01C472.609 581.692 471.519 521.249 479.318 467.59C488.267 405.99 507.579 362.529 538.369 334.729C560.607 314.638 581.812 302.294 603.195 296.974C622.501 292.175 641.504 293.254 661.299 300.272C697.949 313.275 732.486 345.538 767.58 380.275C787.487 399.982 806.702 420.245 825.275 439.852C885.325 503.201 942.047 563.035 1019.19 603.451C1193.37 694.704 1371.24 610.995 1461.79 395.175L1462.66 395.651C1416.93 504.668 1349.64 581.537 1268.05 617.966C1229.1 635.355 1187.9 643.031 1145.6 640.772C1103.14 638.504 1060.47 626.276 1018.77 604.434C941.478 563.943 884.696 504.054 824.587 440.637C806.022 421.044 786.815 400.794 766.917 381.088C730.571 345.099 697.509 314.254 660.987 301.31C620.359 286.906 580.435 298.111 538.951 335.581C508.352 363.224 489.151 406.468 480.241 467.803C472.457 521.366 473.545 581.754 474.509 635.03C475.202 673.826 475.862 710.464 473.153 740.215C465.362 825.562 438.271 886.578 392.625 921.571C368.55 940.037 339.367 950.994 305.906 954.167C273.385 957.238 236.726 952.969 196.969 941.453C149.139 927.602 105.263 900.604 62.83 874.493C25.2061 851.342 -13.6988 827.402 -55.2711 812.661C-146.051 780.487 -267.033 811.776 -304.201 918.457C-342.684 1028.88 -266.53 1131.9 -217.711 1183.48C-211.787 1189.74 -205.62 1196.15 -199.667 1202.35C-170.59 1232.58 -140.522 1263.83 -117.101 1299.25C-90.5841 1339.36 -76.5875 1379.29 -74.3017 1421.35C-70.9457 1483.31 -95.0186 1546.15 -142.103 1598.31C-163.406 1621.91 -188.979 1642.44 -216.055 1657.64C-243.392 1673.01 -272.406 1683.03 -299.972 1686.62C-328.452 1690.33 -355.323 1688.39 -381.081 1683.07Z" fill="#B7B7B7"/>
</svg>
