<svg width="428" height="1285" viewBox="0 0 428 1285" fill="none" xmlns="http://www.w3.org/2000/svg">
<g clip-path="url(#clip0_202_4)">
<path d="M-329.198 571.672C-355.84 565.584 -380.377 553.877 -404.343 542.447C-432.331 529.094 -461.273 515.288 -493.03 510.749L-492.948 510.181C-461.105 514.734 -432.121 528.561 -404.095 541.928C-370.14 558.124 -335.027 574.878 -294.452 575.362C-257.137 575.805 -219.011 559.953 -194.942 533.985C-177.058 514.688 -168.712 491.908 -170.803 468.099C-174.65 424.403 -209.642 390.909 -243.483 358.518C-246.904 355.247 -250.44 351.862 -253.842 348.56C-268.325 334.506 -288.105 312.491 -300.106 287.421C-312.128 262.311 -313.929 239.391 -305.456 219.293C-300.636 207.86 -292.806 198.389 -282.186 191.147C-272.422 184.489 -260.544 179.859 -246.897 177.383C-221.255 172.739 -191.702 176.14 -165.811 186.724C-142.212 196.368 -120.045 210.093 -98.609 223.369C-74.4817 238.306 -49.5386 253.758 -22.5386 263.368C26.3079 280.759 66.0526 281.024 92.3963 264.141C114.165 250.194 126.825 224.93 130.02 189.061C131.23 175.493 130.469 158.476 129.671 140.463C128.566 115.676 127.312 87.5849 131.134 63.2308C135.52 35.254 145.942 16.3889 162.991 5.54881C175.299 -2.27091 187.109 -6.57614 199.085 -7.60255C209.894 -8.53166 220.596 -6.75536 231.807 -2.16811C252.559 6.31413 272.33 23.5897 292.44 42.0525C303.849 52.5267 314.875 63.2129 325.536 73.5454C359.997 106.947 392.551 138.499 436.395 162.42C486.372 189.687 538.767 197.098 583.93 183.289C625.816 170.481 660.147 140.177 683.201 95.6598L683.71 95.923C660.584 140.576 626.143 170.979 584.099 183.833C561.464 190.754 537.208 192.462 511.999 188.915C486.739 185.356 461.215 176.611 436.122 162.921C392.209 138.967 359.633 107.387 325.137 73.9534C314.482 63.6221 303.461 52.9428 292.056 42.4754C271.984 24.0508 252.257 6.81455 231.591 -1.63613C208.257 -11.178 186.552 -8.74049 163.295 6.04106C146.392 16.7851 136.057 35.5236 131.7 63.3249C127.891 87.6232 129.14 115.684 130.244 140.448C131.049 158.479 131.806 175.514 130.593 189.121C127.379 225.18 114.634 250.583 92.7062 264.635C71.7201 278.086 42.3143 280.724 6.63853 272.572C-2.72957 270.431 -12.5321 267.545 -22.7288 263.917C-49.782 254.283 -74.7585 238.824 -98.9056 223.871C-120.322 210.611 -142.468 196.896 -166.024 187.269C-191.813 176.726 -221.255 173.332 -246.795 177.964C-275.152 183.102 -295.798 197.864 -304.93 219.537C-313.332 239.474 -311.535 262.235 -299.59 287.193C-287.624 312.184 -267.891 334.147 -253.447 348.169C-250.045 351.47 -246.51 354.856 -243.089 358.127C-209.17 390.589 -174.101 424.159 -170.233 468.071C-168.127 492.048 -176.52 514.981 -194.52 534.399C-218.691 560.479 -256.986 576.403 -294.459 575.959C-306.485 575.788 -318.028 574.225 -329.198 571.672Z" fill="#FBFBFB" fill-opacity="0.75"/>
<path d="M-354.979 560.579C-381.169 554.594 -405.281 543.189 -428.837 532.047C-456.881 518.781 -485.879 505.068 -517.826 500.821L-517.749 500.251C-485.717 504.513 -456.676 518.247 -428.595 531.527C-394.57 547.622 -359.39 564.262 -318.513 564.274C-281.148 564.288 -242.68 547.84 -218.11 521.352C-199.609 501.409 -190.807 477.97 -192.646 453.573C-196.003 409.12 -230.869 375.432 -264.59 342.851C-267.995 339.56 -271.52 336.154 -274.911 332.831C-289.34 318.69 -309.01 296.506 -320.804 271.119C-332.618 245.693 -334.165 222.378 -325.393 201.821C-320.401 190.122 -312.405 180.389 -301.616 172.892C-291.697 165.994 -279.68 161.143 -265.893 158.464C-240.003 153.431 -210.257 156.548 -184.293 167.019C-160.629 176.56 -138.454 190.275 -117.01 203.542C-92.8799 218.467 -67.9219 233.905 -40.8359 243.37C7.72443 260.344 47.5211 260.303 74.2476 243.262C96.7881 228.892 110.082 202.857 113.768 165.89C115.151 152.057 114.586 134.744 113.992 116.408C113.17 91.1809 112.24 62.5943 116.38 37.7491C121.127 9.21516 131.85 -10.1156 149.153 -21.3496C161.651 -29.4606 173.598 -33.981 185.675 -35.1664C196.576 -36.239 207.34 -34.5542 218.581 -30.0245C239.395 -21.6282 259.113 -4.27652 279.158 14.2889C290.531 24.8194 301.514 35.5661 312.13 45.9648C346.462 79.5722 378.891 111.312 422.788 135.152C472.081 161.921 524.111 169.056 569.308 155.249C612.537 142.037 648.142 110.574 672.273 64.2482L672.782 64.5114C648.58 110.974 612.857 142.539 569.477 155.792C546.812 162.719 522.64 164.498 497.63 161.079C472.562 157.658 447.288 149.099 422.522 135.649C378.557 111.77 346.1 80.0003 311.738 46.3685C301.121 35.9753 290.144 25.2299 278.775 14.7062C258.001 -4.52468 239.122 -21.1269 218.373 -29.4968C194.973 -38.936 173.077 -36.1961 149.467 -20.8728C132.309 -9.7348 121.667 9.47355 116.945 37.8432C112.819 62.6325 113.749 91.19 114.565 116.393C115.161 134.746 115.727 152.078 114.342 165.951C110.637 203.101 97.2513 229.28 74.5588 243.75C60.9029 252.459 43.9209 256.815 24.0796 256.702C4.84778 256.593 -17.0544 252.292 -41.0248 243.914C-68.1764 234.428 -93.1542 218.974 -117.315 204.03C-138.74 190.78 -160.894 177.075 -184.509 167.551C-210.37 157.121 -239.995 154.014 -265.782 159.03C-294.419 164.597 -315.405 179.874 -324.859 202.055C-333.561 222.458 -332.02 245.619 -320.276 270.888C-308.517 296.196 -288.892 318.323 -274.497 332.432C-271.112 335.754 -267.585 339.155 -264.181 342.446C-230.388 375.102 -195.44 408.867 -192.068 453.535C-190.213 478.094 -199.072 501.679 -217.683 521.743C-242.355 548.343 -280.99 564.859 -318.508 564.845C-331.167 564.846 -343.278 563.253 -354.979 560.579Z" fill="#FBFBFB" fill-opacity="0.75"/>
<path d="M-380.723 549.506C-406.467 543.623 -430.164 532.507 -453.327 521.648C-481.425 508.47 -510.484 494.843 -542.616 490.888L-542.545 490.322C-510.322 494.287 -481.221 507.935 -453.084 521.128C-418.993 537.115 -383.741 553.648 -342.563 553.189C-305.147 552.775 -266.334 535.741 -241.278 508.743C-222.157 488.143 -212.893 464.046 -214.475 439.062C-217.343 393.858 -252.081 359.97 -285.678 327.2C-289.072 323.888 -292.58 320.462 -295.961 317.118C-310.334 302.89 -329.896 280.537 -341.489 254.838C-353.097 229.101 -354.383 205.388 -345.316 184.364C-340.158 172.403 -331.985 162.406 -321.037 154.651C-310.964 147.519 -298.802 142.443 -284.886 139.558C-258.743 134.137 -228.814 136.966 -202.777 147.325C-179.049 156.763 -156.866 170.469 -135.412 183.72C-111.274 198.635 -86.312 214.056 -59.129 223.38C-10.8505 239.943 28.9902 239.607 56.0926 222.41C79.4048 207.618 93.3453 180.809 97.5312 142.735C99.0789 128.641 98.7139 111.021 98.3197 92.3726C97.7845 66.7117 97.1753 37.6229 101.627 12.2855C106.738 -16.8113 117.761 -36.6077 135.319 -48.2356C147.999 -56.6335 160.083 -61.3692 172.269 -62.7178C183.267 -63.9326 194.088 -62.3462 205.363 -57.8616C226.233 -49.5581 245.902 -32.118 265.884 -13.4555C277.22 -2.86866 288.158 7.94421 298.737 18.4048C332.936 52.2107 365.243 84.1459 409.189 107.903C457.812 134.185 509.479 141.06 554.68 127.26C599.244 113.655 636.129 81.0105 661.351 32.8615L661.859 33.1302C636.565 81.4154 599.564 114.156 554.848 127.809C532.165 134.737 508.084 136.579 483.266 133.297C458.385 130.007 433.37 121.63 408.915 108.41C364.896 84.6125 332.564 52.6542 298.333 18.8115C287.759 8.35775 276.82 -2.45513 265.488 -13.0351C245.544 -31.6595 225.925 -49.0589 205.146 -57.324C181.677 -66.6619 159.588 -63.6195 135.626 -47.7545C118.206 -36.2183 107.264 -16.5442 102.179 12.3881C97.7345 37.6685 98.3443 66.7281 98.8791 92.3654C99.2682 111.036 99.6349 128.674 98.0851 142.803C93.8808 181.06 79.8487 208.013 56.3857 222.9C42.5426 231.684 25.4574 236.157 5.61074 236.195C-13.6374 236.235 -35.4847 232.106 -59.3248 223.928C-86.5679 214.585 -111.555 199.146 -135.724 184.212C-157.157 170.972 -179.315 157.284 -203 147.861C-228.934 137.544 -258.742 134.724 -284.78 140.122C-313.697 146.119 -335.019 161.912 -344.8 184.599C-366.733 235.437 -323.369 289.203 -295.571 316.72C-292.195 320.063 -288.685 323.483 -285.292 326.795C-251.619 359.641 -216.805 393.611 -213.922 439.03C-212.324 464.176 -221.645 488.419 -240.874 509.134C-266.038 536.244 -305.008 553.347 -342.573 553.768C-355.844 553.912 -368.52 552.295 -380.723 549.506Z" fill="#FBFBFB" fill-opacity="0.75"/>
<path d="M-406.447 538.45C-431.756 532.666 -455.049 521.836 -477.827 511.247C-505.981 498.156 -535.096 484.622 -567.418 480.958L-567.353 480.391C-534.939 484.065 -505.782 497.62 -477.586 510.733C-443.431 526.616 -408.106 543.037 -366.621 542.108C-329.149 541.272 -290.004 523.657 -264.46 496.142C-244.718 474.88 -234.986 450.121 -236.31 424.55C-238.695 378.593 -273.3 344.507 -306.769 311.543C-310.153 308.21 -313.646 304.769 -317.011 301.406C-331.323 287.092 -350.781 264.569 -362.167 238.553C-373.574 212.498 -374.599 188.393 -365.232 166.903C-359.902 154.676 -351.564 144.417 -340.445 136.408C-330.22 129.04 -317.912 123.739 -303.866 120.643C-277.469 114.834 -247.357 117.376 -221.248 127.623C-197.45 136.959 -175.258 150.655 -153.802 163.895C-129.654 178.795 -104.684 194.206 -77.41 203.386C-29.409 219.545 10.4756 218.914 37.9346 201.57C62.0185 186.355 76.6082 158.761 81.3017 119.57C83.0204 105.215 82.8479 87.293 82.6624 68.3227C82.4097 42.2214 82.1252 12.6373 86.8931 -13.1855C92.3663 -42.8395 103.69 -63.1016 121.503 -75.129C134.366 -83.8139 146.595 -88.7691 158.886 -90.2753C169.977 -91.6392 180.861 -90.1442 192.169 -85.7048C213.1 -77.4872 232.716 -59.971 252.634 -41.2059C263.934 -30.5628 274.833 -19.6825 285.368 -9.16133C319.438 24.8499 351.615 56.9724 395.614 80.6478C443.582 106.457 494.89 113.08 540.084 99.2842C585.966 85.2814 624.131 51.4561 650.461 1.46431L650.969 1.73305C624.566 51.8609 586.284 85.7886 540.252 99.8333C517.563 106.76 493.573 108.669 468.956 105.51C444.264 102.345 419.5 94.1494 395.347 81.1503C351.274 57.4347 319.064 25.281 284.966 -8.7602C274.429 -19.2758 263.535 -30.1548 252.239 -40.7911C231.6 -60.226 212.82 -76.9817 191.959 -85.1715C168.426 -94.4067 146.139 -91.0632 121.828 -74.6496C104.147 -62.7152 92.9048 -42.5755 87.4617 -13.0791C82.7065 12.688 82.985 42.2472 83.2385 68.3193C83.4189 87.3119 83.5945 105.247 81.8724 119.642C77.1604 159.016 62.4818 186.742 38.2458 202.058C24.2209 210.917 7.04501 215.505 -12.8124 215.694C-32.0758 215.877 -53.8682 211.918 -77.5821 203.933C-104.917 194.734 -129.918 179.304 -154.09 164.387C-175.526 151.158 -197.697 137.478 -221.447 128.158C-247.454 117.953 -277.445 115.42 -303.735 121.201C-332.938 127.626 -354.589 143.937 -364.703 167.129C-387.371 219.103 -344.295 273.307 -316.6 300.995C-313.236 304.359 -309.742 307.799 -306.359 311.132C-272.812 344.172 -238.126 378.336 -235.727 424.513C-234.392 450.245 -244.179 475.144 -264.024 496.523C-289.669 524.145 -328.971 541.829 -366.591 542.673C-380.519 542.989 -393.737 541.354 -406.447 538.45Z" fill="#FBFBFB" fill-opacity="0.75"/>
<path d="M-432.135 527.413C-457.014 521.727 -479.917 511.169 -502.32 500.842C-530.529 487.837 -559.7 474.39 -592.212 471.023L-592.153 470.456C-559.55 473.838 -530.336 487.3 -502.08 500.327C-467.852 516.104 -432.462 532.416 -390.67 531.017C-353.143 529.759 -313.668 511.574 -287.642 483.546C-267.278 461.616 -257.078 436.196 -258.143 410.026C-260.039 363.318 -294.521 329.031 -327.865 295.878C-331.234 292.531 -334.721 289.063 -338.069 285.679C-352.328 271.284 -371.677 248.592 -382.86 222.253C-394.059 195.881 -394.83 171.382 -385.164 149.432C-379.663 136.945 -371.152 126.42 -359.87 118.155C-349.496 110.55 -337.043 105.024 -322.862 101.725C-296.218 95.5254 -265.917 97.7824 -239.735 107.916C-215.872 117.15 -193.673 130.836 -172.208 144.066C-148.053 158.956 -123.073 174.352 -95.7073 183.388C-47.9741 199.151 -8.05351 198.235 19.7453 180.74C44.6022 165.097 59.8466 136.719 65.0559 96.4015C66.9414 81.7793 66.9655 63.5614 66.9887 44.2689C67.0186 17.7274 67.0599 -12.3577 72.1443 -38.6659C77.9852 -68.8757 89.6029 -89.6048 107.676 -102.025C120.728 -110.995 133.095 -116.171 145.488 -117.837C156.67 -119.344 167.616 -117.94 178.954 -113.553C199.947 -105.427 219.507 -87.8235 239.363 -68.9669C250.627 -58.2675 261.482 -47.3211 271.979 -36.738C305.914 -2.5228 337.971 29.7896 382.025 53.3833C430.042 79.1041 479.643 85.3078 525.467 71.327C572.654 56.9297 612.101 21.9121 639.55 -29.9434L640.058 -29.6746C612.537 22.317 572.974 57.4314 525.636 71.8705C502.949 78.7918 479.061 80.7656 454.634 77.7256C430.132 74.6802 405.61 66.6578 381.759 53.8803C337.632 30.2463 305.548 -2.10163 271.578 -36.3425C261.086 -46.9243 250.229 -57.8651 238.97 -68.5576C218.401 -88.094 199.673 -104.926 178.752 -113.03C155.478 -122.041 132.335 -118.289 108.005 -101.562C90.0688 -89.2283 78.5207 -68.6242 72.7142 -38.565C67.6413 -12.307 67.6008 17.7489 67.5716 44.2612C67.5502 63.5717 67.5279 81.8076 65.6335 96.4689C60.4069 136.964 45.0723 165.48 20.0578 181.222C5.86361 190.155 -11.4086 194.855 -31.2743 195.183C-50.5515 195.504 -72.2891 191.716 -95.8769 183.925C-123.309 174.867 -148.313 159.454 -172.494 144.547C-193.938 131.327 -216.112 117.659 -239.927 108.448C-266.007 98.3549 -296.187 96.108 -322.719 102.28C-352.201 109.134 -374.182 125.962 -384.623 149.661C-408.019 202.765 -365.234 257.42 -337.648 285.276C-334.3 288.66 -330.817 292.121 -327.449 295.468C-294.029 328.703 -259.465 363.068 -257.561 410C-256.491 436.324 -266.748 461.89 -287.214 483.932C-313.333 512.062 -352.967 530.322 -390.641 531.582C-405.184 532.075 -418.939 530.428 -432.135 527.413Z" fill="#FBFBFB" fill-opacity="0.75"/>
<path d="M-457.803 516.393C-482.264 510.803 -504.782 500.514 -526.815 490.442C-555.079 477.525 -584.311 464.169 -617.007 461.089L-616.954 460.52C-584.16 463.611 -554.886 476.988 -526.578 489.92C-492.286 505.589 -456.824 521.794 -414.73 519.924C-349.464 517.026 -277.967 463.201 -279.982 395.507C-281.394 348.046 -315.745 313.566 -348.962 280.219C-352.32 276.851 -355.791 273.363 -359.129 269.958C-373.332 255.476 -392.572 232.615 -403.555 205.964C-414.547 179.281 -415.063 154.382 -405.091 131.968C-399.418 119.215 -390.736 108.43 -379.295 99.907C-368.767 92.0679 -356.169 86.3166 -341.859 82.8116C-314.963 76.2297 -284.479 78.1997 -258.218 88.2167C-234.285 97.3493 -212.082 111.018 -190.609 124.239C-166.444 139.113 -141.462 154.497 -114.005 163.39C-66.5404 178.763 -26.5853 177.567 1.53964 159.929C27.1764 143.854 43.0767 114.686 48.81 73.2326C50.8665 58.3501 51.0843 39.8242 51.3148 20.2151C51.633 -6.76551 51.9932 -37.3471 57.3953 -64.1464C63.5997 -94.9189 75.5219 -116.107 93.8453 -128.928C107.08 -138.185 119.59 -143.575 132.085 -145.405C143.364 -147.054 154.373 -145.748 165.739 -141.407C186.788 -133.374 206.301 -115.687 226.092 -96.728C237.319 -85.9724 248.137 -74.9641 258.59 -64.3149C292.397 -29.8999 324.328 2.60667 368.429 26.1175C416.404 51.6934 466.189 57.499 512.399 42.9078C560.19 27.8207 600.384 -8.22981 628.632 -61.347L629.14 -61.0782C600.82 -7.82492 560.51 28.3223 512.574 43.4526C489.689 50.675 465.66 52.9043 441.147 50.0619C416.553 47.2128 392.001 39.3242 368.162 26.62C323.982 3.06771 292.023 -29.4688 258.183 -63.9207C247.728 -74.5643 236.917 -85.5713 225.694 -96.3201C205.189 -115.959 186.515 -132.872 165.536 -140.878C142.198 -149.787 118.855 -145.727 94.1728 -128.459C75.9753 -115.727 64.1257 -94.6519 57.9571 -64.0356C52.5665 -37.2866 52.207 -6.73413 51.8897 20.2173C51.6609 39.8444 51.4393 58.387 49.3807 73.3043C43.6246 114.935 27.6341 144.24 1.84785 160.405C-12.5156 169.41 -29.8704 174.215 -49.7401 174.689C-69.0311 175.147 -90.707 171.527 -114.174 163.927C-141.697 155.013 -166.71 139.61 -190.906 124.717C-212.358 111.507 -234.541 97.8543 -258.42 88.74C-310.557 68.8412 -381.263 79.7955 -404.567 132.193C-428.698 186.433 -386.197 241.534 -358.719 269.553C-355.381 272.958 -351.909 276.44 -348.552 279.808C-315.252 313.232 -280.821 347.796 -279.407 395.486C-278.474 426.932 -293.478 457.725 -321.655 482.197C-347.615 504.744 -382.401 519.058 -414.702 520.494C-429.846 521.173 -444.133 519.516 -457.803 516.393Z" fill="#FBFBFB" fill-opacity="0.75"/>
<path d="M-483.445 505.39C-507.493 499.894 -529.636 489.862 -551.317 480.046C-579.641 467.215 -608.923 453.948 -641.81 451.165L-641.762 450.594C-608.778 453.388 -579.443 466.679 -551.08 479.525C-516.717 495.092 -481.188 511.184 -438.795 508.848C-373.05 505.22 -300.508 449.772 -301.823 380.999C-302.747 332.787 -336.97 298.107 -370.067 264.565C-373.413 261.175 -376.87 257.673 -380.196 254.248C-394.345 239.678 -413.476 216.648 -424.251 189.68C-435.042 162.68 -435.297 137.388 -425.026 114.508C-419.181 101.495 -410.332 90.4424 -398.722 81.665C-388.041 73.5909 -375.303 67.6132 -360.852 63.9055C-333.703 56.9352 -303.037 58.6183 -276.703 68.5227C-252.705 77.5527 -230.493 91.2118 -209.013 104.422C-184.84 119.287 -159.848 134.656 -132.299 143.405C-85.0995 158.395 -45.1167 156.923 -16.6724 139.147C9.7373 122.643 26.3018 92.6766 32.5658 50.0818C34.7934 34.9389 35.2036 16.1107 35.6428 -3.82064C36.2436 -31.2415 36.9283 -62.3185 42.6424 -89.6101C49.209 -120.94 61.4313 -142.593 80.0105 -155.814C93.4354 -165.362 106.082 -170.968 118.678 -172.956C130.049 -174.749 141.121 -173.54 152.521 -169.244C173.631 -161.297 193.084 -143.53 212.817 -124.472C224.008 -113.66 234.781 -102.586 245.197 -91.8749C278.869 -57.2559 310.68 -24.5594 354.83 -1.13145C454.524 51.7686 560.171 14.9588 617.712 -92.7393L618.214 -92.4718C589.144 -38.0689 548.188 -0.918578 499.769 14.9643C476.655 22.5454 452.439 25.0548 427.788 22.4276C403.058 19.7881 378.417 12.0318 354.557 -0.630248C310.323 -24.1009 278.485 -56.8329 244.779 -91.4832C234.367 -102.187 223.599 -113.255 212.413 -124.066C191.98 -143.812 173.352 -160.797 152.318 -168.715C128.916 -177.527 105.372 -173.15 80.3392 -155.351C61.8804 -142.221 49.7363 -120.678 43.1986 -89.5006C37.4916 -62.2661 36.812 -31.2115 36.212 -3.81971C35.7746 16.1296 35.3618 34.9691 33.1309 50.1523C26.8398 92.917 10.1852 123.022 -16.3698 139.621C-30.8914 148.702 -48.3343 153.61 -68.1999 154.219C-87.4979 154.811 -109.123 151.355 -132.468 143.936C-160.082 135.166 -185.11 119.777 -209.308 104.895C-230.769 91.7006 -252.954 78.0534 -276.903 69.0405C-329.185 49.3668 -400.483 61.2425 -424.5 114.728C-449.36 170.099 -407.155 225.648 -379.779 253.832C-376.457 257.257 -372.996 260.76 -369.654 264.148C-336.481 297.766 -302.178 332.53 -301.248 380.972C-300.633 412.915 -316.062 444.363 -344.684 469.519C-371.058 492.7 -406.221 507.608 -438.758 509.408C-454.504 510.283 -469.307 508.621 -483.445 505.39Z" fill="#FBFBFB" fill-opacity="0.75"/>
<path d="M-509.063 494.404C-532.709 489.001 -554.481 479.223 -575.811 469.646C-604.191 456.902 -633.535 443.727 -666.606 441.236L-666.564 440.664C-633.39 443.167 -603.998 456.365 -575.575 469.125C-541.146 484.584 -505.54 500.57 -462.845 497.763C-396.628 493.403 -323.034 436.335 -323.657 366.481C-324.091 317.512 -358.186 282.638 -391.158 248.907C-394.489 245.498 -397.934 241.975 -401.245 238.529C-415.338 223.872 -434.36 200.674 -444.934 173.394C-455.518 146.077 -455.519 120.391 -444.947 97.0452C-438.93 83.7663 -429.911 72.4535 -418.134 63.4144C-407.3 55.1054 -394.417 48.9026 -379.836 44.9839C-352.439 37.624 -321.578 39.0226 -295.179 48.8188C-271.111 57.7474 -248.891 71.3967 -227.408 84.5958C-203.232 99.4494 -178.226 114.804 -150.585 123.41C-103.64 138.024 -63.6367 136.281 -34.8912 118.369C-7.70595 101.426 9.52254 70.6598 16.3311 26.9155C18.731 11.5067 19.3379 -7.61712 19.9802 -27.8719C20.8636 -55.7331 21.8673 -87.3066 27.9034 -115.082C34.8321 -146.969 47.3559 -169.094 66.1894 -182.708C79.7974 -192.544 92.583 -198.37 105.285 -200.516C116.749 -202.458 127.882 -201.335 139.318 -197.095C160.49 -189.239 179.889 -171.391 199.558 -152.231C210.712 -141.363 221.441 -130.222 231.819 -119.449C265.364 -84.6303 297.042 -51.741 341.252 -28.3934C441.063 24.328 547.789 -14.149 606.811 -124.139L607.313 -123.871C577.497 -68.3122 535.89 -30.16 486.996 -13.5344C463.652 -5.59458 439.248 -2.79952 414.462 -5.21711C389.594 -7.6414 364.871 -15.2696 340.979 -27.8922C296.691 -51.2812 264.978 -84.2018 231.4 -119.057C221.027 -129.823 210.299 -140.964 199.148 -151.825C178.78 -171.674 160.204 -188.735 139.115 -196.566C115.649 -205.275 91.9047 -200.592 66.525 -182.25C47.8106 -168.72 35.3608 -146.713 28.464 -114.966C22.4393 -87.2405 21.435 -55.6906 20.5524 -27.8585C19.9076 -7.59259 19.3012 11.5549 16.8992 26.9984C10.0692 70.9139 -7.25514 101.817 -34.5843 118.85C-49.2615 127.995 -66.7771 133.016 -86.6496 133.758C-105.955 134.484 -127.523 131.187 -150.751 123.953C-178.462 115.325 -203.493 99.9475 -227.701 85.0808C-249.164 71.8979 -271.363 58.2594 -295.372 49.356C-347.805 29.9061 -419.694 42.6976 -444.419 97.2774C-470.012 153.778 -428.092 209.779 -400.83 238.125C-397.518 241.565 -394.073 245.094 -390.742 248.497C-374.486 265.122 -357.684 282.312 -344.887 301.487C-330.402 323.191 -323.271 344.447 -323.072 366.468C-322.783 398.906 -338.63 431.004 -367.698 456.851C-394.481 480.666 -430.033 496.173 -462.797 498.325C-479.155 499.407 -494.465 497.734 -509.063 494.404Z" fill="#FBFBFB" fill-opacity="0.75"/>
<path d="M-534.659 483.43C-557.909 478.117 -579.321 468.586 -600.306 459.246C-628.741 446.589 -658.141 433.507 -691.407 431.3L-691.364 430.729C-658 432.94 -628.552 446.046 -600.068 458.719C-565.568 474.071 -529.896 489.949 -486.894 486.672C-420.201 481.587 -345.554 422.893 -345.483 351.959C-345.434 302.237 -379.402 267.163 -412.247 233.238C-415.567 229.808 -418.996 226.265 -422.298 222.804C-436.337 208.066 -455.25 184.698 -465.616 157.096C-475.993 129.468 -475.739 103.383 -464.868 79.5768C-453.047 53.6926 -429.588 34.689 -398.828 26.0723C-371.178 18.324 -340.134 19.4357 -313.656 29.1206C-289.524 37.9465 -267.296 51.5859 -245.798 64.7708C-221.613 79.6089 -196.604 94.9523 -168.866 103.416C-122.177 117.661 -82.1484 115.654 -53.1127 97.6016C-25.1588 80.224 -7.25248 48.65 0.10185 3.75055C2.66719 -11.9199 3.47334 -31.3505 4.32298 -51.9218C5.49331 -80.2165 6.81729 -112.292 13.1711 -140.559C20.4633 -173.009 33.286 -195.593 52.3795 -209.6C66.1704 -219.723 79.0988 -225.763 91.903 -228.074C103.464 -230.158 114.654 -229.133 126.119 -224.94C147.346 -217.171 166.697 -199.24 186.297 -179.984C197.415 -169.059 208.106 -157.857 218.439 -147.018C251.85 -111.995 283.408 -78.9157 327.665 -55.6454C427.582 -3.10532 535.382 -43.2508 595.896 -155.53L596.397 -155.257C565.835 -98.5412 523.582 -59.386 474.2 -42.0146C450.624 -33.7229 426.035 -30.6353 401.119 -32.842C376.115 -35.0567 351.305 -42.5582 327.384 -55.1343C283.043 -78.4474 251.45 -111.558 218.007 -146.617C207.678 -157.45 196.992 -168.645 185.879 -179.568C165.581 -199.519 147.054 -216.663 125.901 -224.397C102.37 -233.003 78.4213 -228.014 52.6958 -209.135C33.7201 -195.207 20.9701 -172.734 13.7098 -140.424C7.36745 -112.208 6.04426 -80.1611 4.87903 -51.8887C4.02557 -31.3006 3.22242 -11.8575 0.653734 3.8532C-6.72769 48.9226 -24.7174 80.6302 -52.8208 98.0968C-67.6437 107.314 -85.2393 112.429 -105.109 113.313C-124.42 114.166 -145.936 111.028 -169.046 103.974C-196.85 95.4891 -221.89 80.1269 -246.105 65.27C-267.577 52.097 -289.78 38.4752 -313.857 29.6676C-366.436 10.4428 -438.921 24.149 -464.35 79.8302C-490.678 137.466 -449.047 193.907 -421.887 222.423C-418.592 225.882 -415.157 229.426 -411.843 232.855C-395.65 249.577 -378.906 266.866 -366.224 286.208C-351.866 308.106 -344.897 329.613 -344.917 351.971C-344.951 384.905 -361.218 417.652 -390.729 444.184C-404.082 456.192 -419.857 466.466 -436.346 473.882C-452.995 481.379 -470.461 486.001 -486.862 487.249C-503.806 488.537 -519.617 486.867 -534.659 483.43Z" fill="#FBFBFB" fill-opacity="0.75"/>
</g>
<g clip-path="url(#clip1_202_4)">
<path d="M283.732 1247.59C256.53 1250.22 229.553 1246.86 203.205 1243.57C172.433 1239.74 140.613 1235.77 109.046 1241.48L108.945 1240.92C140.598 1235.19 172.464 1239.16 203.276 1243C240.607 1247.66 279.213 1252.48 317.868 1240.13C353.415 1228.78 384.591 1201.7 399.237 1169.47C410.117 1145.51 410.849 1121.26 401.351 1099.33C383.913 1059.08 340.139 1038.34 297.805 1018.28C293.527 1016.26 289.104 1014.16 284.834 1012.1C266.655 1003.34 240.939 988.688 221.64 968.686C202.309 948.653 193.367 927.471 195.066 905.727C196.032 893.357 200.473 881.899 208.265 871.675C215.43 862.277 225.24 854.135 237.407 847.479C260.275 834.981 289.39 828.883 317.298 830.756C342.735 832.46 368.1 838.489 392.631 844.323C420.239 850.883 448.783 857.674 477.436 858.274C529.275 859.363 567.072 847.072 586.743 822.739C602.998 802.635 607.039 774.667 598.752 739.622C595.619 726.366 589.527 710.458 583.086 693.618C574.216 670.446 564.161 644.185 560.103 619.87C555.436 591.938 559.373 570.748 572.13 555.082C581.342 543.778 591.189 535.966 602.23 531.213C612.194 526.92 622.91 525.229 634.995 526.044C657.364 527.545 681.576 537.699 706.484 548.872C720.616 555.211 734.45 561.872 747.827 568.313C791.068 589.134 831.914 608.8 881.066 617.664C937.094 627.767 989.151 618.266 1027.65 590.912C1063.35 565.54 1086.37 525.951 1094.2 476.434L1094.76 476.523C1086.91 526.192 1063.82 565.909 1027.98 591.374C1008.69 605.085 986.209 614.359 961.168 618.948C936.076 623.541 909.096 623.298 880.965 618.226C831.738 609.352 790.86 589.665 747.577 568.825C734.207 562.384 720.378 555.729 706.253 549.395C681.393 538.245 657.235 528.115 634.958 526.617C609.805 524.926 589.979 534.088 572.574 555.453C559.925 570.982 556.031 592.025 560.669 619.78C564.722 644.039 574.762 670.272 583.625 693.422C590.078 710.278 596.172 726.203 599.315 739.499C607.643 774.729 603.566 802.856 587.192 823.11C571.523 842.496 544.452 854.278 508.027 857.8C498.462 858.725 488.249 859.08 477.429 858.855C448.718 858.25 420.139 851.462 392.508 844.893C368.001 839.068 342.659 833.043 317.268 831.34C289.47 829.473 260.461 835.544 237.688 847.998C212.401 861.822 197.469 882.345 195.641 905.792C193.96 927.362 202.848 948.394 222.058 968.306C241.299 988.245 266.954 1002.86 285.085 1011.61C289.355 1013.67 293.778 1015.76 298.056 1017.79C340.486 1037.89 384.356 1058.68 401.883 1099.12C411.448 1121.21 410.72 1145.62 399.768 1169.73C385.061 1202.1 353.747 1229.3 318.049 1240.7C306.584 1244.33 295.137 1246.49 283.732 1247.59Z" fill="#FBFBFB" fill-opacity="0.75"/>
<path d="M255.768 1245.2C229.027 1247.79 202.548 1244.57 176.68 1241.44C145.883 1237.7 114.039 1233.83 82.3835 1239.89L82.2772 1239.32C114.018 1233.26 145.908 1237.12 176.745 1240.87C214.111 1245.4 252.745 1250.09 291.537 1237.2C326.997 1225.42 358.309 1197.68 373.265 1164.79C384.528 1140.03 385.484 1115.01 376.04 1092.44C358.828 1051.32 315.113 1030.35 272.833 1010.08C268.564 1008.03 264.144 1005.91 259.877 1003.83C241.724 994.96 216.058 980.116 196.856 959.748C177.622 939.349 168.797 917.714 170.634 895.439C171.68 882.762 176.195 871.004 184.068 860.485C191.303 850.809 201.175 842.414 213.412 835.521C236.391 822.576 265.601 816.147 293.543 817.89C319.008 819.476 344.378 825.493 368.913 831.315C396.52 837.863 425.074 844.637 453.763 845.071C505.199 845.855 542.949 833.258 562.932 808.653C579.787 787.905 584.186 759.005 576.019 722.764C572.966 709.201 566.967 692.951 560.617 675.74C551.876 652.06 541.973 625.228 538.061 600.346C533.562 571.772 537.637 550.045 550.511 533.925C559.811 522.284 569.721 514.225 580.807 509.289C590.813 504.831 601.558 503.034 613.654 503.785C636.054 505.184 660.24 515.427 685.12 526.718C699.235 533.122 713.047 539.854 726.402 546.372C769.586 567.428 810.373 587.313 859.55 596.083C914.772 605.93 966.395 596.282 1004.93 568.918C1041.78 542.74 1065.63 501.649 1073.91 450.075L1074.48 450.164C1066.18 501.89 1042.24 543.115 1005.26 569.38C985.936 583.105 963.561 592.421 938.75 597.068C913.883 601.732 887.2 601.586 859.455 596.638C810.201 587.853 769.377 567.948 726.158 546.878C712.804 540.366 698.997 533.634 684.888 527.235C659.107 515.542 635.953 505.746 613.623 504.351C588.441 502.778 568.528 512.288 550.96 534.278C538.193 550.261 534.156 571.846 538.628 600.256C542.534 625.081 552.428 651.886 561.156 675.544C567.513 692.772 573.519 709.039 576.582 722.64C584.79 759.062 580.349 788.126 563.382 809.018C553.172 821.591 538.432 831.084 519.569 837.237C501.285 843.203 479.145 846.033 453.756 845.647C424.998 845.213 396.42 838.431 368.778 831.874C344.266 826.062 318.919 820.048 293.506 818.463C265.674 816.726 236.583 823.127 213.696 836.023C188.28 850.343 173.186 871.461 171.214 895.492C169.395 917.599 178.166 939.09 197.284 959.362C216.428 979.666 242.033 994.47 260.144 1003.32C264.405 1005.4 268.824 1007.51 273.094 1009.56C315.464 1029.89 359.282 1050.9 376.577 1092.22C386.087 1114.94 385.123 1140.11 373.794 1165.03C358.777 1198.05 327.326 1225.92 291.721 1237.74C279.71 1241.74 267.715 1244.05 255.768 1245.2Z" fill="#FBFBFB" fill-opacity="0.75"/>
<path d="M227.845 1242.82C201.56 1245.36 175.566 1242.29 150.16 1239.3C119.339 1235.66 87.4648 1231.9 55.7265 1238.28L55.615 1237.72C87.4434 1231.32 119.364 1235.09 150.226 1238.73C187.62 1243.14 226.288 1247.7 265.217 1234.27C300.591 1222.07 332.046 1193.66 347.302 1160.14C358.946 1134.56 360.133 1108.77 350.747 1085.56C333.761 1043.57 290.105 1022.37 247.884 1001.88C243.619 999.808 239.208 997.664 234.945 995.558C216.816 986.592 191.201 971.554 172.09 950.827C152.954 930.067 144.251 907.972 146.22 885.16C147.34 872.183 151.941 860.118 159.883 849.304C167.19 839.358 177.129 830.703 189.424 823.575C212.52 810.181 241.813 803.421 269.788 805.035C295.282 806.503 320.657 812.509 345.196 818.313C372.808 824.849 401.36 831.605 430.097 831.875C481.135 832.357 518.834 819.466 539.125 794.596C556.579 773.203 561.347 743.365 553.305 705.916C550.326 692.053 544.419 675.448 538.161 657.877C529.555 633.696 519.798 606.286 516.027 580.838C511.695 551.616 515.908 529.352 528.9 512.778C538.282 500.808 548.255 492.501 559.392 487.376C569.444 482.753 580.214 480.843 592.328 481.541C614.752 482.834 638.918 493.177 663.769 504.58C677.867 511.049 691.658 517.858 704.997 524.446C748.116 545.733 788.851 565.841 838.048 574.517C892.48 584.113 943.676 574.333 982.213 546.975C1020.21 520.002 1044.91 477.387 1053.65 423.739L1054.21 423.833C1045.45 477.633 1020.67 520.377 982.546 547.443C963.208 561.175 940.939 570.521 916.353 575.238C891.705 579.967 865.324 579.913 837.947 575.085C788.668 566.394 747.904 546.271 704.742 524.959C691.409 518.376 677.618 511.568 663.526 505.104C638.724 493.725 614.617 483.405 592.292 482.119C567.075 480.664 547.074 490.522 529.343 513.138C516.454 529.581 512.279 551.703 516.583 580.762C520.343 606.153 530.092 633.535 538.689 657.694C544.95 675.288 550.864 691.909 553.852 705.805C561.935 743.434 557.124 773.438 539.558 794.968C529.194 807.671 514.393 817.308 495.573 823.607C477.321 829.718 455.286 832.694 430.084 832.457C401.284 832.188 372.702 825.423 345.056 818.878C320.54 813.078 295.195 807.081 269.747 805.614C241.882 804.007 212.707 810.738 189.702 824.077C164.155 838.892 148.906 860.607 146.784 885.221C142.014 940.383 200.128 977.717 235.19 995.057C239.447 997.164 243.857 999.302 248.123 1001.37C290.44 1021.92 334.194 1043.16 351.262 1085.35C360.714 1108.71 359.519 1134.65 347.809 1160.38C332.485 1194.04 300.904 1222.57 265.391 1234.82C252.843 1239.15 240.304 1241.61 227.845 1242.82Z" fill="#FBFBFB" fill-opacity="0.75"/>
<path d="M199.946 1240.44C174.106 1242.94 148.586 1240.02 123.63 1237.16C92.7834 1233.62 60.885 1229.96 29.0585 1236.69L28.9413 1236.13C60.8579 1229.39 92.8029 1233.05 123.696 1236.59C161.119 1240.89 199.82 1245.32 238.892 1231.35C274.185 1218.73 305.772 1189.66 321.329 1155.49C333.353 1129.09 334.775 1102.52 325.448 1078.68C308.684 1035.82 265.091 1014.4 222.929 993.678C218.667 991.583 214.266 989.421 210.012 987.29C191.914 978.224 166.343 962.992 147.33 941.899C128.284 920.774 119.704 898.224 121.811 874.876C123.011 861.592 127.686 849.226 135.709 838.117C143.088 827.899 153.093 818.985 165.445 811.615C188.66 797.773 218.036 790.684 246.044 792.168C271.573 793.518 296.952 799.511 321.49 805.304C349.106 811.823 377.663 818.567 406.441 818.671C457.088 818.857 494.736 805.673 515.319 780.55C533.371 758.513 538.508 727.725 530.595 689.055C527.696 674.892 521.877 657.939 515.714 639.997C507.238 615.309 497.633 587.326 494.009 561.318C489.845 531.452 494.196 508.652 507.303 491.618C516.769 479.318 526.809 470.757 537.997 465.449C548.091 460.655 558.89 458.639 571.022 459.284C593.477 460.476 617.618 470.908 642.439 482.429C656.52 488.962 670.296 495.848 683.613 502.507C726.675 524.029 767.344 544.357 816.566 552.938C870.227 562.292 921.003 552.387 959.535 525.034C998.654 497.269 1024.2 453.128 1033.41 397.382L1033.97 397.477C1024.74 453.375 999.116 497.649 959.868 525.502C940.524 539.235 918.362 548.617 894.006 553.387C869.576 558.175 843.492 558.213 816.471 553.5C767.167 544.903 726.455 524.556 683.357 503.014C670.041 496.361 656.271 489.475 642.196 482.947C616.478 471.018 593.37 461.044 570.991 459.856C545.746 458.519 525.652 468.724 507.763 491.971C494.752 508.874 490.439 531.533 494.582 561.24C498.201 587.191 507.792 615.152 516.26 639.812C522.425 657.777 528.251 674.74 531.159 688.943C539.112 727.793 533.933 758.734 515.768 780.915C505.256 793.748 490.405 803.521 471.622 809.966C453.4 816.218 431.472 819.339 406.45 819.245C377.609 819.141 349.017 812.389 321.372 805.862C296.857 800.072 271.502 794.088 246.025 792.739C218.126 791.262 188.868 798.322 165.745 812.104C140.062 827.415 124.664 849.725 122.385 874.924C117.276 931.395 175.256 969.237 210.273 986.771C214.527 988.901 218.928 991.063 223.19 993.158C265.448 1013.92 309.143 1035.4 325.991 1078.46C335.378 1102.45 333.947 1129.17 321.862 1155.72C306.244 1190.02 274.53 1219.2 239.098 1231.88C225.982 1236.57 212.924 1239.19 199.946 1240.44Z" fill="#FBFBFB" fill-opacity="0.75"/>
<path d="M172.088 1238.08C146.686 1240.53 121.622 1237.74 97.1041 1235.01C66.233 1231.57 34.3098 1228.02 2.39555 1235.08L2.27265 1234.53C34.2775 1227.45 66.2468 1231 97.1703 1234.45C134.627 1238.62 173.357 1242.93 212.572 1228.41C247.785 1215.38 279.504 1185.67 295.356 1150.86C307.759 1123.62 309.417 1096.28 300.149 1071.78C283.611 1028.06 240.07 1006.41 197.968 985.47C193.716 983.357 189.312 981.167 185.067 979.012C166.995 969.852 141.474 954.425 122.551 932.961C103.602 911.47 95.1395 888.466 97.385 864.587C98.6649 851.002 103.42 838.33 111.518 826.926C118.962 816.437 129.035 807.264 141.45 799.658C164.776 785.368 194.241 777.948 222.283 779.302C247.84 780.534 273.225 786.515 297.767 792.296C325.387 798.803 353.948 805.529 382.768 805.469C433.036 805.364 470.628 791.897 491.486 766.524C510.136 743.836 515.647 712.098 507.868 672.197C505.043 657.727 499.317 640.432 493.251 622.118C484.904 596.923 475.45 568.362 471.973 541.794C467.982 511.284 472.465 487.948 485.696 470.46C495.251 457.829 505.352 449.015 516.586 443.524C526.721 438.565 537.551 436.443 549.694 437.028C572.178 438.115 596.295 448.646 621.086 460.274C635.151 466.872 648.905 473.834 662.206 480.564C705.204 502.323 745.82 522.868 795.067 531.355C848.748 540.61 897.772 530.844 936.843 503.118C977.076 474.566 1003.46 428.89 1013.14 371.022L1013.71 371.117C1004 429.137 977.538 474.941 937.175 503.58C917.831 517.307 895.786 526.718 871.648 531.542C847.436 536.384 821.636 536.509 794.971 531.911C745.642 523.409 704.989 502.838 661.95 481.066C648.655 474.336 634.901 467.38 620.842 460.786C595.159 448.739 572.077 438.677 549.668 437.589C524.739 436.382 503.962 447.246 486.154 470.795C473.026 488.158 468.57 511.354 472.545 541.71C476.018 568.227 485.463 596.76 493.802 621.927C499.875 640.257 505.608 657.569 508.437 672.079C516.256 712.154 510.703 744.052 491.934 766.883C481.284 779.838 466.378 789.749 447.631 796.329C429.44 802.716 407.617 805.982 382.776 806.031C353.888 806.093 325.297 799.358 297.647 792.843C273.128 787.065 247.774 781.093 222.269 779.867C194.337 778.519 164.99 785.911 141.761 800.139C115.947 815.947 100.4 838.851 97.9703 864.634C92.5272 922.408 150.373 960.769 185.34 978.497C189.584 980.651 193.982 982.837 198.234 984.95C240.434 1005.94 284.076 1027.64 300.692 1071.58C310.015 1096.22 308.349 1123.71 295.884 1151.09C279.976 1186.02 248.13 1215.86 212.778 1228.94C199.133 1234 185.561 1236.78 172.088 1238.08Z" fill="#FBFBFB" fill-opacity="0.75"/>
<path d="M144.254 1235.72C119.279 1238.14 94.6652 1235.48 70.5793 1232.87C39.6833 1229.53 7.73018 1226.09 -24.2672 1233.48L-24.3958 1232.92C7.69734 1225.51 39.6972 1228.96 70.6392 1232.3C108.124 1236.35 146.888 1240.54 186.241 1225.48C247.258 1202.14 298.117 1128.5 274.844 1064.9C258.527 1020.31 215.051 998.43 173.008 977.269C168.759 975.132 164.365 972.918 160.123 970.74C142.075 961.48 116.604 945.858 97.7733 924.034C78.9223 902.184 70.576 878.719 72.9651 854.304C74.3246 840.412 79.1596 827.438 87.3266 815.741C94.8424 804.98 104.982 795.547 117.455 787.706C140.9 772.973 170.448 765.223 198.528 766.441C224.12 767.555 249.503 773.519 274.05 779.288C301.674 785.777 330.234 792.492 359.095 792.267C408.985 791.877 446.521 778.133 467.643 752.522C486.898 729.178 492.782 696.483 485.141 655.338C482.396 640.567 476.757 622.919 470.788 604.239C462.576 578.537 453.268 549.404 449.937 522.269C446.114 491.111 450.741 467.244 464.082 449.296C473.72 436.335 483.89 427.273 495.169 421.594C505.351 416.469 516.21 414.235 528.365 414.768C550.874 415.748 574.971 426.374 599.733 438.119C613.781 444.782 627.519 451.815 640.799 458.621C683.739 480.61 724.295 501.38 773.563 509.773C827.156 518.903 876.23 508.702 915.475 480.274C956.063 450.877 982.828 403.986 992.871 344.668L993.438 344.763C983.369 404.232 956.525 451.253 915.813 480.736C896.376 494.811 874.278 504.509 850.121 509.547C825.884 514.604 800.097 514.866 773.467 510.334C724.112 501.926 683.519 481.137 640.537 459.124C627.258 452.323 613.525 445.29 599.484 438.632C573.83 426.467 550.773 416.31 528.34 415.334C503.382 414.245 482.513 425.462 464.541 449.637C451.291 467.461 446.697 491.198 450.505 522.197C453.831 549.28 463.131 578.385 471.334 604.06C477.31 622.756 482.951 640.422 485.705 655.226C493.38 696.546 487.454 729.4 468.086 752.876C457.298 765.954 442.346 775.99 423.641 782.709C405.481 789.231 383.77 792.636 359.103 792.829C330.173 793.056 301.578 786.333 273.919 779.836C249.395 774.07 224.036 768.115 198.502 767.002C142.75 764.572 79.113 797.278 73.5333 854.352C67.751 913.436 125.468 952.309 160.384 970.226C164.625 972.404 169.019 974.613 173.268 976.749C215.414 997.958 258.992 1019.89 275.382 1064.7C286.191 1094.24 281.671 1128.2 262.655 1160.31C245.137 1189.9 216.645 1214.46 186.447 1226.01C172.291 1231.43 158.212 1234.37 144.254 1235.72Z" fill="#FBFBFB" fill-opacity="0.75"/>
<path d="M116.45 1233.37C91.8964 1235.75 67.7196 1233.21 44.049 1230.74C13.1225 1227.5 -18.8497 1224.15 -50.9348 1231.89L-51.069 1231.33C-18.8883 1223.58 13.1421 1226.93 44.109 1230.17C81.6285 1234.1 120.42 1238.16 159.91 1222.56C221.151 1198.37 272.49 1122.87 249.54 1058.02C233.45 1012.57 190.032 990.458 148.042 969.074C143.797 966.914 139.412 964.681 135.174 962.48C117.151 953.119 91.7304 937.303 72.9961 915.113C54.2363 892.898 46.0128 868.979 48.5397 844.026C49.9794 829.834 54.8883 816.554 63.136 804.561C70.7233 793.529 80.9242 783.837 93.4662 775.759C117.029 760.578 146.66 752.498 174.774 753.586C200.395 754.582 225.782 760.535 250.333 766.292C277.962 772.769 306.526 779.466 335.428 779.076C384.947 778.405 422.422 764.392 443.804 738.548C463.656 714.554 469.918 680.891 462.421 638.496C459.757 623.424 454.205 605.428 448.332 586.377C440.249 560.167 431.092 530.462 427.903 502.762C424.247 470.961 429.012 446.557 442.47 428.149C452.196 414.852 462.428 405.542 473.753 399.681C483.977 394.391 494.865 392.045 507.038 392.524C529.577 393.404 553.643 404.124 578.382 415.981C592.413 422.709 606.13 429.818 619.393 436.696C662.27 458.92 702.773 479.908 752.06 488.207C863.353 506.945 951.986 438.679 972.602 318.326L973.164 318.421C962.746 379.218 935.605 427.394 894.672 457.744C875.131 472.232 852.944 482.255 828.724 487.54C804.425 492.839 778.595 493.255 751.959 488.769C702.578 480.456 662.038 459.443 619.12 437.199C605.863 430.327 592.152 423.223 578.127 416.495C552.506 404.205 529.471 393.966 507.012 393.09C482.026 392.113 461.065 403.696 442.928 428.484C429.556 446.769 424.83 471.042 428.465 502.69C431.643 530.334 440.798 560.017 448.872 586.198C454.752 605.266 460.306 623.273 462.98 638.385C470.505 680.95 464.201 714.772 444.241 738.902C433.327 752.102 418.324 762.264 399.665 769.11C381.54 775.762 359.929 779.306 335.436 779.633C306.465 780.024 277.86 773.319 250.202 766.833C225.674 761.086 200.316 755.136 174.747 754.141C118.928 751.97 55.0199 785.738 49.1073 844.069C42.991 904.456 100.569 943.849 135.44 961.954C139.672 964.156 144.062 966.388 148.302 968.548C190.389 989.981 233.909 1012.14 250.078 1057.82C260.741 1087.93 256.023 1122.64 236.802 1155.55C219.09 1185.87 190.429 1211.11 160.122 1223.08C145.456 1228.88 130.886 1231.98 116.45 1233.37Z" fill="#FBFBFB" fill-opacity="0.75"/>
<path d="M88.675 1231.03C64.5318 1233.37 40.7868 1230.96 17.5241 1228.6C-13.4271 1225.46 -45.4294 1222.22 -77.5969 1230.29L-77.7369 1229.74C-45.4679 1221.64 -13.4133 1224.89 17.5841 1228.03C55.132 1231.84 93.9631 1235.77 133.591 1219.63C195.049 1194.6 246.874 1117.23 224.241 1051.14C208.377 1004.81 165.018 982.475 123.087 960.871C118.851 958.688 114.47 956.432 110.241 954.207C92.2431 944.746 66.8726 928.735 48.23 906.186C29.5671 883.604 21.4606 859.231 24.1255 833.742C25.6447 819.243 30.6338 805.662 38.956 793.369C46.6148 782.065 56.8826 772.114 69.4818 763.795C93.1562 748.166 122.882 739.754 151.024 740.72C176.679 741.597 202.071 747.538 226.622 753.283C254.249 759.749 282.823 766.428 311.767 765.872C360.925 764.926 398.335 750.649 419.959 724.58C440.409 699.925 447.049 665.294 439.706 621.637C437.121 606.258 431.662 587.92 425.88 568.497C417.926 541.78 408.916 511.503 405.879 483.242C402.391 450.798 407.294 425.852 420.869 406.99C430.678 393.363 440.972 383.8 452.347 377.755C462.612 372.295 473.531 369.848 485.721 370.262C508.29 371.035 532.33 381.85 557.04 393.825C571.055 400.618 584.75 407.804 597.997 414.752C640.816 437.206 681.254 458.419 730.572 466.623C841.92 485.155 931.052 414.966 952.35 291.971L952.911 292.066C942.151 354.195 914.708 403.527 873.559 434.732C853.913 449.633 831.638 459.986 807.355 465.513C782.993 471.06 757.126 471.623 730.471 467.185C681.065 458.966 640.585 437.735 597.724 415.255C584.483 408.313 570.788 401.127 556.78 394.339C531.188 381.932 508.178 371.604 485.695 370.828C460.68 369.969 439.627 381.906 421.332 407.319C407.843 426.063 402.974 450.874 406.447 483.176C409.479 511.386 418.482 541.641 426.427 568.329C432.21 587.763 437.677 606.124 440.271 621.536C447.648 665.363 440.96 700.154 420.402 724.94C409.361 738.25 394.325 748.541 375.702 755.517C357.612 762.297 336.106 765.975 311.782 766.44C282.763 766.997 254.159 760.304 226.497 753.836C201.97 748.099 176.602 742.163 151.01 741.29C95.1185 739.38 30.9389 774.203 24.6999 833.796C18.2439 895.486 75.6933 935.398 110.508 953.693C114.736 955.912 119.118 958.173 123.353 960.351C144.025 970.997 165.393 982.007 183.586 996.164C204.18 1012.19 217.654 1030.11 224.791 1050.94C235.302 1081.63 230.393 1117.09 210.967 1150.79C193.067 1181.84 164.225 1207.77 133.814 1220.15C118.634 1226.34 103.577 1229.58 88.675 1231.03Z" fill="#FBFBFB" fill-opacity="0.75"/>
<path d="M60.9234 1228.69C37.1846 1230.99 13.8596 1228.7 -9.00083 1226.46C-39.9769 1223.42 -72.0034 1220.29 -104.265 1228.69L-104.405 1228.14C-72.0482 1219.71 -39.9693 1222.85 -8.94142 1225.89C28.6405 1229.57 67.4999 1233.38 107.271 1216.7C168.952 1190.83 221.264 1111.58 198.947 1044.25C183.304 997.048 140.003 974.485 98.1313 952.658C93.8986 950.451 89.5267 948.171 85.3021 945.929C67.3292 936.373 42.0089 920.168 23.4627 897.247C4.89719 874.305 -3.09271 849.472 -0.289462 823.452C2.75988 795.16 19.0231 769.725 45.4926 751.842C69.2846 735.765 99.0933 727.024 127.275 727.858C152.959 728.618 178.355 734.547 202.916 740.274C230.547 746.722 259.12 753.39 288.111 752.669C336.91 751.453 374.26 736.917 396.116 710.624C417.158 685.314 424.186 649.702 416.996 604.776C414.485 589.097 409.119 570.405 403.434 550.616C395.616 523.398 386.75 492.544 383.86 463.716C380.54 430.623 385.58 405.146 399.278 385.83C409.171 371.872 419.532 362.061 430.953 355.828C441.265 350.202 452.208 347.644 464.41 348.005C487.004 348.679 511.024 359.587 535.699 371.675C549.697 378.532 563.376 385.789 576.602 392.814C619.357 415.504 659.742 436.935 709.08 445.051C820.471 463.377 910.096 391.266 932.087 265.628L932.649 265.729C921.546 329.19 893.807 379.678 852.43 411.745C832.675 427.053 810.317 437.741 785.977 443.51C761.552 449.299 735.642 450.01 708.974 445.624C659.543 437.494 619.116 416.045 576.318 393.33C563.099 386.31 549.426 379.059 535.434 372.201C509.877 359.675 486.887 349.253 464.374 348.589C439.33 347.848 418.179 360.14 399.726 386.172C386.114 405.376 381.107 430.724 384.414 463.674C387.299 492.45 396.156 523.277 403.972 550.472C409.659 570.278 415.032 588.981 417.552 604.7C424.77 649.796 417.705 685.56 396.549 711.002C385.392 724.426 370.309 734.832 351.734 741.941C333.679 748.844 312.272 752.656 288.116 753.255C259.056 753.977 230.448 747.301 202.781 740.845C178.25 735.12 152.883 729.201 127.256 728.441C71.2977 726.79 6.84073 762.669 0.281495 823.53C-6.51372 886.529 50.8008 926.948 85.5708 945.437C89.7897 947.68 94.1674 949.959 98.3944 952.167C119.036 962.925 140.381 974.046 158.518 988.399C179.053 1004.65 192.452 1022.86 199.489 1044.08C209.848 1075.34 204.746 1111.55 185.115 1146.04C176.234 1161.64 164.507 1176.37 151.2 1188.61C137.768 1200.98 122.653 1210.88 107.484 1217.24C91.8116 1223.8 76.282 1227.21 60.9234 1228.69Z" fill="#FBFBFB" fill-opacity="0.75"/>
</g>
<defs>
<clipPath id="clip0_202_4">
<rect width="1265.92" height="915.017" fill="white" transform="translate(-500.155 -406) rotate(12.8722)"/>
</clipPath>
<clipPath id="clip1_202_4">
<rect width="1265.92" height="915.017" fill="white" transform="translate(-187 373.82) rotate(-5.52215)"/>
</clipPath>
</defs>
</svg>
