<svg width="1599" height="1709" viewBox="0 0 1599 1709" fill="none" xmlns="http://www.w3.org/2000/svg">
<path d="M1450.62 61.4843C1495.6 57.1138 1540.2 62.6572 1583.77 68.0642C1634.65 74.3861 1687.26 80.9199 1739.45 71.4461L1739.62 72.3807C1687.29 81.8775 1634.6 75.3322 1583.65 69.0073C1521.92 61.3436 1458.09 53.4092 1394.19 73.852C1335.42 92.6547 1283.9 137.441 1259.71 190.753C1241.74 230.368 1240.55 270.463 1256.27 306.718C1285.14 373.252 1357.53 407.508 1427.54 440.636C1434.62 443.98 1441.93 447.443 1448.99 450.845C1479.06 465.322 1521.59 489.522 1553.51 522.576C1585.49 555.683 1600.29 590.697 1597.5 626.65C1595.91 647.103 1588.58 666.051 1575.71 682.961C1563.87 698.506 1547.66 711.976 1527.54 722.991C1489.74 743.673 1441.61 753.78 1395.47 750.705C1353.41 747.909 1311.46 737.962 1270.9 728.336C1225.25 717.513 1178.05 706.308 1130.67 705.34C1044.96 703.582 982.479 723.935 949.977 764.183C923.117 797.436 916.459 843.681 930.189 901.617C935.38 923.531 945.466 949.828 956.129 977.667C970.814 1015.97 987.459 1059.38 994.189 1099.58C1001.93 1145.76 995.436 1180.8 974.356 1206.71C959.136 1225.41 942.86 1238.33 924.609 1246.2C908.139 1253.31 890.423 1256.11 870.441 1254.77C833.455 1252.31 793.415 1235.54 752.222 1217.09C728.852 1206.62 705.973 1195.62 683.851 1184.98C612.34 1150.59 544.789 1118.11 463.514 1103.49C370.87 1086.83 284.807 1102.59 221.179 1147.84C162.166 1189.82 124.147 1255.3 111.245 1337.18L110.308 1337.03C123.253 1254.9 161.394 1189.21 220.629 1147.08C252.519 1124.4 289.675 1109.04 331.073 1101.44C372.556 1093.82 417.165 1094.2 463.68 1102.56C545.08 1117.2 612.682 1149.71 684.263 1184.13C706.375 1194.77 729.245 1205.76 752.604 1216.22C793.717 1234.64 833.668 1251.37 870.501 1253.83C912.091 1256.6 944.863 1241.44 973.622 1206.1C994.524 1180.41 1000.94 1145.62 993.253 1099.73C986.532 1059.62 969.91 1016.26 955.238 977.991C944.554 950.126 934.465 923.801 929.258 901.822C915.46 843.579 922.178 797.071 949.233 763.57C975.124 731.505 1019.87 712.001 1080.1 706.148C1095.91 704.612 1112.79 704.016 1130.68 704.379C1178.16 705.356 1225.41 716.556 1271.1 727.394C1311.63 737.004 1353.53 746.946 1395.51 749.74C1441.48 752.804 1489.44 742.743 1527.08 722.133C1568.88 699.255 1593.55 665.311 1596.55 626.543C1599.31 590.878 1584.6 556.112 1552.82 523.204C1520.99 490.254 1478.56 466.112 1448.58 451.665C1441.52 448.263 1434.2 444.8 1427.13 441.456C1356.96 408.258 1284.41 373.922 1255.39 307.06C1239.56 270.549 1240.75 230.189 1258.83 190.325C1283.12 136.785 1334.87 91.7953 1393.89 72.9115C1412.84 66.8957 1431.77 63.3168 1450.62 61.4843Z" fill="#FBFBFB" fill-opacity="0.75"/>
<path d="M1496.86 65.4151C1541.07 61.1186 1584.85 66.4094 1627.63 71.5796C1678.55 77.7358 1731.2 84.0946 1783.53 74.0649L1783.71 74.9986C1731.24 85.0515 1678.51 78.6811 1627.52 72.5218C1565.73 65.0538 1501.85 57.3331 1437.73 78.6726C1379.11 98.1743 1327.36 144.076 1302.66 198.464C1284.06 239.414 1282.49 280.782 1298.13 318.091C1326.62 386.068 1398.92 420.695 1468.84 454.184C1475.9 457.567 1483.21 461.068 1490.26 464.509C1520.28 479.152 1562.73 503.673 1594.5 537.333C1626.32 571.045 1640.92 606.809 1637.91 643.64C1636.19 664.6 1628.73 684.045 1615.72 701.444C1603.77 717.447 1587.45 731.335 1567.23 742.742C1529.24 764.165 1480.95 774.819 1434.75 771.959C1392.65 769.358 1350.7 759.43 1310.13 749.824C1264.48 739.02 1217.26 727.845 1169.82 727.149C1084.78 725.897 1022.38 746.755 989.356 787.453C961.506 821.772 954.256 869.558 967.789 929.471C972.849 951.893 982.78 978.756 993.294 1007.21C1007.77 1046.35 1024.16 1090.71 1030.65 1131.84C1038.11 1179.09 1031.39 1215.01 1010.12 1241.67C994.752 1260.93 978.373 1274.26 960.047 1282.43C943.508 1289.81 925.743 1292.79 905.743 1291.56C868.706 1289.26 828.709 1272.35 787.564 1253.7C764.222 1243.12 741.378 1232 719.292 1221.24C647.876 1186.46 580.422 1153.62 499.106 1139.16C407.796 1122.92 322.451 1138.92 258.767 1184.19C197.858 1227.5 158.446 1295.46 144.799 1380.74L143.863 1380.59C157.552 1295.06 197.095 1226.88 258.217 1183.43C290.152 1160.72 327.14 1145.3 368.158 1137.59C409.269 1129.86 453.386 1130.08 499.264 1138.24C580.706 1152.72 648.22 1185.6 719.695 1220.4C741.781 1231.16 764.615 1242.28 787.947 1252.85C830.582 1272.16 868.873 1288.34 905.794 1290.62C947.432 1293.2 980.348 1277.46 1009.38 1241.09C1030.47 1214.65 1037.13 1178.96 1029.71 1131.99C1023.23 1090.95 1006.85 1046.64 992.403 1007.53C981.877 979.053 971.933 952.163 966.858 929.676C953.258 869.465 960.577 821.406 988.612 786.85C1005.48 766.052 1029.85 750.346 1061.03 740.156C1091.25 730.278 1127.86 725.58 1169.84 726.198C1217.39 726.891 1264.64 738.082 1310.35 748.899C1350.88 758.49 1392.79 768.412 1434.81 771.012C1480.83 773.861 1528.93 763.254 1566.76 741.913C1608.77 718.216 1633.71 683.286 1636.95 643.553C1639.94 607.001 1625.42 571.474 1593.79 537.972C1562.12 504.417 1519.77 479.962 1489.82 465.351C1482.78 461.909 1475.47 458.417 1468.41 455.034C1398.33 421.465 1325.87 386.759 1297.24 318.453C1281.5 280.897 1283.07 239.272 1301.78 198.074C1326.58 143.457 1378.56 97.3621 1437.42 77.7801C1457.28 71.1633 1477.11 67.3345 1496.86 65.4151Z" fill="#FBFBFB" fill-opacity="0.75"/>
<path d="M1543.03 69.3328C1586.49 65.1095 1629.47 70.1646 1671.47 75.0954C1722.44 81.0861 1775.14 87.2784 1827.61 76.6934L1827.8 77.6167C1775.18 88.2351 1722.4 82.0313 1671.37 76.0376C1609.54 68.7737 1545.6 61.2582 1481.25 83.4945C1422.77 103.695 1370.78 150.694 1345.59 206.139C1326.36 248.443 1324.42 291.083 1339.95 329.448C1368.07 398.859 1440.27 433.866 1510.09 467.716C1517.15 471.138 1524.44 474.679 1531.49 478.158C1561.47 492.966 1603.84 517.809 1635.45 552.064C1667.11 586.371 1681.52 622.897 1678.28 660.614C1676.44 682.071 1668.84 702.024 1655.72 719.909C1643.65 736.361 1627.22 750.679 1606.9 762.475C1568.72 784.639 1520.29 795.839 1474.04 793.194C1431.89 790.787 1389.93 780.879 1349.35 771.303C1303.69 760.518 1256.48 749.371 1208.97 748.949C1124.58 748.194 1062.26 769.539 1028.73 810.675C999.89 846.06 992.03 895.398 1005.36 957.309C1010.3 980.228 1020.07 1007.68 1030.44 1036.72C1044.68 1076.7 1060.84 1122.01 1067.1 1164.08C1074.28 1212.39 1067.33 1249.21 1045.87 1276.62C1030.36 1296.42 1013.88 1310.16 995.474 1318.65C978.857 1326.3 961.052 1329.46 941.023 1328.32C903.946 1326.2 863.981 1309.12 822.884 1290.29C799.57 1279.6 776.761 1268.36 754.701 1257.47C683.391 1222.31 616.025 1189.1 534.676 1174.8C444.671 1158.97 360.031 1175.19 296.337 1220.45C233.541 1265.08 192.739 1335.56 178.332 1424.27L177.394 1424.11C191.843 1335.15 232.777 1264.46 295.787 1219.68C327.749 1196.96 364.561 1181.49 405.206 1173.67C445.955 1165.83 489.573 1165.9 534.842 1173.86C616.326 1188.19 683.742 1221.42 755.123 1256.62C777.172 1267.5 799.981 1278.74 823.285 1289.42C864.301 1308.21 904.168 1325.26 941.082 1327.36C982.776 1329.75 1015.84 1313.43 1045.14 1276.03C1066.43 1248.83 1073.32 1212.25 1066.18 1164.21C1059.94 1122.23 1043.8 1076.96 1029.56 1037.03C1019.2 1007.94 1009.41 980.466 1004.45 957.492C991.059 895.283 998.988 845.672 1028.01 810.06C1045.14 789.048 1069.6 773.103 1100.72 762.673C1130.89 752.553 1167.32 747.616 1208.99 747.987C1256.6 748.408 1303.87 759.569 1349.58 770.367C1390.12 779.938 1432.03 789.832 1474.11 792.236C1520.18 794.871 1568.41 783.718 1606.44 761.645C1648.66 737.128 1673.86 701.213 1677.35 660.515C1685.19 569.307 1589.07 507.626 1531.09 478.986C1524.05 475.506 1516.75 471.974 1509.7 468.553C1439.72 434.623 1367.36 399.527 1339.1 329.787C1323.46 291.176 1325.41 248.278 1344.75 205.735C1370.06 150.062 1422.25 102.871 1480.96 82.5812C1501.7 75.4217 1522.43 71.3345 1543.03 69.3328Z" fill="#FBFBFB" fill-opacity="0.75"/>
<path d="M1589.16 73.2359C1631.88 69.0841 1674.08 73.9014 1715.34 78.6097C1766.35 84.4348 1819.09 90.4521 1871.7 79.3111L1871.9 80.2335C1819.13 91.408 1766.31 85.3792 1715.23 79.5427C1653.35 72.4736 1589.36 65.1725 1524.77 88.3064C1466.43 109.198 1414.23 157.283 1388.54 213.792C1368.68 257.461 1366.35 301.384 1381.79 340.804C1409.54 411.648 1481.63 447.036 1551.36 481.257C1558.41 484.717 1565.69 488.288 1572.72 491.807C1602.65 506.782 1644.94 531.946 1676.4 566.805C1707.91 601.717 1722.11 638.994 1718.65 677.599C1716.67 699.563 1708.95 720.013 1695.7 738.386C1683.51 755.287 1666.97 770.033 1646.55 782.229C1608.18 805.134 1559.62 816.88 1513.31 814.449C1471.1 812.238 1429.13 802.35 1388.56 792.792C1342.89 782.037 1295.67 770.91 1248.09 770.761C1164.35 770.494 1102.11 792.325 1068.1 833.879C1038.27 870.33 1029.81 921.239 1042.92 985.167C1047.73 1008.58 1057.36 1036.61 1067.56 1066.27C1081.6 1107.08 1097.5 1153.34 1103.52 1196.34C1110.43 1245.71 1103.25 1283.41 1081.59 1311.59C1065.95 1331.93 1049.36 1346.1 1030.86 1354.88C1014.18 1362.82 996.326 1366.16 976.267 1365.1C939.14 1363.15 899.217 1345.92 858.168 1326.89C834.881 1316.1 812.099 1304.73 790.075 1293.73C718.86 1258.18 651.602 1224.6 570.211 1210.46C481.48 1195.03 397.536 1211.45 333.851 1256.71C269.195 1302.65 227.002 1375.65 211.82 1467.83L210.883 1467.67C226.107 1375.24 268.43 1302.02 333.3 1255.94C365.272 1233.22 401.907 1217.69 442.173 1209.78C482.56 1201.84 525.688 1201.76 570.368 1209.53C651.894 1223.7 719.222 1257.31 790.498 1292.89C812.52 1303.88 835.293 1315.25 858.57 1326.04C901.101 1345.74 939.315 1362.21 976.318 1364.16C1018.06 1366.35 1051.27 1349.46 1080.83 1311.01C1102.33 1283.05 1109.44 1245.58 1102.57 1196.47C1096.56 1153.56 1080.68 1107.34 1066.66 1066.57C1056.45 1036.88 1046.81 1008.83 1041.99 985.353C1028.81 921.127 1037.34 869.964 1067.36 833.276C1084.73 812.05 1109.28 795.879 1140.33 785.208C1170.45 774.855 1206.7 769.678 1248.07 769.812C1295.76 769.96 1343.04 781.1 1388.75 791.87C1429.29 801.422 1471.22 811.295 1513.34 813.505C1559.47 815.925 1607.84 804.227 1646.06 781.421C1688.51 756.084 1713.95 719.185 1717.7 677.52C1726.1 584.147 1630.2 521.627 1572.29 492.666C1565.26 489.148 1557.98 485.576 1550.93 482.116C1481.04 447.816 1408.78 412.349 1380.89 341.167C1365.35 301.5 1367.69 257.328 1387.65 213.422C1413.45 156.693 1465.86 108.416 1524.43 87.4363C1546.11 79.6626 1567.7 75.321 1589.16 73.2359Z" fill="#FBFBFB" fill-opacity="0.75"/>
<path d="M1635.22 77.1261C1677.22 73.0448 1718.66 77.6407 1759.2 82.1343C1810.24 87.7937 1863.03 93.6453 1915.79 81.9388L1915.99 82.8602C1863.08 94.5908 1810.22 88.7371 1759.09 83.0671C1697.16 76.2031 1633.12 69.1063 1568.29 93.1377C1510.08 114.72 1457.66 163.872 1431.48 221.437C1411 266.478 1408.28 311.684 1423.62 352.179C1451 424.457 1523.01 460.224 1592.64 494.806C1599.67 498.296 1606.95 501.914 1613.97 505.473C1643.86 520.604 1686.07 546.09 1717.37 581.563C1748.72 617.079 1762.73 655.107 1759.04 694.59C1756.93 717.052 1749.08 738.009 1735.7 756.87C1723.4 774.218 1706.76 789.394 1686.24 801.979C1647.68 825.626 1598.97 837.918 1552.61 835.702C1510.35 833.685 1468.37 823.817 1427.79 814.279C1382.12 803.543 1334.89 792.446 1287.24 792.57C1204.13 792.784 1141.98 815.081 1107.52 857.05C1076.7 894.576 1067.62 947.057 1080.51 1013.02C1085.19 1036.94 1094.67 1065.53 1104.72 1095.81C1118.54 1137.46 1134.2 1184.67 1139.97 1228.6C1146.59 1279.04 1139.2 1317.63 1117.33 1346.55C1101.55 1367.45 1084.85 1382.03 1066.28 1391.11C1049.53 1399.32 1031.63 1402.84 1011.55 1401.88C974.373 1400.1 934.49 1382.71 893.491 1363.51C870.232 1352.61 847.484 1341.11 825.488 1329.99C754.377 1294.05 687.207 1260.12 605.775 1246.12C517.012 1230.87 435.964 1247.05 371.388 1292.93C304.891 1340.17 261.309 1415.71 245.347 1511.4L244.409 1511.24C260.414 1415.3 304.127 1339.55 370.838 1292.16C402.811 1269.45 439.251 1253.87 479.157 1245.88C519.184 1237.85 561.841 1237.62 605.932 1245.21C687.501 1259.22 754.732 1293.2 825.911 1329.16C847.898 1340.28 870.645 1351.77 893.894 1362.66C936.368 1382.56 974.539 1399.17 1011.59 1400.95C1052.81 1402.93 1087.15 1384.95 1116.58 1346C1138.27 1317.28 1145.62 1278.93 1139.02 1228.74C1133.26 1184.9 1117.62 1137.73 1103.81 1096.13C1093.75 1065.82 1084.26 1037.21 1079.57 1013.22C1066.61 946.965 1075.76 894.221 1106.78 856.457C1124.38 835.028 1149.01 818.629 1180 807.735C1210.08 797.159 1246.15 791.742 1287.23 791.639C1334.99 791.514 1382.27 802.626 1427.99 813.376C1468.53 822.908 1510.46 832.762 1552.63 834.768C1598.81 836.973 1647.33 824.728 1685.72 801.183C1728.39 775.027 1754.08 737.143 1758.07 694.513C1767.02 598.985 1671.35 535.607 1613.52 506.324C1606.5 502.766 1599.23 499.157 1592.2 495.666C1522.41 460.995 1450.23 425.149 1422.72 352.523C1407.29 311.79 1410.02 266.325 1430.61 221.056C1456.88 163.282 1509.51 113.929 1567.95 92.2677C1590.51 83.8957 1612.94 79.2908 1635.22 77.1261Z" fill="#FBFBFB" fill-opacity="0.75"/>
<path d="M1681.24 81.0011C1722.53 76.9884 1763.23 81.3617 1803.06 85.649C1854.14 91.1428 1906.98 96.8187 1959.88 84.5664L1960.09 85.4869C1907.03 97.7736 1854.12 92.0863 1802.96 86.5903C1740.98 79.9305 1676.88 73.039 1611.83 97.9671C1510.97 136.615 1426.94 258.406 1465.47 363.543C1492.48 437.254 1564.38 473.393 1633.91 508.345C1640.94 511.874 1648.21 515.532 1655.22 519.129C1685.07 534.426 1727.2 560.233 1758.35 596.301C1789.54 632.413 1803.35 671.202 1799.42 711.572C1797.19 734.541 1789.2 755.996 1775.71 775.343C1763.29 793.141 1746.54 808.745 1725.92 821.721C1687.17 846.099 1638.32 858.937 1591.89 856.946C1549.58 855.125 1507.61 845.285 1467.01 835.767C1421.34 825.06 1374.11 813.981 1326.39 814.378C1243.9 815.064 1181.85 837.818 1146.95 880.181C1115.14 918.793 1105.43 972.855 1118.1 1040.88C1122.65 1065.3 1131.99 1094.47 1141.87 1125.35C1155.47 1167.84 1170.89 1216 1176.42 1260.86C1182.76 1312.38 1175.13 1351.84 1153.09 1381.53C1137.16 1402.97 1120.36 1417.96 1101.71 1427.36C1084.88 1435.84 1066.93 1439.54 1046.83 1438.67C1009.62 1437.07 969.766 1419.52 928.814 1400.12C905.582 1389.11 882.862 1377.5 860.9 1366.25C789.886 1329.93 722.813 1295.63 641.348 1281.79C552.729 1266.74 471.599 1283.64 406.736 1330.68C339.652 1379.32 295.439 1456.87 278.882 1554.95L277.944 1554.8C294.544 1456.46 338.888 1378.7 406.177 1329.92C438.303 1306.63 474.83 1290.58 514.768 1282.23C554.836 1273.84 597.472 1273.39 641.505 1280.86C723.115 1294.72 790.248 1329.06 861.333 1365.42C883.294 1376.66 906.005 1388.27 929.226 1399.27C971.652 1419.36 1009.78 1436.14 1046.87 1437.73C1088.14 1439.51 1122.63 1420.95 1152.33 1380.96C1174.22 1351.48 1181.8 1312.23 1175.48 1260.98C1169.96 1216.21 1154.56 1168.09 1140.97 1125.65C1131.07 1094.74 1121.73 1065.54 1117.17 1041.06C1104.44 972.752 1114.22 918.426 1146.22 879.596C1164.05 857.965 1188.76 841.359 1219.68 830.234C1249.7 819.435 1285.59 813.789 1326.38 813.448C1374.21 813.049 1421.49 824.142 1467.23 834.862C1507.78 844.374 1549.72 854.199 1591.93 856.019C1684.12 859.991 1789.31 805.863 1798.48 711.493C1808 613.8 1712.54 549.574 1654.79 519.979C1647.78 516.382 1640.51 512.734 1633.48 509.205C1563.78 474.174 1491.71 437.946 1464.58 363.876C1446.68 315.035 1454.13 258.892 1485.54 205.782C1514.48 156.848 1561.57 116.219 1611.49 97.0878C1634.89 88.1108 1658.17 83.2436 1681.24 81.0011Z" fill="#FBFBFB" fill-opacity="0.75"/>
<path d="M1727.22 84.8621C1767.81 80.9171 1807.79 85.0852 1846.92 89.154C1898.06 94.4813 1950.93 99.9922 2003.97 87.1744L2004.19 88.0941C1950.99 100.946 1898.03 95.4255 1846.83 90.0953C1784.79 83.6311 1720.65 76.9531 1655.37 102.769C1554.13 142.812 1469.31 267.694 1507.31 374.888C1533.95 450.033 1605.75 486.552 1675.2 521.875C1682.22 525.443 1689.47 529.13 1696.48 532.766C1726.29 548.228 1768.33 574.357 1799.32 611.03C1830.36 647.746 1843.97 687.287 1839.82 728.545C1837.45 752.011 1829.34 773.973 1815.72 793.808C1803.18 812.054 1786.32 828.087 1765.59 841.454C1726.65 866.573 1677.66 879.957 1631.18 878.18C1588.82 876.555 1546.84 866.734 1506.24 857.236C1460.55 846.549 1413.32 835.499 1365.53 836.169C1283.66 837.318 1221.71 860.518 1186.38 903.266C1153.57 942.953 1143.25 998.616 1155.68 1068.71C1160.1 1093.62 1169.29 1123.37 1179.02 1154.87C1192.4 1198.19 1207.57 1247.3 1212.86 1293.1C1218.93 1345.67 1211.07 1386.03 1188.84 1416.47C1172.77 1438.47 1155.86 1453.87 1137.14 1463.57C1120.24 1472.32 1102.24 1476.21 1082.11 1475.43C1044.85 1473.99 1005.05 1456.29 964.134 1436.7C940.93 1425.59 918.245 1413.85 896.31 1402.49C825.4 1365.78 758.416 1331.11 676.918 1317.43C492.892 1286.54 346.404 1399.48 312.415 1598.49L311.487 1598.33C328.662 1497.8 373.496 1418.13 441.149 1367.91C473.447 1343.94 510.122 1327.35 550.163 1318.59C590.334 1309.81 633.04 1309.1 677.085 1316.5C758.737 1330.2 825.782 1364.91 896.761 1401.66C918.686 1413.01 941.361 1424.74 964.556 1435.85C1006.93 1456.15 1045.02 1473.06 1082.15 1474.49C1123.47 1476.09 1158.11 1456.92 1188.08 1415.92C1210.18 1385.68 1217.97 1345.54 1211.93 1293.22C1206.66 1247.51 1191.5 1198.44 1178.12 1155.16C1168.39 1123.64 1159.19 1093.87 1154.76 1068.89C1142.28 998.52 1152.67 942.594 1185.66 902.68C1203.69 880.847 1228.49 864.034 1259.33 852.698C1289.29 841.686 1325.02 835.808 1365.52 835.248C1413.42 834.577 1460.72 845.639 1506.45 856.34C1547.01 865.823 1588.95 875.639 1631.22 877.264C1723.51 880.807 1829.15 824.923 1838.88 728.474C1848.94 628.627 1753.71 563.542 1696.04 533.635C1689.04 529.999 1681.78 526.312 1674.77 522.744C1605.17 487.342 1533.19 450.735 1506.42 375.231C1488.77 325.444 1496.54 268.053 1528.29 213.635C1557.55 163.492 1604.92 121.733 1655.02 101.909C1679.26 92.3081 1703.35 87.1815 1727.22 84.8621Z" fill="#FBFBFB" fill-opacity="0.75"/>
<path d="M1773.14 88.7086C1813.06 84.8295 1852.32 88.7912 1890.78 92.6689C1941.96 97.8306 1994.87 103.166 2048.05 89.7926L2048.28 90.7113C1994.94 104.12 1941.94 98.7739 1890.68 93.6103C1828.6 87.3503 1764.39 80.8783 1698.89 107.59C1597.29 149.028 1511.67 277.002 1549.14 386.253C1575.41 462.842 1647.12 499.732 1716.47 535.415C1723.47 539.023 1730.72 542.749 1737.71 546.424C1767.48 562.052 1809.44 588.503 1840.28 625.77C1871.15 663.091 1884.58 703.383 1880.19 745.528C1877.69 769.502 1869.45 791.961 1855.7 812.293C1843.05 830.988 1826.08 847.45 1805.26 861.216C1766.13 887.076 1716.99 901.007 1670.46 899.435C1628.04 898.005 1586.05 888.204 1545.45 878.724C1499.77 868.056 1452.52 857.037 1404.66 857.979C1323.39 859.584 1261.55 883.221 1225.81 926.34C1192.02 967.121 1181.07 1024.38 1193.25 1096.56C1197.54 1121.99 1206.58 1152.3 1216.15 1184.41C1229.33 1228.58 1244.25 1278.63 1249.29 1325.35C1255.09 1378.99 1247 1420.24 1224.57 1451.44C1208.36 1473.98 1191.35 1489.8 1172.55 1499.8C1155.58 1508.84 1137.53 1512.89 1117.38 1512.22C1080.06 1510.96 1040.3 1493.1 999.438 1473.32C976.262 1462.1 953.612 1450.23 931.703 1438.75C860.89 1401.66 794.012 1366.62 712.463 1353.1C528.347 1322.55 381.036 1438.67 345.922 1642.05L344.994 1641.89C362.735 1539.16 408.067 1457.57 476.078 1405.94C508.546 1381.29 545.368 1364.16 585.512 1355C625.787 1345.81 668.555 1344.85 712.63 1352.17C794.323 1365.72 861.271 1400.79 932.155 1437.92C954.053 1449.39 976.703 1461.26 999.869 1472.47C1042.19 1492.96 1080.24 1510.02 1117.42 1511.28C1158.78 1512.68 1193.58 1492.93 1223.81 1450.9C1246.09 1419.89 1254.12 1378.87 1248.35 1325.46C1243.32 1278.82 1228.41 1228.81 1215.25 1184.69C1205.67 1152.56 1196.62 1122.21 1192.32 1096.73C1180.08 1024.27 1191.11 966.744 1225.08 925.745C1243.33 903.731 1268.18 886.702 1298.96 875.154C1328.87 863.929 1364.42 857.83 1404.64 857.041C1452.62 856.095 1499.92 867.139 1545.66 877.811C1586.22 887.275 1628.16 897.07 1670.48 898.491C1762.89 901.604 1868.98 843.976 1879.24 745.44C1889.87 643.437 1794.85 577.494 1737.27 547.275C1730.28 543.609 1723.03 539.873 1716.03 536.276C1681.84 518.691 1646.5 500.505 1616.41 477.112C1582.35 450.635 1560.05 421.018 1548.24 386.579C1530.83 335.846 1538.92 277.216 1571.01 221.482C1600.58 170.13 1648.25 127.229 1698.52 106.733C1723.61 96.4882 1748.5 91.1124 1773.14 88.7086Z" fill="#FBFBFB" fill-opacity="0.75"/>
<path d="M1819.03 92.5496C1858.27 88.7356 1896.84 92.4986 1934.64 96.1842C1985.86 101.18 2038.81 106.34 2092.15 92.4197L2092.38 93.3384C2038.89 107.303 1985.85 102.132 1934.54 97.1348C1872.4 91.0801 1808.15 84.8123 1742.41 112.422C1640.44 155.246 1554.02 286.321 1590.97 397.629C1616.87 475.651 1688.48 512.921 1757.73 548.975C1764.73 552.621 1771.96 556.387 1778.95 560.091C1808.67 575.875 1850.55 602.648 1881.24 640.53C1911.95 678.446 1925.18 719.498 1920.57 762.521C1915.55 809.301 1888.68 851.369 1844.93 880.958C1805.61 907.56 1756.33 922.037 1709.73 920.68C1667.27 919.445 1625.27 909.664 1584.66 900.214C1538.97 889.575 1491.72 878.575 1443.79 879.791C1363.11 881.841 1301.36 905.906 1265.25 949.395C1230.48 991.261 1218.89 1050.15 1230.81 1124.42C1234.98 1150.34 1243.86 1181.24 1253.28 1213.96C1266.23 1258.95 1280.91 1309.96 1285.72 1357.62C1291.23 1412.33 1282.92 1454.46 1260.29 1486.41C1243.94 1509.49 1226.82 1525.72 1207.94 1536.04C1190.89 1545.35 1172.8 1549.59 1152.63 1549C1115.27 1547.91 1075.55 1529.89 1034.74 1509.92C1011.59 1498.6 988.969 1486.61 967.096 1475.01C896.387 1437.53 829.598 1402.13 748.016 1388.75C563.828 1358.54 415.704 1477.84 379.446 1685.59L378.517 1685.42C396.823 1580.48 442.645 1496.99 511.031 1443.93C543.681 1418.61 580.638 1400.92 620.877 1391.36C661.256 1381.77 704.095 1380.57 748.19 1387.8C829.926 1401.2 896.785 1436.63 967.564 1474.15C989.427 1485.75 1012.04 1497.73 1035.18 1509.05C1077.45 1529.74 1115.47 1546.96 1152.69 1548.04C1194.1 1549.24 1229.06 1528.9 1259.55 1485.84C1282.04 1454.08 1290.29 1412.17 1284.8 1357.69C1280.01 1310.11 1265.34 1259.15 1252.39 1214.19C1242.97 1181.45 1234.07 1150.53 1229.89 1124.55C1217.92 1049.99 1229.57 990.854 1264.53 948.771C1282.97 926.566 1307.9 909.35 1338.6 897.581C1368.45 886.152 1403.84 879.832 1443.78 878.822C1491.83 877.604 1539.13 888.618 1584.88 899.27C1625.45 908.715 1667.39 918.482 1709.76 919.717C1802.29 922.401 1908.83 863.026 1919.62 762.394C1930.81 658.226 1836.01 591.445 1778.51 560.904C1771.53 557.199 1764.29 553.434 1757.3 549.787C1723.16 532.017 1687.86 513.647 1657.86 489.931C1623.9 463.084 1601.73 432.988 1590.08 397.906C1572.92 346.226 1581.33 286.358 1613.76 229.317C1628.43 203.505 1647.81 179.146 1669.8 158.897C1692 138.437 1716.98 122.062 1742.05 111.534C1767.96 100.659 1793.63 95.0173 1819.03 92.5496Z" fill="#FBFBFB" fill-opacity="0.75"/>
</svg>
