<svg width="428" height="907" viewBox="0 0 428 907" fill="none" xmlns="http://www.w3.org/2000/svg">
<path d="M467.447 55.633C489.04 51.6784 510.861 52.5382 532.172 53.3744C557.062 54.3545 582.799 55.3664 607.676 48.6464L607.795 49.092C582.851 55.8289 557.076 54.8146 532.154 53.8358C501.959 52.6495 470.732 51.4185 440.634 63.9275C412.955 75.4325 389.843 99.2203 380.313 126.017C373.234 145.929 374.297 165.388 383.39 182.296C400.084 213.325 436.53 226.949 471.776 240.123C475.338 241.453 479.021 242.83 482.578 244.188C497.724 249.968 519.302 259.944 536.109 274.64C552.943 289.36 561.54 305.704 561.659 323.223C561.727 333.189 558.951 342.662 553.41 351.375C548.315 359.384 541.017 366.567 531.731 372.722C514.278 384.28 491.39 391.14 468.926 391.539C448.452 391.905 427.74 388.804 407.71 385.803C385.167 382.43 361.859 378.935 338.885 380.404C297.321 383.057 267.905 395.465 253.816 416.277C242.173 433.473 240.841 456.133 249.856 483.618C253.265 494.015 259.223 506.333 265.523 519.373C274.198 537.316 284.031 557.651 288.933 576.836C294.567 598.874 292.857 616.102 283.712 629.508C277.108 639.182 269.757 646.104 261.244 650.659C253.561 654.772 245.099 656.854 235.372 657.023C217.366 657.344 197.297 650.863 176.601 643.614C164.86 639.501 153.334 635.111 142.19 630.866C106.166 617.142 72.1359 604.178 32.1935 600.426C-13.3365 596.15 -54.3553 607.294 -83.3072 631.805C-110.159 654.54 -125.887 687.79 -128.785 727.955L-129.245 727.922C-126.336 687.634 -110.558 654.276 -83.6045 631.458C-69.0943 619.172 -51.7347 610.221 -32.0049 604.846C-12.2344 599.463 9.37608 597.823 32.2361 599.97C72.2398 603.725 106.295 616.702 142.355 630.438C153.494 634.684 165.015 639.071 176.751 643.18C197.406 650.413 217.43 656.879 235.362 656.563C255.609 656.206 270.854 647.525 283.331 629.241C292.399 615.952 294.085 598.846 288.485 576.946C283.592 557.806 273.772 537.492 265.105 519.567C258.793 506.514 252.833 494.183 249.414 483.755C240.353 456.124 241.704 433.335 253.431 416.011C264.654 399.43 285.519 388.159 314.434 382.863C322.026 381.473 330.176 380.494 338.852 379.938C361.872 378.47 385.207 381.96 407.77 385.339C427.78 388.334 448.473 391.433 468.91 391.07C491.286 390.673 514.091 383.842 531.471 372.326C550.77 359.542 561.326 342.101 561.194 323.21C561.073 305.832 552.529 289.603 535.8 274.972C519.044 260.323 497.517 250.37 482.411 244.602C478.853 243.244 475.171 241.867 471.609 240.537C436.283 227.335 399.757 213.679 382.978 182.498C373.821 165.47 372.744 145.884 379.871 125.846C389.44 98.9342 412.653 75.0389 440.45 63.4844C449.379 59.7973 458.394 57.291 467.447 55.633Z" fill="#FBFBFB" fill-opacity="0.35"/>
<path d="M489.991 55.6453C511.218 51.7578 532.629 52.5289 553.547 53.2829C578.45 54.1812 604.199 55.1067 629.124 48.1116L629.248 48.5563C604.256 55.5684 578.469 54.6404 553.533 53.7435C523.319 52.6543 492.079 51.5286 461.907 64.4809C434.326 76.3184 411.152 100.655 401.418 127.994C394.087 148.579 395.023 168.668 404.117 186.091C420.689 217.833 457.103 231.64 492.321 244.993C495.877 246.342 499.559 247.739 503.115 249.116C518.248 254.977 539.799 265.112 556.553 280.108C573.334 295.127 581.869 311.843 581.913 329.796C581.938 340.013 579.123 349.731 573.538 358.686C568.405 366.922 561.074 374.312 551.749 380.661C534.237 392.585 511.296 399.717 488.814 400.221C468.324 400.683 447.61 397.593 427.577 394.601C405.036 391.237 381.721 387.758 358.73 389.361C317.51 392.232 288.152 404.881 273.831 425.932C261.752 443.685 260.196 467.114 269.197 495.565C272.563 506.212 278.469 518.811 284.722 532.155C293.328 550.512 303.078 571.315 307.901 590.964C313.445 613.528 311.661 631.194 302.453 644.972C295.802 654.92 288.418 662.045 279.88 666.749C272.175 670.997 263.697 673.167 253.965 673.388C235.942 673.791 215.888 667.238 195.207 659.892C183.474 655.727 171.961 651.278 160.829 646.97C124.835 633.053 90.8379 619.911 50.8816 616.236C6.01462 612.11 -34.6467 623.342 -63.6249 647.863C-91.3396 671.321 -107.641 705.831 -110.76 747.672L-111.22 747.639C-108.09 705.675 -91.7347 671.052 -63.9223 647.516C-49.3911 635.217 -32.1158 626.239 -12.574 620.833C7.01144 615.409 28.3776 613.711 50.9205 615.785C90.9389 619.467 124.966 632.622 160.99 646.548C172.122 650.851 183.63 655.301 195.357 659.463C216.787 667.069 235.984 673.335 253.952 672.933C274.214 672.48 289.505 663.514 302.07 644.719C311.202 631.059 312.965 613.508 307.454 591.074C302.64 571.47 292.898 550.689 284.304 532.348C278.044 518.992 272.131 506.38 268.755 495.702C259.709 467.11 261.287 443.545 273.446 425.671C280.763 414.913 291.915 406.313 306.594 400.106C320.822 394.088 338.35 390.317 358.697 388.9C381.743 387.291 405.078 390.776 427.647 394.144C447.66 397.13 468.356 400.22 488.804 399.76C511.198 399.258 534.047 392.157 551.487 380.279C570.856 367.09 581.501 349.161 581.445 329.793C581.398 311.976 572.916 295.372 556.236 280.446C539.533 265.497 518.033 255.39 502.936 249.541C499.384 248.163 495.703 246.771 492.147 245.422C456.853 232.037 420.354 218.198 403.702 186.302C394.545 168.765 393.605 148.55 400.978 127.841C410.752 100.387 434.029 75.9475 461.723 64.0613C471.064 60.0463 480.508 57.382 489.991 55.6453Z" fill="#FBFBFB" fill-opacity="0.35"/>
<path d="M512.502 55.6539C533.367 51.8326 554.38 52.5224 574.918 53.1919C599.834 54.0083 625.601 54.8511 650.569 47.5816L650.696 48.021C625.657 55.3128 599.853 54.4675 574.904 53.6524C544.675 52.664 513.416 51.6399 483.172 65.0355C455.689 77.2056 432.446 102.083 422.514 129.954C414.935 151.22 415.739 171.941 424.828 189.878C441.278 222.33 477.661 236.325 512.847 249.857C516.402 251.225 520.077 252.641 523.633 254.037C538.752 259.98 560.277 270.274 576.981 285.564C593.709 300.878 602.177 317.971 602.152 336.362C602.138 346.825 599.276 356.795 593.655 365.989C588.483 374.447 581.117 382.05 571.761 388.591C554.186 400.882 531.2 408.284 508.7 408.894C488.196 409.453 467.478 406.372 447.443 403.395C424.899 400.041 401.588 396.575 378.57 398.314C337.687 401.398 308.391 414.279 293.841 435.564C281.327 453.873 279.539 478.079 288.523 507.505C291.85 518.398 297.706 531.286 303.91 544.924C312.442 563.692 322.115 584.967 326.864 605.078C332.318 628.173 330.46 646.278 321.189 660.427C314.493 670.645 307.076 677.972 298.511 682.831C290.78 687.215 282.29 689.476 272.547 689.741C254.512 690.23 234.466 683.596 213.801 676.159C202.078 671.94 190.577 667.428 179.453 663.062C143.494 648.957 109.524 635.633 69.5584 632.034C25.3401 628.055 -14.9709 639.364 -43.9544 663.881C-72.5293 688.053 -89.4001 723.84 -92.7474 767.373L-93.2076 767.335C-89.8502 723.68 -72.9244 687.784 -44.2526 663.529C-29.7087 651.223 -12.5206 642.229 6.83619 636.781C26.2419 631.321 47.36 629.57 69.6002 631.573C109.632 635.178 143.627 648.512 179.622 662.634C190.741 666.996 202.242 671.508 213.96 675.723C234.584 683.144 254.581 689.764 272.537 689.276C292.818 688.725 308.156 679.476 320.81 660.169C330.008 646.132 331.845 628.142 326.424 605.177C321.688 585.111 312.023 563.858 303.499 545.106C297.292 531.451 291.429 518.55 288.092 507.631C279.064 478.063 280.874 453.722 293.47 435.296C300.901 424.423 312.092 415.704 326.727 409.383C340.92 403.251 358.353 399.371 378.54 397.847C401.609 396.104 424.945 399.575 447.517 402.933C467.533 405.908 488.227 408.984 508.694 408.428C531.106 407.82 553.999 400.449 571.504 388.208C590.944 374.614 601.672 356.197 601.697 336.352C601.764 291.878 552.712 265.948 523.471 254.455C519.92 253.058 516.245 251.646 512.69 250.278C477.424 236.714 440.96 222.683 424.43 190.077C415.277 172.025 414.469 151.179 422.092 129.793C432.068 101.807 455.405 76.8277 482.995 64.6052C492.744 60.2912 502.612 57.4651 512.502 55.6539Z" fill="#FBFBFB" fill-opacity="0.35"/>
<path d="M534.993 55.6576C555.505 51.9009 576.129 52.5077 596.298 53.0999C621.227 53.8344 647.006 54.591 672.022 47.0463L672.153 47.4849C647.067 55.0518 621.25 54.2929 596.283 53.556C566.039 52.6638 534.762 51.7457 504.44 65.5856C477.051 78.0845 453.746 103.497 443.618 131.903C435.791 153.855 436.459 175.213 445.545 193.665C461.877 226.826 498.224 241.01 533.377 254.725C536.931 256.112 540.6 257.543 544.15 258.959C559.252 264.985 580.754 275.437 597.406 291.027C614.086 306.639 622.486 324.104 622.387 342.934C622.33 353.648 619.429 363.863 613.764 373.3C608.553 381.98 601.151 389.795 591.766 396.533C574.127 409.191 551.097 416.862 528.579 417.579C508.055 418.234 487.335 415.163 467.301 412.195C444.756 408.856 421.441 405.4 398.401 407.273C357.852 410.568 328.616 423.681 313.85 445.188C300.9 464.053 298.883 489.044 307.845 519.456C311.129 530.595 316.939 543.767 323.091 557.709C331.554 576.892 341.145 598.635 345.814 619.205C351.177 642.825 349.245 661.37 339.912 675.894C333.173 686.383 325.719 693.917 317.125 698.926C309.373 703.45 300.866 705.797 291.113 706.107C273.06 706.679 253.029 699.972 232.379 692.438C220.665 688.166 209.171 683.593 198.06 679.168C162.131 664.87 128.198 651.366 88.2188 647.845C44.6339 644.007 4.66809 655.388 -24.3118 679.9C-53.7332 704.783 -71.1739 741.848 -74.7547 787.092L-75.2148 787.054C-71.624 741.687 -54.1291 704.509 -24.6099 679.548C-10.0615 667.242 7.03857 658.226 26.2082 652.752C45.4349 647.258 66.3095 645.454 88.2568 647.389C128.303 650.917 162.27 664.434 198.23 678.745C209.34 683.164 220.83 687.739 232.539 692.007C253.933 699.806 273.106 706.217 291.099 705.647C311.395 705 326.783 695.466 339.521 675.644C348.785 661.23 350.696 642.801 345.36 619.307C340.699 598.782 331.121 577.055 322.667 557.894C316.512 543.934 310.695 530.754 307.402 519.584C298.394 489.031 300.436 463.914 313.466 444.926C321.007 433.94 332.229 425.108 346.824 418.673C360.983 412.43 378.321 408.441 398.354 406.814C421.445 404.937 444.788 408.396 467.358 411.741C487.373 414.708 508.074 417.773 528.556 417.121C550.986 416.406 573.923 408.765 591.492 396.163C611.007 382.161 621.814 363.258 621.925 342.935C622.174 297.39 573.196 271.045 543.977 259.393C540.427 257.977 536.758 256.546 533.204 255.159C497.97 241.411 461.538 227.197 445.126 193.878C435.981 175.31 435.309 153.831 443.176 131.76C453.344 103.243 476.743 77.7296 504.239 65.1783C514.418 60.5286 524.691 57.5442 534.993 55.6576Z" fill="#FBFBFB" fill-opacity="0.35"/>
<path d="M557.45 55.6577C577.614 51.9648 597.865 52.4952 617.674 53.013C642.616 53.6657 668.408 54.3403 693.47 46.516L693.607 46.9538C668.472 54.7958 642.643 54.1233 617.659 53.469C587.396 52.6784 556.105 51.8611 525.705 66.1452C498.409 78.973 475.042 104.911 464.721 133.848C456.646 156.49 457.178 178.486 466.262 197.461C482.472 231.332 518.793 245.703 553.913 259.597C557.461 260.999 561.134 262.453 564.678 263.888C579.766 269.991 601.241 280.603 617.846 296.496C634.473 312.407 642.81 330.244 642.637 349.508C642.536 360.468 639.592 370.934 633.887 380.612C628.642 389.513 621.203 397.54 611.784 404.472C594.086 417.495 571.008 425.438 548.472 426.261C527.933 427.012 507.209 423.951 487.173 420.993C464.624 417.663 441.308 414.222 418.246 416.23C378.019 419.732 348.848 433.067 333.879 454.793C320.495 474.22 318.242 499.997 327.182 531.403C330.426 542.793 336.185 556.245 342.286 570.491C350.679 590.089 360.188 612.305 364.778 633.333C370.046 657.481 368.045 676.463 358.645 691.36C351.857 702.119 344.371 709.86 335.753 715.019C327.978 719.677 319.455 722.112 309.696 722.469C291.627 723.128 271.609 716.339 250.976 708.718C239.27 704.393 227.788 699.757 216.685 695.275C180.791 680.784 146.887 667.101 106.893 663.657C63.2997 659.901 24.7264 671.05 -4.65932 695.898C-34.9191 721.486 -52.9281 759.837 -56.7435 806.811L-57.2038 806.774C-53.3783 759.677 -35.3142 721.217 -4.95664 695.551C9.59265 683.249 26.5965 674.218 45.588 668.716C64.6367 663.194 85.2776 661.339 106.932 663.206C146.992 666.657 180.928 680.357 216.856 694.856C227.955 699.338 239.436 703.971 251.136 708.292C272.511 716.188 291.669 722.672 309.679 722.019C329.713 721.289 345.604 711.181 358.256 691.123C367.582 676.333 369.571 657.465 364.325 633.439C359.743 612.452 350.243 590.257 341.858 570.681C335.75 556.423 329.985 542.958 326.734 531.537C317.751 499.993 320.026 474.086 333.496 454.536C341.139 443.443 352.395 434.497 366.953 427.956C381.078 421.607 398.322 417.509 418.201 415.78C441.318 413.767 464.659 417.213 487.232 420.548C507.249 423.505 527.948 426.561 548.445 425.808C570.892 424.987 593.878 417.076 611.502 404.108C631.088 389.701 641.974 370.311 642.165 349.511C642.593 302.9 593.687 276.13 564.495 264.319C560.951 262.883 557.283 261.433 553.736 260.031C518.534 246.1 482.128 231.698 465.841 197.665C456.704 178.577 456.168 156.456 464.283 133.699C474.64 104.657 498.1 78.6136 525.505 65.738C536.082 60.7629 546.755 57.6163 557.45 55.6577Z" fill="#FBFBFB" fill-opacity="0.35"/>
<path d="M579.888 55.6515C599.713 52.0208 619.594 52.4739 639.049 52.921C664.004 53.4918 689.813 54.0793 714.919 45.9852L715.06 46.4222C689.878 54.5394 664.032 53.9495 639.039 53.3807C608.762 52.6909 577.453 51.9753 546.98 66.7027C499.731 89.5362 464.032 151.931 486.984 201.252C503.075 235.83 539.36 250.386 574.449 264.463C577.995 265.884 581.662 267.358 585.205 268.812C600.28 274.997 621.728 285.768 638.284 301.955C654.857 318.161 663.133 336.374 662.881 356.078C662.738 367.289 659.75 378.001 654.009 387.919C648.725 397.042 641.251 405.282 631.801 412.406C614.039 425.792 590.916 434.004 568.359 434.938C547.8 435.787 527.079 432.739 507.04 429.791C484.49 426.476 461.174 423.043 438.09 425.187C398.186 428.891 369.078 442.443 353.914 464.378C340.091 484.371 337.605 510.939 346.518 543.351C349.719 554.986 355.433 568.728 361.48 583.273C369.801 603.286 379.232 625.97 383.742 647.461C388.921 672.139 386.841 691.556 377.383 706.829C370.551 717.857 363.027 725.802 354.386 731.114C346.585 735.908 338.046 738.435 328.281 738.835C310.199 739.581 290.19 732.715 269.572 724.998C257.876 720.62 246.402 715.926 235.311 711.381C199.448 696.702 165.575 682.836 125.572 679.469C82.0568 675.805 43.4732 687.307 13.9961 712.728C-16.4906 739.016 -34.7233 778.367 -38.7284 826.526L-39.1885 826.488C-35.1734 778.206 -16.8857 738.747 13.6942 712.381C28.2941 699.794 45.3207 690.53 64.3133 684.855C83.3675 679.159 103.989 677.196 125.61 679.013C165.684 682.386 199.587 696.265 235.486 710.961C246.577 715.501 258.046 720.196 269.737 724.571C291.097 732.563 310.241 739.124 328.263 738.38C348.312 737.555 364.252 727.157 376.993 706.587C386.386 691.42 388.448 672.109 383.293 647.557C378.789 626.107 369.367 603.445 361.055 583.453C355.001 568.896 349.285 555.141 346.074 543.479C337.122 510.929 339.631 484.231 353.536 464.125C361.281 452.924 372.565 443.875 387.079 437.226C401.171 430.77 418.316 426.569 438.045 424.737C461.184 422.588 484.528 426.025 507.108 429.344C527.128 432.291 547.829 435.333 568.342 434.488C613.129 432.642 661.838 402.138 662.423 356.078C663.033 308.396 614.195 281.207 585.031 269.241C581.489 267.787 577.822 266.318 574.276 264.897C539.101 250.788 502.731 236.197 486.566 201.449C475.906 178.537 477.215 151.054 490.252 124.059C502.26 99.1871 523.395 77.5935 546.778 66.291C557.739 60.9885 568.809 57.6806 579.888 55.6515Z" fill="#FBFBFB" fill-opacity="0.35"/>
<path d="M602.301 55.6411C621.792 52.0716 641.314 52.4549 660.428 52.8244C685.4 53.3125 711.218 53.819 736.371 45.4452L736.517 45.8813C711.288 54.2782 685.424 53.771 660.418 53.2841C630.122 52.6913 598.798 52.0809 568.252 67.2472C520.882 90.7712 484.926 154.694 507.703 205.033C523.673 240.322 559.926 255.065 594.988 269.325C598.532 270.765 602.194 272.254 605.735 273.727C620.797 279.994 642.218 290.924 658.721 307.41C675.247 323.915 683.455 342.5 683.129 362.643C682.942 374.1 679.916 385.063 674.13 395.222C668.808 404.568 661.302 413.018 651.813 420.337C633.987 434.09 610.821 442.571 588.245 443.612C567.671 444.557 546.948 441.519 526.906 438.581C504.352 435.275 481.035 431.857 457.929 434.135C418.342 438.039 389.3 451.803 373.945 473.942C359.687 494.496 356.964 521.864 365.847 555.286C369.005 567.168 374.672 581.193 380.668 596.042C388.919 616.47 398.268 639.622 402.704 661.576C407.792 686.78 405.638 706.636 396.118 722.284C389.238 733.588 381.682 741.735 373.017 747.197C365.193 752.125 356.638 754.744 346.863 755.188C328.763 756.016 308.773 749.073 288.167 741.265C276.479 736.834 265.017 732.077 253.934 727.474C218.106 712.602 184.261 698.558 144.249 695.267C53.8994 687.837 -12.3977 748.503 -20.7148 846.231L-21.1704 846.193C-16.9663 796.825 1.4801 756.421 32.178 729.346C46.833 716.422 63.9089 706.891 82.9345 701.014C102.023 695.121 122.667 693.032 144.292 694.811C184.38 698.106 218.255 712.168 254.118 727.053C265.196 731.651 276.653 736.405 288.336 740.837C309.677 748.93 328.81 755.559 346.845 754.733C366.91 753.816 382.898 743.12 395.729 722.047C405.188 706.504 407.32 686.754 402.259 661.672C397.835 639.762 388.49 616.628 380.247 596.222C374.245 581.361 368.576 567.326 365.408 555.413C356.491 521.857 359.236 494.358 373.571 473.688C381.409 462.381 392.725 453.228 407.193 446.479C421.248 439.923 438.304 435.617 457.885 433.69C481.046 431.407 504.396 434.828 526.974 438.138C546.996 441.071 567.697 444.108 588.229 443.166C633.052 441.108 681.906 409.736 682.672 362.647C683.461 313.9 634.699 286.286 605.558 274.166C602.021 272.692 598.356 271.204 594.816 269.763C559.673 255.471 523.334 240.692 507.287 205.236C496.705 181.856 498.121 153.755 511.267 126.113C523.381 100.643 544.605 78.4905 568.047 66.8453C579.391 61.2064 590.842 57.7397 602.301 55.6411Z" fill="#FBFBFB" fill-opacity="0.35"/>
<path d="M624.691 55.6257C643.856 52.1158 663.024 52.4285 681.803 52.733C706.789 53.1393 732.623 53.5585 757.82 44.9104L757.97 45.3457C732.693 54.0177 706.817 53.5969 681.794 53.1927C651.483 52.7007 620.136 52.1927 589.517 67.8023C542.03 92.0161 505.812 157.469 528.42 208.825C544.268 244.827 580.49 259.754 615.519 274.193C619.058 275.653 622.718 277.16 626.253 278.653C641.302 285.002 662.696 296.091 679.151 312.871C695.623 329.676 703.769 348.632 703.369 369.214C703.139 380.922 700.069 392.131 694.245 402.536C688.883 412.104 681.342 420.767 671.824 428.282C653.938 442.401 630.719 451.154 608.129 452.295C587.535 453.337 566.809 450.309 546.769 447.38C524.217 444.084 500.893 440.681 477.765 443.094C438.485 447.194 409.514 461.165 393.979 483.499C379.288 504.623 376.329 532.792 385.174 567.235C388.289 579.368 393.905 593.674 399.854 608.826C408.036 629.669 417.307 653.289 421.659 675.702C426.657 701.432 424.429 721.731 414.847 737.751C407.922 749.324 400.334 757.678 391.64 763.29C383.795 768.358 375.223 771.059 365.438 771.556C347.322 772.472 327.346 765.451 306.754 757.547C295.076 753.063 283.626 748.243 272.551 743.583C236.753 728.522 202.945 714.294 162.915 711.082C72.5353 703.821 5.97011 766.059 -2.71309 865.948L-3.16878 865.91C1.21904 815.452 19.8287 774.102 50.6416 746.329C65.3517 733.067 82.4763 723.266 101.536 717.191C120.657 711.095 141.322 708.885 162.957 710.625C203.059 713.844 236.902 728.084 272.735 743.161C283.805 747.817 295.255 752.638 306.928 757.118C328.254 765.308 347.373 772.009 365.42 771.102C385.5 770.088 401.539 759.103 414.454 737.519C423.975 721.599 426.185 701.41 421.209 675.793C416.864 653.421 407.601 629.818 399.427 608.998C393.477 593.837 387.853 579.513 384.729 567.354C375.845 532.778 378.832 504.478 393.6 483.242C401.532 471.838 412.867 462.579 427.298 455.73C441.315 449.073 458.278 444.667 477.715 442.64C500.902 440.221 524.251 443.633 546.831 446.93C566.851 449.853 587.559 452.88 608.101 451.838C652.965 449.566 701.964 417.331 702.906 369.21C703.878 319.396 655.183 291.359 626.075 279.083C622.54 277.595 618.879 276.083 615.341 274.627C598.072 267.512 580.222 260.153 564.697 250.059C547.125 238.635 535.123 225.208 527.993 209.02C517.494 185.172 519.012 156.458 532.269 128.166C544.484 102.097 565.805 79.3799 589.303 67.4021C601.032 61.4169 612.862 57.7968 624.691 55.6257Z" fill="#FBFBFB" fill-opacity="0.35"/>
<path d="M647.061 55.6088C665.905 52.1577 684.729 52.4025 703.178 52.6413C728.177 52.9657 754.023 53.2986 779.273 44.379L779.423 44.8143C754.099 53.7615 728.21 53.4271 703.17 53.1055C672.84 52.7151 641.479 52.3079 610.782 68.3617C563.173 93.2615 526.694 160.248 549.134 212.622C564.863 249.333 601.054 264.447 636.051 279.07C639.589 280.548 643.243 282.076 646.777 283.583C661.811 290.009 683.179 301.258 699.581 318.342C716.001 335.441 724.084 354.773 723.61 375.789C723.093 398.641 711.806 420.104 691.836 436.217C673.887 450.703 650.624 459.726 628.012 460.974C607.403 462.112 586.673 459.094 566.627 456.18C544.073 452.898 520.751 449.504 497.596 452.053C458.622 456.344 429.716 470.518 414.012 493.048C398.891 514.737 395.688 543.717 404.497 579.185C407.573 591.564 413.139 606.159 419.035 621.611C427.143 642.864 436.336 666.956 440.61 689.832C445.518 716.093 443.216 736.827 433.566 753.218C426.597 765.062 418.971 773.619 410.254 779.384C402.383 784.588 393.799 787.38 384.008 787.921C365.879 788.918 345.912 781.821 325.341 773.824C313.672 769.287 302.23 764.409 291.166 759.686C255.404 744.433 221.624 730.027 181.583 726.886C91.183 719.792 24.3542 783.602 15.2958 885.654L14.8394 885.612C19.4108 834.064 38.1792 791.769 69.1154 763.29C83.8859 749.695 101.054 739.62 120.143 733.347C139.298 727.054 159.987 724.723 181.629 726.419C221.745 729.565 255.56 743.984 291.358 759.254C302.416 763.973 313.853 768.847 325.518 773.385C346.824 781.672 365.934 788.45 383.997 787.451C404.092 786.341 420.185 775.065 433.184 752.975C442.772 736.679 445.057 716.051 440.17 689.904C435.903 667.068 426.719 642.998 418.614 621.763C412.715 606.298 407.143 591.694 404.057 579.284C395.214 543.682 398.437 514.577 413.639 492.775C421.656 481.272 433.02 471.918 447.404 464.966C461.385 458.213 478.259 453.706 497.552 451.584C520.762 449.03 544.113 452.428 566.696 455.714C586.719 458.628 607.424 461.641 627.987 460.506C672.886 458.023 722.036 424.923 723.147 375.766C724.302 324.882 675.681 296.429 646.595 283.995C643.066 282.487 639.407 280.96 635.874 279.481C618.621 272.274 600.782 264.824 585.289 254.57C567.749 242.962 555.787 229.299 548.712 212.792C538.294 188.475 539.916 159.15 553.283 130.21C559.33 117.115 567.714 104.53 577.532 93.8287C587.442 83.0167 598.867 74.0679 610.575 67.9462C622.672 61.6225 634.87 57.8416 647.061 55.6088Z" fill="#FBFBFB" fill-opacity="0.35"/>
</svg>
