<svg width="25" height="25" viewBox="0 0 25 25" fill="none" xmlns="http://www.w3.org/2000/svg">
<path fill-rule="evenodd" clip-rule="evenodd" d="M25 12.5C25 5.59625 19.4037 0 12.5 0C5.59625 0 0 5.59625 0 12.5C0 18.7388 4.57125 23.91 10.5475 24.8475L10.5475 16.1138H7.3725L7.3725 12.5H10.5475V9.74625C10.5475 6.61375 12.4125 4.88375 15.2688 4.88375C16.6363 4.88375 18.0662 5.1275 18.0662 5.1275V8.2025L16.4912 8.2025C14.9375 8.2025 14.4537 9.16625 14.4537 10.155V12.5L17.92 12.5L17.3662 16.1125H14.4537L14.4537 24.8475C20.4287 23.91 25 18.7388 25 12.5Z" fill="#333333"/>
</svg>
