<?xml version="1.0" encoding="UTF-8" standalone="no"?>
<!-- Created with Inkscape (http://www.inkscape.org/) -->

<svg
   version="1.1"
   id="svg66"
   width="41.703125"
   height="39.193359"
   viewBox="0 0 41.703125 39.193359"
   sodipodi:docname="media kit copy.pdf"
   xmlns:inkscape="http://www.inkscape.org/namespaces/inkscape"
   xmlns:sodipodi="http://sodipodi.sourceforge.net/DTD/sodipodi-0.dtd"
   xmlns="http://www.w3.org/2000/svg"
   xmlns:svg="http://www.w3.org/2000/svg">
  <defs
     id="defs70">
    <clipPath
       clipPathUnits="userSpaceOnUse"
       id="clipPath5774">
      <path
         d="M 0,1080 H 1920 V 0 H 0 Z"
         id="path5772" />
    </clipPath>
  </defs>
  <sodipodi:namedview
     id="namedview68"
     pagecolor="#ffffff"
     bordercolor="#000000"
     borderopacity="0.25"
     inkscape:showpageshadow="2"
     inkscape:pageopacity="0.0"
     inkscape:pagecheckerboard="0"
     inkscape:deskcolor="#d1d1d1"
     showgrid="false" />
  <g
     id="g5634"
     inkscape:groupmode="layer"
     inkscape:label="Page 13"
     transform="matrix(1.3333333,0,0,-1.3333333,-2477.332,245.25159)">
    <g
       id="g5768">
      <g
         id="g5770"
         clip-path="url(#clipPath5774)">
        <g
           id="g5776"
           transform="translate(1886.1252,159.4687)">
          <path
             d="M 0,0 C 0,0.518 -0.007,1.036 0.003,1.555 0.007,1.742 -0.059,1.798 -0.242,1.797 -1.167,1.789 -2.092,1.789 -3.017,1.796 -3.2,1.798 -3.262,1.74 -3.26,1.553 c 0.007,-1.036 0.007,-2.074 0,-3.11 -0.002,-0.178 0.062,-0.22 0.229,-0.219 0.935,0.006 1.87,0.009 2.804,-10e-4 0.205,-0.003 0.232,0.083 0.23,0.253 C -0.005,-1.017 0,-0.509 0,0 m -21.719,0.013 c 0,0.508 -0.008,1.015 0.005,1.523 0.004,0.199 -0.057,0.263 -0.259,0.261 -0.914,-0.009 -1.829,-0.009 -2.743,0 -0.196,0.002 -0.265,-0.054 -0.263,-0.257 0.009,-1.026 0.008,-2.053 0,-3.079 -0.001,-0.188 0.061,-0.239 0.244,-0.237 0.925,0.007 1.85,0.009 2.774,-0.002 0.215,-0.002 0.25,0.081 0.246,0.266 -0.01,0.508 -0.004,1.016 -0.004,1.525 M 0,19.538 c 0,0.519 -0.005,1.037 0.003,1.555 0.003,0.169 -0.047,0.229 -0.223,0.227 -0.935,-0.008 -1.87,-0.008 -2.805,0.001 -0.194,0.002 -0.237,-0.064 -0.235,-0.245 0.007,-1.026 0.007,-2.053 0,-3.079 -0.001,-0.18 0.046,-0.251 0.237,-0.25 0.925,0.008 1.85,0.009 2.774,-0.001 0.209,-0.002 0.256,0.079 0.252,0.268 C -0.006,18.521 0,19.03 0,19.538 m -24.975,0.007 c 0,-0.519 0.006,-1.036 -0.004,-1.555 -0.003,-0.187 0.061,-0.244 0.246,-0.243 0.924,0.008 1.849,0.008 2.774,0.001 0.182,-0.002 0.246,0.054 0.244,0.242 -0.008,1.036 -0.007,2.073 0,3.11 0.001,0.177 -0.061,0.221 -0.228,0.22 -0.935,-0.007 -1.87,-0.009 -2.805,0.001 -0.203,0.003 -0.233,-0.081 -0.23,-0.252 0.008,-0.507 0.003,-1.016 0.003,-1.524 M -8.654,-1.773 c 0.671,0 1.342,0.005 2.014,-0.003 0.177,-0.002 0.25,0.038 0.249,0.233 -0.009,1.027 -0.007,2.055 -0.002,3.082 10e-4,0.173 -0.034,0.259 -0.232,0.258 -1.353,-0.007 -2.706,-0.006 -4.059,-10e-4 -0.17,10e-4 -0.228,-0.05 -0.227,-0.225 0.007,-1.038 0.008,-2.075 -0.001,-3.112 -0.002,-0.193 0.061,-0.238 0.244,-0.236 0.671,0.01 1.342,0.004 2.014,0.004 m -7.666,0 c 0.671,0 1.343,0.006 2.014,-0.004 0.184,-0.003 0.244,0.045 0.243,0.236 -0.009,1.027 -0.01,2.055 0,3.082 0.001,0.203 -0.064,0.257 -0.26,0.256 -1.333,-0.007 -2.665,-0.007 -3.997,0 -0.196,0.001 -0.266,-0.055 -0.264,-0.259 0.009,-1.017 0.011,-2.034 -0.001,-3.051 -0.002,-0.224 0.079,-0.267 0.282,-0.264 0.66,0.011 1.322,0.004 1.983,0.004 m 7.681,23.089 c -0.671,0 -1.343,-0.005 -2.014,0.005 -0.193,0.003 -0.262,-0.045 -0.259,-0.251 0.01,-1.016 0.01,-2.034 0,-3.051 -0.003,-0.214 0.062,-0.274 0.274,-0.273 1.322,0.009 2.645,0.008 3.967,0.001 0.207,-0.001 0.282,0.055 0.28,0.273 -0.01,1.017 -0.01,2.034 0,3.051 0.002,0.209 -0.073,0.253 -0.265,0.25 -0.66,-0.01 -1.322,-0.005 -1.983,-0.005 m -7.698,-3.565 c 0.671,0 1.343,0.006 2.014,-0.004 0.196,-0.003 0.262,0.053 0.26,0.256 -0.01,1.027 -0.009,2.055 0,3.081 0.001,0.192 -0.059,0.238 -0.243,0.236 -1.343,-0.007 -2.685,-0.008 -4.028,0.002 -0.213,0.001 -0.25,-0.078 -0.249,-0.265 0.007,-1.017 0.008,-2.035 -0.001,-3.051 -0.002,-0.204 0.068,-0.262 0.264,-0.259 0.661,0.01 1.322,0.004 1.983,0.004 m 1.117,-7.963 c 0,-0.864 -0.003,-1.728 0.001,-2.593 0.002,-0.213 0.007,-0.429 0.043,-0.637 0.09,-0.508 0.487,-0.733 0.974,-0.562 0.114,0.04 0.224,0.098 0.326,0.163 1.406,0.913 2.811,1.828 4.216,2.745 0.076,0.05 0.148,0.108 0.215,0.17 0.43,0.398 0.441,0.962 0.021,1.369 -0.102,0.098 -0.219,0.182 -0.338,0.26 -1.335,0.874 -2.67,1.748 -4.008,2.617 -0.318,0.207 -0.657,0.417 -1.046,0.205 -0.389,-0.212 -0.399,-0.612 -0.402,-0.991 -0.007,-0.915 -0.002,-1.831 -0.002,-2.746 M -28.125,-2.689 v 24.922 c 0.014,0.038 0.035,0.074 0.041,0.112 0.194,1.208 1.21,2.127 2.654,2.125 8.631,-0.007 17.263,-0.003 25.895,-0.005 0.429,0 0.852,-0.053 1.243,-0.252 C 2.712,23.702 3.151,22.86 3.151,21.758 3.149,15.823 3.15,9.889 3.15,3.955 c 0,-2.077 10e-4,-4.153 0,-6.229 C 3.149,-3.151 2.835,-3.88 2.126,-4.419 1.607,-4.813 1.008,-4.924 0.373,-4.924 c -3.155,0.002 -6.311,0.001 -9.466,0.001 -5.416,0 -10.831,0.002 -16.246,-0.002 -0.737,0 -1.408,0.163 -1.969,0.673 -0.464,0.422 -0.688,0.967 -0.817,1.563"
             style="fill:#000000;fill-opacity:1;fill-rule:nonzero;stroke:none"
             id="path5778" />
        </g>
      </g>
    </g>
  </g>
</svg>
