<svg width="26" height="25" viewBox="0 0 26 25" fill="none" xmlns="http://www.w3.org/2000/svg">
<path fill-rule="evenodd" clip-rule="evenodd" d="M13 0.5C6.09625 0.5 0.5 6.105 0.5 13.0212C0.5 18.5525 4.08125 23.2463 9.04875 24.9012C9.67375 25.0163 9.90125 24.63 9.90125 24.2975C9.90125 24.0012 9.89125 23.2125 9.885 22.1687C6.4075 22.925 5.67375 20.49 5.67375 20.49C5.10625 19.0425 4.28625 18.6575 4.28625 18.6575C3.15125 17.8825 4.3725 17.8975 4.3725 17.8975C5.62625 17.985 6.28625 19.1875 6.28625 19.1875C7.40125 21.1 9.2125 20.5475 9.92375 20.2275C10.0387 19.4187 10.3612 18.8675 10.7188 18.555C7.94375 18.2388 5.025 17.1637 5.025 12.3663C5.025 11 5.5125 9.88125 6.31125 9.00625C6.1825 8.69 5.75375 7.41625 6.43375 5.69375C6.43375 5.69375 7.48375 5.35625 9.87125 6.97625C10.891 6.69814 11.943 6.55649 13 6.555C14.0625 6.56 15.1312 6.69875 16.13 6.97625C18.5163 5.35625 19.5637 5.6925 19.5637 5.6925C20.2463 7.41625 19.8162 8.69 19.6887 9.00625C20.4888 9.88125 20.9737 11 20.9737 12.3663C20.9737 17.1763 18.05 18.235 15.2662 18.545C15.715 18.9313 16.1138 19.695 16.1138 20.8638C16.1138 22.5363 16.0988 23.8875 16.0988 24.2975C16.0988 24.6325 16.3237 25.0225 16.9587 24.9C19.4479 24.0651 21.6117 22.4691 23.1444 20.3376C24.677 18.206 25.5011 15.6466 25.5 13.0212C25.5 6.105 19.9025 0.5 13 0.5Z" fill="white"/>
</svg>
