<svg width="26" height="21" viewBox="0 0 26 21" fill="none" xmlns="http://www.w3.org/2000/svg">
<path d="M8.3625 20.3167C17.7962 20.3167 22.9563 12.5005 22.9563 5.723C22.9563 5.5005 22.9562 5.27925 22.9412 5.0605C23.9452 4.33366 24.8117 3.43376 25.5 2.403C24.5638 2.818 23.5707 3.0902 22.5537 3.2105C23.6246 2.56932 24.4259 1.56093 24.8088 0.372998C23.8021 0.970356 22.7009 1.39141 21.5525 1.618C20.7792 0.795204 19.7563 0.250291 18.642 0.0676288C17.5278 -0.115033 16.3844 0.0747468 15.3889 0.607584C14.3934 1.14042 13.6014 1.98659 13.1354 3.01507C12.6694 4.04356 12.5555 5.19698 12.8112 6.29675C10.772 6.19455 8.777 5.66466 6.95581 4.74146C5.13461 3.81826 3.52791 2.5224 2.24 0.937998C1.58415 2.067 1.38324 3.40352 1.67817 4.67545C1.9731 5.94738 2.74171 7.0591 3.8275 7.78425C3.01157 7.76063 2.21329 7.54112 1.5 7.14425V7.20925C1.50049 8.39337 1.91049 9.54088 2.6605 10.4572C3.4105 11.3735 4.45434 12.0022 5.615 12.2367C4.85976 12.4426 4.06737 12.4726 3.29875 12.3242C3.62645 13.3436 4.2646 14.235 5.12391 14.8738C5.98322 15.5125 7.02072 15.8667 8.09125 15.8868C7.02765 16.7225 5.80973 17.3403 4.50716 17.7049C3.20458 18.0695 1.8429 18.1738 0.5 18.0117C2.84576 19.5172 5.57524 20.3156 8.3625 20.3117" fill="white"/>
</svg>
