<?xml version="1.0" encoding="UTF-8" standalone="no"?>
<!-- Created with Inkscape (http://www.inkscape.org/) -->

<svg
   version="1.1"
   id="svg66"
   width="385.33398"
   height="311.26624"
   viewBox="0 0 385.33398 311.26624"
   sodipodi:docname="media kit copy.pdf"
   xmlns:inkscape="http://www.inkscape.org/namespaces/inkscape"
   xmlns:sodipodi="http://sodipodi.sourceforge.net/DTD/sodipodi-0.dtd"
   xmlns="http://www.w3.org/2000/svg"
   xmlns:svg="http://www.w3.org/2000/svg">
  <defs
     id="defs70">
    <clipPath
       clipPathUnits="userSpaceOnUse"
       id="clipPath4006">
      <path
         d="M 0,1080 H 1920 V 0 H 0 Z"
         id="path4004" />
    </clipPath>
  </defs>
  <sodipodi:namedview
     id="namedview68"
     pagecolor="#ffffff"
     bordercolor="#000000"
     borderopacity="0.25"
     inkscape:showpageshadow="2"
     inkscape:pageopacity="0.0"
     inkscape:pagecheckerboard="0"
     inkscape:deskcolor="#d1d1d1"
     showgrid="false" />
  <g
     id="g3986"
     inkscape:groupmode="layer"
     inkscape:label="Page 11"
     transform="matrix(1.3333333,0,0,-1.3333333,-334,1219.6326)">
    <g
       id="g4000">
      <g
         id="g4002"
         clip-path="url(#clipPath4006)">
        <g
           id="g4020"
           transform="translate(365.5178,795.4546)">
          <path
             d="m 0,0 c -3.718,-0.005 -7.435,-0.009 -11.152,-0.014 -0.106,0.518 0.184,0.835 0.642,1.011 3.664,1.407 3.689,1.409 2.665,5.15 -0.35,1.281 -0.561,2.578 -0.801,4.066 -0.022,-2.211 -1.125,-2.133 -2.415,-1.177 -1.949,1.446 -3.362,3.363 -4.507,5.401 -0.836,1.487 -1.536,2.966 -3.443,3.46 -0.336,0.087 -0.763,0.283 -0.836,0.557 -1.114,4.19 -6.333,5.46 -7.601,9.544 -0.181,0.583 -0.412,1.393 -1.294,1.335 -0.801,-0.053 -1.035,-0.803 -1.307,-1.396 -1.174,-2.563 -1.315,-5.588 -4.259,-7.34 -1.101,-0.655 0.112,-1.27 0.783,-1.605 2.06,-1.027 4.339,-1.609 6.348,-2.741 2.734,-1.54 2.807,-2.743 0.107,-4.222 -2.927,-1.604 -5.969,-2.99 -9.468,-3.121 -3.989,-0.149 -6.844,-1.834 -8.252,-5.733 2.555,-0.91 5.204,-0.307 7.776,-0.444 1.857,-0.098 3.732,0.082 5.584,-0.074 1.029,-0.087 2.484,0.298 2.67,-1.365 -6.996,-0.233 -13.988,-0.022 -20.981,0.135 -0.347,0.008 -0.746,-0.021 -1.032,0.123 -2.185,1.098 -4.544,0.783 -6.857,0.785 -8.632,0.009 -17.263,-0.011 -25.895,-0.005 -0.923,10e-4 -1.858,0.038 -2.762,0.194 -0.363,0.063 -0.262,0.497 -0.016,0.766 1.36,1.302 2.711,2.614 4.331,3.644 0.437,0.227 0.899,0.395 1.374,0.53 2.77,1.605 5.73,0.805 8.493,0.256 2.743,-0.545 4.516,-0.06 5.561,2.413 0.557,0.748 1.396,1.181 2.145,1.714 0.234,0.172 0.487,0.324 0.741,0.469 0.49,0.285 0.979,0.576 1.446,0.896 0.224,0.165 0.463,0.309 0.704,0.448 0.476,0.278 0.946,0.564 1.399,0.874 0.22,0.162 0.454,0.304 0.692,0.44 0.468,0.272 0.932,0.551 1.378,0.856 0.215,0.158 0.444,0.295 0.677,0.427 0.453,0.261 0.903,0.526 1.306,0.854 0.183,0.175 0.375,0.343 0.56,0.516 0.161,0.195 0.323,0.389 0.464,0.597 0.244,0.483 0.286,0.999 0.301,1.524 0.021,1.351 0.05,2.932 1.605,3.36 5.021,1.382 6.258,5.84 8.799,9.24 0.141,0.261 0.308,0.509 0.484,0.75 0.444,0.569 0.903,1.131 1.219,1.782 0.108,0.265 0.231,0.522 0.347,0.782 0.8,1.735 0.852,3.641 1.39,5.435 0.17,1.714 0.796,3.213 2.261,4.32 0.227,0.199 0.477,0.373 0.734,0.536 0.502,0.306 1.014,0.604 1.504,0.93 0.229,0.166 0.474,0.313 0.72,0.455 0.474,0.281 0.939,0.575 1.304,0.988 0.146,0.233 0.291,0.463 0.416,0.705 0.435,1.227 -0.053,2.64 0.865,3.764 0.292,0.184 0.58,0.177 0.862,-0.02 l 0.7,-0.685 c 0.281,-0.242 0.574,-0.473 0.804,-0.764 0.144,-0.202 0.265,-0.416 0.371,-0.638 0.169,-0.333 0.334,-0.667 0.509,-1.001 0.13,-0.229 0.233,-0.466 0.327,-0.709 0.155,-0.383 0.301,-0.766 0.464,-1.147 1.187,-2.311 2.68,-4.386 4.935,-5.883 3.528,1.724 7.168,3.292 9.314,6.704 0.069,0.296 0.16,0.585 0.255,0.872 0.184,0.582 0.323,1.172 0.328,1.786 0.045,1.12 0.006,2.246 0.32,3.342 0.494,1.916 1.589,3.308 3.722,3.792 0.472,0.156 0.96,0.258 1.45,0.343 0.929,0.146 1.827,0.408 2.713,0.705 1.879,0.504 3.035,1.738 3.809,3.359 0.139,0.262 0.303,0.508 0.478,0.749 0.263,0.368 0.544,0.723 0.813,1.088 1.496,2.157 2.863,4.385 4.216,6.619 0.07,0.13 0.151,0.258 0.222,0.388 0.078,0.124 0.165,0.246 0.243,0.372 0.436,0.579 0.889,1.149 1.266,1.77 0.146,0.251 0.315,0.488 0.491,0.721 0.975,1.065 1.305,2.66 2.93,3.192 0.741,0.225 1.485,0.444 2.223,0.677 0.401,0.127 0.955,0.197 0.84,0.746 -0.094,0.45 -0.601,0.565 -1.027,0.688 -0.65,0.547 -0.711,1.251 -0.612,2.001 0.044,0.286 0.117,0.567 0.206,0.843 0.11,0.419 0.205,0.843 0.255,1.275 0.038,1.526 0.443,2.979 0.955,4.412 0.195,0.597 0.363,1.197 0.389,1.828 0.633,2.863 0.396,6.019 3.09,8.186 1.179,0.811 2.54,1.347 3.728,2.147 0.777,0.439 1.54,0.902 2.287,1.385 0.747,0.433 1.47,0.899 2.18,1.384 0.847,0.524 1.685,1.056 2.21,1.915 0.121,0.269 0.247,0.53 0.361,0.799 0.19,3.177 -1.605,6.175 -0.917,9.39 0.246,0.472 0.55,0.859 1.203,0.727 2.733,-4.962 5.503,-9.905 8.18,-14.893 1.007,-1.877 2.212,-3.578 3.7,-5.147 3.799,-4.008 7.535,-8.068 11.268,-12.131 0.587,-0.639 1.458,-1.143 1.449,-2.153 -2.079,-1.696 -4.709,-1.66 -7.202,-1.963 -1.561,-0.19 -2.547,0.833 -3.388,1.938 -1.007,1.32 -2.057,2.583 -4.418,2.389 2.743,-2.263 4.725,-4.79 6.605,-7.397 1.407,-1.951 3.339,-3.318 5.583,-4.306 1.389,-0.612 2.557,-1.484 3.554,-2.572 0.488,-1.107 1.133,-2.101 1.991,-3.013 2.371,-2.518 4.663,-5.103 6.986,-7.662 1.141,-0.79 1.283,-2.198 2.187,-3.136 0.182,-0.23 0.339,-0.474 0.487,-0.723 0.296,-0.506 0.577,-1.019 0.861,-1.53 1.155,-1.858 1.644,-4.123 3.741,-5.395 0.585,-0.19 1.187,-0.322 1.78,-0.485 0.303,-0.083 0.595,-0.194 0.882,-0.315 3.911,-1.439 3.911,-1.439 3.987,2.447 0.015,0.757 -0.005,1.516 0.104,2.268 0.041,0.285 0.118,0.564 0.216,0.836 0.152,0.394 0.351,0.77 0.554,1.143 0.119,0.248 0.258,0.488 0.397,0.727 0.187,0.372 0.372,0.744 0.551,1.122 0.111,0.266 0.242,0.521 0.379,0.776 1.274,1.893 1.359,3.783 0.257,5.811 -0.561,1.03 -1.031,2.187 -0.588,3.426 0.277,0.425 0.606,0.738 1.192,0.498 1.235,-0.817 2.447,-1.667 3.71,-2.443 1.221,-0.749 1.981,-1.768 2.556,-3.025 1.152,-2.52 2.462,-4.975 3.659,-7.477 0.59,-1.233 1.471,-2.194 2.54,-3.087 4.384,-3.659 9.14,-6.821 14.315,-9.374 3.375,-1.664 6.126,-3.876 8.453,-6.712 1.625,-1.981 3.612,-3.697 5.438,-5.53 1.516,-2.601 3.996,-4.545 5.446,-7.201 1.409,-2.58 1.037,-3.563 -1.945,-3.577 -5.355,-0.027 -10.691,0.489 -16.006,1.115 -2.661,0.314 -3.742,1.874 -3.943,4.274 -0.17,2.024 0.683,4.364 -1.286,5.939 -2.998,2.4 -5.99,4.899 -10.466,5.604 1.274,-2.96 3.151,-5.319 4.458,-7.946 0.541,-1.089 1.483,-2.177 0.656,-3.38 -0.826,-1.201 -2.279,-1.071 -3.516,-0.757 -3.747,0.951 -6.832,-0.769 -10.025,-2.064 -4.68,-1.898 -5.545,-1.53 -6.802,3.129 -1.13,4.187 -2.669,8.277 -3.113,11.762 0.276,-0.949 0.411,-2.766 0.668,-4.562 0.109,-0.768 0.045,-1.597 -0.918,-1.928 -0.774,-0.266 -1.375,0.176 -1.836,0.669 -4.154,4.436 -8.968,8.445 -11.001,14.307 -0.876,2.526 -2.097,4.303 -5.314,4.285 -2.476,-0.015 -3.324,1.829 -3.629,3.782 -0.387,2.472 -1.623,4.361 -3.907,5.554 -4.658,2.432 -7.37,6.176 -8.975,10.897 -1.003,2.951 -2.088,2.991 -4.188,0.626 -1.003,-1.13 -1.586,-2.451 -1.953,-3.84 -1.509,-5.709 -2.678,-11.623 -10.532,-13.328 4.629,-2.613 9.004,-4.786 13.548,-6.645 2.144,-0.877 4.289,-1.751 6.312,-2.847 2.795,-1.516 2.809,-2.781 -0.019,-4.122 C 31.895,35.201 24.205,31.769 15.453,31.44 14.52,31.405 13.597,31.256 12.684,31.063 8.239,30.123 7.45,28.361 9.261,24.483 10.84,21.104 13.419,18.831 16.55,16.73 21.292,13.549 25.784,10.015 28.899,5.221 29.515,4.273 30.295,3.321 29.605,2.187 28.949,1.109 27.759,1.484 26.744,1.566 25.346,1.678 23.943,1.744 22.548,1.673 19.385,1.512 17.432,2.499 17.175,5.826 16.989,8.227 14.744,8.987 12.599,10.285 12.901,8.177 14.842,6.892 14.217,5.273 13.43,3.234 11.139,4.553 9.586,4.023 6.28,2.894 3.193,1.344 0,0"
             style="fill:#4d4d4d;fill-opacity:1;fill-rule:nonzero;stroke:none"
             id="path4022" />
        </g>
        <g
           id="g4024"
           transform="translate(477.7234,756.3193)">
          <path
             d="m 0,0 c -1.478,-3.678 -2.956,-7.356 -4.432,-11.035 -1.072,-2.672 -2.164,-5.338 -3.199,-8.023 -0.367,-0.953 -0.953,-1.402 -2.061,-1.388 -4.251,0.053 -3.528,-0.41 -4.998,3.136 -2.206,5.322 -4.283,10.691 -6.413,16.041 -0.196,0.492 -0.258,1.065 -0.867,1.302 -0.751,-0.175 -0.414,-0.729 -0.415,-1.073 -0.026,-8.14 -0.018,-16.281 -0.023,-24.422 -10e-4,-0.879 -0.017,-1.759 -0.065,-2.637 -0.035,-0.63 -0.438,-0.976 -1.1,-1.035 -0.348,-0.031 -0.698,-0.056 -1.046,-0.051 -6.592,0.1 -5.597,-0.906 -5.619,5.116 -0.049,13.311 -0.017,26.623 -0.014,39.934 10e-4,0.989 0.015,1.98 0.049,2.968 0.021,0.638 0.414,1.038 1.073,1.058 1.513,0.048 3.029,0.016 4.543,0.051 1.102,0.025 1.674,-0.488 2.033,-1.44 1.366,-3.624 2.783,-7.231 4.183,-10.844 2.24,-5.78 4.481,-11.559 6.725,-17.338 0.159,-0.408 0.355,-0.804 0.529,-1.196 0.904,0.198 0.987,0.895 1.223,1.502 3.405,8.771 6.822,17.539 10.224,26.311 1.322,3.409 0.787,2.958 4.68,3.008 0.583,0.008 1.166,0.015 1.748,-0.006 1.763,-0.064 1.948,-0.214 1.968,-1.963 0.034,-2.97 0.012,-5.941 0.012,-8.911 0,-11.772 0.007,-23.543 -0.005,-35.314 -0.003,-2.907 -0.031,-2.954 -3.067,-2.932 -5.676,0.041 -4.933,-0.712 -4.96,4.771 -0.035,7.041 -0.009,14.082 -0.009,21.123 v 3.275 C 0.464,-0.008 0.232,-0.004 0,0"
             style="fill:#333333;fill-opacity:1;fill-rule:nonzero;stroke:none"
             id="path4026" />
        </g>
        <g
           id="g4028"
           transform="translate(323.3259,749.207)">
          <path
             d="m 0,0 v 2.22 c 0,7.044 -0.002,14.089 0.003,21.134 0,0.879 0.013,1.76 0.062,2.638 0.035,0.635 0.449,0.968 1.112,1.018 0.349,0.026 0.699,0.049 1.048,0.043 6.604,-0.11 5.58,0.94 5.603,-5.118 0.053,-13.318 0.018,-26.637 0.014,-39.956 0,-0.99 -0.02,-1.98 -0.057,-2.969 -0.024,-0.655 -0.463,-1.017 -1.109,-1.035 -1.515,-0.042 -3.031,-0.018 -4.547,-0.025 -0.826,-0.004 -1.271,0.446 -1.508,1.129 -0.614,1.777 -1.231,3.553 -1.823,5.337 -2.09,6.294 -4.174,12.59 -6.246,18.891 -0.207,0.63 -0.348,1.274 -0.906,1.792 -0.822,-0.206 -0.423,-0.867 -0.425,-1.28 -0.031,-7.375 -0.021,-14.75 -0.025,-22.125 -10e-4,-0.88 -0.013,-1.76 -0.054,-2.639 -0.029,-0.62 -0.386,-1.004 -1.061,-1.071 -0.347,-0.034 -0.697,-0.061 -1.046,-0.055 -6.596,0.098 -5.597,-0.912 -5.62,5.117 -0.049,13.319 -0.016,26.638 -0.013,39.957 0,0.99 0.017,1.98 0.053,2.97 0.023,0.648 0.445,1.016 1.097,1.037 1.398,0.045 2.8,-0.007 4.197,0.051 1.147,0.048 1.664,-0.519 1.976,-1.463 1.283,-3.883 2.592,-7.759 3.895,-11.636 C -4.007,9.875 -2.629,5.789 -1.258,1.701 -1.054,1.094 -0.979,0.421 0,0"
             style="fill:#333333;fill-opacity:1;fill-rule:nonzero;stroke:none"
             id="path4030" />
        </g>
        <g
           id="g4032"
           transform="translate(535.5226,763.708)">
          <path
             d="M 0,0 C -1.255,0.417 -1.334,1.419 -1.772,2.146 -2.649,3.6 -3.687,4.909 -5.08,5.943 c -2.799,2.077 -6.211,2.078 -9.019,0.027 -1.313,-0.959 -2.298,-2.18 -3.094,-3.539 -1.251,-2.135 -2.057,-4.418 -2.568,-6.806 -1.34,-6.258 -1.172,-12.447 0.855,-18.566 0.561,-1.693 1.336,-3.282 2.378,-4.754 0.651,-0.92 1.41,-1.745 2.343,-2.429 2.907,-2.129 6.042,-2.19 9.024,-0.157 1.152,0.786 2.052,1.791 2.773,2.936 0.475,0.755 0.877,1.552 1.365,2.298 0.299,0.456 0.788,0.482 1.139,0.08 0.593,-0.677 1.118,-1.407 1.655,-2.125 2.587,-3.454 2.545,-3.463 -0.792,-6.382 -5.871,-5.136 -14.781,-4.968 -20.546,-0.62 -2.874,2.167 -5.182,4.793 -6.668,7.951 -4.514,9.593 -4.457,19.183 0.372,28.68 1.378,2.709 3.321,5.047 5.789,6.956 7.56,5.846 17.438,4.612 23.456,-2.664 C 4.178,5.867 4.177,5.625 3.373,4.513 2.453,3.242 1.489,1.999 0.545,0.743 0.342,0.473 0.145,0.198 0,0"
             style="fill:#333333;fill-opacity:1;fill-rule:nonzero;stroke:none"
             id="path4034" />
        </g>
        <g
           id="g4036"
           transform="translate(286.4675,804.4663)">
          <path
             d="m 0,0 c 0.848,0.576 1.761,1.084 2.527,1.744 0.955,0.823 1.95,1.532 3.118,2.077 0.929,0.434 1.92,0.941 2.578,1.663 1.31,1.438 2.848,2.153 4.835,2.133 0.299,-0.003 0.709,0.203 0.556,0.637 C 13.56,8.41 13.329,8.597 13.159,8.616 11.08,8.85 8.998,9.062 6.915,9.266 6.106,9.345 5.289,9.36 4.484,9.463 3.826,9.547 3.503,10.232 3.916,10.676 c 1.228,1.323 2.511,2.599 3.743,3.919 1.692,1.813 3.109,3.959 5.106,5.386 1.896,1.355 4.368,2.011 6.622,2.893 1.543,0.604 2.874,1.477 3.993,2.604 2.427,2.447 5.254,4.354 8.523,5.616 1.679,0.648 2.584,1.714 3.045,3.314 0.427,1.482 1.01,2.924 1.545,4.376 0.307,0.835 0.65,1.674 1.469,2.191 2.351,1.483 4.034,3.629 6.07,5.423 2.706,-2.052 1.632,-4.752 1.405,-7.306 l 0.021,0.021 c -0.695,-0.466 -1.474,-0.81 -2.124,-1.338 l 0.024,0.016 c -0.696,-0.465 -1.475,-0.812 -2.127,-1.339 l 0.027,0.018 c -2.245,-0.916 -2.58,-2.795 -2.706,-4.781 -0.776,-1.874 -0.815,-3.917 -1.512,-5.808 l 0.017,0.023 C 36.498,25.29 36.13,24.555 35.64,23.897 l 0.018,0.028 C 34.331,21.631 32.4,19.929 29.963,18.721 28.896,17.949 27.591,17.411 27.101,16.078 25.564,14.058 24.167,11.992 24.319,9.351 24.142,8.905 24.05,8.425 23.73,8.037 l 0.022,0.019 C 23.058,7.59 22.278,7.245 21.628,6.717 l 0.025,0.017 C 20.958,6.27 20.179,5.925 19.529,5.396 l 0.024,0.017 C 18.857,4.948 18.078,4.602 17.427,4.074 l 0.025,0.017 C 16.756,3.626 15.977,3.28 15.326,2.753 L 15.35,2.769 C 14.736,2.392 14.13,1.999 13.418,1.794 12.588,1.192 11.511,1.196 10.611,0.766 9.852,0.317 9.169,-0.263 8.257,-0.441 7.659,-0.549 7.073,-0.505 6.502,-0.31 5.905,-0.059 5.366,0.391 4.629,0.187 4.23,0.044 3.845,-0.116 3.473,-0.315 2.255,-0.793 0.995,-1.654 0,0"
             style="fill:#666666;fill-opacity:1;fill-rule:nonzero;stroke:none"
             id="path4038" />
        </g>
        <g
           id="g4040"
           transform="translate(494.3893,751.7158)">
          <path
             d="m 0,0 c 0,7.038 -0.003,14.076 0.004,21.114 0.001,0.878 0.013,1.761 0.121,2.63 0.031,0.246 0.38,0.561 0.655,0.65 0.426,0.139 0.915,0.155 1.375,0.147 6.594,-0.112 5.58,0.975 5.605,-5.099 0.052,-13.306 0.017,-26.612 0.014,-39.918 0,-0.989 -0.012,-1.979 -0.051,-2.967 -0.025,-0.616 -0.372,-1.011 -1.049,-1.079 -0.347,-0.036 -0.697,-0.064 -1.045,-0.059 -6.585,0.097 -5.564,-0.905 -5.616,5.117 C -0.043,-12.977 0,-6.488 0,0"
             style="fill:#333333;fill-opacity:1;fill-rule:nonzero;stroke:none"
             id="path4042" />
        </g>
        <g
           id="g4044"
           transform="translate(340.9597,836.3208)">
          <path
             d="m 0,0 c -2.296,2.115 -4.354,4.393 -5.518,7.273 0.424,0.458 0.365,0.897 -0.06,1.322 L -5.554,8.56 c -0.392,0.38 -0.277,1.002 -0.723,1.357 l 0.027,-0.04 c -0.38,0.452 -0.433,0.914 -0.046,1.388 1.614,1.111 3.547,1.582 5.345,2.313 1.232,0.501 2.249,1.065 2.747,2.305 0.806,2.006 2.323,3.495 4.005,4.879 2.101,1.728 4.118,3.547 6.226,5.265 1.254,1.022 2.234,2.197 2.984,3.587 0.895,1.658 1.926,3.252 2.811,4.915 0.545,1.023 1.358,1.34 2.511,1.387 3.015,0.12 6.026,0.333 9.038,0.509 1.726,0.467 2.838,0.378 1.797,-1.73 -0.291,-0.588 -0.657,-1.131 -1.013,-1.682 l 0.02,0.025 c -0.556,-0.617 -0.923,-1.352 -1.419,-2.007 l 0.02,0.025 C 28.521,30.819 28.414,30.481 28.163,30.242 27.958,30.129 27.736,30.067 27.504,30.04 27.16,29.977 26.849,29.845 26.587,29.615 26.249,29.253 26.014,28.833 25.757,28.42 25.62,28.187 25.466,27.969 25.302,27.754 24.524,26.751 23.792,25.721 23.082,24.675 22.571,23.941 22.04,23.223 21.388,22.59 18.412,20.345 14.723,20.096 10.994,19.681 c 0.714,-1.242 1.831,-0.969 2.573,-1.419 0.45,-0.271 0.751,-0.609 0.572,-1.157 -2.3,-0.267 -2.883,-1.885 -3.248,-3.678 C 11.089,11.542 10.504,9.749 10.189,7.924 10.257,6.09 9.058,5.508 7.386,5.391 6.827,5.474 6.37,5.714 6.054,6.166 5.689,6.984 5.82,7.717 6.489,8.351 6.698,8.57 7.03,8.76 7.071,9.039 7.122,9.385 7.025,9.435 7.007,9.156 6.994,8.959 6.872,8.796 6.68,8.664 5.138,7.515 4.073,5.542 1.363,6.77 0.668,7.084 -0.813,5.825 -1.916,5.179 -1.439,3.565 0.353,2.935 0.938,1.485 1.15,0.695 0.548,0.363 0,0"
             style="fill:#666666;fill-opacity:1;fill-rule:nonzero;stroke:none"
             id="path4046" />
        </g>
        <g
           id="g4048"
           transform="translate(371.7448,875.8813)">
          <path
             d="m 0,0 c -2.884,0.293 -5.768,0.587 -8.788,0.894 0.181,1.604 0.864,2.845 2.075,3.752 2.574,1.926 3.963,4.461 4.937,7.38 1.362,4.078 3.058,8.056 4.558,12.094 0.395,1.065 0.821,2.059 1.886,2.67 4.377,2.51 7.339,6.35 10.543,9.965 0.518,0.585 1.095,1.123 1.645,1.683 1.566,0.034 1.221,-1.167 1.451,-1.997 0.107,-3.098 0.83,-6.113 1.463,-9.136 0.202,-0.961 0.457,-1.875 -0.089,-2.793 l 0.012,0.01 C 19.105,24.19 18.566,23.771 17.876,23.623 17.201,23.61 16.526,23.589 15.879,23.36 15.2,23.161 14.539,22.91 13.835,22.796 12.631,23.018 11.561,22.721 10.589,22.04 9.449,21.303 8.208,21.604 6.958,21.802 6.553,20.459 7.724,19.524 7.768,18.354 7.842,17.859 7.782,17.379 7.619,16.905 6.353,14.209 6.191,11.271 5.517,8.444 4.753,6.229 4.643,3.879 3.915,1.657 3.804,-1.412 1.557,0.022 0,0"
             style="fill:#666666;fill-opacity:1;fill-rule:nonzero;stroke:none"
             id="path4050" />
        </g>
        <g
           id="g4052"
           transform="translate(442.6431,862.1675)">
          <path
             d="m 0,0 c -0.282,-0.246 -0.565,-0.491 -0.847,-0.737 -0.79,-1.253 0.128,-2.426 0.649,-3.27 1.27,-2.056 1.062,-3.816 -0.247,-5.648 -0.385,-0.835 -1.186,-0.362 -1.785,-0.514 -0.475,-0.227 -0.699,-0.655 -0.953,-1.059 -0.354,-0.562 -0.793,-1.057 -1.279,-1.515 -0.284,-0.273 -0.598,-0.511 -0.943,-0.706 -0.225,-0.104 -0.467,-0.169 -0.709,-0.206 -0.547,-0.11 -0.631,-0.679 -1.029,-0.948 -1.825,0.096 -1.68,1.472 -1.912,2.6 0.03,0.188 0.196,0.327 0.244,0.516 -0.166,-0.103 -0.272,-0.25 -0.317,-0.452 -0.584,-0.797 1.823,-3.152 -1.478,-2.52 -0.862,0.547 -1.548,1.266 -2.201,2.014 -0.159,1.101 -0.866,0.005 -1.233,0.267 -0.382,0.195 -0.509,0.598 -0.8,0.866 l 0.022,-0.027 c -0.467,1.263 -2.147,2.147 -1.334,3.809 3.819,2.675 7.622,5.371 11.463,8.017 C -2.532,1.974 -2.427,1.929 0,0"
             style="fill:#666666;fill-opacity:1;fill-rule:nonzero;stroke:none"
             id="path4054" />
        </g>
        <g
           id="g4056"
           transform="translate(286.4675,804.4663)">
          <path
             d="M 0,0 C 0.963,-0.718 1.86,-0.694 2.724,0.173 2.95,0.4 3.275,0.54 3.554,0.719 5.229,0.016 6.945,-0.529 8.811,-0.486 c 1.27,0.163 1.846,0.81 1.595,2.035 0.286,0.423 0.703,0.6 1.179,0.385 0.612,-0.276 1.116,-0.02 1.648,0.174 0.407,-0.263 0.418,-0.54 0.033,-0.831 -0.048,-0.212 -0.052,-0.444 -0.15,-0.632 -1.58,-3.051 -1.241,-3.795 -5.668,-2.778 -1.789,0.411 -3.65,0.192 -5.444,0.744 -1.283,0.395 -2.326,-0.778 -3.552,-1.025 -0.533,0.365 -0.962,0.222 -1.326,-0.24 -1.271,-1.262 -2.693,-2.333 -4.379,-3.068 0.658,1.526 1.887,2.673 2.984,3.891 C -3.18,-0.621 -1.509,-0.437 0,0"
             style="fill:#666666;fill-opacity:1;fill-rule:nonzero;stroke:none"
             id="path4058" />
        </g>
        <g
           id="g4060"
           transform="translate(331.9041,843.5581)">
          <path
             d="M 0,0 C 0.245,2.353 -0.522,4.582 -0.966,6.848 -1,7.021 -1.253,7.154 -1.404,7.307 -0.39,8.091 -0.143,7.991 0.546,6.517 0.365,5.893 0.761,5.297 0.645,4.677 0.678,3.578 0.723,2.479 0.738,1.379 0.746,0.812 0.592,0.295 0,0"
             style="fill:#666666;fill-opacity:1;fill-rule:nonzero;stroke:none"
             id="path4062" />
        </g>
        <g
           id="g4064"
           transform="translate(371.1145,869.334)">
          <path
             d="M 0,0 C -0.078,0.697 0.318,1.25 0.597,1.849 1.159,3.057 1.138,3.065 -0.445,3.339 -0.558,3.358 -0.671,3.387 -0.783,3.412 0.338,4.228 1.607,4.003 2.862,3.871 1.907,2.581 1.598,0.866 0,0"
             style="fill:#666666;fill-opacity:1;fill-rule:nonzero;stroke:none"
             id="path4066" />
        </g>
        <g
           id="g4068"
           transform="translate(371.7448,875.8813)">
          <path
             d="m 0,0 c 0.448,0.032 0.896,0.076 1.344,0.095 1.83,0.076 1.83,0.074 2.3,1.962 C 3.855,2.269 4.067,2.281 4.281,2.06 4.276,1.185 4.272,0.309 4.268,-0.566 2.818,-0.561 1.318,-0.892 0,0"
             style="fill:#666666;fill-opacity:1;fill-rule:nonzero;stroke:none"
             id="path4070" />
        </g>
        <g
           id="g4072"
           transform="translate(426.4911,854.6372)">
          <path
             d="M 0,0 C 0.252,-0.681 0.464,-1.379 0.77,-2.038 1.036,-2.612 1.373,-3.153 1.334,-3.809 -0.181,-2.915 -0.69,-1.518 -0.835,0.061 -0.557,0.041 -0.279,0.02 0,0"
             style="fill:#666666;fill-opacity:1;fill-rule:nonzero;stroke:none"
             id="path4074" />
        </g>
        <g
           id="g4076"
           transform="translate(389.3916,912.3188)">
          <path
             d="M 0,0 C -0.134,0.713 0.027,1.529 -0.791,2.001 0.235,2.672 0.456,2.579 1.147,1.186 0.844,0.772 1.123,0.176 0.663,-0.188 0.387,-0.298 0.169,-0.227 0,0"
             style="fill:#666666;fill-opacity:1;fill-rule:nonzero;stroke:none"
             id="path4078" />
        </g>
        <g
           id="g4080"
           transform="translate(389.9379,912.3296)">
          <path
             d="M 0,0 C 0.068,0.452 0.139,0.903 0.601,1.175 0.871,0.542 1.14,-0.09 1.41,-0.722 1.18,-0.939 0.95,-1.155 0.72,-1.372 -0.481,-1.364 -0.318,-0.718 0,0"
             style="fill:#666666;fill-opacity:1;fill-rule:nonzero;stroke:none"
             id="path4082" />
        </g>
        <g
           id="g4084"
           transform="translate(332.549,848.2349)">
          <path
             d="M 0,0 C -0.815,0.576 -0.805,1.191 -0.099,1.84 0.207,1.235 0.782,0.739 0.748,-0.005 0.498,-0.003 0.249,-0.002 0,0"
             style="fill:#666666;fill-opacity:1;fill-rule:nonzero;stroke:none"
             id="path4086" />
        </g>
        <g
           id="g4088"
           transform="translate(334.6633,847.5859)">
          <path
             d="M 0,0 C 0.015,-0.463 0.031,-0.925 0.046,-1.388 -0.643,-1.152 -0.705,-0.62 -0.666,-0.042 -0.446,-0.001 -0.224,0.013 0,0"
             style="fill:#666666;fill-opacity:1;fill-rule:nonzero;stroke:none"
             id="path4090" />
        </g>
        <g
           id="g4092"
           transform="translate(365.5178,795.4546)">
          <path
             d="m 0,0 c 0.611,0.987 1.503,1.659 2.605,2.114 2.238,0.924 4.454,1.899 6.714,2.772 0.621,0.24 1.371,0.165 2.052,0.286 0.781,0.14 1.555,-0.48 2.409,0.035 -0.43,1.493 -1.25,2.792 -2.21,4.038 -0.338,0.438 -0.559,0.964 -0.776,1.472 -0.071,0.168 -0.029,0.456 0.088,0.596 0.115,0.138 0.41,0.25 0.592,0.215 2.502,-0.477 4.273,-2.097 6.126,-3.57 0.452,-0.358 0.564,-0.946 0.577,-1.513 0.016,-0.661 -0.009,-1.325 0.06,-1.98 0.131,-1.23 0.692,-1.798 1.993,-1.876 1.394,-0.084 2.798,-0.072 4.197,-0.05 1.403,0.022 2.784,-0.056 4.147,-0.404 0.367,-0.093 0.827,0.56 0.707,0.928 -0.034,0.103 -0.008,0.245 -0.074,0.314 -2.304,2.425 -3.362,5.852 -6.714,7.435 -0.202,0.095 -0.384,0.258 -0.531,0.425 -2.644,2.998 -6.104,5.047 -9.473,7.188 -1.119,0.711 -1.851,1.632 -2.425,2.738 -0.872,1.679 -1.62,3.446 -2.732,4.974 -0.757,1.039 -0.669,1.794 -0.013,2.657 0.542,0.713 1.182,1.359 1.765,2.045 0.298,0.351 0.62,0.63 1.118,0.715 1.254,0.214 2.5,0.629 3.756,0.654 3.852,0.076 7.515,1.391 11.367,1.443 0.661,0.009 1.347,0.33 1.969,0.61 3.993,1.799 7.845,3.88 12.01,5.335 0.432,0.151 0.828,0.405 1.224,0.636 0.602,0.352 0.604,0.967 -0.051,1.275 -2.396,1.127 -4.775,2.3 -7.233,3.294 -2.654,1.074 -13.163,6.029 -15.207,7.339 -0.083,0.756 0.656,0.809 1.102,1.034 1.541,0.778 3.084,1.571 4.694,2.207 2,0.79 3.076,2.065 3.542,4.113 0.607,2.672 1.667,5.248 2.399,7.899 0.704,2.55 2.856,3.913 4.752,5.5 0.273,0.229 0.735,0.167 0.924,-0.133 0.535,-0.846 1.071,-1.704 1.472,-2.61 0.67,-1.517 1.205,-3.087 1.852,-4.614 0.836,-1.97 1.96,-3.672 4.073,-4.75 1.622,-0.828 3.056,-1.988 4.556,-3.022 1.36,-0.937 2.389,-2.013 2.383,-3.792 -0.003,-0.958 0.461,-1.913 0.676,-2.877 0.222,-0.996 0.852,-1.546 1.912,-1.613 0.813,-0.051 1.632,-0.053 2.448,-0.043 1.771,0.024 2.8,-0.817 3.316,-2.376 0.381,-1.151 0.881,-2.267 1.296,-3.408 0.962,-2.647 2.706,-4.797 4.681,-6.836 2.036,-2.105 3.958,-4.308 5.933,-6.465 0.227,-0.249 0.463,-0.536 0.868,-0.315 0.333,0.181 0.468,0.524 0.352,0.829 -0.898,2.357 -0.447,4.778 -0.379,7.214 0.857,-1.678 1.455,-3.425 1.938,-5.218 0.943,-3.504 1.916,-7 2.899,-10.493 0.118,-0.418 0.366,-0.807 0.578,-1.197 0.237,-0.437 0.641,-0.658 1.142,-0.515 0.89,0.254 1.777,0.53 2.636,0.863 1.721,0.668 3.458,1.311 5.122,2.092 1.894,0.889 3.808,0.933 5.768,0.393 0.8,-0.221 1.58,-0.346 2.406,-0.261 0.771,0.078 1.294,0.8 0.934,1.419 -1.343,2.308 -2.747,4.585 -4.087,6.896 -0.824,1.422 -1.971,2.686 -2.405,4.302 1.95,0.533 3.506,-0.663 5.202,-1.134 2.384,-0.664 4.165,-2.372 6.117,-3.738 3.103,-2.172 3.062,-2.224 3.084,-5.95 0.004,-0.771 -0.035,-1.545 0.029,-2.311 0.173,-2.065 0.634,-2.352 2.925,-2.933 1.949,-0.495 3.89,-0.594 5.873,-0.589 1.742,0.003 3.447,-0.138 5.188,-0.455 2.029,-0.37 4.178,-0.174 6.275,-0.184 0.868,-0.004 1.185,0.592 0.655,1.336 -1.816,2.547 -3.678,5.065 -5.535,7.585 -0.32,0.434 -0.341,0.777 0.163,1.075 3.291,-2.463 6.276,-5.247 9.25,-8.03 5.96,-5.579 11.832,-11.242 17.732,-16.878 0.482,-0.46 1.098,-0.837 1.268,-1.619 -0.852,-0.784 -1.95,-0.4 -2.918,-0.404 C 121.675,2.059 100.221,2.011 78.768,1.969 65.243,1.942 51.717,1.937 38.192,1.916 37.078,1.914 35.963,1.858 34.364,1.813 c 1.677,-1.815 3.792,-2.425 5.353,-4.236 -4.118,0.201 -7.796,0.352 -11.47,0.565 C 22.314,-1.515 16.383,-1.146 10.453,-0.76 6.967,-0.534 3.484,-0.255 0,0"
             style="fill:#333333;fill-opacity:1;fill-rule:nonzero;stroke:none"
             id="path4094" />
        </g>
        <g
           id="g4096"
           transform="translate(336.7576,796.7466)">
          <path
             d="m 0,0 c -0.733,0.769 -1.715,0.557 -2.623,0.562 -4.079,0.023 -8.159,0.016 -12.239,0.035 -0.811,0.004 -1.624,0.057 -2.432,0.124 -0.433,0.036 -0.727,0.684 -0.474,1.027 1.196,1.619 2.39,3.238 3.616,4.836 0.412,0.538 0.935,1.032 1.65,1.161 1.591,0.288 3.19,0.672 4.796,0.719 2.163,0.065 4.105,0.675 6.007,1.532 0.42,0.19 0.876,0.337 1.245,0.595 1.163,0.812 2.959,0.76 3.572,2.319 -0.919,1.262 -2.464,1.621 -3.807,2.171 -2.242,0.917 -4.504,1.785 -6.646,2.9 -0.778,0.405 -0.789,1.108 -0.041,1.528 0.6,0.336 1.235,0.616 1.853,0.925 1.204,0.603 1.896,1.472 2.136,2.809 0.23,1.284 0.836,2.504 1.222,3.768 0.196,0.645 0.461,1.219 0.923,1.744 1.381,1.57 1.971,1.507 2.761,-0.35 0.173,-0.407 0.412,-0.795 0.535,-1.214 0.62,-2.111 1.946,-3.676 4.017,-4.66 1.455,-0.691 2.317,-1.685 2.5,-3.301 0.148,-1.303 0.942,-2.226 2.564,-2.145 1.155,0.059 1.718,-0.719 1.953,-1.581 0.822,-3.019 3.121,-5.077 5.171,-7.301 0.213,-0.231 0.548,-0.363 0.875,-0.571 1.137,0.756 -0.063,2.136 1.02,2.95 0.917,-3.21 1.836,-6.368 2.716,-9.534 0.345,-1.245 0.023,-1.68 -1.239,-1.758 C 20.702,-0.768 19.767,-0.756 18.835,-0.772 18.342,-0.781 17.944,-0.98 17.607,-1.306 13.563,-1.469 9.517,-1.622 5.473,-1.802 4.403,-1.85 3.411,-1.69 2.467,-1.196 1.659,-0.772 0.823,-0.396 0,0"
             style="fill:#333333;fill-opacity:1;fill-rule:nonzero;stroke:none"
             id="path4098" />
        </g>
        <g
           id="g4100"
           transform="translate(416.6783,865.373)">
          <path
             d="m 0,0 c -4.408,1.783 -8.617,3.787 -11.057,8.015 -0.95,1.648 -2.334,2.996 -3.76,4.303 -0.812,0.744 -1.769,1.398 -2.363,2.645 1.344,0.437 2.584,0.286 3.789,0.141 0.713,-0.085 1.217,-0.636 1.638,-1.166 0.488,-0.614 1.005,-1.229 1.354,-1.914 0.775,-1.522 2.067,-1.578 3.55,-1.286 2.036,0.401 4.077,0.783 6.115,1.173 0.15,-0.626 0.408,-1.248 0.433,-1.879 C -0.169,6.689 -0.094,3.344 0,0"
             style="fill:#333333;fill-opacity:1;fill-rule:nonzero;stroke:none"
             id="path4102" />
        </g>
        <g
           id="g4104"
           transform="translate(345.7682,825.4717)">
          <path
             d="m 0,0 c -2.039,0.381 -3.584,1.161 -4.608,2.514 -1.151,1.52 -2.456,2.888 -3.79,4.249 -0.326,0.332 -0.507,0.761 -0.052,1.134 0.398,0.327 0.883,0.258 1.287,0.026 0.389,-0.224 0.853,-0.48 1.044,-0.837 0.843,-1.574 2.26,-1.691 3.84,-1.48 0.343,0.046 0.68,0.138 1.023,0.179 C -0.552,5.87 -0.062,5.47 -0.03,4.91 0.057,3.396 0,1.875 0,0"
             style="fill:#333333;fill-opacity:1;fill-rule:nonzero;stroke:none"
             id="path4106" />
        </g>
        <g
           id="g4108"
           transform="translate(428.5707,850.2104)">
          <path
             d="M 0,0 C 0.455,0.053 0.926,0.731 1.361,-0.03 1.757,-0.579 2.228,-1.091 2.313,-1.79 2.247,-2 2.134,-2.184 1.976,-2.341 2.22,-2.444 2.461,-2.25 2.71,-2.334 2.993,-2.458 3.249,-2.614 3.483,-2.808 3.737,-3.03 3.967,-3.27 4.197,-3.51 c 1.22,-1.28 2.869,-2.257 4.521,-1.643 1.608,0.598 -0.041,2.361 0.515,3.521 0.339,0.991 1.205,1.704 1.588,2.673 0.154,0.499 0.788,0.895 0.368,1.518 0.365,0.654 0.795,0.682 1.303,0.133 0.225,-0.243 0.472,-0.467 0.709,-0.7 C 13.42,1.852 13.504,1.699 13.455,1.533 13.404,1.36 13.346,1.273 13.28,1.273 L 13.297,1.3 C 12.83,0.958 12.948,0.34 12.581,-0.048 l 0.017,0.032 c -0.466,-0.346 -0.351,-0.968 -0.724,-1.359 l 0.022,0.042 C 11.052,-2.868 11.425,-4.534 11.561,-6.09 11.794,-8.753 10.586,-8.987 8.462,-8.099 7.728,-7.792 6.918,-7.694 6.226,-7.3 l 0.04,-0.022 C 5.632,-6.782 4.952,-6.847 4.25,-7.184 3.408,-7.005 2.782,-6.5 2.4,-5.826 1.485,-4.213 0.399,-2.668 -0.06,-0.853 -0.356,-0.548 -0.336,-0.264 0,0"
             style="fill:#666666;fill-opacity:1;fill-rule:nonzero;stroke:none"
             id="path4110" />
        </g>
        <g
           id="g4112"
           transform="translate(310.2346,813.8423)">
          <path
             d="m 0,0 c 0.007,2.722 1.339,4.996 2.747,7.245 0.985,0.561 2.347,0.27 3.132,1.248 0.108,0.211 0.146,0.43 0.089,0.671 -0.126,0.239 -0.241,0.467 -0.365,0.69 2.298,1.323 4.362,2.926 6.288,4.695 C 11.866,13.387 11.116,12.529 10.51,11.611 9.596,10.227 8.601,8.884 7.781,7.453 7.017,6.12 5.935,5.253 4.429,4.815 3.989,4.687 3.537,4.59 3.104,4.443 2.051,4.086 1.287,3.526 1.369,2.313 1.405,1.774 1.312,1.227 1.278,0.684 1.077,0.376 0.967,0.01 0.634,-0.212 0.361,-0.303 0.147,-0.239 0,0"
             style="fill:#666666;fill-opacity:1;fill-rule:nonzero;stroke:none"
             id="path4114" />
        </g>
        <g
           id="g4116"
           transform="translate(340.9597,836.3208)">
          <path
             d="M 0,0 C 0.225,0.399 0.451,0.798 0.676,1.197 1.595,2.829 3.25,3.883 4.35,5.372 5.276,5.46 6.194,5.598 7.074,5.903 8.525,5.943 9.79,6.216 9.919,7.918 10.106,8.215 10.295,8.229 10.484,7.919 10.634,7.002 10.514,6.154 9.639,5.585 6.88,3.792 4.117,2.001 1.325,0.253 0.977,0.036 0.446,0.078 0,0"
             style="fill:#666666;fill-opacity:1;fill-rule:nonzero;stroke:none"
             id="path4118" />
        </g>
        <g
           id="g4120"
           transform="translate(368.2994,866.7007)">
          <path
             d="M 0,0 C 0.233,0.005 0.467,0.01 0.7,0.014 0.929,0.243 1.158,0.243 1.386,0.013 -0.069,-2.507 -1.463,-5.063 -3.457,-7.263 -3.715,-7.479 -4.003,-7.668 -4.165,-7.97 l 0.038,-0.009 c -0.53,-0.239 -0.821,0.037 -1.054,0.435 -0.099,0.416 -0.022,0.788 0.317,1.085 0.093,0.202 1.147,-0.274 0.414,0.525 -0.049,0.237 -0.025,0.465 0.07,0.687 0.163,0.178 0.349,0.33 0.559,0.455 0.207,0.12 0.421,0.232 0.634,0.342 0.107,0.049 0.217,0.095 0.324,0.144 0.513,0.359 -0.395,0.283 -0.19,0.547 0.06,0.38 0.264,0.65 0.655,0.778 0.206,-0.003 0.399,0.038 0.58,0.124 -0.182,0.065 -0.401,0.065 -0.512,0.258 -0.02,0.253 0.055,0.476 0.223,0.671 l -0.031,-0.01 c 0.17,0.134 0.339,0.27 0.507,0.405 0.164,0.139 0.33,0.276 0.492,0.415 -0.005,0.005 0.237,0.216 0.23,0.222 0.22,0.234 0.4,0.499 0.627,0.728 C -0.283,-0.167 0,0 0,0"
             style="fill:#666666;fill-opacity:1;fill-rule:nonzero;stroke:none"
             id="path4122" />
        </g>
        <g
           id="g4124"
           transform="translate(389.9379,912.3296)">
          <path
             d="m 0,0 c 0.072,-0.536 0.184,-1.053 0.721,-1.372 0.392,-2.443 0.789,-4.886 1.174,-7.33 0.117,-0.743 0.228,-1.488 0.289,-2.236 0.038,-0.467 -0.236,-0.807 -0.696,-0.999 -0.392,3.472 -1.112,6.889 -1.878,10.3 -0.119,0.529 -0.108,1.083 -0.157,1.626 C -0.364,-0.019 -0.182,-0.015 0,0"
             style="fill:#666666;fill-opacity:1;fill-rule:nonzero;stroke:none"
             id="path4126" />
        </g>
        <g
           id="g4128"
           transform="translate(434.7965,842.9102)">
          <path
             d="m 0,0 c 1.647,0.269 3.029,-1.084 4.951,-0.664 0,1.607 0.002,3.241 0,4.875 C 4.95,4.885 5.019,5.531 5.67,5.967 5.66,3.818 5.679,1.668 5.628,-0.479 5.599,-1.731 5.098,-2.123 3.944,-1.722 2.588,-1.251 1.003,-1.203 0,0"
             style="fill:#666666;fill-opacity:1;fill-rule:nonzero;stroke:none"
             id="path4130" />
        </g>
        <g
           id="g4132"
           transform="translate(441.8507,851.4839)">
          <path
             d="M 0,0 C -0.026,0.239 -0.052,0.479 -0.079,0.718 0.334,1.825 1.078,2.933 1.07,4.036 1.062,5.144 0.301,6.246 -0.12,7.354 -0.311,7.856 -0.524,8.358 -0.642,8.877 -0.747,9.342 -0.453,9.688 -0.054,9.946 0.481,8.502 0.916,7.015 1.583,5.627 2.169,4.406 2.16,3.316 1.463,2.188 1.003,1.442 0.837,0.521 0,0"
             style="fill:#666666;fill-opacity:1;fill-rule:nonzero;stroke:none"
             id="path4134" />
        </g>
        <g
           id="g4136"
           transform="translate(376.7871,884.5425)">
          <path
             d="M 0,0 C 0.68,2.863 1.36,5.726 2.039,8.589 2.415,9.054 2.72,9.606 3.468,9.606 3.792,9.563 4.043,9.408 4.23,9.157 2.968,7.956 2.152,6.576 2.035,4.833 1.94,3.42 1.19,2.097 1.297,0.643 1.034,0.389 0.935,0.017 0.616,-0.199 0.352,-0.295 0.146,-0.229 0,0"
             style="fill:#666666;fill-opacity:1;fill-rule:nonzero;stroke:none"
             id="path4138" />
        </g>
        <g
           id="g4140"
           transform="translate(363.3877,859.4922)">
          <path
             d="m 0,0 c 0.261,-0.256 0.522,-0.513 0.784,-0.77 -0.576,-2.2 -1.748,-3.887 -4.263,-4.422 -0.232,0.195 -0.335,0.438 -0.309,0.73 -0.159,0.745 1.626,0.575 0.85,1.615 0.409,1.143 1.71,1.69 2.108,2.837 C -0.556,0.192 -0.279,0.195 0,0"
             style="fill:#666666;fill-opacity:1;fill-rule:nonzero;stroke:none"
             id="path4142" />
        </g>
        <g
           id="g4144"
           transform="translate(376.7871,884.5425)">
          <path
             d="M 0,0 C 0.207,0.005 0.415,0.007 0.622,0.007 0.817,-0.095 0.906,-0.222 0.891,-0.374 0.873,-0.537 0.839,-0.619 0.787,-0.619 0.552,-2.393 -0.238,-4.081 -0.143,-5.906 -0.328,-6.117 -0.475,-6.349 -0.577,-6.605 l -0.185,0.003 -0.319,0.001 c 0,0 -0.319,-0.003 -0.318,-0.003 C -0.932,-4.403 -0.466,-2.202 0,0"
             style="fill:#666666;fill-opacity:1;fill-rule:nonzero;stroke:none"
             id="path4146" />
        </g>
        <g
           id="g4148"
           transform="translate(323.5072,830.3477)">
          <path
             d="M 0,0 C -0.141,2.113 0.235,4.122 1.363,5.978 1.568,6.296 1.769,6.278 1.966,5.971 1.554,4.319 1.135,2.669 0.735,1.014 0.629,0.573 0.409,0.232 0,0"
             style="fill:#666666;fill-opacity:1;fill-rule:nonzero;stroke:none"
             id="path4150" />
        </g>
        <g
           id="g4152"
           transform="translate(351.6357,850.1836)">
          <path
             d="M 0,0 C 0.122,1.969 0.892,3.389 3.275,3.441 3.466,3.613 3.682,3.649 3.924,3.547 L 4.119,3.254 C 4.053,3.171 4.006,3.051 3.918,3.011 1.671,1.975 1.67,1.976 0.607,-0.002 0.403,-0.312 0.201,-0.312 0,0"
             style="fill:#666666;fill-opacity:1;fill-rule:nonzero;stroke:none"
             id="path4154" />
        </g>
        <g
           id="g4156"
           transform="translate(351.6357,850.1836)">
          <path
             d="M 0,0 C 0.202,0.001 0.405,0.001 0.607,-0.002 0.57,-1.311 0.533,-2.619 0.496,-3.927 0.172,-4.314 0.259,-4.833 0.023,-5.248 -0.048,-5.48 -0.12,-5.711 -0.192,-5.943 c 0,0 -0.283,10e-4 -0.283,10e-4 0,0 -0.283,-0.002 -0.283,-0.002 C -0.996,-3.907 0.133,-2.025 0,0"
             style="fill:#666666;fill-opacity:1;fill-rule:nonzero;stroke:none"
             id="path4158" />
        </g>
        <g
           id="g4160"
           transform="translate(325.4735,836.3188)">
          <path
             d="m 0,0 c -0.201,0 -0.402,0.001 -0.603,0.006 0.01,0.643 -0.031,1.291 0.043,1.928 0.182,1.578 1.052,2.557 2.812,2.684 C 1.046,3.276 -0.134,1.924 0,0"
             style="fill:#666666;fill-opacity:1;fill-rule:nonzero;stroke:none"
             id="path4162" />
        </g>
        <g
           id="g4164"
           transform="translate(384.4934,895.7012)">
          <path
             d="m 0,0 c -0.855,-1.139 -2.137,-1.616 -3.478,-2 0.001,-0.002 -0.101,0.104 -0.101,0.104 -0.015,2.121 1.49,2.309 3.198,2.242 C -0.254,0.231 -0.127,0.116 0,0"
             style="fill:#666666;fill-opacity:1;fill-rule:nonzero;stroke:none"
             id="path4166" />
        </g>
        <g
           id="g4168"
           transform="translate(389.3105,899.7446)">
          <path
             d="m 0,0 c 0.698,0.252 1.301,0.776 2.127,0.659 -0.502,-1.183 -1.526,-1.742 -2.758,-2.05 -0.082,0.099 -0.164,0.197 -0.246,0.296 -0.013,0.406 0.175,0.721 0.497,0.976 C -0.254,-0.079 -0.127,-0.04 0,0"
             style="fill:#666666;fill-opacity:1;fill-rule:nonzero;stroke:none"
             id="path4170" />
        </g>
        <g
           id="g4172"
           transform="translate(359.9115,854.811)">
          <path
             d="M 0,0 C -0.001,-0.17 -0.002,-0.341 -0.002,-0.511 -0.939,-0.762 -1.875,-1.012 -2.811,-1.263 -3.034,-0.952 -3.038,-0.638 -2.826,-0.32 -1.982,0.549 -1.063,0.848 0,0"
             style="fill:#666666;fill-opacity:1;fill-rule:nonzero;stroke:none"
             id="path4174" />
        </g>
        <g
           id="g4176"
           transform="translate(329.8014,842.2412)">
          <path
             d="M 0,0 C 0.367,0.928 1.088,1.355 2.124,1.338 1.735,0.44 1.018,0.008 0,0"
             style="fill:#666666;fill-opacity:1;fill-rule:nonzero;stroke:none"
             id="path4178" />
        </g>
        <g
           id="g4180"
           transform="translate(303.8942,808.5405)">
          <path
             d="M 0,0 C 0.373,0.921 1.099,1.343 2.126,1.339 1.752,0.419 1.025,-0.001 0,0"
             style="fill:#666666;fill-opacity:1;fill-rule:nonzero;stroke:none"
             id="path4182" />
        </g>
        <g
           id="g4184"
           transform="translate(386.6011,897.0278)">
          <path
             d="m 0,0 c -0.463,-0.782 -1.172,-1.216 -2.108,-1.326 0,-10e-4 -0.073,0.083 -0.073,0.083 -0.258,1.4 0.542,1.721 1.802,1.575 C -0.253,0.221 -0.126,0.111 0,0"
             style="fill:#666666;fill-opacity:1;fill-rule:nonzero;stroke:none"
             id="path4186" />
        </g>
        <g
           id="g4188"
           transform="translate(301.7933,807.2192)">
          <path
             d="M 0,0 C 0.355,0.946 1.096,1.347 2.126,1.338 1.744,0.43 1.004,0.028 0,0"
             style="fill:#666666;fill-opacity:1;fill-rule:nonzero;stroke:none"
             id="path4190" />
        </g>
        <g
           id="g4192"
           transform="translate(299.7339,805.7437)">
          <path
             d="M 0,0 -0.033,0.831 C 0.646,1.125 1.266,1.59 2.084,1.492 1.722,0.581 0.871,0.277 0,0"
             style="fill:#666666;fill-opacity:1;fill-rule:nonzero;stroke:none"
             id="path4194" />
        </g>
        <g
           id="g4196"
           transform="translate(369.7162,867.3521)">
          <path
             d="M 0,0 C -0.015,0.976 0.404,1.679 1.419,2.007 1.392,1.057 0.996,0.339 0,0"
             style="fill:#666666;fill-opacity:1;fill-rule:nonzero;stroke:none"
             id="path4198" />
        </g>
        <g
           id="g4200"
           transform="translate(308.0957,811.1831)">
          <path
             d="M 0,0 C 0.367,0.928 1.087,1.357 2.124,1.339 1.734,0.443 1.012,0.017 0,0"
             style="fill:#666666;fill-opacity:1;fill-rule:nonzero;stroke:none"
             id="path4202" />
        </g>
        <g
           id="g4204"
           transform="translate(322.1071,828.3638)">
          <path
             d="M 0,0 C -0.005,0.969 0.431,1.661 1.417,2.007 1.396,1.054 0.969,0.356 0,0"
             style="fill:#666666;fill-opacity:1;fill-rule:nonzero;stroke:none"
             id="path4206" />
        </g>
        <g
           id="g4208"
           transform="translate(327.6987,840.918)">
          <path
             d="M 0,0 C 0.362,0.937 1.098,1.345 2.126,1.339 1.752,0.42 1.01,0.021 0,0"
             style="fill:#666666;fill-opacity:1;fill-rule:nonzero;stroke:none"
             id="path4210" />
        </g>
        <g
           id="g4212"
           transform="translate(388.6794,898.3535)">
          <path
             d="m 0,0 c -0.461,-0.767 -1.156,-1.205 -2.079,-1.325 0.001,-0.001 -0.081,0.075 -0.081,0.075 -0.329,0.427 -0.144,0.809 0.113,1.186 0.21,0.219 0.459,0.386 0.75,0.496 0.479,0.088 0.91,0.022 1.239,-0.358 z"
             style="fill:#666666;fill-opacity:1;fill-rule:nonzero;stroke:none"
             id="path4214" />
        </g>
        <g
           id="g4216"
           transform="translate(305.9968,809.8628)">
          <path
             d="M 0,0 C 0.37,0.924 1.093,1.349 2.124,1.337 1.737,0.437 1.023,0 0,0"
             style="fill:#666666;fill-opacity:1;fill-rule:nonzero;stroke:none"
             id="path4218" />
        </g>
        <g
           id="g4220"
           transform="translate(432.821,843.0269)">
          <path
             d="M 0,0 C 1.048,0.732 1.056,0.733 2.016,-0.138 1.344,-0.092 0.672,-0.046 0,0"
             style="fill:#666666;fill-opacity:1;fill-rule:nonzero;stroke:none"
             id="path4222" />
        </g>
        <g
           id="g4224"
           transform="translate(377.5745,883.9233)">
          <path
             d="M 0,0 C -0.076,0.204 -0.131,0.413 -0.165,0.626 0.06,0.838 0.286,1.05 0.51,1.262 0.534,0.771 0.449,0.32 0,0"
             style="fill:#666666;fill-opacity:1;fill-rule:nonzero;stroke:none"
             id="path4226" />
        </g>
        <g
           id="g4228"
           transform="translate(334.6826,846.2373)">
          <path
             d="M 0,0 C 0.684,-0.242 0.734,-0.785 0.724,-1.356 0.034,-1.117 -0.015,-0.574 0,0"
             style="fill:#666666;fill-opacity:1;fill-rule:nonzero;stroke:none"
             id="path4230" />
        </g>
        <g
           id="g4232"
           transform="translate(351.6591,844.9355)">
          <path
             d="M 0,0 C -0.13,0.533 0.013,0.978 0.474,1.321 0.553,0.805 0.472,0.34 0,0"
             style="fill:#666666;fill-opacity:1;fill-rule:nonzero;stroke:none"
             id="path4234" />
        </g>
        <g
           id="g4236"
           transform="translate(335.3821,844.916)">
          <path
             d="M 0,0 C 0.767,-0.411 0.878,-0.848 0.059,-1.322 0.04,-0.881 0.02,-0.441 0,0"
             style="fill:#666666;fill-opacity:1;fill-rule:nonzero;stroke:none"
             id="path4238" />
        </g>
        <g
           id="g4240"
           transform="translate(357.1002,854.1196)">
          <path
             d="m 0,0 c 0.008,-0.191 0.009,-0.382 0.001,-0.572 -0.45,-0.036 -0.899,-0.072 -1.347,-0.109 0,-0.001 -0.029,0.049 -0.029,0.049 C -1.427,0.568 -0.757,0.369 0,0"
             style="fill:#666666;fill-opacity:1;fill-rule:nonzero;stroke:none"
             id="path4242" />
        </g>
        <g
           id="g4244"
           transform="translate(310.8821,813.8457)">
          <path
             d="M 0,0 C 0.211,0.227 0.422,0.454 0.631,0.68 0.711,0.138 0.594,-0.333 0.093,-0.668 -0.166,-0.549 -0.265,-0.41 -0.207,-0.252 -0.145,-0.084 -0.076,0 0,0"
             style="fill:#666666;fill-opacity:1;fill-rule:nonzero;stroke:none"
             id="path4246" />
        </g>
        <g
           id="g4248"
           transform="translate(310.8821,813.8457)">
          <path
             d="m 0,0 c 0.03,-0.223 0.06,-0.445 0.091,-0.668 -0.131,-0.354 -0.362,-0.607 -0.775,-0.674 0.011,0.446 0.023,0.892 0.036,1.339 C -0.432,0 -0.216,0.002 0,0"
             style="fill:#666666;fill-opacity:1;fill-rule:nonzero;stroke:none"
             id="path4250" />
        </g>
        <g
           id="g4252"
           transform="translate(441.1516,850.1621)">
          <path
             d="M 0,0 C -0.005,0.564 0.093,1.08 0.716,1.348 0.708,0.79 0.626,0.266 0,0"
             style="fill:#666666;fill-opacity:1;fill-rule:nonzero;stroke:none"
             id="path4254" />
        </g>
        <g
           id="g4256"
           transform="translate(283.5937,801.8125)">
          <path
             d="M 0,0 C 0.32,0.682 0.729,0.928 1.326,0.24 0.884,0.16 0.442,0.08 0,0"
             style="fill:#666666;fill-opacity:1;fill-rule:nonzero;stroke:none"
             id="path4258" />
        </g>
        <g
           id="g4260"
           transform="translate(440.4447,848.8354)">
          <path
             d="M 0,0 C 0.01,0.562 0.118,1.079 0.724,1.359 0.712,0.797 0.643,0.262 0,0"
             style="fill:#666666;fill-opacity:1;fill-rule:nonzero;stroke:none"
             id="path4262" />
        </g>
        <g
           id="g4264"
           transform="translate(428.5707,850.2104)">
          <path
             d="M 0,0 C -0.02,-0.283 -0.04,-0.566 -0.06,-0.851 -0.592,-0.478 -0.793,0.037 -0.768,0.646 -0.512,0.431 -0.256,0.215 0,0"
             style="fill:#666666;fill-opacity:1;fill-rule:nonzero;stroke:none"
             id="path4266" />
        </g>
        <g
           id="g4268"
           transform="translate(364.1342,858.731)">
          <path
             d="M 0,0 C 0.236,0.236 0.472,0.471 0.708,0.707 0.612,0.346 0.401,0.088 0,0"
             style="fill:#666666;fill-opacity:1;fill-rule:nonzero;stroke:none"
             id="path4270" />
        </g>
        <g
           id="g4272"
           transform="translate(376.2101,877.937)">
          <path
             d="M 0,0 C -0.047,0.34 0.148,0.545 0.435,0.699 0.29,0.466 0.145,0.233 0,0"
             style="fill:#666666;fill-opacity:1;fill-rule:nonzero;stroke:none"
             id="path4274" />
        </g>
        <g
           id="g4276"
           transform="translate(369.6854,866.7134)">
          <path
             d="m 0,0 h -0.343 c 0,0 -0.343,0.001 -0.343,0.001 C -0.569,0.35 -0.335,0.582 0.05,0.664 0.033,0.442 0.017,0.221 0,0"
             style="fill:#666666;fill-opacity:1;fill-rule:nonzero;stroke:none"
             id="path4278" />
        </g>
        <g
           id="g4280"
           transform="translate(365.5535,740.0913)">
          <path
             d="m 0,0 c -0.7,-1.88 -1.641,-3.648 -3.01,-5.173 -3.599,-4.009 -8.769,-3.945 -12.282,0.136 -2.345,2.724 -3.472,5.963 -4.168,9.325 -1.155,5.579 -0.984,11.151 0.562,16.658 0.567,2.024 1.346,3.988 2.617,5.723 0.657,0.897 1.375,1.79 2.225,2.521 2.951,2.539 6.791,2.554 9.818,0.111 2.006,-1.618 3.227,-3.73 4.145,-6.016 C 1.208,20.048 1.997,15.603 2.003,12.32 2.043,7.658 1.405,3.77 0,0 m 7.021,26.465 c -1.177,2.298 -2.869,4.264 -4.864,5.991 -6.768,5.86 -16.016,5.783 -22.69,-0.164 -3.217,-2.867 -5.302,-6.387 -6.721,-10.284 -1.896,-5.211 -2.108,-10.597 -1.289,-15.971 0.809,-5.309 2.917,-10.189 6.833,-14.208 3.374,-3.463 7.447,-5.595 12.953,-5.512 3.033,-0.158 6.046,0.878 8.821,2.654 2.86,1.829 5.102,4.216 6.67,7.084 5.503,10.072 5.492,20.238 0.287,30.41"
             style="fill:#333333;fill-opacity:1;fill-rule:nonzero;stroke:none"
             id="path4282" />
        </g>
        <g
           id="g4284"
           transform="translate(398.2972,754.1406)">
          <path
             d="m 0,0 c -1.075,-2.808 -3.066,-4.864 -6.011,-6.049 -0.976,-0.393 -1.48,-0.094 -1.487,0.983 -0.021,3.285 -0.007,6.571 -0.007,9.857 H -7.51 c 0,3.285 -0.019,6.571 0.009,9.856 0.012,1.326 0.623,1.727 1.981,1.346 C -1.982,14.999 0.257,12.875 0.886,9.365 1.459,6.169 1.162,3.035 0,0 m 9.994,-23.163 c -2.153,4.512 -4.26,9.043 -6.461,13.535 -0.512,1.044 -0.536,1.759 0.412,2.608 1.976,1.77 3.305,3.953 4.18,6.396 C 9.464,3.116 9.651,6.959 9,10.79 7.924,17.111 4.048,20.771 -2.673,21.844 c -3.804,0.607 -7.678,0.264 -11.522,0.224 -0.667,-0.007 -1.059,-0.401 -1.087,-1.035 -0.04,-0.879 -0.052,-1.759 -0.052,-2.638 -0.004,-6.934 -0.002,-13.867 -0.002,-20.8 0,-6.933 -0.01,-13.866 0.003,-20.8 0.008,-4.106 -0.397,-3.805 3.866,-3.802 4.32,0.003 3.928,-0.337 3.95,3.725 0.006,1.211 -10e-4,2.421 0.001,3.632 0.002,1.981 -0.015,3.962 0.027,5.942 0.009,0.408 0.109,1 0.398,1.185 1.08,0.689 2.34,0.978 3.647,0.901 0.27,-0.016 0.618,-0.318 0.759,-0.573 0.486,-0.875 0.918,-1.78 1.332,-2.688 1.614,-3.535 3.259,-7.057 4.789,-10.624 0.471,-1.099 1.157,-1.569 2.356,-1.505 0.465,0.024 0.932,0 1.399,0 4.811,0.003 4.795,-0.324 2.803,3.849"
             style="fill:#333333;fill-opacity:1;fill-rule:nonzero;stroke:none"
             id="path4286" />
        </g>
        <g
           id="g4288"
           transform="translate(266.2441,755.9302)">
          <path
             d="m 0,0 c -0.88,-3.504 -2.857,-6.198 -6.376,-7.775 -0.439,-0.197 -0.863,-0.294 -1.326,-0.088 -0.402,0.588 -0.289,1.258 -0.29,1.902 -0.009,5.927 -0.007,11.854 -0.003,17.781 0,0.548 0.001,1.099 0.061,1.643 0.074,0.67 0.55,0.936 1.21,0.821 C -3.496,13.718 -1.2,12.03 -0.115,9.083 0.988,6.087 0.763,3.039 0,0 m 8.317,9.471 c -1.079,5.261 -4.168,8.681 -9.673,10.182 -2.631,0.718 -5.298,0.665 -7.976,0.629 -1.748,0 -3.497,0.016 -5.245,-0.008 -0.675,-0.009 -1.056,-0.412 -1.084,-1.037 -0.045,-0.988 -0.056,-1.979 -0.056,-2.969 -0.004,-13.317 -0.036,-26.634 0.013,-39.951 0.022,-6.058 -0.96,-5.024 5.619,-5.101 1.802,-0.02 2.049,0.239 2.07,1.871 0.038,2.861 -0.015,5.724 0.029,8.584 0.019,1.308 -0.462,2.776 0.321,3.882 0.724,1.02 2.303,0.891 3.496,1.285 6.566,2.17 10.828,6.341 12.323,12.802 0.75,3.241 0.842,6.52 0.163,9.831"
             style="fill:#333333;fill-opacity:1;fill-rule:nonzero;stroke:none"
             id="path4290" />
        </g>
        <g
           id="g4292"
           transform="translate(428.5128,742.4678)">
          <path
             d="m 0,0 c -2.863,0.009 -2.817,0.003 -2.412,2.846 0.62,4.348 1.179,8.703 1.741,13.058 0.167,1.291 0.183,2.607 1.101,3.995 C 1.207,14.486 1.942,9.38 2.671,4.273 2.733,3.838 2.763,3.399 2.801,2.961 3.062,-0.009 3.061,-0.009 0,0 M 12.87,-12.841 C 10.877,-2.463 8.892,7.916 6.893,18.292 5.997,22.939 5.081,27.583 4.158,32.225 c -0.263,1.32 -0.474,1.498 -1.786,1.555 -0.931,0.041 -1.865,0.019 -2.797,0.017 -3.279,-0.009 -2.884,0.164 -3.632,-2.714 -0.028,-0.106 -0.037,-0.216 -0.058,-0.325 -2.559,-13.182 -5.146,-26.36 -7.651,-39.551 -0.386,-2.033 -1.078,-4.042 -0.939,-6.533 2.262,0 4.233,-0.029 6.203,0.01 1.332,0.025 1.522,0.178 1.744,1.532 0.322,1.954 0.529,3.925 0.838,5.881 0.112,0.703 0.567,1.202 1.402,1.21 1.748,0.015 3.497,0.045 5.244,0.006 1.102,-0.023 1.332,-0.249 1.51,-1.402 0.303,-1.958 0.557,-3.922 0.822,-5.884 0.1,-0.733 0.462,-1.297 1.283,-1.312 1.979,-0.037 3.96,-0.017 5.939,0.024 0.727,0.015 0.964,0.501 0.867,1.128 -0.067,0.434 -0.194,0.86 -0.277,1.292"
             style="fill:#333333;fill-opacity:1;fill-rule:nonzero;stroke:none"
             id="path4294" />
        </g>
        <g
           id="g4296"
           transform="translate(289.4855,742.4736)">
          <path
             d="m 0,0 c -0.347,-0.011 -0.695,-0.006 -1.042,-0.005 -2.749,0.012 -2.765,0.062 -2.407,2.548 0.639,4.434 1.233,8.874 1.845,13.311 0.847,0.685 -0.621,2.352 1.242,2.605 C 0.301,13.919 0.973,9.38 1.62,4.837 1.759,3.864 1.833,2.88 1.89,1.899 1.989,0.173 1.863,0.059 0,0 M 12.109,-13.721 C 11.387,-9.933 10.647,-6.148 9.912,-2.363 7.895,8.019 5.898,18.404 3.837,28.778 c -0.316,1.591 -0.012,3.618 -1.331,4.633 -1.324,1.02 -3.375,0.329 -5.103,0.357 -1.768,0.027 -1.827,-0.036 -2.221,-1.856 -0.491,-2.261 -0.866,-4.545 -1.307,-6.816 -2.271,-11.679 -4.532,-23.359 -6.826,-35.034 -1.284,-6.539 -1.566,-5.252 5.123,-5.402 0.232,-0.006 0.465,0.013 0.698,0.023 0.82,0.032 1.254,0.433 1.36,1.203 0.182,1.308 0.396,2.613 0.591,3.919 0.113,0.762 0.172,1.534 0.334,2.286 0.148,0.685 0.533,1.212 1.393,1.213 1.75,0.003 3.499,0.015 5.249,0.011 0.809,-0.001 1.305,-0.37 1.416,-1.151 0.248,-1.745 0.511,-3.487 0.743,-5.233 0.281,-2.118 0.372,-2.215 2.53,-2.273 0.583,-0.015 1.167,-0.002 1.75,-0.002 0.584,0 1.167,0 1.75,10e-4 0.233,10e-4 0.467,-0.002 0.7,0.011 1.389,0.078 1.661,0.365 1.423,1.611"
             style="fill:#333333;fill-opacity:1;fill-rule:nonzero;stroke:none"
             id="path4298" />
        </g>
        <g
           id="g4300"
           transform="translate(289.1229,760.9331)">
          <path
             d="m 0,0 c -0.411,-0.279 -0.549,-0.69 -0.594,-1.136 -0.057,-0.555 -0.157,-1.088 -0.647,-1.47 -0.223,1.446 0.017,2.817 0.7,4.216 C 0.39,1.213 -0.001,0.549 0,0"
             style="fill:#333333;fill-opacity:1;fill-rule:nonzero;stroke:none"
             id="path4302" />
        </g>
        <g
           id="g4304"
           transform="translate(315.8374,823.6968)">
          <path
             d="M 0,0 C 0.457,-0.209 0.913,-0.418 1.37,-0.628 L 1.331,-0.589 C 1.197,-1.001 1.157,-1.472 0.913,-1.814 -0.212,-3.393 -0.655,-3.467 -2.856,-2.61 -2.98,-1.916 -2.89,-1.351 -2.043,-1.092 -1.291,-0.863 -0.527,-0.62 0,0"
             style="fill:#666666;fill-opacity:1;fill-rule:nonzero;stroke:none"
             id="path4306" />
        </g>
        <g
           id="g4308"
           transform="translate(296.874,806.0156)">
          <path
             d="m 0,0 c 0.715,-0.212 1.282,-0.588 1.262,-1.361 -0.018,-0.718 -0.677,-1.293 -1.617,-1.442 -0.329,-0.052 -0.688,0.073 -1.034,0.116 -0.389,0.315 -1.06,0.489 -0.673,1.195 C -1.375,-0.995 -0.687,-0.497 0,0"
             style="fill:#666666;fill-opacity:1;fill-rule:nonzero;stroke:none"
             id="path4310" />
        </g>
        <g
           id="g4312"
           transform="translate(294.8121,804.5234)">
          <path
             d="m 0,0 c 0.224,-0.398 0.449,-0.796 0.673,-1.195 -1.657,0.26 -3.32,0.49 -4.968,0.796 -0.561,0.104 -0.462,0.649 -0.495,1.062 0.373,0.079 0.747,0.158 1.121,0.238 C -2.83,1.215 -2.54,0.409 -1.976,0.162 -1.318,0.107 -0.659,0.054 0,0"
             style="fill:#666666;fill-opacity:1;fill-rule:nonzero;stroke:none"
             id="path4314" />
        </g>
        <g
           id="g4316"
           transform="translate(304.563,824.4731)">
          <path
             d="m 0,0 c -0.518,-0.249 -1.017,-0.55 -1.56,-0.73 -0.5,-0.166 -0.993,-0.674 -1.588,-0.174 -0.345,0.289 0.127,1.046 0.99,1.457 0.199,0.094 0.453,0.086 0.681,0.124 C -0.748,0.912 0.038,1.256 0,0"
             style="fill:#666666;fill-opacity:1;fill-rule:nonzero;stroke:none"
             id="path4318" />
        </g>
        <g
           id="g4320"
           transform="translate(304.563,824.4731)">
          <path
             d="m 0,0 c -0.313,0.573 -0.917,0.582 -1.477,0.677 0.942,0.849 1.998,0.644 3.16,0.47 C 1.303,0.3 0.674,0.117 0,0"
             style="fill:#666666;fill-opacity:1;fill-rule:nonzero;stroke:none"
             id="path4322" />
        </g>
        <g
           id="g4324"
           transform="translate(292.8358,804.6851)">
          <path
             d="M 0,0 C -0.564,0.246 -1.128,0.492 -1.693,0.739 -0.505,1.377 -0.488,1.374 0,0"
             style="fill:#666666;fill-opacity:1;fill-rule:nonzero;stroke:none"
             id="path4326" />
        </g>
        <g
           id="g4328"
           transform="translate(345.9034,841.603)">
          <path
             d="m 0,0 c -0.945,-1.806 -2.147,-3.373 -4.268,-4.085 -1.096,0.966 -2.213,1.913 -3.28,2.907 -0.491,0.458 -0.915,1.008 -0.853,1.719 0.024,0.287 0.102,0.765 0.568,0.539 0.97,-0.473 1.741,-0.269 2.51,0.374 0.605,0.505 1.261,0.958 1.91,1.415 0.275,0.194 0.619,0.398 0.905,0.066 0.105,-0.122 -0.013,-0.401 0.002,-0.606 0.057,-0.811 0.327,-1.003 0.898,-0.638 1.241,0.794 2.474,1.598 3.71,2.398 C 2.409,3.822 2.433,3.535 2.173,3.227 1.875,2.643 1.578,2.059 1.28,1.475 1.166,0.742 0.715,0.269 0,0"
             style="fill:#666666;fill-opacity:1;fill-rule:nonzero;stroke:none"
             id="path4330" />
        </g>
        <g
           id="g4332"
           transform="translate(362.7924,859.4321)">
          <path
             d="m 0,0 c -0.247,-1.385 -1.121,-2.385 -2.232,-3.24 -1.872,-1.401 -4.195,-1.486 -6.39,-1.946 -1.17,-0.174 -2.321,-0.239 -3.231,0.67 -0.304,0.305 -0.757,0.623 -0.425,1.106 0.239,0.349 0.7,0.924 0.912,0.869 1.429,-0.363 2.723,0.415 4.026,0.368 1.88,-0.069 3.412,0.46 4.766,1.522 0.596,0.467 1.369,0.149 1.884,0.632 C -0.468,0.26 -0.238,0.267 0,0"
             style="fill:#666666;fill-opacity:1;fill-rule:nonzero;stroke:none"
             id="path4334" />
        </g>
        <g
           id="g4336"
           transform="translate(354.1707,854.2466)">
          <path
             d="M 0,0 C 1.993,1.05 4.234,1.374 6.39,1.945 6.682,1.728 6.91,1.527 6.454,1.224 6.186,1.045 5.977,0.787 5.741,0.565 4.706,0.69 3.79,0.381 2.93,-0.127 2.361,-0.125 1.821,-0.176 1.554,-0.759 1.284,-0.714 1.013,-0.668 0.741,-0.623 0.494,-0.415 0.247,-0.208 0,0"
             style="fill:#666666;fill-opacity:1;fill-rule:nonzero;stroke:none"
             id="path4338" />
        </g>
        <g
           id="g4340"
           transform="translate(366.2256,863.4263)">
          <path
             d="m 0,0 c -0.401,-0.131 -0.596,-0.405 -0.62,-0.797 0.182,-0.211 0.151,-0.389 -0.092,-0.535 l -0.01,-0.012 c -0.211,-0.181 -0.396,-0.384 -0.555,-0.607 -0.253,-0.02 -0.505,-0.041 -0.757,-0.061 -0.24,-0.327 -0.483,-0.329 -0.727,-0.004 0.783,1.212 1.357,2.575 2.728,3.363 C 0.01,1.067 0.053,0.787 0.096,0.506 0.253,0.306 0.221,0.137 0,0"
             style="fill:#666666;fill-opacity:1;fill-rule:nonzero;stroke:none"
             id="path4342" />
        </g>
        <g
           id="g4344"
           transform="translate(363.4648,861.4102)">
          <path
             d="M 0,0 C 0.242,0.001 0.483,0.003 0.726,0.004 0.748,-0.261 0.769,-0.526 0.79,-0.792 0.9,-0.991 0.858,-1.155 0.663,-1.284 0.269,-1.342 0.056,-1.589 -0.077,-1.918 c 0,0 -0.294,-0.074 -0.294,-0.074 0,0 -0.303,0.014 -0.302,0.014 0.001,0 -0.344,-0.021 -0.344,-0.021 0,0 -0.346,0.002 -0.346,0.002 C -0.908,-1.331 -0.454,-0.666 0,0"
             style="fill:#666666;fill-opacity:1;fill-rule:nonzero;stroke:none"
             id="path4346" />
        </g>
        <g
           id="g4348"
           transform="translate(345.9034,841.603)">
          <path
             d="M 0,0 C 0.336,0.562 0.655,1.136 1.28,1.475 1.563,1.19 1.847,0.906 2.13,0.621 1.524,0.098 0.982,-0.624 0,0"
             style="fill:#666666;fill-opacity:1;fill-rule:nonzero;stroke:none"
             id="path4350" />
        </g>
        <g
           id="g4352"
           transform="translate(367.0034,864.7656)">
          <path
             d="M 0,0 C -0.281,-0.001 -0.561,-0.002 -0.842,-0.003 -0.807,0.943 -0.356,1.618 0.601,1.961 0.699,1.869 0.797,1.777 0.896,1.685 0.96,1.281 0.898,0.909 0.583,0.603 l 0.016,0.01 C 0.381,0.425 0.181,0.221 0,0"
             style="fill:#666666;fill-opacity:1;fill-rule:nonzero;stroke:none"
             id="path4354" />
        </g>
        <g
           id="g4356"
           transform="translate(348.0765,844.8301)">
          <path
             d="M 0,0 C -0.024,0.287 -0.047,0.574 -0.071,0.862 0.087,0.958 0.244,1.054 0.401,1.15 0.466,0.987 0.632,0.775 0.576,0.671 0.439,0.42 0.199,0.221 0,0"
             style="fill:#666666;fill-opacity:1;fill-rule:nonzero;stroke:none"
             id="path4358" />
        </g>
        <g
           id="g4360"
           transform="translate(367.6049,866.7271)">
          <path
             d="m 0,0 c 0.257,0.604 0.484,0.487 0.695,-0.026 0,0 0.028,0.033 0.028,0.033 -0.217,-0.314 -0.45,-0.325 -0.699,-0.033 z"
             style="fill:#666666;fill-opacity:1;fill-rule:nonzero;stroke:none"
             id="path4362" />
        </g>
        <g
           id="g4364"
           transform="translate(378.8239,894.4834)">
          <path
             d="M 0,0 C -0.45,0.892 -0.93,1.772 -1.337,2.681 -1.517,3.082 -1.63,3.669 -1.232,3.912 -0.786,4.183 0.25,4.405 0.329,4.274 1.265,2.715 2.337,3.961 3.336,4.063 4.34,4.294 5.347,4.613 6.317,3.966 6.464,3.659 6.448,3.364 6.243,3.083 5.875,2.768 5.488,2.472 5.101,2.177 3.426,1.4 2.184,-0.283 0,0"
             style="fill:#666666;fill-opacity:1;fill-rule:nonzero;stroke:none"
             id="path4366" />
        </g>
        <g
           id="g4368"
           transform="translate(378.8239,894.4834)">
          <path
             d="m 0,0 c 1.8,0.597 3.311,1.672 4.889,2.637 0.244,0.232 0.492,0.459 0.84,0.55 0.174,0.03 0.334,0.093 0.48,0.188 0.37,0.437 0.769,0.838 1.396,0.934 C 7.907,4.285 8.165,4.169 8.385,3.977 8.155,3.524 7.926,3.073 7.696,2.621 6.695,2.607 5.973,2.199 5.596,1.301 4.142,1.092 2.841,0.642 2.091,-0.678 1.291,-0.616 0.678,-1.07 0.003,-1.352 0.002,-0.901 0.001,-0.451 0,0"
             style="fill:#666666;fill-opacity:1;fill-rule:nonzero;stroke:none"
             id="path4370" />
        </g>
        <g
           id="g4372"
           transform="translate(386.4678,898.4941)">
          <path
             d="m 0,0 c -0.478,-0.212 -0.957,-0.424 -1.435,-0.636 -0.795,0.834 -1.917,0.449 -2.872,0.688 1.008,1.163 2.312,0.792 3.579,0.617 C 0.014,0.93 0.157,0.61 0,0"
             style="fill:#666666;fill-opacity:1;fill-rule:nonzero;stroke:none"
             id="path4374" />
        </g>
        <g
           id="g4376"
           transform="translate(386.4678,898.4941)">
          <path
             d="m 0,0 c -0.243,0.223 -0.485,0.446 -0.728,0.669 0.578,0.586 1.336,0.693 2.127,0.712 0.08,-0.135 0.16,-0.27 0.24,-0.405 -0.105,-0.5 -0.503,-0.771 -0.912,-1.033 0,0 0.014,0.022 0.014,0.022 C 0.494,-0.023 0.247,-0.012 0,0"
             style="fill:#666666;fill-opacity:1;fill-rule:nonzero;stroke:none"
             id="path4378" />
        </g>
        <g
           id="g4380"
           transform="translate(387.8669,899.8755)">
          <path
             d="m 0,0 c 0.548,0.611 1.033,0.606 1.444,-0.131 l 0.014,0.022 C 1.003,-0.5 0.541,-0.53 0.069,-0.135 Z"
             style="fill:#666666;fill-opacity:1;fill-rule:nonzero;stroke:none"
             id="path4382" />
        </g>
        <g
           id="g4384"
           transform="translate(438.4896,848.6758)">
          <path
             d="m 0,0 c 0.142,-1.391 0.308,-2.78 0.417,-4.173 0.048,-0.617 -0.443,-0.977 -1.104,-0.842 -0.778,0.159 -1.534,0.439 -2.318,0.551 -2.109,0.301 -3.585,1.286 -4.226,3.26 -0.203,0.737 0.159,0.937 0.865,0.811 0.334,0.061 1.224,-0.899 0.884,0.385 -0.222,0.841 -0.665,1.643 0.35,2.287 0.31,0.211 0.59,0.179 0.837,-0.096 -0.296,-0.993 -0.054,-1.883 0.616,-2.669 0.235,-0.275 0.543,-0.294 0.816,-0.004 0.083,0.27 0.261,0.35 0.53,0.242 0.679,-0.568 0.411,0.489 0.799,0.423 0.231,0.223 0.461,0.447 0.692,0.67 C -0.129,0.947 0.258,0.76 0,0"
             style="fill:#666666;fill-opacity:1;fill-rule:nonzero;stroke:none"
             id="path4386" />
        </g>
        <g
           id="g4388"
           transform="translate(438.4896,848.6758)">
          <path
             d="M 0,0 C -0.281,0.282 -0.561,0.563 -0.842,0.845 L 0.585,2.808 C 0.828,3.088 1.088,3.103 1.363,2.849 1.145,1.798 0.736,0.83 0,0"
             style="fill:#666666;fill-opacity:1;fill-rule:nonzero;stroke:none"
             id="path4390" />
        </g>
        <g
           id="g4392"
           transform="translate(432.1233,848.2832)">
          <path
             d="m 0,0 c -0.288,-0.271 -0.576,-0.541 -0.864,-0.811 -0.203,0.055 -0.409,0.081 -0.619,0.078 -0.173,0.165 -0.236,0.364 -0.203,0.592 L -2.192,1.897 C -1.276,1.455 -0.523,0.846 0,0"
             style="fill:#666666;fill-opacity:1;fill-rule:nonzero;stroke:none"
             id="path4394" />
        </g>
        <g
           id="g4396"
           transform="translate(436.9558,848.8506)">
          <path
             d="m 0,0 c 0.002,-0.21 0.047,-0.431 -0.005,-0.628 -0.072,-0.268 -0.219,-0.518 -0.334,-0.775 -0.19,0.232 -0.381,0.465 -0.572,0.697 -0.15,0.256 -0.116,0.479 0.131,0.665 C -0.52,-0.027 -0.26,-0.014 0,0"
             style="fill:#666666;fill-opacity:1;fill-rule:nonzero;stroke:none"
             id="path4398" />
        </g>
        <g
           id="g4400"
           transform="translate(439.8525,851.5249)">
          <path
             d="m 0,0 c -0.259,-0.014 -0.519,-0.027 -0.778,-0.042 0.228,0.43 0.456,0.858 0.685,1.287 C 0.685,0.88 0.667,0.461 0,0"
             style="fill:#666666;fill-opacity:1;fill-rule:nonzero;stroke:none"
             id="path4402" />
        </g>
        <g
           id="g4404"
           transform="translate(434.1948,850.8584)">
          <path
             d="m 0,0 c -0.279,0.032 -0.558,0.064 -0.838,0.097 0.112,0.165 0.185,0.385 0.343,0.482 C -0.259,0.722 0.186,0.93 0.281,0.846 0.713,0.465 0.45,0.182 0,0"
             style="fill:#666666;fill-opacity:1;fill-rule:nonzero;stroke:none"
             id="path4406" />
        </g>
        <g
           id="g4408"
           transform="translate(436.1759,848.8101)">
          <path
             d="m 0,0 c -0.043,-0.222 -0.086,-0.443 -0.13,-0.665 -0.14,0.013 -0.28,0.027 -0.419,0.04 0.028,0.257 0.056,0.514 0.084,0.771 C -0.31,0.098 -0.155,0.049 0,0"
             style="fill:#666666;fill-opacity:1;fill-rule:nonzero;stroke:none"
             id="path4410" />
        </g>
        <g
           id="g4412"
           transform="translate(430.4376,848.1426)">
          <path
             d="m 0,0 c 0.14,-0.175 0.208,-0.373 0.203,-0.593 -0.124,0.123 -0.26,0.238 -0.36,0.376 C -0.176,-0.191 -0.056,-0.075 0,0"
             style="fill:#666666;fill-opacity:1;fill-rule:nonzero;stroke:none"
             id="path4414" />
        </g>
        <g
           id="g4416"
           transform="translate(317.2074,823.0688)">
          <path
             d="M 0,0 C 0.104,0.109 0.208,0.218 0.312,0.327 0.294,0.257 0.299,0.156 0.252,0.125 0.172,0.073 0.059,0.065 -0.039,0.039 Z"
             style="fill:#666666;fill-opacity:1;fill-rule:nonzero;stroke:none"
             id="path4418" />
        </g>
        <g
           id="g4420"
           transform="translate(367.6287,866.7012)">
          <path
             d="M 0,0 C 0.233,0.011 0.466,0.022 0.699,0.033 0.65,-0.518 0.542,-1.04 -0.042,-1.333 -0.028,-0.889 -0.014,-0.444 0,0"
             style="fill:#666666;fill-opacity:1;fill-rule:nonzero;stroke:none"
             id="path4422" />
        </g>
        <g
           id="g4424"
           transform="translate(364.1276,860.126)">
          <path
             d="M 0,0 C 0.035,0.166 0.077,0.331 0.127,0.493 0.154,0.376 0.205,0.257 0.196,0.143 0.192,0.091 0.069,0.047 0,0"
             style="fill:#666666;fill-opacity:1;fill-rule:nonzero;stroke:none"
             id="path4426" />
        </g>
        <g
           id="g4428"
           transform="translate(365.5139,862.0947)">
          <path
             d="M 0,0 C 0.033,0.178 0.063,0.356 0.091,0.535 0.132,0.411 0.199,0.289 0.201,0.165 0.202,0.111 0.071,0.055 0,0"
             style="fill:#666666;fill-opacity:1;fill-rule:nonzero;stroke:none"
             id="path4430" />
        </g>
        <g
           id="g4432"
           transform="translate(366.2256,863.4263)">
          <path
             d="M 0,0 C 0.043,0.167 0.075,0.336 0.096,0.507 0.324,0.428 0.374,0.303 0.226,0.148 0.166,0.085 0.076,0.049 0,0"
             style="fill:#666666;fill-opacity:1;fill-rule:nonzero;stroke:none"
             id="path4434" />
        </g>
        <g
           id="g4436"
           transform="translate(367.0034,864.7656)">
          <path
             d="M 0,0 C 0.2,0.205 0.4,0.409 0.6,0.613 0.4,0.409 0.2,0.204 0,0"
             style="fill:#666666;fill-opacity:1;fill-rule:nonzero;stroke:none"
             id="path4438" />
        </g>
        <g
           id="g4440"
           transform="translate(364.9485,861.4751)">
          <path
             d="M 0,0 C 0.185,0.203 0.37,0.405 0.555,0.607 0.37,0.405 0.185,0.203 0,0"
             style="fill:#666666;fill-opacity:1;fill-rule:nonzero;stroke:none"
             id="path4442" />
        </g>
        <g
           id="g4444"
           transform="translate(387.9363,899.7402)">
          <path
             d="M 0,0 C 0.463,0.008 0.926,0.017 1.388,0.026 1.154,-0.42 0.919,-0.867 0.685,-1.313 0.209,-1.31 -0.266,-1.306 -0.741,-1.303 -0.494,-0.869 -0.247,-0.434 0,0"
             style="fill:#666666;fill-opacity:1;fill-rule:nonzero;stroke:none"
             id="path4446" />
        </g>
        <g
           id="g4448"
           transform="translate(384.5532,897.6699)">
          <path
             d="M 0,0 C -0.28,-0.183 -0.56,-0.367 -0.84,-0.55 -0.659,-0.231 -0.402,-0.017 0,0"
             style="fill:#666666;fill-opacity:1;fill-rule:nonzero;stroke:none"
             id="path4450" />
        </g>
        <g
           id="g4452"
           transform="translate(431.8704,696.0171)">
          <path
             d="m 0,0 v 1.482 c 0,4.703 -0.001,9.407 0.002,14.11 0,0.587 0.009,1.175 0.041,1.762 0.024,0.423 0.3,0.646 0.743,0.679 0.233,0.017 0.466,0.032 0.699,0.029 4.409,-0.074 3.726,0.627 3.742,-3.417 0.034,-8.892 0.011,-17.784 0.009,-26.677 0,-0.66 -0.014,-1.322 -0.038,-1.982 -0.016,-0.437 -0.309,-0.679 -0.741,-0.691 -1.011,-0.028 -2.024,-0.012 -3.035,-0.017 -0.552,-0.002 -0.849,0.298 -1.007,0.755 -0.41,1.186 -0.822,2.372 -1.218,3.562 -1.395,4.203 -2.786,8.406 -4.17,12.613 -0.138,0.42 -0.232,0.851 -0.604,1.196 C -6.126,3.267 -5.86,2.826 -5.861,2.55 c -0.021,-4.924 -0.014,-9.848 -0.017,-14.772 -10e-4,-0.587 -0.008,-1.175 -0.036,-1.761 -0.019,-0.414 -0.258,-0.671 -0.708,-0.715 -0.232,-0.023 -0.466,-0.041 -0.699,-0.038 -4.403,0.066 -3.737,-0.609 -3.752,3.417 -0.033,8.892 -0.011,17.785 -0.008,26.677 0,0.661 0.011,1.322 0.035,1.982 0.015,0.433 0.297,0.679 0.732,0.693 0.934,0.03 1.87,-0.005 2.802,0.034 0.766,0.032 1.111,-0.346 1.32,-0.977 0.856,-2.592 1.73,-5.18 2.6,-7.768 C -2.676,6.593 -1.755,3.865 -0.84,1.136 -0.704,0.73 -0.653,0.282 0,0"
             style="fill:#333333;fill-opacity:1;fill-rule:nonzero;stroke:none"
             id="path4454" />
        </g>
        <g
           id="g4456"
           transform="translate(460.8325,706.207)">
          <path
             d="M 0,0 C -0.838,0.279 -0.891,0.948 -1.183,1.433 -1.768,2.404 -2.462,3.278 -3.392,3.968 -5.26,5.354 -7.538,5.355 -9.413,3.986 -10.29,3.345 -10.947,2.53 -11.479,1.623 c -0.835,-1.425 -1.373,-2.95 -1.714,-4.544 -0.895,-4.178 -0.783,-8.31 0.57,-12.396 0.375,-1.13 0.892,-2.19 1.588,-3.174 0.435,-0.614 0.942,-1.165 1.565,-1.621 1.94,-1.422 4.034,-1.463 6.024,-0.105 0.769,0.525 1.37,1.196 1.851,1.96 0.318,0.504 0.586,1.036 0.912,1.534 0.2,0.305 0.526,0.322 0.761,0.054 0.395,-0.452 0.746,-0.939 1.104,-1.419 1.727,-2.306 1.699,-2.312 -0.528,-4.261 -3.92,-3.429 -9.869,-3.317 -13.718,-0.414 -1.919,1.448 -3.46,3.201 -4.452,5.309 -3.013,6.404 -2.975,12.807 0.249,19.147 0.92,1.809 2.217,3.37 3.865,4.645 C -8.355,10.241 -1.76,9.417 2.258,4.559 2.789,3.917 2.789,3.756 2.252,3.013 1.638,2.165 0.994,1.335 0.364,0.496 0.228,0.315 0.097,0.132 0,0"
             style="fill:#333333;fill-opacity:1;fill-rule:nonzero;stroke:none"
             id="path4458" />
        </g>
        <g
           id="g4460"
           transform="translate(368.252,697.6929)">
          <path
             d="m 0,0 c 0,4.699 -0.002,9.397 0.003,14.096 0.001,0.587 0.009,1.176 0.088,1.757 0.022,0.164 0.276,0.374 0.476,0.434 0.31,0.092 0.664,0.103 0.999,0.097 4.791,-0.074 4.054,0.651 4.072,-3.404 0.038,-8.883 0.012,-17.767 0.01,-26.651 0,-0.66 -0.008,-1.321 -0.037,-1.981 -0.018,-0.411 -0.27,-0.674 -0.762,-0.721 -0.252,-0.023 -0.506,-0.042 -0.759,-0.038 -4.785,0.064 -4.043,-0.605 -4.081,3.416 C -0.032,-8.664 0,-4.332 0,0"
             style="fill:#333333;fill-opacity:1;fill-rule:nonzero;stroke:none"
             id="path4462" />
        </g>
        <g
           id="g4464"
           transform="translate(317.5592,699.3135)">
          <path
             d="m 0,0 c -0.718,-1.875 -2.047,-3.248 -4.013,-4.039 -0.652,-0.262 -0.988,-0.062 -0.993,0.657 -0.014,2.193 -0.005,4.387 -0.005,6.581 h -0.003 c 0,2.193 -0.013,4.387 0.006,6.58 0.008,0.886 0.416,1.153 1.322,0.898 C -1.323,10.014 0.172,8.596 0.592,6.252 0.974,4.119 0.776,2.026 0,0 m 6.673,-15.465 c -1.438,3.013 -2.845,6.038 -4.314,9.037 -0.342,0.697 -0.358,1.175 0.275,1.741 1.319,1.182 2.207,2.639 2.791,4.271 0.893,2.496 1.019,5.062 0.583,7.62 -0.718,4.22 -3.306,6.664 -7.793,7.38 -2.539,0.406 -5.126,0.176 -7.693,0.149 -0.444,-0.004 -0.706,-0.267 -0.725,-0.69 -0.026,-0.587 -0.034,-1.175 -0.035,-1.762 -0.002,-4.629 -0.001,-9.258 -0.001,-13.886 0,-4.629 -0.006,-9.258 0.002,-13.887 0.006,-2.742 -0.265,-2.541 2.581,-2.539 2.884,0.002 2.623,-0.225 2.637,2.487 0.004,0.808 0,1.617 0.001,2.425 10e-4,1.322 -0.01,2.645 0.018,3.967 0.006,0.273 0.073,0.668 0.266,0.791 0.721,0.46 1.562,0.653 2.434,0.602 0.181,-0.011 0.413,-0.213 0.507,-0.383 0.325,-0.585 0.613,-1.188 0.89,-1.795 1.077,-2.359 2.176,-4.711 3.197,-7.093 0.315,-0.733 0.772,-1.047 1.573,-1.005 0.31,0.017 0.623,0.001 0.934,0.001 3.212,0.002 3.201,-0.216 1.872,2.569"
             style="fill:#333333;fill-opacity:1;fill-rule:nonzero;stroke:none"
             id="path4466" />
        </g>
        <g
           id="g4468"
           transform="translate(327.8395,683.5283)">
          <path
             d="m 0,0 v 28.146 c 0,1.045 0.114,1.679 0.344,1.903 0.229,0.224 0.976,0.336 2.239,0.336 h 10.334 c 1.664,0 2.654,-0.1 2.971,-0.299 0.315,-0.199 0.473,-0.82 0.473,-1.866 v -0.373 c 0,-1.045 -0.158,-1.68 -0.473,-1.904 -0.317,-0.224 -1.307,-0.336 -2.971,-0.336 H 5.597 V 14.409 h 3.875 c 1.665,0 4.392,-0.1 4.736,-0.299 0.345,-0.199 0.517,-0.847 0.517,-1.941 v -0.373 c 0,-1.046 -0.159,-1.68 -0.474,-1.904 C 13.935,9.668 11.195,9.556 9.472,9.556 H 5.597 V 2.538 h 7.32 c 1.664,0 2.654,-0.1 2.971,-0.298 0.315,-0.2 0.473,-0.847 0.473,-1.942 v -0.373 c 0,-1.045 -0.158,-1.679 -0.473,-1.904 -0.317,-0.224 -1.307,-0.31 -2.971,-0.261 H 2.497 c -1.263,0 -2.01,0.124 -2.239,0.373 C 0.028,-1.618 -0.058,-0.996 0,0"
             style="fill:#333333;fill-opacity:1;fill-rule:nonzero;stroke:none"
             id="path4470" />
        </g>
        <g
           id="g4472"
           transform="translate(400.3527,683.5283)">
          <path
             d="m 0,0 v 28.146 c 0,1.045 0.114,1.679 0.344,1.903 0.229,0.224 0.976,0.336 2.239,0.336 h 10.334 c 1.664,0 2.654,-0.1 2.971,-0.299 0.314,-0.199 0.473,-0.82 0.473,-1.866 v -0.373 c 0,-1.045 -0.159,-1.68 -0.473,-1.904 -0.317,-0.224 -1.307,-0.336 -2.971,-0.336 H 5.597 V 14.409 h 3.875 c 1.665,0 4.392,-0.1 4.736,-0.299 0.345,-0.199 0.517,-0.847 0.517,-1.941 v -0.373 c 0,-1.046 -0.159,-1.68 -0.474,-1.904 C 13.935,9.668 11.195,9.556 9.472,9.556 H 5.597 V 2.538 h 7.32 c 1.664,0 2.654,-0.1 2.971,-0.298 0.314,-0.2 0.473,-0.847 0.473,-1.942 v -0.373 c 0,-1.045 -0.159,-1.679 -0.473,-1.904 -0.317,-0.224 -1.307,-0.31 -2.971,-0.261 H 2.497 c -1.263,0 -2.01,0.124 -2.239,0.373 C 0.028,-1.618 -0.058,-0.996 0,0"
             style="fill:#333333;fill-opacity:1;fill-rule:nonzero;stroke:none"
             id="path4474" />
        </g>
        <g
           id="g4476"
           transform="translate(466.3212,683.5283)">
          <path
             d="m 0,0 v 28.146 c 0,1.045 0.114,1.679 0.344,1.903 0.229,0.224 0.976,0.336 2.239,0.336 h 10.334 c 1.664,0 2.654,-0.1 2.971,-0.299 0.314,-0.199 0.473,-0.82 0.473,-1.866 v -0.373 c 0,-1.045 -0.159,-1.68 -0.473,-1.904 -0.317,-0.224 -1.307,-0.336 -2.971,-0.336 H 5.597 V 14.409 h 3.875 c 1.665,0 4.392,-0.1 4.736,-0.299 0.345,-0.199 0.517,-0.847 0.517,-1.941 v -0.373 c 0,-1.046 -0.159,-1.68 -0.474,-1.904 C 13.935,9.668 11.195,9.556 9.472,9.556 H 5.597 V 2.538 h 7.32 c 1.664,0 2.654,-0.1 2.971,-0.298 0.314,-0.2 0.473,-0.847 0.473,-1.942 v -0.373 c 0,-1.045 -0.159,-1.679 -0.473,-1.904 -0.317,-0.224 -1.307,-0.31 -2.971,-0.261 H 2.497 c -1.263,0 -2.01,0.124 -2.239,0.373 C 0.028,-1.618 -0.058,-0.996 0,0"
             style="fill:#333333;fill-opacity:1;fill-rule:nonzero;stroke:none"
             id="path4478" />
        </g>
        <g
           id="g4480"
           transform="translate(365.0931,689.6558)">
          <path
             d="m 0,0 c 0.129,-2.439 -0.776,-4.479 -2.717,-6.122 -1.941,-1.643 -4.433,-2.389 -7.473,-2.24 -2.266,0.199 -4.125,0.945 -5.58,2.24 -1.456,1.293 -2.023,2.637 -1.699,4.031 0.712,2.688 1.359,4.056 1.941,4.107 0.389,0.048 0.777,-0.498 1.165,-1.643 0.323,-0.996 0.873,-1.904 1.65,-2.725 0.776,-0.821 1.747,-1.232 2.911,-1.232 2.329,0 3.494,0.971 3.494,2.912 0,1.891 -1.715,4.554 -5.144,7.988 -3.624,3.434 -5.531,6.47 -5.725,9.108 -0.131,2.737 0.727,4.853 2.571,6.346 1.844,1.493 4.383,2.14 7.619,1.941 2.069,-0.199 3.622,-0.784 4.658,-1.754 1.034,-0.971 1.456,-2.154 1.261,-3.546 -0.518,-2.888 -1.067,-4.282 -1.649,-4.181 -0.389,0.049 -0.777,0.597 -1.165,1.642 -0.713,1.99 -2.006,2.986 -3.882,2.986 -0.97,0 -1.747,-0.261 -2.329,-0.783 -0.582,-0.523 -0.873,-1.183 -0.873,-1.979 0,-1.642 1.422,-3.833 4.27,-6.57 C -2.363,6.196 -0.13,2.688 0,0"
             style="fill:#333333;fill-opacity:1;fill-rule:nonzero;stroke:none"
             id="path4482" />
        </g>
        <g
           id="g4484"
           transform="translate(384.2689,709.1226)">
          <path
             d="M 0,0 H -0.471 V -23.069 H 0 c 4.204,0 6.307,3.856 6.307,11.571 C 6.307,-3.833 4.204,0 0,0 M -6.684,-25.607 V 2.538 c 0,1.045 0.125,1.68 0.377,1.904 0.25,0.224 1.066,0.336 2.447,0.336 h 3.954 c 4.016,0 7.092,-1.245 9.226,-3.733 2.133,-2.489 3.201,-6.67 3.201,-12.543 0,-5.923 -1.068,-10.128 -3.201,-12.616 -2.134,-2.49 -5.21,-3.733 -9.226,-3.733 h -4.048 c -1.381,0 -2.197,0.123 -2.448,0.373 -0.251,0.248 -0.345,0.87 -0.282,1.867"
             style="fill:#333333;fill-opacity:1;fill-rule:nonzero;stroke:none"
             id="path4486" />
        </g>
      </g>
    </g>
  </g>
</svg>
