<svg width="144" height="204" viewBox="0 0 144 204" fill="none" xmlns="http://www.w3.org/2000/svg">
<path d="M67.0521 74.3508C67.3134 73.6895 68.7039 70.6964 70.0016 71.1204C70.2376 71.1967 69.3696 72.2226 70.6 73.876C72.2011 76.0126 76.1029 76.1483 77.7799 76.9029C77.7799 79.9977 63.2009 84.0845 67.0521 74.3508ZM81.7575 77.683C82.1199 76.3348 82.6171 75.877 83.2575 76.0974C83.8643 76.3094 84.2098 77.2251 84.3952 78.1578C84.5974 79.1837 84.5553 80.2521 83.2575 81.1847C84.8924 78.8276 81.4541 78.8107 81.7575 77.683ZM79.5243 89.3922C85.8784 87.3488 83.3671 80.0825 87.648 80.2012C90.0498 80.2605 90.783 85.7379 88.12 87.1877C85.0441 88.8581 79.9794 89.1803 79.5243 89.3922ZM53.5603 84.8137C53.5603 84.1269 53.6951 83.4825 54.0575 82.8975C56.0042 79.7942 57.5126 89.1803 62.906 87.9424C61.4734 90.0621 53.5603 90.9099 53.5603 84.8137ZM72.1758 50.0166C86.1986 50.0166 97.5584 63.5657 97.5584 73.1553C97.5584 82.7364 96.092 82.9398 93.5639 86.9079C92.7633 85.1613 92.3757 84.5084 91.1622 83.0162C90.7324 82.4905 90.5049 81.88 90.0666 81.3373C89.6116 80.7777 88.7604 79.8196 88.12 79.5314C87.9514 79.4551 87.825 79.4042 87.6396 79.3787C87.2604 79.3363 86.9149 79.4635 86.5862 79.6331C86.3503 79.7518 86.1396 79.9044 85.9289 80.0655C85.8531 80.1249 85.7941 80.1927 85.7435 80.2351C85.6761 80.1673 85.6003 80.1079 85.516 80.074C85.4149 79.6077 85.3811 79.1329 85.2379 78.6665C84.7913 77.259 84.4794 76.5892 83.5272 75.4446C83.1058 74.9358 82.8446 75.0545 82.3305 75.3937C81.4794 75.9533 81.2182 76.8944 81.0412 77.0301C80.9569 77.0979 80.8726 76.7842 80.8305 76.6994C80.4766 75.9957 79.6339 75.3004 79.0861 74.7239C78.3192 73.9014 77.5692 72.9009 76.8866 72.0022C76.8108 71.9004 76.7265 71.7902 76.6422 71.6885C76.204 71.1373 75.7742 70.5608 75.336 70.0012C70.246 63.5657 72.0747 69.8401 69.4876 70.1453C69.1842 70.0944 69.1505 70.0266 68.8387 70.1623C68.7039 70.2216 68.6112 70.2979 68.4932 70.3827C67.8106 71.0356 66.3864 73.5114 65.7965 74.4356C65.6448 74.673 65.4931 74.9104 65.333 75.1393C63.7824 77.2421 60.6138 84.4321 58.3722 85.1783C57.4368 84.0082 56.9227 83.1009 56.0632 81.7952C55.4058 80.7947 54.9424 80.8625 54.0828 81.7104C53.0884 82.6855 52.1614 84.0336 51.3355 85.1698C51.0406 85.5768 50.7541 85.9922 50.4675 86.3992C48.1332 82.5329 46.7933 82.6346 46.7933 73.1553C46.7933 63.676 58.1615 50.0166 72.1758 50.0166ZM134.36 88.9768C138.995 86.0601 141.995 81.88 143.166 76.479C143.503 74.9358 143.663 73.4181 143.68 71.9343C143.672 70.459 143.503 68.9328 143.166 67.3897C141.995 61.9887 139.003 57.8086 134.36 54.8919C133.07 54.0779 132.278 53.2385 132.042 51.6191C131.832 50.1862 131.41 48.8041 130.854 47.4814C130.315 46.1418 129.649 44.8784 128.789 43.7083C127.812 42.3941 127.786 41.241 128.124 39.7402C129.354 34.3731 128.536 29.2943 125.562 24.6395C124.711 23.3083 123.758 22.1128 122.73 21.0614C121.685 20.027 120.497 19.0689 119.174 18.2125C114.556 15.228 109.5 14.4055 104.165 15.6434C102.674 15.9911 101.528 15.9571 100.221 14.9821C99.0668 14.1172 97.8027 13.4389 96.4713 12.8963C95.1566 12.3282 93.783 11.9127 92.3588 11.7008C90.7492 11.4634 89.915 10.6664 89.1059 9.3691C86.2154 4.70575 82.0609 1.68729 76.6928 0.508729C75.159 0.169576 73.6506 0.00847882 72.1758 0C70.7095 0.00847882 69.1926 0.169576 67.6589 0.508729C62.2908 1.67881 58.1362 4.69727 55.2373 9.36062C54.4283 10.6664 53.594 11.4549 51.976 11.6923C50.5518 11.9043 49.1782 12.3282 47.8636 12.8878C46.5321 13.4305 45.2764 14.1088 44.1135 14.9736C42.8073 15.9487 41.6612 15.9826 40.1696 15.635C34.8352 14.397 29.7874 15.2195 25.1609 18.204C23.8378 19.0604 22.6496 20.0185 21.6046 21.0529C20.5765 22.1043 19.6242 23.2998 18.7731 24.631C15.8068 29.2859 14.9893 34.3647 16.2113 39.7318C16.5483 41.2325 16.5231 42.3856 15.5455 43.6999C14.6859 44.8615 14.0118 46.1333 13.4809 47.4729C12.9247 48.7956 12.5033 50.1777 12.2926 51.6106C12.0567 53.2301 11.2645 54.0695 9.97518 54.8834C5.34026 57.8001 2.3402 61.9802 1.16883 67.3812C0.857023 68.9328 0.688481 70.459 0.680054 71.9343C0.688481 73.4097 0.857023 74.9358 1.19411 76.479C2.36548 81.88 5.35711 86.0601 10.0005 88.9768C11.2898 89.7907 12.082 90.6301 12.3179 92.2496C12.5286 93.6825 12.95 95.0646 13.5061 96.3873C14.0455 97.7184 14.7112 98.9903 15.5708 100.16C16.5399 101.475 16.5736 102.628 16.2365 104.128C15.0062 109.496 15.8236 114.574 18.7984 119.229C19.6495 120.56 20.6018 121.756 21.6299 122.807C22.6749 123.842 23.8631 124.8 25.1862 125.656C29.8126 128.641 34.8605 129.472 40.1949 128.234C41.6865 127.895 42.8326 127.92 44.1388 128.904C45.2933 129.768 46.5574 130.447 47.8888 130.981C49.2035 131.54 50.5771 131.964 52.0013 132.176C53.6109 132.414 54.4452 133.211 55.2626 134.508C58.1615 139.171 62.3161 142.19 67.6842 143.368C69.2179 143.708 70.7264 143.869 72.2011 143.886C73.6674 143.877 75.1759 143.708 76.7181 143.368C82.0862 142.19 86.2407 139.18 89.1397 134.508C89.9487 133.211 90.783 132.414 92.3925 132.176C93.8167 131.964 95.1903 131.54 96.505 130.981C97.828 130.438 99.0921 129.768 100.255 128.904C101.561 127.928 102.707 127.895 104.199 128.234C109.533 129.472 114.581 128.649 119.208 125.656C120.531 124.8 121.719 123.842 122.764 122.807C123.792 121.756 124.744 120.56 125.595 119.229C128.562 114.583 129.388 109.496 128.157 104.128C127.82 102.628 127.845 101.475 128.823 100.16C129.683 98.9987 130.357 97.7269 130.888 96.3873C131.444 95.0646 131.865 93.6825 132.076 92.2496C132.278 90.6301 133.07 89.7907 134.36 88.9768ZM127.871 48.7278C129.008 51.4495 129.514 54.4171 129.329 57.6221C129.042 62.5059 126.817 66.3298 122.528 68.8141C122.132 69.0431 121.677 69.1787 121.129 69.3992C120.505 68.246 120.219 67.076 119.865 65.7617C122.975 63.6251 124.947 60.6914 125.654 56.9777C126.118 54.5612 126.042 52.1787 125.081 49.8894C124.154 47.5916 122.528 45.8535 120.497 44.4714C117.379 42.3517 113.932 41.6734 110.233 42.3772C109.559 41.1986 108.943 40.1642 108.573 38.9093C109.112 38.6804 109.525 38.443 109.972 38.3243C114.741 37.0355 119.014 38.1547 122.646 41.4021C125.031 43.5303 126.758 45.9891 127.871 48.7278ZM128.713 71.9343C128.688 73.2401 127.93 74.0117 126.657 74.2151C125.848 73.3757 124.55 73.0959 123.885 71.9343C124.55 70.7727 125.848 70.4929 126.657 69.6535C127.93 69.857 128.688 70.6286 128.713 71.9343ZM106.019 87.3912C106.213 87.8237 106.491 88.2306 106.693 88.6546C108.935 93.4197 108.682 98.0576 105.969 102.585C105.134 103.976 104.014 105.095 102.64 105.934C98.1398 108.656 93.5386 108.91 88.7941 106.664C88.0441 106.307 86.9655 105.451 86.1143 105.807C85.2632 106.163 85.1031 107.537 84.825 108.317C83.0553 113.286 79.6254 116.38 74.527 117.652C72.968 118.042 71.3753 118.042 69.8162 117.652C64.7178 116.38 61.288 113.286 59.5183 108.317C59.2402 107.537 59.0801 106.163 58.2289 105.807C57.3778 105.46 56.2991 106.316 55.5491 106.664C50.8131 108.919 46.2034 108.665 41.7033 105.934C40.3213 105.095 39.2089 103.967 38.3746 102.585C35.6611 98.0576 35.4167 93.4282 37.6499 88.6546C38.0038 87.9 38.8465 86.8232 38.501 85.9583C38.1471 85.1019 36.7819 84.9408 36.0066 84.661C31.0683 82.8805 27.9924 79.4296 26.7283 74.2999C26.3407 72.7313 26.3407 71.1289 26.7283 69.5603C27.9924 64.4306 31.0683 60.9797 36.0066 59.1991C36.7903 58.9193 38.1471 58.7582 38.501 57.9019C38.8465 57.0455 37.9954 55.9602 37.6499 55.2056C35.4083 50.4405 35.6611 45.8026 38.3746 41.2749C39.2089 39.8844 40.3297 38.7652 41.7033 37.9258C46.2034 35.1956 50.8046 34.9497 55.5491 37.1966C56.2991 37.5527 57.3694 38.4091 58.2289 38.053C59.0801 37.6968 59.2402 36.3233 59.5183 35.5432C61.288 30.5746 64.7178 27.4799 69.8162 26.208C71.3753 25.818 72.968 25.818 74.527 26.208C79.6254 27.4799 83.0553 30.5746 84.825 35.5432C85.1031 36.3318 85.2632 37.6968 86.1143 38.053C86.9655 38.4006 88.0441 37.5442 88.7941 37.1966C93.5302 34.9412 98.1398 35.1956 102.64 37.9258C104.022 38.7652 105.143 39.8929 105.969 41.2749C108.682 45.8026 108.927 50.432 106.693 55.2056C106.339 55.9602 105.488 57.0455 105.842 57.9019C106.196 58.7582 107.561 58.9193 108.337 59.1991C113.275 60.9797 116.351 64.4306 117.615 69.5603C118.003 71.1289 118.003 72.7313 117.615 74.2999C116.351 79.4296 113.275 82.8805 108.337 84.661C107.89 84.8221 107.418 84.9154 106.971 85.0765C105.766 85.5259 105.48 86.2212 106.019 87.3912ZM91.5414 118.966C93.8251 118 95.519 115.456 96.0162 111.378C96.6988 111.293 97.4235 111.208 98.4011 111.09C99.2269 114.184 98.6455 116.669 96.7831 118.805C94.4235 121.51 91.2886 122.816 87.7239 122.578C84.9092 122.392 82.7435 121.052 81.1592 118.28C81.9345 117.669 82.5075 117.211 83.0553 116.787C86.266 119.314 89.2492 119.908 91.5414 118.966ZM85.457 114.176C86.2491 112.709 86.9655 111.378 87.7408 109.936L87.825 109.945L87.8756 109.877C89.443 110.343 90.8841 110.776 92.4768 111.251C92.4094 114.201 91.8279 115.575 90.3363 116.041C88.9543 116.77 87.5806 116.219 85.457 114.176ZM72.1758 131.837C73.6674 131.829 75.2265 131.057 77.0973 129.395C77.4681 129.599 77.8894 129.785 78.2687 130.04C78.5636 130.252 78.808 130.531 79.0608 130.777C77.6619 133.38 74.8978 134.55 72.1758 134.533C69.4539 134.55 66.6814 133.372 65.2909 130.777C65.5437 130.54 65.7796 130.252 66.083 130.04C66.4622 129.785 66.8836 129.599 67.2544 129.395C69.1252 131.057 70.6842 131.829 72.1758 131.837ZM69.9089 126.75C70.7432 125.936 71.0213 124.63 72.1758 123.96C73.3304 124.63 73.6085 125.936 74.4427 126.75C74.2405 128.022 73.4736 128.785 72.1758 128.819C70.8865 128.793 70.1112 128.022 69.9089 126.75ZM52.8187 118.966C55.1109 119.908 58.0941 119.314 61.3133 116.787C61.861 117.211 62.4256 117.669 63.2094 118.28C61.6166 121.061 59.4593 122.4 56.6446 122.578C53.08 122.816 49.9366 121.51 47.5855 118.805C45.7231 116.669 45.1332 114.193 45.9675 111.09C46.945 111.208 47.6697 111.293 48.3523 111.378C48.8411 115.456 50.535 118 52.8187 118.966ZM51.8833 111.251C53.476 110.776 54.9171 110.343 56.4761 109.877L56.5267 109.945L56.6109 109.936C57.3862 111.378 58.1025 112.709 58.8947 114.176C56.7795 116.219 55.3974 116.77 54.0154 116.041C52.5322 115.575 51.9423 114.201 51.8833 111.251ZM34.4054 56.274C32.9728 57.054 31.6498 57.7747 30.1919 58.5717C28.1609 56.4435 27.6132 55.053 28.3379 53.6625C28.8014 52.1617 30.1666 51.5767 33.0992 51.5089C33.5712 53.1114 34.0009 54.5612 34.4644 56.1383L34.397 56.1892L34.4054 56.274ZM32.9728 47.9477C28.9194 48.448 26.3912 50.1522 25.4305 52.45C24.4951 54.7562 25.085 57.7577 27.5963 60.9967C27.175 61.5478 26.7283 62.1159 26.1131 62.9044C23.349 61.3019 22.0176 59.1313 21.8322 56.2994C21.5962 52.7128 22.9024 49.5502 25.5822 47.1847C27.7059 45.3108 30.175 44.7173 33.2509 45.5567C33.1414 46.5318 33.0571 47.261 32.9728 47.9477ZM27.5963 82.872C25.085 86.1109 24.4951 89.1124 25.4305 91.4187C26.3912 93.7164 28.9194 95.4207 32.9728 95.9209C33.0571 96.6077 33.1414 97.3369 33.2593 98.3204C30.1834 99.1598 27.7143 98.5663 25.5907 96.6925C22.9024 94.3184 21.6046 91.1643 21.8406 87.5778C22.026 84.7458 23.349 82.5668 26.1216 80.9728C26.7283 81.7443 27.175 82.3209 27.5963 82.872ZM33.0992 92.3598C30.1666 92.292 28.8014 91.707 28.3379 90.2062C27.6132 88.8157 28.1609 87.4336 30.1919 85.297C31.6498 86.094 32.9728 86.8147 34.4054 87.5947L34.397 87.6795L34.4644 87.7304C34.0009 89.3074 33.5712 90.7573 33.0992 92.3598ZM52.8187 24.9023C50.535 25.8689 48.8411 28.4125 48.3439 32.4909C47.6613 32.5756 46.9366 32.6604 45.959 32.7791C45.1247 29.6844 45.7146 27.2001 47.577 25.0634C49.9282 22.3587 53.0715 21.0444 56.6362 21.2818C59.4509 21.4684 61.6166 22.7996 63.2009 25.5891C62.4257 26.1996 61.8526 26.6574 61.3048 27.0814C58.0941 24.5547 55.1109 23.9612 52.8187 24.9023ZM58.8947 29.6928C58.1025 31.1597 57.3862 32.4909 56.6109 33.9323L56.5267 33.9238L56.4761 33.9916C54.9086 33.5253 53.4676 33.0928 51.8833 32.618C51.9507 29.6674 52.5322 28.2938 54.0238 27.8275C55.3974 27.0983 56.7795 27.6494 58.8947 29.6928ZM72.1758 12.0315C70.6842 12.0399 69.1252 12.803 67.2544 14.4734C66.8836 14.2699 66.4622 14.0918 66.083 13.8374C65.7881 13.6255 65.5437 13.3372 65.2909 13.0998C66.6898 10.4968 69.4539 9.32671 72.1758 9.33519C74.8978 9.31823 77.6703 10.4968 79.0608 13.0998C78.808 13.3372 78.572 13.6255 78.2687 13.8374C77.8894 14.0918 77.4681 14.2699 77.0973 14.4734C75.2349 12.803 73.6674 12.0399 72.1758 12.0315ZM74.4427 17.1187C73.6085 17.9327 73.3304 19.23 72.1758 19.8998C71.0213 19.23 70.7432 17.9327 69.9089 17.1187C70.1112 15.8469 70.8444 15.1771 71.9483 15.0669C72.0242 15.0584 72.1 15.0499 72.1758 15.0499C72.2517 15.0499 72.3275 15.0584 72.4034 15.0669C73.5158 15.1771 74.2405 15.8469 74.4427 17.1187ZM91.5414 24.9023C89.2492 23.9612 86.266 24.5547 83.0468 27.0814C82.4991 26.6574 81.9345 26.208 81.1507 25.5891C82.7435 22.808 84.9008 21.4684 87.7155 21.2818C91.2801 21.0444 94.4235 22.3587 96.7746 25.0634C98.637 27.2001 99.2269 29.6844 98.3926 32.7791C97.4067 32.6604 96.6904 32.5756 96.0078 32.4909C95.519 28.4125 93.8251 25.8689 91.5414 24.9023ZM92.4768 32.6096C90.8841 33.0844 89.443 33.5168 87.8756 33.9831L87.825 33.9153L87.7408 33.9238L85.457 29.6844C87.5722 27.641 88.9543 27.0898 90.3363 27.819C91.8279 28.2938 92.4094 29.6589 92.4768 32.6096ZM109.896 56.1383C110.359 54.5612 110.789 53.1114 111.261 51.5089C114.194 51.5767 115.559 52.1617 116.022 53.6625C116.747 55.053 116.199 56.4351 114.168 58.5717C112.71 57.7747 111.387 57.054 109.955 56.274L109.963 56.1892L109.896 56.1383ZM109.946 87.5947C111.379 86.8147 112.702 86.094 114.16 85.297C116.191 87.4251 116.739 88.8157 116.014 90.2062C115.55 91.707 114.185 92.292 111.252 92.3598C110.781 90.7573 110.351 89.3074 109.887 87.7304L109.955 87.6795L109.946 87.5947ZM111.387 95.9209C115.441 95.4207 117.969 93.7164 118.93 91.4187C119.865 89.1124 119.275 86.1109 116.764 82.872C117.185 82.3209 117.632 81.7528 118.247 80.9643C121.011 82.5668 122.343 84.7374 122.52 87.5693C122.755 91.1558 121.458 94.3184 118.769 96.684C116.646 98.5578 114.177 99.1514 111.101 98.312C111.21 97.3284 111.295 96.6077 111.387 95.9209ZM116.755 60.9967C119.267 57.7577 119.857 54.7562 118.921 52.45C117.96 50.1522 115.432 48.448 111.379 47.9477C111.295 47.261 111.21 46.5318 111.092 45.5482C114.168 44.7088 116.637 45.3024 118.761 47.1762C121.449 49.5418 122.747 52.7044 122.511 56.2909C122.326 59.1228 120.994 61.3019 118.239 62.8959C117.632 62.1243 117.177 61.5478 116.755 60.9967ZM108.665 25.428C111.48 24.5801 114.261 25.7163 116.182 27.6664C118.121 29.5911 119.25 32.3891 118.407 35.2295C118.062 35.221 117.691 35.2465 117.337 35.1871C116.89 35.1023 116.46 34.9328 116.056 34.8056C115.904 32.3043 115.34 30.6425 114.286 29.5741C113.224 28.5228 111.581 27.9547 109.087 27.7936C108.969 27.3866 108.8 26.9542 108.707 26.5048C108.64 26.1487 108.674 25.7756 108.665 25.428ZM109.104 31.5582C110.14 30.8036 111.126 30.846 111.986 31.5582L112.306 31.8804C113.014 32.7537 113.056 33.7457 112.306 34.7801C111.143 34.7632 110.031 35.4839 108.741 35.1362C108.396 33.8475 109.12 32.7283 109.104 31.5582ZM120.573 23.2489C124.593 27.3272 126.556 33.2879 124.93 38.7143C123.59 38.3836 122.646 37.4849 121.736 36.637C122.351 31.9906 120.952 28.0903 118.357 25.4789C115.761 22.8674 111.876 21.4599 107.266 22.0789C106.424 21.1631 105.53 20.2135 105.202 18.8654C110.587 17.229 116.519 19.1961 120.573 23.2489ZM95.2409 15.9063C97.9629 17.017 100.407 18.7552 102.522 21.1547C105.75 24.809 106.862 29.1078 105.581 33.9068C105.463 34.3562 105.235 34.7717 105 35.3143C103.752 34.9412 102.724 34.3223 101.553 33.644C102.252 29.9218 101.578 26.4454 99.4713 23.3168C98.0977 21.2818 96.3701 19.6454 94.0864 18.7128C91.8111 17.7462 89.443 17.6783 87.0413 18.1362C83.3418 18.8569 80.4344 20.8409 78.3108 23.9612C77.0046 23.605 75.8416 23.3168 74.6956 22.6893C74.9147 22.1382 75.0495 21.6804 75.277 21.2734C77.7462 16.9661 81.5468 14.7192 86.4008 14.431C89.5863 14.2529 92.5358 14.7532 95.2409 15.9063ZM72.1758 3.07781C77.8894 3.10325 83.4682 5.9267 86.1312 10.9122C84.9514 11.6329 83.6536 11.6669 82.4148 11.7262C79.5833 8.00401 75.8585 6.23194 72.1843 6.23194C68.51 6.23194 64.7768 8.00401 61.9537 11.7262C60.7149 11.6669 59.4172 11.6329 58.2374 10.9122C60.8919 5.9267 66.4707 3.10325 72.1758 3.07781ZM41.8297 21.1547C43.945 18.7552 46.3888 17.017 49.1108 15.9063C51.8159 14.7532 54.7654 14.2529 57.9508 14.4394C62.8049 14.7277 66.6055 16.9746 69.0747 21.2818C69.3022 21.6888 69.437 22.1467 69.6561 22.6978C68.51 23.3252 67.3471 23.6135 66.0409 23.9696C63.9172 20.8409 61.0015 18.8654 57.3104 18.1447C54.9086 17.6868 52.5406 17.7547 50.2653 18.7212C47.9815 19.6539 46.254 21.2903 44.8804 23.3252C42.7736 26.4624 42.1078 29.9302 42.7989 33.6524C41.6275 34.3308 40.5994 34.9497 39.3522 35.3228C39.1246 34.7801 38.8887 34.3562 38.7707 33.9153C37.4898 29.1078 38.6021 24.8175 41.8297 21.1547ZM23.7872 23.2489C27.8407 19.2045 33.7734 17.229 39.1583 18.8654C38.8297 20.2135 37.9364 21.1631 37.0937 22.0789C32.4756 21.4599 28.5991 22.8674 26.0036 25.4789C23.408 28.0903 22.0091 31.9991 22.6243 36.637C21.7142 37.4849 20.7703 38.3836 19.4304 38.7143C17.804 33.2879 19.7675 27.3272 23.7872 23.2489ZM35.6526 26.5048C35.5684 26.9542 35.3998 27.3866 35.2734 27.7936C32.779 27.9462 31.1357 28.5143 30.0739 29.5741C29.0289 30.6425 28.4643 32.2958 28.3042 34.8056C27.8997 34.9243 27.4699 35.0938 27.0233 35.1871C26.6693 35.2465 26.2901 35.221 25.953 35.2295C25.1103 32.3976 26.2395 29.5996 28.1778 27.6664C30.0907 25.7163 32.8717 24.5801 35.6948 25.428C35.6864 25.7756 35.7116 26.1487 35.6526 26.5048ZM32.0458 31.8804L32.3661 31.5582C33.2341 30.846 34.22 30.8036 35.2481 31.5582C35.2313 32.7283 35.956 33.8475 35.6021 35.1447C34.3127 35.4924 33.2004 34.7717 32.0374 34.7886C31.2958 33.7372 31.3464 32.7452 32.0458 31.8804ZM16.4894 48.7278C17.6017 45.9891 19.3293 43.5303 21.7142 41.4021C25.3463 38.1547 29.6104 37.0355 34.3886 38.3243C34.8352 38.443 35.2481 38.6719 35.7875 38.9093C35.4167 40.1642 34.8015 41.1986 34.1273 42.3772C30.4278 41.6734 26.9727 42.3432 23.8631 44.4714C21.8406 45.8535 20.2141 47.5916 19.2872 49.8894C18.3265 52.1787 18.2591 54.5612 18.7141 56.9777C19.422 60.6999 21.3939 63.6251 24.5036 65.7617C24.1496 67.076 23.8631 68.246 23.2395 69.3992C22.6917 69.1787 22.2367 69.0431 21.8406 68.8141C17.5596 66.3298 15.3264 62.5059 15.0399 57.6221C14.8461 54.4171 15.3517 51.4495 16.4894 48.7278ZM20.467 71.9343C19.8012 73.0959 18.5034 73.3757 17.6944 74.2151C16.4304 74.0117 15.7646 73.2825 15.6551 72.1633C15.6382 72.0022 15.6382 71.8665 15.6551 71.7054C15.7646 70.5862 16.4304 69.857 17.6944 69.6535C18.5034 70.4929 19.8012 70.7727 20.467 71.9343ZM11.5258 85.9753C6.57062 83.296 3.76438 77.683 3.7391 71.9343C3.76438 66.1857 6.57062 60.5727 11.5258 57.8934C12.2421 59.0804 12.2758 60.3862 12.3263 61.6326C8.62684 64.4815 6.874 68.2291 6.874 71.9259C6.874 75.6226 8.62684 79.3787 12.3263 82.2192C12.2758 83.474 12.2505 84.7882 11.5258 85.9753ZM13.6915 78.8615C11.1044 77.4541 9.94147 74.673 9.9499 71.9343C9.93304 69.1957 11.1044 66.4061 13.6915 65.0071C13.9275 65.2615 14.214 65.4989 14.4163 65.8041C14.6691 66.1857 14.8545 66.6096 15.0567 66.9827C13.405 68.865 12.6382 70.4336 12.6297 71.9343C12.6466 73.4351 13.405 75.0037 15.0567 76.886C14.8545 77.259 14.6691 77.683 14.4163 78.0645C14.214 78.3698 13.9359 78.6157 13.6915 78.8615ZM16.4894 95.1409C15.3517 92.4192 14.8461 89.4516 15.0315 86.2466C15.318 81.3628 17.5512 77.5388 21.8322 75.0545C22.2282 74.8256 22.6833 74.69 23.2311 74.4695C23.8547 75.6226 24.1412 76.7927 24.4951 78.1069C21.3855 80.2436 19.422 83.1773 18.7057 86.891C18.2422 89.3074 18.318 91.69 19.2787 93.9793C20.2057 96.277 21.8322 98.0152 23.8547 99.3972C26.9727 101.517 30.4194 102.187 34.1189 101.492C34.7931 102.67 35.4083 103.704 35.7791 104.959C35.2397 105.188 34.8184 105.426 34.3802 105.544C29.602 106.833 25.3378 105.714 21.7057 102.467C19.3293 100.338 17.6017 97.8795 16.4894 95.1409ZM35.6948 118.441C32.8801 119.289 30.0992 118.152 28.1778 116.202C26.2395 114.278 25.1103 111.48 25.953 108.639C26.2985 108.648 26.6693 108.622 27.0233 108.682C27.4699 108.766 27.8997 108.936 28.3042 109.063C28.4559 111.564 29.0205 113.226 30.0739 114.295C31.1357 115.346 32.779 115.914 35.2734 116.067C35.3914 116.474 35.56 116.906 35.6526 117.355C35.7116 117.72 35.6864 118.093 35.6948 118.441ZM35.2566 112.311C34.22 113.065 33.2341 113.023 32.3745 112.311L32.0543 111.988C31.3464 111.115 31.3043 110.131 32.0543 109.089C33.2172 109.105 34.3296 108.385 35.6189 108.732C35.956 110.021 35.2397 111.14 35.2566 112.311ZM23.7872 120.62C19.7675 116.541 17.804 110.572 19.4304 105.154C20.7703 105.485 21.7142 106.384 22.6243 107.232C22.0091 111.878 23.408 115.778 26.0036 118.39C28.5991 121.001 32.484 122.409 37.0937 121.79C37.9364 122.706 38.8297 123.655 39.1583 125.003C33.7734 126.64 27.8407 124.664 23.7872 120.62ZM49.1108 127.962C46.3888 126.843 43.945 125.105 41.8297 122.706C38.6021 119.051 37.4898 114.761 38.7707 109.953C38.8887 109.504 39.1162 109.089 39.3522 108.546C40.5994 108.919 41.6275 109.538 42.7989 110.216C42.0994 113.938 42.7652 117.415 44.8804 120.543C46.254 122.578 47.9815 124.215 50.2653 125.147C52.5406 126.114 54.9086 126.182 57.3104 125.724C61.0015 125.012 63.9172 123.028 66.0409 119.899C67.3471 120.255 68.51 120.543 69.6561 121.171C69.437 121.722 69.3022 122.18 69.0747 122.578C66.6055 126.886 62.8049 129.132 57.9508 129.421C54.7654 129.616 51.8159 129.107 49.1108 127.962ZM72.1758 140.791C66.4622 140.765 60.8835 137.942 58.2205 132.956C59.4003 132.236 60.6981 132.202 61.9369 132.151C64.7684 135.873 68.4932 137.637 72.1674 137.637C75.8416 137.637 79.5749 135.873 82.3979 132.151C83.6367 132.202 84.9345 132.236 86.1143 132.956C83.4682 137.942 77.8894 140.765 72.1758 140.791ZM102.522 122.706C100.407 125.105 97.9629 126.843 95.2409 127.962C92.5358 129.107 89.5863 129.616 86.4008 129.429C81.5468 129.141 77.7462 126.903 75.277 122.587C75.0495 122.188 74.9147 121.73 74.6956 121.179C75.8416 120.552 77.0046 120.264 78.3108 119.908C80.4344 123.036 83.3502 125.02 87.0413 125.732C89.443 126.199 91.8111 126.122 94.0864 125.156C96.3701 124.223 98.0977 122.587 99.4713 120.552C101.578 117.415 102.244 113.947 101.553 110.225C102.724 109.546 103.752 108.927 105 108.554C105.227 109.097 105.463 109.512 105.581 109.962C106.87 114.761 105.758 119.051 102.522 122.706ZM120.573 120.62C116.519 124.664 110.587 126.64 105.202 125.003C105.53 123.655 106.424 122.706 107.266 121.79C111.884 122.409 115.761 121.001 118.357 118.39C120.952 115.778 122.351 111.87 121.736 107.232C122.646 106.384 123.59 105.485 124.93 105.154C126.548 110.581 124.593 116.541 120.573 120.62ZM108.707 117.364C108.792 116.914 108.96 116.482 109.087 116.075C111.573 115.922 113.224 115.354 114.286 114.303C115.331 113.235 115.896 111.581 116.056 109.072C116.46 108.953 116.89 108.783 117.337 108.69C117.691 108.631 118.07 108.656 118.407 108.648C119.25 111.48 118.121 114.278 116.182 116.211C114.269 118.161 111.488 119.297 108.665 118.449C108.674 118.093 108.64 117.72 108.707 117.364ZM112.306 111.988L111.986 112.311C111.118 113.023 110.132 113.065 109.104 112.311C109.12 111.14 108.404 110.021 108.75 108.724C110.039 108.376 111.151 109.097 112.314 109.08C113.056 110.123 113.014 111.115 112.306 111.988ZM127.871 95.1409C126.758 97.8795 125.031 100.338 122.646 102.467C119.014 105.714 114.75 106.833 109.972 105.544C109.525 105.426 109.112 105.197 108.573 104.959C108.943 103.704 109.559 102.67 110.233 101.492C113.932 102.195 117.387 101.517 120.497 99.3972C122.52 98.0152 124.146 96.277 125.081 93.9793C126.042 91.69 126.109 89.3074 125.654 86.891C124.947 83.1688 122.975 80.2436 119.865 78.1069C120.219 76.7927 120.505 75.6226 121.129 74.4695C121.677 74.69 122.132 74.8256 122.528 75.0545C126.809 77.5388 129.042 81.3628 129.329 86.2466C129.514 89.4516 129.008 92.4192 127.871 95.1409ZM130.66 78.8615C130.424 78.6072 130.138 78.3698 129.927 78.0645C129.674 77.683 129.489 77.259 129.287 76.886C130.938 75.0037 131.705 73.4351 131.714 71.9343C131.697 70.4336 130.938 68.865 129.287 66.9827C129.489 66.6096 129.674 66.1857 129.927 65.8041C130.138 65.5074 130.416 65.2615 130.66 65.0071C133.247 66.4146 134.41 69.1957 134.393 71.9343C134.419 74.673 133.247 77.4625 130.66 78.8615ZM132.025 82.2276C135.725 79.3787 137.478 75.6311 137.478 71.9343C137.478 68.2376 135.725 64.4814 132.025 61.641C132.076 60.3947 132.11 59.0889 132.826 57.9019C137.781 60.5812 140.587 66.1942 140.613 71.9428C140.587 77.683 137.781 83.3044 132.826 85.9837C132.11 84.7882 132.076 83.474 132.025 82.2276ZM122.166 165.456L133.197 177.165V168.847C133.197 167.754 132.978 167.007 132.531 166.609C132.084 166.21 131.41 165.939 130.508 165.812V165.456H136.736V165.812C136.053 165.88 135.539 166.075 135.202 166.371C134.865 166.677 134.655 167.024 134.553 167.431C134.461 167.83 134.41 168.305 134.41 168.847V183.829H133.955L120.741 169.822V180.056C120.741 180.913 120.918 181.642 121.289 182.244C121.652 182.854 122.326 183.185 123.312 183.261V183.617H116.856V183.261C118.668 183.117 119.562 182.218 119.545 180.582V168.551C119.494 168.517 119.435 168.466 119.351 168.381C119.284 168.305 119.157 168.186 118.98 168.025C118.812 167.864 118.651 167.711 118.517 167.584C117.421 166.524 116.46 165.931 115.635 165.803V165.447H122.166V165.456ZM99.7831 174.257C99.7831 175.495 99.8758 176.707 100.061 177.903C100.247 179.098 100.727 180.217 101.485 181.26C102.252 182.303 103.415 182.82 104.957 182.82C107.123 182.82 108.505 181.939 109.12 180.183C109.727 178.428 110.031 176.639 110.031 174.808C110.031 173.383 109.913 172.052 109.66 170.806C109.415 169.56 108.918 168.5 108.16 167.609C107.41 166.728 106.339 166.278 104.957 166.278C103.407 166.278 102.244 166.787 101.485 167.787C100.719 168.796 100.247 169.873 100.061 171.001C99.8758 172.154 99.7831 173.231 99.7831 174.257ZM95.4853 174.486C95.4853 173.248 95.696 172.069 96.1173 170.942C96.5387 169.814 97.1539 168.822 97.9797 167.974C98.7971 167.126 99.7915 166.465 100.954 165.981C102.126 165.507 103.44 165.269 104.915 165.269C106.407 165.269 107.73 165.507 108.901 165.99C110.064 166.473 111.05 167.143 111.868 167.999C113.561 169.78 114.337 172.112 114.337 174.554C114.337 176.97 113.587 179.268 111.943 181.065C111.16 181.922 110.165 182.591 108.977 183.092C107.789 183.583 106.441 183.829 104.932 183.829C103.314 183.829 101.898 183.55 100.693 182.998C99.4882 182.439 98.5022 181.71 97.7353 180.794C96.9685 179.878 96.4038 178.869 96.0331 177.767C95.6707 176.673 95.4853 175.579 95.4853 174.486ZM95.7971 165.456V165.812C95.1313 165.905 94.5583 166.168 94.0864 166.583C93.606 166.999 93.1173 167.932 92.6116 169.381L87.4795 183.838H86.9992L80.8389 168.22C80.544 167.431 80.1816 166.846 79.7518 166.465C79.3221 166.083 78.6984 165.871 77.881 165.812V165.456H86.1396V165.812C85.7267 165.837 85.398 165.905 85.1452 166.015C84.8924 166.126 84.766 166.405 84.766 166.846C84.766 167.16 84.8671 167.575 85.0862 168.118L88.6087 177.089L91.415 169.144C91.6509 168.508 91.7689 167.94 91.7689 167.431C91.7689 167.143 91.6594 166.821 91.4403 166.473C91.2212 166.117 90.724 165.897 89.9402 165.82V165.464H95.7971V165.456ZM63.1672 174.257C63.1672 175.495 63.2599 176.707 63.4453 177.903C63.6307 179.098 64.1111 180.217 64.8695 181.26C65.6364 182.303 66.7993 182.82 68.3415 182.82C70.5073 182.82 71.8893 181.939 72.5045 180.183C73.1113 178.428 73.4146 176.639 73.4146 174.808C73.4146 173.383 73.2967 172.052 73.0438 170.806C72.7994 169.56 72.3022 168.5 71.5438 167.609C70.7938 166.728 69.7235 166.278 68.3415 166.278C66.7909 166.278 65.628 166.787 64.8695 167.787C64.1026 168.796 63.6307 169.873 63.4453 171.001C63.2599 172.154 63.1672 173.231 63.1672 174.257ZM58.8694 174.486C58.8694 173.248 59.0801 172.069 59.5014 170.942C59.9228 169.814 60.538 168.822 61.3638 167.974C62.1813 167.126 63.1757 166.465 64.3386 165.981C65.51 165.507 66.8246 165.269 68.2994 165.269C69.791 165.269 71.114 165.507 72.2854 165.99C73.4483 166.473 74.4343 167.143 75.2517 167.999C76.9456 169.78 77.7209 172.112 77.7209 174.554C77.7209 176.97 76.9709 179.268 75.3276 181.065C74.5439 181.922 73.5495 182.591 72.3612 183.092C71.173 183.583 69.8247 183.829 68.3162 183.829C66.6982 183.829 65.2824 183.55 64.0774 182.998C62.8723 182.439 61.8863 181.71 61.1194 180.794C60.3526 179.878 59.788 178.869 59.4172 177.767C59.0548 176.673 58.8694 175.579 58.8694 174.486ZM46.9197 166.465H45.9338V174.104H46.7596C48.1669 174.104 49.2288 173.765 49.9451 173.087C50.6529 172.408 51.0153 171.433 51.0153 170.162C51.0153 167.567 49.3467 166.465 46.9197 166.465ZM46.5152 175.113H45.9338V180.93C45.9338 181.616 46.0349 182.142 46.2371 182.481C46.4394 182.82 46.6922 183.041 46.9871 183.134C47.2821 183.227 47.6782 183.287 48.1669 183.304V183.634H39.6808V183.278C40.6247 183.278 41.2398 183.066 41.5095 182.634C41.7792 182.201 41.914 181.633 41.914 180.93V168.194C41.914 167.321 41.737 166.711 41.3831 166.346C41.0292 165.99 40.4645 165.812 39.6808 165.812V165.456H49.0602C50.299 165.456 51.3777 165.651 52.3131 166.041C53.2485 166.422 53.9564 166.973 54.4452 167.677C54.9339 168.381 55.1783 169.195 55.1783 170.111C55.1783 170.848 55.0266 171.51 54.7148 172.086C54.403 172.663 53.9817 173.138 53.4508 173.502C52.9198 173.867 52.3384 174.155 51.6895 174.35C52.5322 174.893 53.3496 175.834 54.1418 177.19L56.2991 180.879C56.6699 181.515 57.007 182.006 57.3188 182.354C57.6306 182.702 57.9003 182.931 58.1362 183.049C58.3722 183.16 58.6334 183.236 58.9115 183.278V183.634H53.0968C52.5322 182.608 52.1024 181.786 51.799 181.184C50.8299 179.276 50.122 177.954 49.6838 177.216C49.2372 176.478 48.7821 175.936 48.3102 175.613C47.8467 175.274 47.24 175.113 46.5152 175.113ZM25.3884 175.622H29.8969L27.5626 169.5L25.3884 175.622ZM30.1497 165.278L36.2257 181.006C36.5544 181.811 36.9336 182.371 37.3802 182.668C37.8269 182.965 38.3662 183.176 39.0151 183.278V183.634H30.4447V183.278C31.6161 183.21 32.1975 182.846 32.1975 182.168C32.1975 182.066 32.1807 181.913 32.147 181.718C32.1133 181.523 32.0627 181.32 32.0037 181.099C31.9447 180.879 31.9026 180.752 31.8857 180.701L30.3773 176.834H24.9755L23.6861 180.548C23.526 180.989 23.4417 181.396 23.4417 181.761C23.4417 182.32 23.6019 182.693 23.9305 182.888C24.2592 183.083 24.6468 183.21 25.1019 183.278V183.634H19.6748V183.278C20.2394 183.219 20.7703 182.956 21.2591 182.481C21.7563 182.006 22.2282 181.133 22.6833 179.87L27.8154 165.278H30.1497ZM20.4754 165.456L20.7535 168.678H20.3995C20.2226 168.144 20.0456 167.737 19.8771 167.457C19.7085 167.177 19.4304 166.94 19.0343 166.753C18.6467 166.566 18.0905 166.473 17.3826 166.473H13.8517V173.909H16.9276C17.5765 173.909 18.1664 173.74 18.7057 173.409C19.245 173.078 19.5231 172.476 19.5653 171.603H19.9445V176.877H19.5653C19.5231 176.334 19.3209 175.876 18.9501 175.495C18.5793 175.113 18.0062 174.927 17.2309 174.927H13.8432V180.947C13.8432 181.633 14.0033 182.201 14.3236 182.642C14.6438 183.075 15.2169 183.295 16.0511 183.295H16.1775V183.651H7.62401V183.295C8.54257 183.295 9.14089 183.083 9.41899 182.668C9.68866 182.244 9.83192 181.676 9.83192 180.947V168.161C9.83192 167.516 9.71394 166.965 9.46955 166.507C9.13247 165.871 8.24762 165.829 7.62401 165.829V165.473H20.4754V165.456ZM15.1073 197.412L14.2309 198.243C13.641 197.616 12.9752 197.302 12.2252 197.302C10.9696 197.302 10.0005 198.269 10.0005 199.532C10.0005 200.855 10.9359 201.788 12.2505 201.788C13.1016 201.788 13.641 201.431 14.2309 200.846L15.0736 201.737C14.214 202.576 13.4472 203 12.2337 203C11.214 203 10.3881 202.678 9.73922 202.025C9.09033 201.381 8.7701 200.541 8.7701 199.532C8.7701 198.243 9.36 197.184 10.4808 196.556C12.023 195.691 13.9696 196.081 15.1073 197.412ZM23.6019 196.259H24.8659V198.744H27.0485V196.259H28.3042V202.839H27.057V199.956H24.8659V202.839H23.6019V196.259ZM40.2791 197.328C39.6808 197.328 39.1668 197.54 38.7623 197.964C38.3493 198.387 38.1471 198.922 38.1471 199.575C38.1471 200.304 38.4083 200.88 38.9224 201.296C39.3269 201.626 39.7819 201.796 40.3044 201.796C40.8943 201.796 41.3915 201.584 41.8045 201.152C42.2174 200.719 42.4281 200.193 42.4281 199.566C42.4281 198.939 42.2174 198.413 41.8045 197.981C41.3831 197.54 40.8775 197.328 40.2791 197.328ZM40.296 196.098C41.223 196.098 42.0151 196.437 42.6809 197.107C43.3466 197.777 43.6837 198.599 43.6837 199.566C43.6837 200.524 43.355 201.338 42.6977 201.999C42.0404 202.661 41.2483 203 40.3129 203C39.3353 203 38.5179 202.661 37.869 201.974C37.2201 201.296 36.8914 200.482 36.8914 199.541C36.8914 197.641 38.3999 196.098 40.296 196.098ZM51.8075 196.259H53.139L54.3525 198.625L55.566 196.259H56.8974L54.9845 199.99V202.839H53.7288V199.99L51.8075 196.259ZM64.8948 196.259H66.3106L67.6842 198.371L69.0578 196.259H70.4736L68.3921 199.456L70.5915 202.839H69.1758L67.6842 200.541L66.1842 202.839H64.7684L66.9763 199.456L64.8948 196.259ZM82.0019 197.328C81.3951 197.328 80.8895 197.54 80.485 197.964C80.0721 198.387 79.8698 198.922 79.8698 199.575C79.8698 200.304 80.1311 200.88 80.6451 201.296C81.0496 201.626 81.5047 201.796 82.0272 201.796C82.6171 201.796 83.1143 201.584 83.5272 201.152C83.9401 200.719 84.1508 200.193 84.1508 199.566C84.1508 198.939 83.9401 198.413 83.5272 197.981C83.1058 197.54 82.6002 197.328 82.0019 197.328ZM82.0187 196.098C82.9457 196.098 83.7379 196.437 84.4036 197.107C85.0694 197.777 85.398 198.599 85.398 199.566C85.398 200.524 85.0694 201.338 84.412 201.999C83.7547 202.661 82.9626 203 82.0272 203C81.0496 203 80.2322 202.661 79.5833 201.974C78.9344 201.296 78.6057 200.482 78.6057 199.541C78.6142 197.641 80.1142 196.098 82.0187 196.098ZM94.0021 196.259H95.1819L97.9966 200.592V196.259H99.2354V202.839H98.0471L95.2409 198.523V202.839H94.0021V196.259ZM110.772 198.006L109.887 200.27H111.657L110.772 198.006ZM110.14 196.259H111.396L113.915 202.839H112.618L112.104 201.482H109.424L108.901 202.839H107.604L110.14 196.259ZM125.722 197.158L124.803 197.981C124.483 197.531 124.154 197.302 123.817 197.302C123.396 197.302 123.084 197.667 123.371 198.048C123.472 198.176 123.775 198.464 124.289 198.896C124.761 199.295 125.056 199.549 125.157 199.651C125.587 200.092 125.848 200.524 125.848 201.152C125.848 201.694 125.663 202.135 125.292 202.491C124.921 202.839 124.441 203.017 123.843 203.017C122.823 203.017 122.182 202.483 121.736 201.592L122.781 200.957C123.093 201.533 123.455 201.83 123.868 201.83C124.458 201.83 124.862 201.304 124.458 200.762C124.348 200.617 124.104 200.38 123.733 200.075C123.017 199.49 122.562 199.04 122.351 198.727C121.887 198.023 121.921 197.2 122.553 196.607C123.152 196.047 124.053 195.98 124.761 196.344C125.056 196.48 125.376 196.751 125.722 197.158ZM134.343 196.259H135.582V202.839H134.343V196.259ZM80.3165 77.7169C74.9484 73.2146 67.5662 75.3004 72.1927 67.7628C72.5382 67.2032 79.6507 76.8351 80.3165 77.7169Z" fill="black"/>
</svg>
