<svg width="208" height="204" viewBox="0 0 208 204" fill="none" xmlns="http://www.w3.org/2000/svg">
<path d="M207.68 162.793H105.452V203H207.68V162.793Z" fill="#666666"/>
<path d="M105.675 162.793H0.680054V203.009H105.675V162.793Z" fill="#1A1A1A"/>
<path d="M192.718 188.339C193.096 187.808 193.594 187.722 194.222 188.082C195.038 188.528 195.897 188.751 196.8 188.751C197.41 188.751 197.711 188.571 197.711 188.202C197.711 188.005 197.599 187.833 197.376 187.696C197.152 187.559 196.765 187.421 196.233 187.293C194.969 186.984 193.972 186.435 193.242 185.629C192.511 184.822 192.142 183.861 192.142 182.729C192.142 181.485 192.614 180.456 193.568 179.641C194.514 178.826 195.7 178.423 197.118 178.423C198.433 178.423 199.516 178.74 200.358 179.366C201.2 180.001 201.793 180.833 202.12 181.871C202.231 182.249 202.197 182.549 202.008 182.781C201.819 183.012 201.535 183.132 201.148 183.132H199.292C199.198 183.132 199.112 183.115 199.026 183.098C198.94 183.072 198.871 183.055 198.819 183.046C198.768 183.029 198.708 182.995 198.622 182.935C198.536 182.875 198.493 182.832 198.467 182.815C198.45 182.798 198.381 182.738 198.287 182.643C198.192 182.549 198.132 182.489 198.115 182.472C197.926 182.317 197.702 182.24 197.453 182.24C196.972 182.24 196.722 182.42 196.722 182.789C196.722 182.986 196.826 183.158 197.032 183.287C197.238 183.415 197.651 183.553 198.278 183.707C199.679 184.042 200.736 184.591 201.458 185.371C202.18 186.152 202.541 187.104 202.541 188.228C202.541 189.48 202.042 190.518 201.037 191.35C200.031 192.174 198.768 192.594 197.238 192.594C196.404 192.594 195.579 192.414 194.763 192.045C193.938 191.676 193.182 191.145 192.485 190.441C192.013 189.961 191.978 189.429 192.4 188.837L192.718 188.339ZM180.832 188.339C181.21 187.808 181.708 187.722 182.336 188.082C183.152 188.528 184.012 188.751 184.914 188.751C185.524 188.751 185.825 188.571 185.825 188.202C185.825 188.005 185.713 187.833 185.49 187.696C185.266 187.559 184.88 187.421 184.347 187.293C183.083 186.984 182.086 186.435 181.356 185.629C180.625 184.822 180.256 183.861 180.256 182.729C180.256 181.485 180.729 180.456 181.683 179.641C182.628 178.826 183.814 178.423 185.232 178.423C186.547 178.423 187.63 178.74 188.472 179.366C189.314 180.001 189.907 180.833 190.234 181.871C190.346 182.249 190.311 182.549 190.122 182.781C189.933 183.012 189.649 183.132 189.263 183.132H187.398C187.312 183.132 187.217 183.115 187.131 183.098C187.045 183.072 186.977 183.055 186.925 183.046C186.873 183.029 186.813 182.995 186.727 182.935C186.641 182.875 186.598 182.832 186.573 182.815C186.555 182.798 186.487 182.738 186.392 182.643C186.298 182.549 186.237 182.489 186.22 182.472C186.031 182.317 185.808 182.24 185.559 182.24C185.077 182.24 184.828 182.42 184.828 182.789C184.828 182.986 184.931 183.158 185.137 183.287C185.344 183.415 185.756 183.553 186.384 183.707C187.784 184.042 188.842 184.591 189.563 185.371C190.285 186.152 190.646 187.104 190.646 188.228C190.646 189.48 190.148 190.518 189.142 191.35C188.137 192.174 186.873 192.594 185.344 192.594C184.51 192.594 183.685 192.414 182.869 192.045C182.044 191.676 181.287 191.145 180.591 190.441C180.118 189.961 180.084 189.429 180.505 188.837L180.832 188.339ZM172.951 182.6C172.65 182.3 172.22 182.154 171.67 182.154C171.12 182.154 170.691 182.3 170.373 182.6C170.055 182.901 169.848 183.355 169.745 183.982H173.544C173.449 183.364 173.252 182.901 172.951 182.6ZM169.728 186.838C169.84 187.507 170.115 187.996 170.544 188.314C170.974 188.631 171.584 188.794 172.384 188.794C173.587 188.794 174.61 188.562 175.46 188.091C176.079 187.73 176.578 187.833 176.964 188.391L177.368 188.983C177.789 189.592 177.746 190.124 177.257 190.587C175.856 191.899 174.171 192.56 172.203 192.56C170.734 192.56 169.419 192.243 168.258 191.625C167.098 190.999 166.213 190.158 165.577 189.077C164.95 188.005 164.632 186.804 164.632 185.483C164.632 184.17 164.941 182.969 165.568 181.88C166.196 180.799 167.055 179.95 168.138 179.332C169.23 178.714 170.433 178.406 171.756 178.406C173.037 178.406 174.206 178.714 175.263 179.323C176.32 179.933 177.145 180.765 177.738 181.82C178.331 182.875 178.632 184.033 178.632 185.303C178.632 185.483 178.623 185.671 178.597 185.852C178.52 186.512 178.133 186.847 177.428 186.847H169.728V186.838ZM163.764 179.589L163.557 182.24C163.497 183.004 163.145 183.33 162.5 183.209C162.148 183.141 161.821 183.107 161.512 183.107C161.082 183.107 160.73 183.252 160.455 183.553C160.171 183.844 160.034 184.333 160.034 185.011V191.093C160.034 191.857 159.673 192.243 158.951 192.243H155.994C155.273 192.243 154.912 191.857 154.912 191.093V179.864C154.912 179.1 155.273 178.714 155.994 178.714H158.951C159.673 178.714 160.034 179.1 160.034 179.864V179.941C160.79 178.972 161.796 178.466 163.042 178.397C163.317 178.38 163.506 178.466 163.635 178.646C163.755 178.843 163.798 179.152 163.764 179.589ZM147.254 187.173C147.675 186.718 147.882 186.152 147.882 185.474C147.882 184.796 147.675 184.23 147.254 183.776C146.833 183.321 146.317 183.098 145.716 183.098C145.106 183.098 144.599 183.321 144.177 183.776C143.756 184.23 143.55 184.796 143.55 185.474C143.55 186.152 143.756 186.718 144.177 187.173C144.599 187.627 145.106 187.85 145.716 187.85C146.326 187.85 146.833 187.627 147.254 187.173ZM151.302 180.421C152.359 181.768 152.883 183.458 152.883 185.474C152.883 187.49 152.359 189.18 151.302 190.527C150.245 191.874 148.878 192.551 147.211 192.551C145.767 192.551 144.538 192.037 143.541 190.999V197.149C143.541 197.913 143.181 198.299 142.459 198.299H139.648C138.926 198.299 138.565 197.913 138.565 197.149V179.864C138.565 179.1 138.926 178.714 139.648 178.714H142.459C143.181 178.714 143.541 179.1 143.541 179.864V179.958C144.547 178.92 145.767 178.406 147.211 178.406C148.887 178.397 150.245 179.075 151.302 180.421ZM126.809 185.345L124.419 180.07C124.239 179.667 124.222 179.341 124.368 179.092C124.514 178.843 124.798 178.714 125.219 178.714H128.235C128.863 178.714 129.267 179.032 129.464 179.658L130.229 182.137L130.994 179.658C131.192 179.032 131.604 178.714 132.223 178.714H135.239C135.661 178.714 135.944 178.843 136.09 179.092C136.236 179.341 136.219 179.667 136.039 180.07L133.65 185.345L136.322 190.879C136.511 191.282 136.529 191.608 136.383 191.857C136.236 192.105 135.953 192.234 135.532 192.234H132.515C131.914 192.234 131.501 191.934 131.269 191.333L130.22 188.554L129.172 191.333C128.94 191.934 128.527 192.234 127.926 192.234H124.909C124.488 192.234 124.205 192.105 124.058 191.857C123.912 191.608 123.93 191.282 124.119 190.879L126.809 185.345ZM110.591 175.111C110.591 174.348 110.952 173.962 111.674 173.962H120.99C121.712 173.962 122.073 174.348 122.073 175.111V177.462C122.073 178.225 121.712 178.611 120.99 178.611H115.868V180.782H120.406C121.128 180.782 121.489 181.168 121.489 181.931V184.179C121.489 184.942 121.128 185.328 120.406 185.328H115.868V187.602H121.214C121.936 187.602 122.297 187.988 122.297 188.751V191.102C122.297 191.865 121.936 192.251 121.214 192.251H111.674C110.952 192.251 110.591 191.865 110.591 191.102V175.111Z" fill="white"/>
<path d="M76.2661 183.921C75.8278 184.367 75.6129 184.916 75.6129 185.577C75.6129 186.237 75.8278 186.795 76.2661 187.241C76.7044 187.687 77.2372 187.902 77.8646 187.902C78.492 187.902 79.0248 187.679 79.4631 187.241C79.9014 186.795 80.1163 186.246 80.1163 185.577C80.1163 184.916 79.9014 184.359 79.4631 183.921C79.0248 183.475 78.492 183.261 77.8646 183.261C77.2372 183.261 76.7044 183.484 76.2661 183.921ZM72.0635 190.527C70.9634 189.206 70.4134 187.559 70.4134 185.586C70.4134 183.612 70.9634 181.965 72.0635 180.644C73.1636 179.323 74.573 178.663 76.3004 178.663C77.7872 178.663 79.0592 179.169 80.1163 180.181V180.095C80.1163 179.349 80.4944 178.972 81.2421 178.972H84.1555C84.9032 178.972 85.2814 179.349 85.2814 180.095V191.076C85.2814 191.822 84.9032 192.2 84.1555 192.2H81.2421C80.4944 192.2 80.1163 191.822 80.1163 191.076V190.99C79.0592 192.002 77.7872 192.508 76.3004 192.508C74.573 192.508 73.1636 191.848 72.0635 190.527ZM57.4018 189.274C57.4018 188.725 57.5823 188.253 57.9518 187.885L62.163 183.467H58.8628C58.1151 183.467 57.737 183.089 57.737 182.343V180.095C57.737 179.349 58.1151 178.972 58.8628 178.972H67.6117C68.3594 178.972 68.7375 179.349 68.7375 180.095V181.897C68.7375 182.446 68.5571 182.918 68.1875 183.287L63.9764 187.704H67.8609C68.6086 187.704 68.9868 188.082 68.9868 188.828V191.076C68.9868 191.822 68.6086 192.2 67.8609 192.2H58.5276C57.7799 192.2 57.4018 191.822 57.4018 191.076V189.274ZM44.0722 189.274C44.0722 188.725 44.2527 188.253 44.6222 187.885L48.8334 183.467H45.5332C44.7855 183.467 44.4074 183.089 44.4074 182.343V180.095C44.4074 179.349 44.7855 178.972 45.5332 178.972H54.2821C55.0298 178.972 55.4079 179.349 55.4079 180.095V181.897C55.4079 182.446 55.2275 182.918 54.8579 183.287L50.6467 187.704H54.5313C55.279 187.704 55.6572 188.082 55.6572 188.828V191.076C55.6572 191.822 55.279 192.2 54.5313 192.2H45.198C44.4503 192.2 44.0722 191.822 44.0722 191.076V189.274ZM36.5694 180.095C36.5694 179.349 36.9476 178.972 37.6953 178.972H40.7634C41.5111 178.972 41.8892 179.349 41.8892 180.095V191.076C41.8892 191.822 41.5111 192.2 40.7634 192.2H37.6953C36.9476 192.2 36.5694 191.822 36.5694 191.076V180.095ZM37.171 177.539C36.621 177.024 36.3374 176.398 36.3374 175.652C36.3374 174.905 36.6124 174.271 37.171 173.764C37.7297 173.25 38.4086 173.001 39.2336 173.001C40.0587 173.001 40.7376 173.258 41.2962 173.764C41.8463 174.279 42.1299 174.905 42.1299 175.652C42.1299 176.398 41.8549 177.033 41.2962 177.539C40.7376 178.054 40.0587 178.302 39.2336 178.302C38.4086 178.302 37.7297 178.054 37.171 177.539ZM27.494 182.6C28.0526 182.6 28.5167 182.403 28.8776 182.017C29.2386 181.631 29.4191 181.133 29.4191 180.533C29.4191 179.932 29.2386 179.426 28.8776 179.04C28.5167 178.654 28.0612 178.465 27.494 178.465H26.5486V182.6H27.494ZM26.54 186.735V191.076C26.54 191.822 26.1619 192.2 25.4142 192.2H22.1913C21.4436 192.2 21.0655 191.822 21.0655 191.076V175.446C21.0655 174.7 21.4436 174.322 22.1913 174.322H28.2846C30.1152 174.322 31.6536 174.914 32.8825 176.098C34.1115 177.282 34.7303 178.766 34.7303 180.524C34.7303 182.283 34.1201 183.758 32.8825 184.951C31.6536 186.135 30.1152 186.735 28.2846 186.735H26.54Z" fill="white"/>
<path d="M171.077 83.5968C171.077 119.652 141.797 148.879 105.675 148.879C69.554 148.879 40.2736 119.652 40.2736 83.5968C40.2736 47.5417 69.554 18.3149 105.675 18.3149C141.797 18.3149 171.077 47.5417 171.077 83.5968Z" fill="#1A1A1A"/>
<path d="M105.675 145.516C71.4705 145.516 43.6425 117.739 43.6425 83.5968C43.6425 49.4547 71.4705 21.6777 105.675 21.6777C139.88 21.6777 167.708 49.4547 167.708 83.5968C167.708 117.739 139.88 145.516 105.675 145.516ZM105.675 23.5736C72.519 23.5736 45.5418 50.5013 45.5418 83.5968C45.5418 116.692 72.519 143.62 105.675 143.62C138.832 143.62 165.809 116.692 165.809 83.5968C165.809 50.5013 138.832 23.5736 105.675 23.5736Z" fill="#666666"/>
<path d="M86.6479 77.7977C84.9634 77.3859 83.4594 76.6224 82.1703 75.5845C80.8897 74.5379 79.8241 73.2254 79.0678 71.6727C78.3029 70.1114 77.856 68.3357 77.7013 66.2769C76.5411 68.0097 76.2231 70.2916 76.6786 72.4533C77.1341 74.6237 78.3974 76.6568 80.1592 78.0722C81.9125 79.5048 84.1727 80.3026 86.39 80.294C88.5901 80.2854 90.7731 79.5048 92.2255 78.0121C90.1715 78.2952 88.3409 78.2266 86.6479 77.7977Z" fill="#666666"/>
<path d="M131.862 78.0722C133.632 76.6568 134.887 74.6237 135.343 72.4533C135.798 70.2916 135.472 68.0097 134.32 66.2769C134.157 68.3271 133.718 70.1114 132.945 71.6727C132.189 73.2254 131.123 74.5379 129.842 75.5845C128.553 76.6224 127.049 77.3859 125.365 77.7977C123.672 78.218 121.841 78.2867 119.796 78.0036C121.248 79.4962 123.431 80.2769 125.631 80.2854C127.848 80.3026 130.109 79.5048 131.862 78.0722Z" fill="#D28000"/>
<path d="M98.2844 75.9708C98.8173 76.4598 99.4017 76.8973 100.038 77.2661C100.665 77.6436 101.327 77.961 102.023 78.2098C103.415 78.7073 104.902 78.9389 106.38 78.8789C107.858 78.8274 109.337 78.4843 110.677 77.8838C111.348 77.5835 111.992 77.2147 112.585 76.7943C113.187 76.374 113.737 75.8936 114.235 75.3703C115.232 74.3237 116.006 73.097 116.487 71.7845C116.968 70.472 117.174 69.0909 117.003 67.7612C115.851 70.1546 114.287 72.0161 112.413 73.3029C110.548 74.5982 108.417 75.2931 106.251 75.3617C104.086 75.4389 101.911 74.9071 99.9517 73.7576C97.9836 72.6166 96.2906 70.8752 94.9585 68.5762C94.8381 71.2612 96.1445 74.0406 98.2844 75.9708Z" fill="#666666"/>
<path d="M141.651 96.2241C138.308 94.9974 136.168 97.7167 138.497 100.05C137.792 95.9496 142.39 97.751 143.567 99.827C145.458 103.147 143.026 106.115 139.287 105.789C134.638 105.386 131.329 101.954 128.012 98.9263C127.058 98.0599 126.07 97.142 125.047 96.2498V86.4361V85.93C125.098 85.93 125.141 85.93 125.193 85.93C133.993 85.93 141.161 78.7841 141.161 69.9912C141.161 61.2069 134.002 54.0525 125.193 54.0525C123.242 54.0525 121.343 54.3956 119.538 55.0819C119.005 54.1812 118.361 53.3405 117.639 52.577C116.203 51.0586 114.424 49.8491 112.482 49.0341C111.511 48.6224 110.488 48.3221 109.448 48.1077C108.408 47.9103 107.343 47.8074 106.294 47.7988C105.237 47.8074 104.18 47.9018 103.14 48.1077C102.1 48.3221 101.086 48.6224 100.106 49.0341C98.1555 49.8491 96.3851 51.0672 94.9499 52.577C94.0905 53.4863 93.3514 54.5072 92.767 55.588C90.6442 54.5844 88.2894 54.0439 85.926 54.0439C77.1255 54.0439 69.958 61.1898 69.958 69.9827C69.958 78.767 77.1169 85.9214 85.926 85.9214H85.9776V86.4275V96.4557C85.2814 97.0819 84.6111 97.7167 83.9579 98.3515C81.0445 101.157 76.7904 105.386 71.9002 105.78C67.4485 106.141 65.7038 101.929 68.0672 99.1407C69.2189 97.7853 73.6707 96.1898 72.6909 100.041C74.8395 98.1542 72.6909 95.3748 69.6486 96.0439C67.0359 96.6187 64.2944 99.2179 63.5639 102.401C62.3263 107.779 67.7407 111.279 71.2643 112.935C80.0046 117.035 96.6687 115.14 103.346 110.164C103.63 109.95 105.718 107.916 105.718 107.916C105.718 107.916 106.225 108.646 106.509 108.929C109.294 111.708 113.608 113.218 118.911 114.102C123.44 114.856 129.086 115.277 133.787 114.548C136.262 114.162 139.623 113.415 141.677 112.3C143.67 111.211 145.716 109.392 146.747 107.462C149.936 101.457 144.839 97.3907 141.651 96.2241ZM85.9088 82.4128C79.0506 82.4128 73.473 76.8454 73.473 69.9998C73.473 63.1542 79.0506 57.5868 85.9088 57.5868C87.8769 57.5868 89.759 58.0329 91.5036 58.9165C91.1341 60.5292 91.0825 62.1849 91.4005 63.7461C91.7786 61.8503 92.4318 60.1003 93.3686 58.5562C94.2967 57.0206 95.4741 55.691 96.832 54.6101C99.5392 52.4483 102.908 51.316 106.294 51.3246C109.68 51.3246 113.049 52.4483 115.748 54.6101C117.097 55.6824 118.283 57.0121 119.211 58.5562C120.148 60.0917 120.801 61.8417 121.179 63.7376C121.532 61.9961 121.429 60.1175 120.93 58.3331C122.288 57.8356 123.723 57.5782 125.193 57.5782C132.051 57.5782 137.629 63.1456 137.629 69.9912C137.629 76.8368 132.051 82.4042 125.193 82.4042C124.634 82.4042 124.067 82.3699 123.517 82.2927L121.515 82.0268V93.5304C120.14 92.6297 118.704 91.9091 117.192 91.4974C112.267 90.1763 108.099 91.9692 105.581 94.3111C103.372 92.3724 100.682 90.7425 96.1101 91.1628C93.635 91.3858 91.4607 92.3552 89.484 93.6677V82.0525L87.4987 82.3013C86.9745 82.3785 86.4416 82.4128 85.9088 82.4128Z" fill="#666666"/>
<mask id="mask0_5_102" style="mask-type:luminance" maskUnits="userSpaceOnUse" x="105" y="0" width="75" height="160">
<path d="M179.775 0H105.547V159.036H179.775V0Z" fill="white"/>
</mask>
<g mask="url(#mask0_5_102)">
<path d="M171.077 83.5968C171.077 119.652 141.797 148.879 105.675 148.879C69.554 148.879 40.2736 119.652 40.2736 83.5968C40.2736 47.5417 69.554 18.3149 105.675 18.3149C141.797 18.3149 171.077 47.5417 171.077 83.5968Z" fill="#666666"/>
</g>
<mask id="mask1_5_102" style="mask-type:luminance" maskUnits="userSpaceOnUse" x="105" y="0" width="75" height="160">
<path d="M179.775 0H105.547V159.036H179.775V0Z" fill="white"/>
</mask>
<g mask="url(#mask1_5_102)">
<path d="M105.675 145.516C71.4705 145.516 43.6425 117.739 43.6425 83.5968C43.6425 49.4547 71.4705 21.6777 105.675 21.6777C139.88 21.6777 167.708 49.4547 167.708 83.5968C167.708 117.739 139.88 145.516 105.675 145.516ZM105.675 23.5736C72.519 23.5736 45.5418 50.5013 45.5418 83.5968C45.5418 116.692 72.519 143.62 105.675 143.62C138.832 143.62 165.809 116.692 165.809 83.5968C165.809 50.5013 138.832 23.5736 105.675 23.5736Z" fill="#1A1A1A"/>
</g>
<mask id="mask2_5_102" style="mask-type:luminance" maskUnits="userSpaceOnUse" x="105" y="0" width="75" height="160">
<path d="M179.775 0H105.547V159.036H179.775V0Z" fill="white"/>
</mask>
<g mask="url(#mask2_5_102)">
<path d="M131.862 78.0722C133.632 76.6568 134.887 74.6237 135.343 72.4533C135.798 70.2916 135.472 68.0097 134.32 66.2769C134.157 68.3271 133.718 70.1114 132.945 71.6727C132.189 73.2254 131.123 74.5379 129.842 75.5845C128.553 76.6224 127.049 77.3859 125.365 77.7977C123.672 78.218 121.841 78.2867 119.796 78.0036C121.248 79.4962 123.431 80.2769 125.631 80.2854C127.848 80.3026 130.109 79.5048 131.862 78.0722Z" fill="#1A1A1A"/>
</g>
<mask id="mask3_5_102" style="mask-type:luminance" maskUnits="userSpaceOnUse" x="105" y="0" width="75" height="160">
<path d="M179.775 0H105.547V159.036H179.775V0Z" fill="white"/>
</mask>
<g mask="url(#mask3_5_102)">
<path d="M98.2844 75.9708C98.8173 76.4598 99.4017 76.8973 100.038 77.2661C100.665 77.6436 101.327 77.961 102.023 78.2098C103.415 78.7073 104.902 78.9389 106.38 78.8789C107.858 78.8274 109.337 78.4843 110.677 77.8838C111.348 77.5835 111.992 77.2147 112.585 76.7943C113.187 76.374 113.737 75.8936 114.235 75.3703C115.232 74.3237 116.006 73.097 116.487 71.7845C116.968 70.472 117.174 69.0909 117.003 67.7612C115.851 70.1546 114.287 72.0161 112.413 73.3029C110.548 74.5982 108.417 75.2931 106.251 75.3617C104.086 75.4389 101.911 74.9071 99.9517 73.7576C97.9836 72.6166 96.2906 70.8752 94.9585 68.5762C94.8381 71.2612 96.1445 74.0406 98.2844 75.9708Z" fill="#1A1A1A"/>
</g>
<mask id="mask4_5_102" style="mask-type:luminance" maskUnits="userSpaceOnUse" x="105" y="0" width="75" height="160">
<path d="M179.775 0H105.547V159.036H179.775V0Z" fill="white"/>
</mask>
<g mask="url(#mask4_5_102)">
<path d="M141.651 96.2241C138.308 94.9974 136.168 97.7167 138.497 100.05C137.792 95.9496 142.39 97.751 143.567 99.827C145.458 103.147 143.026 106.115 139.287 105.789C134.638 105.386 131.329 101.954 128.012 98.9263C127.058 98.0599 126.069 97.142 125.047 96.2498V86.4361V85.93C125.098 85.93 125.141 85.93 125.193 85.93C133.993 85.93 141.161 78.7841 141.161 69.9912C141.161 61.2069 134.002 54.0525 125.193 54.0525C123.242 54.0525 121.343 54.3956 119.538 55.0819C119.005 54.1812 118.36 53.3405 117.639 52.577C116.203 51.0586 114.424 49.8491 112.482 49.0341C111.511 48.6224 110.488 48.3221 109.448 48.1077C108.408 47.9103 107.343 47.8074 106.294 47.7988C105.237 47.8074 104.18 47.9018 103.14 48.1077C102.1 48.3221 101.086 48.6224 100.106 49.0341C98.1555 49.8491 96.3851 51.0672 94.9498 52.577C94.0904 53.4863 93.3513 54.5072 92.7669 55.588C90.6441 54.5844 88.2893 54.0439 85.9259 54.0439C77.1255 54.0439 69.9579 61.1898 69.9579 69.9827C69.9579 78.767 77.1169 85.9214 85.9259 85.9214H85.9775V86.4275V96.4557C85.2814 97.0819 84.611 97.7167 83.9579 98.3515C81.0444 101.157 76.7903 105.386 71.9002 105.78C67.4484 106.141 65.7038 101.929 68.0672 99.1407C69.2188 97.7853 73.6706 96.1898 72.6909 100.041C74.8394 98.1542 72.6909 95.3748 69.6485 96.0439C67.0359 96.6187 64.2943 99.2179 63.5638 102.401C62.3262 107.779 67.7406 111.279 71.2642 112.935C80.0045 117.035 96.6687 115.14 103.346 110.164C103.63 109.95 105.718 107.916 105.718 107.916C105.718 107.916 106.225 108.646 106.509 108.929C109.294 111.708 113.608 113.218 118.91 114.102C123.44 114.856 129.086 115.277 133.787 114.548C136.262 114.162 139.623 113.415 141.677 112.3C143.67 111.211 145.716 109.392 146.747 107.462C149.936 101.457 144.839 97.3907 141.651 96.2241ZM85.9087 82.4128C79.0506 82.4128 73.4729 76.8454 73.4729 69.9998C73.4729 63.1542 79.0506 57.5868 85.9087 57.5868C87.8768 57.5868 89.7589 58.0329 91.5036 58.9165C91.134 60.5292 91.0824 62.1849 91.4004 63.7461C91.7786 61.8503 92.4317 60.1003 93.3685 58.5562C94.2967 57.0206 95.4741 55.691 96.832 54.6101C99.5391 52.4483 102.908 51.316 106.294 51.3246C109.68 51.3246 113.049 52.4483 115.748 54.6101C117.097 55.6824 118.283 57.0121 119.211 58.5562C120.148 60.0917 120.801 61.8417 121.179 63.7376C121.532 61.9961 121.429 60.1175 120.93 58.3331C122.288 57.8356 123.723 57.5782 125.193 57.5782C132.051 57.5782 137.629 63.1456 137.629 69.9912C137.629 76.8368 132.051 82.4042 125.193 82.4042C124.634 82.4042 124.067 82.3699 123.517 82.2927L121.515 82.0268V93.5304C120.139 92.6297 118.704 91.9091 117.192 91.4974C112.267 90.1763 108.099 91.9692 105.581 94.3111C103.372 92.3724 100.682 90.7425 96.1101 91.1628C93.6349 91.3858 91.4606 92.3552 89.4839 93.6677V82.0525L87.4987 82.3013C86.9744 82.3785 86.4416 82.4128 85.9087 82.4128Z" fill="#1A1A1A"/>
</g>
</svg>
