<?xml version="1.0" encoding="UTF-8" standalone="no"?>
<!-- Created with Inkscape (http://www.inkscape.org/) -->

<svg
   version="1.1"
   id="svg66"
   width="221.33203"
   height="189.60277"
   viewBox="0 0 221.33203 189.60277"
   sodipodi:docname="media kit copy.pdf"
   xmlns:inkscape="http://www.inkscape.org/namespaces/inkscape"
   xmlns:sodipodi="http://sodipodi.sourceforge.net/DTD/sodipodi-0.dtd"
   xmlns="http://www.w3.org/2000/svg"
   xmlns:svg="http://www.w3.org/2000/svg">
  <defs
     id="defs70">
    <clipPath
       clipPathUnits="userSpaceOnUse"
       id="clipPath5654">
      <path
         d="M 0,1080 H 1920 V 0 H 0 Z"
         id="path5652" />
    </clipPath>
  </defs>
  <sodipodi:namedview
     id="namedview68"
     pagecolor="#ffffff"
     bordercolor="#000000"
     borderopacity="0.25"
     inkscape:showpageshadow="2"
     inkscape:pageopacity="0.0"
     inkscape:pagecheckerboard="0"
     inkscape:deskcolor="#d1d1d1"
     showgrid="false" />
  <g
     id="g5634"
     inkscape:groupmode="layer"
     inkscape:label="Page 13"
     transform="matrix(1.3333333,0,0,-1.3333333,-416,1211.5956)">
    <g
       id="g5648">
      <g
         id="g5650"
         clip-path="url(#clipPath5654)">
        <g
           id="g5668"
           transform="translate(477.9634,793.8604)">
          <path
             d="m 0,0 c 0,5.468 -0.098,10.938 0.017,16.404 0.424,20.024 -6.187,37.702 -18.144,53.449 -16.225,21.37 -37.966,35.134 -62.692,44.651 -1.955,0.753 -3.64,0.083 -5.367,-0.592 -17.556,-6.861 -33.678,-16.111 -47.55,-28.983 C -150,69.837 -161.67,51.95 -164.66,29.601 c -2.454,-18.345 -0.615,-36.884 -1.007,-55.332 -0.036,-1.671 0.815,-1.936 2.194,-1.355 2.186,0.92 4.382,1.818 6.565,2.746 0.8,0.34 1.717,0.785 0.644,1.732 -1.381,1.218 -1.138,2.793 -1.14,4.31 -0.018,11.865 0.08,23.731 -0.035,35.594 -0.135,13.892 3.511,26.755 10.567,38.6 14.539,24.407 36.637,39.466 62.398,49.903 1.371,0.556 2.602,0.344 3.883,-0.172 20.705,-8.34 39.09,-20.041 53.405,-37.44 10.807,-13.136 17.808,-27.973 18.881,-45.203 0.879,-14.118 0.202,-28.256 0.35,-42.384 0.005,-0.51 0.074,-1.189 -0.207,-1.507 -2.934,-3.323 0.228,-3.647 2.198,-4.543 1.032,-0.469 2.119,-0.824 3.13,-1.334 2.285,-1.153 2.871,-0.218 2.855,2.023 C -0.04,-16.508 -0.004,-8.254 0,0"
             style="fill:#000000;fill-opacity:1;fill-rule:nonzero;stroke:none"
             id="path5670" />
        </g>
        <g
           id="g5672"
           transform="translate(395.1349,784.374)">
          <path
             d="m 0,0 c 0.405,0.428 0.701,0.611 0.808,0.872 6.72,16.45 18.986,27.428 34.593,35.125 0.625,0.308 1.571,0.712 1.663,1.203 0.193,1.029 -1.004,1.126 -1.673,1.457 C 20.437,46.063 9.4,57.393 1.739,72.129 1.321,72.932 1.149,74.225 0.209,74.313 -1.055,74.432 -1.151,72.961 -1.59,72.123 -9.184,57.617 -19.957,46.31 -34.713,38.96 c -0.794,-0.395 -2.069,-0.539 -2.121,-1.563 -0.056,-1.097 1.256,-1.198 2.033,-1.589 C -19.462,28.087 -7.383,17.188 -0.716,0.982 -0.604,0.71 -0.364,0.492 0,0"
             style="fill:#000000;fill-opacity:1;fill-rule:nonzero;stroke:none"
             id="path5674" />
        </g>
      </g>
    </g>
  </g>
</svg>
