<?xml version="1.0" encoding="UTF-8" standalone="no"?>
<!-- Created with Inkscape (http://www.inkscape.org/) -->

<svg
   version="1.1"
   id="svg66"
   width="45.816406"
   height="45.815552"
   viewBox="0 0 45.816406 45.815552"
   xmlns="http://www.w3.org/2000/svg"
   xmlns:svg="http://www.w3.org/2000/svg">
  <defs
     id="defs70">
    <clipPath
       clipPathUnits="userSpaceOnUse"
       id="clipPath3094">
      <path
         d="M 0,1080 H 1920 V 0 H 0 Z"
         id="path3092" />
    </clipPath>
  </defs>
  <g
     id="g2916"
     transform="matrix(1.3333333,0,0,-1.3333333,-1722.1836,921.81525)">
    <g
       id="g3088">
      <g
         id="g3090"
         clip-path="url(#clipPath3094)">
        <g
           id="g3120"
           transform="translate(1303.1389,680.5288)">
          <path
             d="m 0,0 c 0.017,-3.132 2.565,-5.676 5.684,-5.675 3.131,10e-4 5.724,2.605 5.684,5.709 C 11.328,3.186 8.788,5.702 5.667,5.683 2.523,5.663 -0.017,3.116 0,0 m 5.67,-19.035 c 3.025,0.034 5.713,0.994 8.065,2.902 0.692,0.562 1.029,1.276 0.997,2.162 -0.114,3.134 -2.622,5.515 -5.839,5.532 -2.135,0.011 -4.27,0.009 -6.406,0 -3.085,-0.013 -5.442,-2.092 -5.837,-5.145 -0.125,-0.968 0.103,-1.828 0.882,-2.472 2.359,-1.954 5.075,-2.943 8.138,-2.979 m 1.019,-4.494 H 4.677 c -0.087,0.019 -0.172,0.05 -0.259,0.056 -2.397,0.167 -4.677,0.779 -6.771,1.952 -5.644,3.163 -8.711,7.993 -9.116,14.454 -0.175,2.779 0.349,5.471 1.593,7.967 3.049,6.118 8.015,9.45 14.838,9.898 3.097,0.203 6.054,-0.489 8.778,-1.988 4.845,-2.665 7.801,-6.732 8.858,-12.169 0.128,-0.658 0.148,-1.327 0.263,-1.985 v -2.013 c -0.019,-0.097 -0.05,-0.192 -0.057,-0.289 -0.167,-2.409 -0.806,-4.69 -1.976,-6.796 -2.682,-4.83 -6.744,-7.79 -12.186,-8.819 -0.645,-0.122 -1.301,-0.18 -1.953,-0.268"
             style="fill:#1a1a1a;fill-opacity:1;fill-rule:nonzero;stroke:none"
             id="path3122" />
        </g>
      </g>
    </g>
  </g>
</svg>
