<svg width="354" height="124" viewBox="0 0 354 124" fill="none" xmlns="http://www.w3.org/2000/svg">
<path d="M43.4301 123.51C43.4301 123.51 0.680054 114.01 0.680054 69.65C0.680054 30.55 0.680054 0 0.680054 0H10.1801C10.1801 0 10.1801 30.55 10.1801 69.65C10.1801 114.01 43.4301 123.51 43.4301 123.51Z" fill="black"/>
<path d="M43.4301 93.08C45.4001 91.96 47.0601 90.99 48.8901 89.5C54.9701 84.56 57.6801 78.44 57.6801 69.65V0H67.1801C67.1801 0 67.1801 67.5 67.1801 69.65C67.1801 75.16 64.1101 93.08 43.4301 93.08Z" fill="black"/>
<path d="M106.46 16.2202V18.0202C107.21 18.2902 107.75 18.5302 108.34 18.8802V19.0002H101.51V18.8902C102.13 18.5702 102.72 18.3002 103.39 18.0302V16.2302C99.03 16.1002 95.75 14.0202 95.75 10.3602C95.75 6.70021 99.03 4.63021 103.39 4.49021V2.69021C102.72 2.42021 102.13 2.15021 101.51 1.83021V1.72021H108.34V1.83021C107.75 2.18021 107.21 2.42021 106.46 2.69021V4.49021C110.82 4.62021 114.1 6.70021 114.1 10.3602C114.1 14.0202 110.82 16.0902 106.46 16.2202ZM103.39 15.7402V4.98021C100 5.17021 98.95 7.35021 98.95 10.3602C98.95 13.3702 100 15.5502 103.39 15.7402ZM106.46 4.98021V15.7402C109.88 15.5502 110.93 13.3702 110.93 10.3602C110.93 7.35021 109.88 5.16021 106.46 4.98021Z" fill="black"/>
<path d="M115.85 12.9101C115.85 9.20006 118.43 6.56006 122.01 6.56006C125.59 6.56006 128.17 9.20006 128.17 12.9101C128.17 16.6501 125.59 19.2601 122.01 19.2601C118.43 19.2601 115.85 16.6501 115.85 12.9101ZM124.97 12.9101C124.97 8.82006 124.03 6.96006 122.01 6.96006C119.99 6.96006 119.05 8.82006 119.05 12.9101C119.05 17.0301 119.99 18.8601 122.01 18.8601C124.03 18.8601 124.97 17.0001 124.97 12.9101Z" fill="black"/>
<path d="M143.65 6.94008C143.11 7.24008 142.57 7.48008 141.95 7.72008V18.1101C142.57 18.3501 143.11 18.5901 143.65 18.8901V19.0001H137.38V18.8901C137.92 18.5901 138.4 18.3501 139.02 18.1101V13.0501H134.15V18.1101C134.74 18.3501 135.23 18.5901 135.76 18.8901V19.0001H129.49V18.8901C130.06 18.5901 130.57 18.3501 131.21 18.1101V7.72008C130.56 7.48008 130.05 7.24008 129.49 6.94008V6.83008H135.76V6.94008C135.22 7.24008 134.74 7.48008 134.15 7.72008V12.5901H139.02V7.72008C138.4 7.48008 137.92 7.24008 137.38 6.94008V6.83008H143.65V6.94008Z" fill="black"/>
<path d="M156.35 18.5401H158.77C158.72 20.4801 158.61 21.7701 158.42 23.3001H158.29L156.05 19.0001H147.65L145.42 23.3101H145.29C145.13 21.7801 145.02 20.4801 144.97 18.5501H147.31C148.57 14.9401 149.36 11.3401 149.44 7.73008C148.63 7.49008 148.15 7.22008 147.58 6.95008V6.83008H158.05V6.94008C157.48 7.24008 156.97 7.48008 156.35 7.72008V18.5401ZM153.41 18.5401V7.29008H149.88C149.85 11.0301 149.07 14.8001 147.75 18.5401H153.41Z" fill="black"/>
<path d="M178.71 12.5603C178.71 17.2403 175.88 19.2603 172.39 19.2603C171.61 19.2603 170.88 19.1503 170.1 18.8803V23.5403C170.85 23.7803 171.5 24.0203 172.28 24.3203V24.4303H165.47V24.3203C166.04 24.0203 166.57 23.7803 167.19 23.5403V8.82035L165.47 8.01035V7.91035C166.84 7.37035 168.46 6.89035 170.04 6.62035L169.82 8.45035C170.84 7.29035 172.11 6.57035 173.8 6.57035C176.58 6.56035 178.71 8.69035 178.71 12.5603ZM175.59 13.3203C175.59 8.77035 174.38 7.53035 172.55 7.53035C171.66 7.53035 170.88 7.91035 170.1 8.77035V17.7003C170.69 18.5103 171.45 18.8303 172.2 18.8303C174.43 18.8303 175.59 17.0003 175.59 13.3203Z" fill="black"/>
<path d="M192.32 18.08C191.73 18.91 190.97 19.26 189.98 19.26C188.69 19.26 187.75 18.64 187.53 17.46C186.67 18.48 185.4 19.26 183.74 19.26C181.75 19.26 180.43 18.16 180.43 16.35C180.43 14.12 182.5 12.69 187.43 12.31V10.26C187.43 7.92004 186.65 6.92004 185.49 6.92004C185.06 6.92004 184.74 7.03004 184.36 7.27004L181.7 11.14H181.54C181.38 9.85004 181.27 8.72004 181.19 7.43004C182.62 6.84004 184.18 6.54004 185.55 6.54004C189.02 6.54004 190.37 8.37004 190.37 10.85V16.9C190.37 17.81 190.8 18.19 191.37 18.19C191.64 18.19 191.96 18.11 192.28 17.97L192.32 18.08ZM187.43 16.92V12.75C184.5 13.07 183.42 14.42 183.42 16.14C183.42 17.57 184.12 18.24 185.06 18.24C185.84 18.24 186.64 17.81 187.43 16.92Z" fill="black"/>
<path d="M202.63 15.8503C202.63 17.7903 200.77 19.2703 197.28 19.2703C195.69 19.2703 194.27 18.8703 193.24 18.4403C193.27 17.2003 193.32 16.2603 193.4 14.8603H193.51L196.09 18.5503C196.44 18.7103 196.82 18.8503 197.33 18.8503C198.62 18.8503 199.67 18.0203 199.67 16.1303C199.67 14.0303 198.35 12.6303 196.04 12.7703V12.4503C198.33 12.1503 199.27 11.0003 199.27 9.22033C199.27 7.74033 198.57 6.99033 197.52 6.99033C197.14 6.99033 196.77 7.04033 196.36 7.21033L193.83 10.9503H193.72C193.61 9.90033 193.56 8.39033 193.56 7.34033C194.64 6.88033 195.98 6.59033 197.52 6.59033C200.59 6.59033 202.23 7.80033 202.23 9.44033C202.23 11.1103 200.62 12.0203 198.27 12.4803C201.09 12.7303 202.63 14.1003 202.63 15.8503Z" fill="black"/>
<path d="M215.79 15.7101C215.79 17.7801 213.96 18.9901 210.41 18.9901H203.84V18.8801C204.38 18.5801 204.89 18.3401 205.51 18.1001V7.72008C204.89 7.48008 204.38 7.24008 203.84 6.94008V6.83008H210.86C213.55 6.83008 215.03 7.85008 215.03 9.52008C215.03 11.0001 214.03 11.8601 211.4 12.4501C214.2 12.5101 215.79 13.8301 215.79 15.7101ZM208.41 7.29008V12.4601H210.72C211.74 11.8101 212.2 11.0301 212.2 9.72008C212.2 8.00008 211.23 7.30008 209.89 7.30008H208.41V7.29008ZM212.8 15.9301C212.8 13.9701 211.8 12.8901 209.95 12.8901H208.42V18.1901C208.9 18.4601 209.42 18.5401 210.14 18.5401C211.78 18.5401 212.8 17.7601 212.8 15.9301Z" fill="black"/>
<path d="M231.12 6.94008C230.58 7.24008 230.04 7.48008 229.42 7.72008V18.1101C230.04 18.3501 230.58 18.5901 231.12 18.8901V19.0001H224.85V18.8901C225.39 18.5901 225.87 18.3501 226.49 18.1101V10.0101L221.62 16.5801V18.1101C222.21 18.3501 222.7 18.5901 223.23 18.8901V19.0001H216.96V18.8901C217.53 18.5901 218.04 18.3501 218.68 18.1101V7.72008C218.03 7.48008 217.52 7.24008 216.96 6.94008V6.83008H223.23V6.94008C222.69 7.24008 222.21 7.48008 221.62 7.72008V15.7901L226.49 9.22008V7.72008C225.87 7.48008 225.39 7.24008 224.85 6.94008V6.83008H231.12V6.94008Z" fill="black"/>
<path d="M244.34 6.83008C244.34 8.04008 244.29 9.92008 244.21 11.1101H244.08L241.25 7.26008H239.88V18.1301C240.42 18.3501 241.04 18.5901 241.58 18.8801V19.0001H235.15V18.8901C235.61 18.6201 236.41 18.3001 236.82 18.1401V7.26008H235.53L232.65 11.1101H232.52C232.44 9.85008 232.39 8.02008 232.39 6.83008H244.34Z" fill="black"/>
<path d="M259.73 6.94008C259.19 7.24008 258.65 7.48008 258.03 7.72008V18.1101C258.65 18.3501 259.19 18.5901 259.73 18.8901V19.0001H253.46V18.8901C254 18.5901 254.48 18.3501 255.1 18.1101V10.0101L250.23 16.5801V18.1101C250.82 18.3501 251.31 18.5901 251.84 18.8901V19.0001H245.57V18.8901C246.14 18.5901 246.65 18.3501 247.29 18.1101V7.72008C246.64 7.48008 246.13 7.24008 245.57 6.94008V6.83008H251.84V6.94008C251.3 7.24008 250.82 7.48008 250.23 7.72008V15.7901L255.1 9.22008V7.72008C254.48 7.48008 254 7.24008 253.46 6.94008V6.83008H259.73V6.94008Z" fill="black"/>
<path d="M273.83 6.94008C273.43 7.13008 272.89 7.40008 272.35 7.61008V18.1901C272.89 18.4301 273.37 18.6201 273.83 18.8901V19.0001H267.91V18.8901C268.39 18.6201 268.93 18.4101 269.44 18.1901V13.3701H267.8L265.19 18.2401C265.65 18.4601 265.81 18.5101 266.43 18.8901V19.0001H260.51V18.8901C260.83 18.7301 261.29 18.4601 261.94 18.1901L264.74 13.4801C265.41 13.3501 266.06 13.2601 266.76 13.1801V13.1301C264.39 12.8301 262.37 11.7601 262.37 9.90008C262.37 7.85008 263.98 6.83008 267.29 6.83008H273.83V6.94008ZM269.44 12.9101V7.29008H267.91C266.32 7.29008 265.33 8.29008 265.33 9.95008C265.33 11.3501 265.84 12.2601 267.24 12.9101H269.44Z" fill="black"/>
<path d="M107.43 46.6504C108.05 46.9504 108.59 47.2704 108.86 47.4304V47.5404H102.99V47.4304C103.39 47.1904 103.85 46.9204 104.34 46.6804L101.22 41.6203L99.93 42.2904V46.6504C100.52 46.9204 100.9 47.0804 101.6 47.4304V47.5404H95.3V47.4304C95.78 47.1604 96.4 46.8904 97 46.6504V36.2603C96.46 36.0203 95.79 35.7804 95.3 35.4804V35.3703H101.6V35.4804C100.98 35.8004 100.58 35.9603 99.93 36.2603V41.7803L101.25 41.1304L104.99 36.8204C104.26 36.2304 104.16 36.1204 103.46 35.4704V35.3604H108.06V35.4704C107.36 35.9004 106.66 36.3604 105.58 36.8204L103.16 39.6504L107.43 46.6504Z" fill="black"/>
<path d="M117.44 35.3701H121.4V35.4801C120.89 35.9401 120.24 36.4201 119.6 36.8501L112.74 53.2401L109.81 51.6001V51.5201C111.56 50.3601 113.04 49.2301 114.6 47.7801L109.38 36.2101C109 35.9901 108.63 35.7501 108.3 35.4801V35.3701H114.3V35.4801C113.76 35.7801 113.22 36.0501 112.63 36.3101L115.91 44.4401L119.06 36.8501C118.47 36.3901 117.96 35.9901 117.45 35.4801V35.3701H117.44Z" fill="black"/>
<path d="M135.65 35.4804C135.11 35.7804 134.57 36.0203 133.95 36.2603V46.6504C134.57 46.8904 135.11 47.1304 135.65 47.4304V47.5404H129.33V47.4304C129.87 47.1304 130.41 46.8904 131.03 46.6504V35.8304H127.1C127.1 45.1704 126.16 47.8004 123.95 47.8004C123.38 47.8004 122.93 47.7204 122.34 47.4804C122.39 46.0304 122.5 44.9004 122.66 43.5504H122.79L124.54 47.1804C125.83 46.6704 126.56 44.7304 126.56 36.2504C125.94 36.0104 125.32 35.7704 124.78 35.4704V35.3604H135.65V35.4804Z" fill="black"/>
<path d="M144.08 41.0001C147.01 41.0001 148.68 42.3201 148.68 44.2601C148.68 46.3301 146.85 47.5401 143.3 47.5401H136.73V47.4301C137.27 47.1301 137.78 46.8901 138.4 46.6501V36.2601C137.78 36.0201 137.27 35.7801 136.73 35.4801V35.3701H142.95V35.4801C142.41 35.7801 141.9 36.0201 141.31 36.2601V41.0001H144.08ZM145.69 44.4701C145.69 42.5101 144.69 41.4301 142.84 41.4301H141.31V46.7301C141.79 47.0001 142.31 47.0801 143.03 47.0801C144.67 47.0801 145.69 46.3001 145.69 44.4701Z" fill="black"/>
<path d="M162.08 35.3701C162.08 36.5801 162.03 38.4601 161.95 39.6501H161.82L158.99 35.8001H157.62V46.6701C158.16 46.8901 158.78 47.1301 159.32 47.4201V47.5301H152.89V47.4201C153.35 47.1501 154.15 46.8301 154.56 46.6701V35.8001H153.27L150.39 39.6501H150.26C150.18 38.3901 150.13 36.5601 150.13 35.3701H162.08Z" fill="black"/>
<path d="M171.85 35.3701H175.81V35.4801C175.3 35.9401 174.65 36.4201 174.01 36.8501L167.15 53.2401L164.22 51.6001V51.5201C165.97 50.3601 167.45 49.2301 169.01 47.7801L163.79 36.2101C163.41 35.9901 163.04 35.7501 162.71 35.4801V35.3701H168.71V35.4801C168.17 35.7801 167.63 36.0501 167.04 36.3101L170.32 44.4401L173.47 36.8501C172.88 36.3901 172.37 35.9901 171.86 35.4801V35.3701H171.85Z" fill="black"/>
<path d="M189.23 41.1001C189.23 45.7801 186.4 47.8001 182.91 47.8001C182.13 47.8001 181.4 47.6901 180.62 47.4201V52.0801C181.37 52.3201 182.02 52.5601 182.8 52.8601V52.9701H175.99V52.8601C176.56 52.5601 177.09 52.3201 177.71 52.0801V37.3601L175.99 36.5501V36.4401C177.36 35.9001 178.98 35.4201 180.56 35.1501L180.34 36.9801C181.36 35.8201 182.63 35.1001 184.32 35.1001C187.1 35.1001 189.23 37.2301 189.23 41.1001ZM186.11 41.8601C186.11 37.3101 184.9 36.0701 183.07 36.0701C182.18 36.0701 181.4 36.4501 180.62 37.3101V46.2401C181.21 47.0501 181.97 47.3701 182.72 47.3701C184.95 47.3701 186.11 45.5401 186.11 41.8601Z" fill="black"/>
<path d="M197.97 41.0001C200.9 41.0001 202.57 42.3201 202.57 44.2601C202.57 46.3301 200.74 47.5401 197.19 47.5401H190.62V47.4301C191.16 47.1301 191.67 46.8901 192.29 46.6501V36.2601C191.67 36.0201 191.16 35.7801 190.62 35.4801V35.3701H196.84V35.4801C196.3 35.7801 195.79 36.0201 195.2 36.2601V41.0001H197.97ZM199.59 44.4701C199.59 42.5101 198.59 41.4301 196.74 41.4301H195.21V46.7301C195.69 47.0001 196.21 47.0801 196.93 47.0801C198.57 47.0801 199.59 46.3001 199.59 44.4701ZM209.57 35.4801C209.03 35.7801 208.52 36.0201 207.9 36.2601V46.6501C208.52 46.8901 209.03 47.1301 209.57 47.4301V47.5401H203.35V47.4301C203.89 47.1301 204.4 46.8901 205.02 46.6501V36.2601C204.4 36.0201 203.89 35.7801 203.35 35.4801V35.3701H209.57V35.4801Z" fill="black"/>
<path d="M230.37 35.4804C229.83 35.7804 229.29 36.0203 228.67 36.2603V46.6504C229.29 46.8904 229.83 47.1304 230.37 47.4304V47.5404H224.1V47.4304C224.64 47.1304 225.12 46.8904 225.74 46.6504V38.5504L220.87 45.1203V46.6504C221.46 46.8904 221.95 47.1304 222.48 47.4304V47.5404H216.21V47.4304C216.78 47.1304 217.29 46.8904 217.93 46.6504V36.2603C217.28 36.0203 216.77 35.7804 216.21 35.4804V35.3703H222.48V35.4804C221.94 35.7804 221.46 36.0203 220.87 36.2603V44.3304L225.74 37.7603V36.2504C225.12 36.0104 224.64 35.7704 224.1 35.4704V35.3604H230.37V35.4804Z" fill="black"/>
<path d="M251.17 35.4804C250.63 35.7804 250.09 36.0203 249.47 36.2603V46.6504C250.09 46.8904 250.63 47.1304 251.17 47.4304V47.5404H244.9V47.4304C245.44 47.1304 245.92 46.8904 246.54 46.6504V38.5504L241.67 45.1203V46.6504C242.26 46.8904 242.75 47.1304 243.28 47.4304V47.5404H237.01V47.4304C237.58 47.1304 238.09 46.8904 238.73 46.6504V36.2603C238.08 36.0203 237.57 35.7804 237.01 35.4804V35.3703H243.28V35.4804C242.74 35.7804 242.26 36.0203 241.67 36.2603V44.3304L246.54 37.7603V36.2504C245.92 36.0104 245.44 35.7704 244.9 35.4704V35.3604H251.17V35.4804Z" fill="black"/>
<path d="M262.69 45.1703L262.77 45.2504C261.83 46.8904 260.16 47.8104 258.17 47.8104C254.83 47.8104 252.49 45.2804 252.49 41.5904C252.49 37.8204 255.05 35.1104 258.63 35.1104C260.14 35.1104 261.54 35.4104 262.83 36.0004C262.78 37.3204 262.67 38.4504 262.48 39.7704H262.35L259.71 35.8703C259.36 35.6303 258.98 35.4904 258.47 35.4904C256.75 35.4904 255.51 37.5603 255.51 40.6003C255.51 44.0403 257.15 46.1404 259.82 46.1404C260.8 46.1304 261.85 45.7603 262.69 45.1703Z" fill="black"/>
<path d="M276.2 46.6504C276.82 46.9504 277.36 47.2704 277.63 47.4304V47.5404H271.76V47.4304C272.16 47.1904 272.62 46.9204 273.11 46.6804L269.99 41.6203L268.7 42.2904V46.6504C269.29 46.9204 269.67 47.0804 270.37 47.4304V47.5404H264.07V47.4304C264.55 47.1604 265.17 46.8904 265.77 46.6504V36.2603C265.23 36.0203 264.56 35.7804 264.07 35.4804V35.3703H270.37V35.4804C269.75 35.8004 269.35 35.9603 268.7 36.2603V41.7803L270.02 41.1304L273.76 36.8204C273.03 36.2304 272.93 36.1204 272.23 35.4704V35.3604H276.83V35.4704C276.13 35.9004 275.43 36.3604 274.35 36.8204L271.93 39.6504L276.2 46.6504Z" fill="black"/>
<path d="M286.2 35.3701H290.16V35.4801C289.65 35.9401 289 36.4201 288.36 36.8501L281.5 53.2401L278.57 51.6001V51.5201C280.32 50.3601 281.8 49.2301 283.36 47.7801L278.14 36.2101C277.76 35.9901 277.39 35.7501 277.06 35.4801V35.3701H283.06V35.4801C282.52 35.7801 281.98 36.0501 281.39 36.3101L284.67 44.4401L287.82 36.8501C287.23 36.3901 286.72 35.9901 286.21 35.4801V35.3701H286.2Z" fill="black"/>
<path d="M301 45.1703L301.08 45.2504C300.14 46.8904 298.47 47.8104 296.48 47.8104C293.14 47.8104 290.8 45.2804 290.8 41.5904C290.8 37.8204 293.36 35.1104 296.94 35.1104C298.45 35.1104 299.85 35.4104 301.14 36.0004C301.09 37.3204 300.98 38.4504 300.79 39.7704H300.66L298.02 35.8703C297.67 35.6303 297.29 35.4904 296.78 35.4904C295.06 35.4904 293.82 37.5603 293.82 40.6003C293.82 44.0403 295.46 46.1404 298.13 46.1404C299.12 46.1304 300.17 45.7603 301 45.1703Z" fill="black"/>
<path d="M312.92 45.1703L313 45.2504C312.06 46.8904 310.39 47.8104 308.4 47.8104C305.06 47.8104 302.72 45.2804 302.72 41.5904C302.72 37.8204 305.28 35.1104 308.86 35.1104C310.37 35.1104 311.77 35.4104 313.06 36.0004C313.01 37.3204 312.9 38.4504 312.71 39.7704H312.58L309.94 35.8703C309.59 35.6303 309.21 35.4904 308.7 35.4904C306.98 35.4904 305.74 37.5603 305.74 40.6003C305.74 44.0403 307.38 46.1404 310.05 46.1404C311.04 46.1304 312.09 45.7603 312.92 45.1703Z" fill="black"/>
<path d="M326.54 35.3701C326.54 36.5801 326.49 38.4601 326.41 39.6501H326.28L323.45 35.8001H322.08V46.6701C322.62 46.8901 323.24 47.1301 323.78 47.4201V47.5301H317.35V47.4201C317.81 47.1501 318.61 46.8301 319.02 46.6701V35.8001H317.73L314.85 39.6501H314.72C314.64 38.3901 314.59 36.5601 314.59 35.3701H326.54Z" fill="black"/>
<path d="M339.78 44.2501C339.78 46.3201 337.95 47.5301 334.4 47.5301H327.83V47.4201C328.37 47.1201 328.88 46.8801 329.5 46.6401V36.2601C328.88 36.0201 328.37 35.7801 327.83 35.4801V35.3701H334.85C337.54 35.3701 339.02 36.3901 339.02 38.0601C339.02 39.5401 338.02 40.4001 335.39 40.9901C338.19 41.0501 339.78 42.3701 339.78 44.2501ZM332.41 35.8301V41.0001H334.72C335.74 40.3501 336.2 39.5701 336.2 38.2601C336.2 36.5401 335.23 35.8401 333.89 35.8401H332.41V35.8301ZM336.79 44.4701C336.79 42.5101 335.79 41.4301 333.94 41.4301H332.41V46.7301C332.89 47.0001 333.41 47.0801 334.13 47.0801C335.77 47.0801 336.79 46.3001 336.79 44.4701Z" fill="black"/>
<path d="M353.23 46.6201C352.64 47.4501 351.88 47.8001 350.89 47.8001C349.6 47.8001 348.66 47.1801 348.44 46.0001C347.58 47.0201 346.31 47.8001 344.65 47.8001C342.66 47.8001 341.34 46.7001 341.34 44.8901C341.34 42.6601 343.41 41.2301 348.34 40.8501V38.8001C348.34 36.4601 347.56 35.4601 346.4 35.4601C345.97 35.4601 345.65 35.5701 345.27 35.8101L342.61 39.6801H342.45C342.29 38.3901 342.18 37.2601 342.1 35.9701C343.53 35.3801 345.09 35.0801 346.46 35.0801C349.93 35.0801 351.28 36.9101 351.28 39.3901V45.4401C351.28 46.3501 351.71 46.7301 352.28 46.7301C352.55 46.7301 352.87 46.6501 353.19 46.5101L353.23 46.6201ZM348.34 45.4601V41.2901C345.41 41.6101 344.33 42.9601 344.33 44.6801C344.33 46.1101 345.03 46.7801 345.97 46.7801C346.75 46.7801 347.56 46.3501 348.34 45.4601Z" fill="black"/>
<path d="M107.24 58.8003H111.98V58.9103C111.39 59.3703 110.85 59.6903 109.96 60.1703L103.85 72.7903C102.61 75.2703 101.35 76.3403 99.57 76.3403C98.76 76.3403 98.31 76.2603 97.69 76.0203C97.77 74.5703 97.88 73.4403 98.04 72.0403H98.17L100.05 75.7503C101.42 75.6403 102.44 74.5903 103.39 72.6803H103.09L96.77 59.7903C96.12 59.4903 95.8 59.3103 95.16 58.9003V58.8003H102.08V58.9103C101.38 59.2303 100.79 59.5003 100.03 59.8003L104.93 69.4603L109.4 60.1803C108.62 59.7503 107.62 59.2103 107.25 58.9203V58.8003H107.24Z" fill="black"/>
<path d="M121.58 72.9201C121.58 74.8601 119.72 76.3401 116.23 76.3401C114.64 76.3401 113.22 75.9401 112.19 75.5101C112.22 74.2701 112.27 73.3301 112.35 71.9301H112.46L115.04 75.6201C115.39 75.7801 115.77 75.9201 116.28 75.9201C117.57 75.9201 118.62 75.0901 118.62 73.2001C118.62 71.1001 117.3 69.7001 114.99 69.8401V69.5201C117.28 69.2201 118.22 68.0701 118.22 66.2901C118.22 64.8101 117.52 64.0601 116.47 64.0601C116.09 64.0601 115.72 64.1101 115.31 64.2801L112.78 68.0001H112.67C112.56 66.9501 112.51 65.4401 112.51 64.3901C113.59 63.9301 114.93 63.6401 116.47 63.6401C119.54 63.6401 121.18 64.8501 121.18 66.4901C121.18 68.1601 119.57 69.0701 117.22 69.5301C120.05 69.8001 121.58 71.1801 121.58 72.9201Z" fill="black"/>
<path d="M135.09 69.9903C135.09 73.7303 132.53 76.3403 129.04 76.3403C125.51 76.3403 123.07 73.8603 123.07 69.1303C123.07 62.8103 125.22 58.7703 129.56 58.2303L133.06 57.8003L134.22 56.3203H134.38C134.51 57.4003 134.6 58.9003 134.6 59.9803L129.16 60.6503C125.69 61.0803 124.05 62.3703 123.67 67.0003C124.61 65.2503 126.6 63.6403 129.08 63.6403C132.56 63.6403 135.09 66.2803 135.09 69.9903ZM131.89 69.9903C131.89 65.9303 131 64.0403 129.06 64.0403C127.15 64.0403 126.26 65.8703 126.26 69.9903C126.26 74.1103 127.15 75.9403 129.03 75.9403C131 75.9403 131.89 74.0603 131.89 69.9903Z" fill="black"/>
<path d="M147.36 73.7301C146.45 75.2901 144.86 76.3401 142.57 76.3401C139.02 76.3401 136.7 73.8401 136.7 70.1001C136.7 65.8501 139.66 63.6401 142.49 63.6401C145.34 63.6401 147.31 65.8701 147.31 68.6201V69.1001H139.75C139.86 73.2701 141.69 74.6701 144.16 74.6701C145.37 74.6701 146.34 74.2901 147.28 73.6501L147.36 73.7301ZM139.74 68.6201H144.37C144.37 65.3401 143.64 64.0201 142.24 64.0201C140.74 64.0201 139.77 65.5001 139.74 68.6201Z" fill="black"/>
<path d="M160.76 75.1904C161.38 75.4904 161.92 75.8104 162.19 75.9704V76.0804H156.32V75.9704C156.72 75.7304 157.18 75.4604 157.67 75.2204L154.55 70.1604L153.26 70.8304V75.1904C153.85 75.4604 154.23 75.6204 154.93 75.9704V76.0804H148.63V75.9704C149.11 75.7004 149.73 75.4304 150.33 75.1904V64.8004C149.79 64.5604 149.12 64.3204 148.63 64.0204V63.9104H154.93V64.0204C154.31 64.3404 153.91 64.5004 153.26 64.8004V70.3204L154.58 69.6704L158.32 65.3604C157.59 64.7704 157.49 64.6604 156.79 64.0104V63.9004H161.39V64.0104C160.69 64.4404 159.99 64.9004 158.91 65.3604L156.49 68.1904L160.76 75.1904Z" fill="black"/>
<path d="M176.39 64.0202C175.85 64.3202 175.31 64.5602 174.69 64.8002V75.1902C175.31 75.4302 175.85 75.6702 176.39 75.9702V76.0802H170.12V75.9702C170.66 75.6702 171.14 75.4302 171.76 75.1902V67.0902L166.89 73.6602V75.1902C167.48 75.4302 167.97 75.6702 168.5 75.9702V76.0802H162.23V75.9702C162.8 75.6702 163.31 75.4302 163.95 75.1902V64.8002C163.3 64.5602 162.79 64.3202 162.23 64.0202V63.9102H168.5V64.0202C167.96 64.3202 167.48 64.5602 166.89 64.8002V72.8702L171.76 66.3002V64.8002C171.14 64.5602 170.66 64.3202 170.12 64.0202V63.9102H176.39V64.0202Z" fill="black"/>
<path d="M187.91 73.7104L187.99 73.7904C187.05 75.4304 185.38 76.3504 183.39 76.3504C180.05 76.3504 177.71 73.8204 177.71 70.1304C177.71 66.3604 180.27 63.6504 183.85 63.6504C185.36 63.6504 186.76 63.9504 188.05 64.5404C188 65.8604 187.89 66.9904 187.7 68.3104H187.57L184.93 64.4104C184.58 64.1704 184.2 64.0304 183.69 64.0304C181.97 64.0304 180.73 66.1004 180.73 69.1404C180.73 72.5804 182.37 74.6804 185.04 74.6804C186.03 74.6704 187.08 74.3004 187.91 73.7104Z" fill="black"/>
<path d="M201.53 63.9102C201.53 65.1202 201.48 67.0002 201.4 68.1902H201.27L198.44 64.3402H197.07V75.2102C197.61 75.4302 198.23 75.6702 198.77 75.9602V76.0702H192.34V75.9602C192.8 75.6902 193.6 75.3702 194.01 75.2102V64.3402H192.72L189.84 68.1902H189.71C189.63 66.9302 189.58 65.1002 189.58 63.9102H201.53Z" fill="black"/>
<path d="M215.03 75.1601C214.44 75.9901 213.68 76.3401 212.69 76.3401C211.4 76.3401 210.46 75.7201 210.24 74.5401C209.38 75.5601 208.11 76.3401 206.45 76.3401C204.46 76.3401 203.14 75.2401 203.14 73.4301C203.14 71.2001 205.21 69.7701 210.14 69.3901V67.3401C210.14 65.0001 209.36 64.0001 208.2 64.0001C207.77 64.0001 207.45 64.1101 207.07 64.3501L204.41 68.2201H204.25C204.09 66.9301 203.98 65.8001 203.9 64.5101C205.33 63.9201 206.89 63.6201 208.26 63.6201C211.73 63.6201 213.08 65.4501 213.08 67.9301V74.0001C213.08 74.9101 213.51 75.2901 214.08 75.2901C214.35 75.2901 214.67 75.2101 214.99 75.0701L215.03 75.1601ZM210.14 74.0001V69.8301C207.21 70.1501 206.13 71.5001 206.13 73.2201C206.13 74.6501 206.83 75.3201 207.77 75.3201C208.55 75.3201 209.36 74.8901 210.14 74.0001Z" fill="black"/>
<path d="M229.62 64.0202C229.08 64.3202 228.54 64.5602 227.92 64.8002V75.1902C228.54 75.4302 229.08 75.6702 229.62 75.9702V76.0802H223.35V75.9702C223.89 75.6702 224.37 75.4302 224.99 75.1902V70.1302H220.12V75.1902C220.71 75.4302 221.2 75.6702 221.73 75.9702V76.0802H215.46V75.9702C216.03 75.6702 216.54 75.4302 217.18 75.1902V64.8002C216.53 64.5602 216.02 64.3202 215.46 64.0202V63.9102H221.73V64.0202C221.19 64.3202 220.71 64.5602 220.12 64.8002V69.6702H224.99V64.8002C224.37 64.5602 223.89 64.3202 223.35 64.0202V63.9102H229.62V64.0202Z" fill="black"/>
<path d="M242.88 75.1601C242.29 75.9901 241.53 76.3401 240.54 76.3401C239.25 76.3401 238.31 75.7201 238.09 74.5401C237.23 75.5601 235.96 76.3401 234.3 76.3401C232.31 76.3401 230.99 75.2401 230.99 73.4301C230.99 71.2001 233.06 69.7701 237.99 69.3901V67.3401C237.99 65.0001 237.21 64.0001 236.05 64.0001C235.62 64.0001 235.3 64.1101 234.92 64.3501L232.26 68.2201H232.1C231.94 66.9301 231.83 65.8001 231.75 64.5101C233.18 63.9201 234.74 63.6201 236.11 63.6201C239.58 63.6201 240.93 65.4501 240.93 67.9301V74.0001C240.93 74.9101 241.36 75.2901 241.93 75.2901C242.2 75.2901 242.52 75.2101 242.84 75.0701L242.88 75.1601ZM237.99 74.0001V69.8301C235.06 70.1501 233.98 71.5001 233.98 73.2201C233.98 74.6501 234.68 75.3201 235.62 75.3201C236.4 75.3201 237.21 74.8901 237.99 74.0001Z" fill="black"/>
</svg>
