<svg width="26" height="26" viewBox="0 0 26 26" fill="none" xmlns="http://www.w3.org/2000/svg">
<path fill-rule="evenodd" clip-rule="evenodd" d="M13 0.5C6.1 0.5 0.5 6.1 0.5 13C0.5 19.9 6.1 25.5 13 25.5C19.8875 25.5 25.5 19.9 25.5 13C25.5 6.1 19.8875 0.5 13 0.5ZM21.2562 6.2625C22.7946 8.13663 23.6459 10.4805 23.6688 12.905C23.3175 12.8375 19.7925 12.1187 16.24 12.5662C16.1587 12.39 16.09 12.2 16.01 12.01C15.7888 11.4888 15.5537 10.9736 15.305 10.465C19.2362 8.865 21.0262 6.56 21.2562 6.2625ZM13 2.34375C15.7125 2.34375 18.1925 3.36 20.0775 5.02875C19.8875 5.29875 18.2738 7.455 14.4775 8.87875C12.7288 5.66625 10.79 3.035 10.4913 2.62875C11.3136 2.43652 12.1555 2.34087 13 2.34375ZM8.45875 3.3475C9.8893 5.33039 11.2108 7.38969 12.4175 9.51625C7.4275 10.845 3.02125 10.8162 2.5475 10.8162C2.89103 9.20016 3.60326 7.68527 4.62863 6.38974C5.65399 5.09421 6.96478 4.05306 8.45875 3.3475ZM2.31625 13.0125V12.6875C2.77875 12.7 7.95625 12.7688 13.285 11.1687C13.5975 11.765 13.8813 12.375 14.1525 12.985C14.0162 13.0262 13.8675 13.0663 13.7325 13.1075C8.2275 14.8825 5.29875 19.7362 5.055 20.1437C3.2923 18.1868 2.3158 15.6463 2.31625 13.0125ZM13 23.6838C10.6268 23.6878 8.32083 22.8955 6.45125 21.4338C6.64125 21.04 8.81125 16.8638 14.83 14.7625C14.8575 14.75 14.8712 14.75 14.8975 14.735C15.9129 17.3543 16.6759 20.0645 17.1763 22.8288C15.8573 23.3963 14.4359 23.6873 13 23.6838ZM18.9513 21.8525C18.8438 21.2025 18.2738 18.0837 16.8775 14.2475C20.2262 13.7188 23.155 14.5862 23.52 14.7087C23.292 16.1501 22.7685 17.5288 21.9823 18.7581C21.196 19.9875 20.1641 21.041 18.9513 21.8525Z" fill="white"/>
</svg>
