<svg width="26" height="26" viewBox="0 0 26 26" fill="none" xmlns="http://www.w3.org/2000/svg">
<path fill-rule="evenodd" clip-rule="evenodd" d="M13.3937 0.5C16.4312 0.5 16.8737 0.51625 18.1537 0.575C19.4837 0.63625 20.3925 0.8475 21.1875 1.15625C22.0219 1.46984 22.7778 1.9617 23.4025 2.5975C24.0383 3.22222 24.5302 3.97813 24.8438 4.8125C25.1525 5.6075 25.3638 6.51625 25.425 7.84625C25.485 9.18 25.5 9.605 25.5 13V13.1C25.5 16.4037 25.485 16.8337 25.425 18.1537C25.3638 19.4837 25.1525 20.3925 24.8438 21.1875C24.5302 22.0219 24.0383 22.7778 23.4025 23.4025C22.7778 24.0383 22.0219 24.5302 21.1875 24.8438C20.3925 25.1525 19.4837 25.3638 18.1537 25.425C16.82 25.485 16.395 25.5 13 25.5H12.9C9.59625 25.5 9.16625 25.485 7.84625 25.425C6.51625 25.3638 5.6075 25.1525 4.8125 24.8438C3.97813 24.5302 3.22222 24.0383 2.5975 23.4025C1.9617 22.7778 1.46984 22.0219 1.15625 21.1875C0.8475 20.3925 0.63625 19.4837 0.575 18.1537C0.51625 16.8737 0.5 16.43 0.5 13.3937V12.6063C0.5 9.56875 0.51625 9.12625 0.575 7.84625C0.63625 6.51625 0.8475 5.6075 1.15625 4.8125C1.46984 3.97813 1.9617 3.22222 2.5975 2.5975C3.22222 1.9617 3.97813 1.46984 4.8125 1.15625C5.6075 0.8475 6.51625 0.63625 7.84625 0.575C9.12625 0.51625 9.57 0.5 12.6063 0.5H13.3937ZM13.2925 2.7525H12.7075C9.6375 2.7525 9.2275 2.76625 7.94875 2.825C6.73 2.88125 6.06875 3.08375 5.6275 3.255C5.04375 3.4825 4.6275 3.7525 4.19 4.19C3.7525 4.6275 3.4825 5.04375 3.255 5.6275C3.08375 6.06875 2.88 6.73 2.825 7.94875C2.76625 9.2275 2.7525 9.6375 2.7525 12.7075V13.2925C2.7525 16.3625 2.76625 16.7725 2.825 18.0513C2.88125 19.27 3.08375 19.9313 3.255 20.3725C3.4825 20.955 3.75375 21.3725 4.19 21.81C4.6275 22.2475 5.04375 22.5175 5.6275 22.745C6.06875 22.9162 6.73 23.12 7.94875 23.175C9.26625 23.235 9.66125 23.2475 13 23.2475H13.1C16.3462 23.2475 16.7463 23.235 18.05 23.175C19.27 23.1187 19.9313 22.9162 20.3725 22.745C20.955 22.5175 21.3725 22.2475 21.81 21.81C22.2475 21.3725 22.5175 20.9563 22.745 20.3725C22.9162 19.9313 23.12 19.27 23.175 18.0513C23.235 16.7325 23.2475 16.3388 23.2475 13V12.9C23.2475 9.65375 23.235 9.25375 23.175 7.95C23.1187 6.73 22.9162 6.06875 22.745 5.6275C22.5447 5.08446 22.2252 4.59325 21.81 4.19C21.4067 3.77482 20.9155 3.45532 20.3725 3.255C19.9313 3.08375 19.27 2.88 18.0513 2.825C16.7725 2.76625 16.3625 2.7525 13.2925 2.7525ZM13 6.58125C13.8429 6.58125 14.6776 6.74728 15.4563 7.06985C16.2351 7.39242 16.9427 7.86522 17.5387 8.46126C18.1348 9.05729 18.6076 9.76489 18.9302 10.5437C19.2527 11.3224 19.4188 12.1571 19.4188 13C19.4188 13.8429 19.2527 14.6776 18.9302 15.4563C18.6076 16.2351 18.1348 16.9427 17.5387 17.5387C16.9427 18.1348 16.2351 18.6076 15.4563 18.9302C14.6776 19.2527 13.8429 19.4188 13 19.4188C11.2976 19.4188 9.66501 18.7425 8.46126 17.5387C7.25751 16.335 6.58125 14.7024 6.58125 13C6.58125 11.2976 7.25751 9.66501 8.46126 8.46126C9.66501 7.25751 11.2976 6.58125 13 6.58125ZM13 8.83375C11.895 8.83375 10.8353 9.27269 10.054 10.054C9.27269 10.8353 8.83375 11.895 8.83375 13C8.83375 14.105 9.27269 15.1647 10.054 15.946C10.8353 16.7273 11.895 17.1663 13 17.1663C14.105 17.1663 15.1647 16.7273 15.946 15.946C16.7273 15.1647 17.1663 14.105 17.1663 13C17.1663 11.895 16.7273 10.8353 15.946 10.054C15.1647 9.27269 14.105 8.83375 13 8.83375ZM19.6725 4.8275C20.0703 4.8275 20.4519 4.98554 20.7332 5.26684C21.0145 5.54814 21.1725 5.92968 21.1725 6.3275C21.1725 6.72532 21.0145 7.10686 20.7332 7.38816C20.4519 7.66946 20.0703 7.8275 19.6725 7.8275C19.2747 7.8275 18.8931 7.66946 18.6118 7.38816C18.3305 7.10686 18.1725 6.72532 18.1725 6.3275C18.1725 5.92968 18.3305 5.54814 18.6118 5.26684C18.8931 4.98554 19.2747 4.8275 19.6725 4.8275Z" fill="white"/>
</svg>
