<svg width="208" height="56" viewBox="0 0 208 56" fill="none" xmlns="http://www.w3.org/2000/svg">
<path d="M1.17978 28.8532H50.9097C54.723 28.8532 56.6688 27.5499 56.6688 25.4847V24.3968C56.6688 22.823 54.7957 21.4646 52.1622 21.2437L10.9591 18.4716C4.64645 18.0408 0 15.3239 0 10.7019V8.15068C0 3.15314 5.06021 0 11.8594 0H61.3097V5.1632H12.8994C9.22581 5.1632 7.62667 6.95789 7.62667 8.47648V9.72449C7.62667 11.6241 9.49978 13.0378 12.3402 13.2587L54.4379 16.1357C60.4039 16.5167 64.2843 19.344 64.2843 23.7397V26.186C64.2843 30.8577 58.9445 34.0661 52.3523 34.0661H1.17978V28.8532Z" fill="white"/>
<path d="M121.512 34.0661L82.5346 17.1683V34.0661H74.8353V0H82.5346V16.5719L121.372 0H135.245L95.5011 16.8425L135.452 34.0661H121.512Z" fill="white"/>
<path d="M208 0L177.829 21.9505V34.0661H170.269V21.9505L139.751 0H150.157L173.948 17.1683L197.667 0H208Z" fill="white"/>
<path d="M57.5075 54.7139H52.3243L51.4129 56.0006H50.166L54.4714 49.9814H55.3548L59.6434 56.0006H58.4077L57.5075 54.7139ZM56.8589 53.7917L54.9131 51.0472L52.9785 53.7917H56.8589Z" fill="white"/>
<path d="M69.7918 54.0896V51.9359C69.7918 50.7266 70.6585 49.9756 71.8998 49.9756H78.5312V50.8867H72.1905C71.2176 50.8867 70.8598 51.4555 70.8598 52.1237V53.8521C70.8598 54.6307 71.3854 55.0725 72.1122 55.0725H77.6365V52.6593H78.7436V55.9892H71.9165C70.7144 56.0002 69.7918 55.2713 69.7918 54.0896Z" fill="white"/>
<path d="M89.96 49.9814H98.4757V50.8926H91.0392V52.4774H97.788V53.3996H91.0392V55.0784H98.4757V56.0006H89.96V49.9814Z" fill="white"/>
<path d="M118.571 49.9814V56.0006H117.542L110.492 51.1245V56.0006H109.452V49.9814H110.492L117.542 54.8575V49.9814H118.571Z" fill="white"/>
<path d="M129.788 54.0896V51.9359C129.788 50.7266 130.654 49.9756 131.895 49.9756H137.778V50.8867H132.186C131.213 50.8867 130.855 51.4555 130.855 52.1237V53.8521C130.855 54.6307 131.381 55.0725 132.108 55.0725H137.778V55.9947H131.912C130.71 56.0002 129.788 55.2713 129.788 54.0896Z" fill="white"/>
<path d="M157.834 49.9814L153.601 53.8635V56.0061H152.539V53.8635L148.261 49.9814H149.721L153.059 53.0186L156.386 49.9814H157.834Z" fill="white"/>
</svg>
