<svg width="1642" height="2907" viewBox="0 0 1642 2907" fill="none" xmlns="http://www.w3.org/2000/svg">
<path d="M59.2027 1388.06C54.0425 1346.48 60.7083 1302.14 67.2098 1258.83C74.8114 1208.25 82.668 1155.95 71.429 1109.09L72.544 1108.64C83.8104 1155.62 75.94 1208 68.3347 1258.65C59.1194 1320.01 49.579 1383.47 73.8887 1438.06C96.2482 1488.26 149.612 1523.37 213.177 1529.7C260.412 1534.39 308.239 1522.91 351.505 1496.49C430.906 1447.98 471.856 1368.07 511.457 1290.78C515.454 1282.97 519.593 1274.89 523.66 1267.08C540.965 1233.81 569.883 1185.58 609.351 1144.69C648.881 1103.73 690.666 1078.58 733.55 1069.93C757.946 1065.01 780.54 1066.05 800.696 1073.02C819.226 1079.43 835.274 1090.68 848.39 1106.42C873.016 1136.01 885.015 1178.8 881.293 1223.83C877.907 1264.88 865.991 1308.06 854.461 1349.83C841.496 1396.84 828.074 1445.44 826.864 1490.99C824.665 1573.39 848.868 1626.66 896.84 1645.03C936.475 1660.22 991.633 1652.03 1060.76 1620.68C1086.91 1608.83 1118.29 1590.92 1151.51 1571.97C1197.22 1545.9 1249.02 1516.34 1296.98 1497.26C1352.08 1475.34 1393.87 1470.51 1424.75 1482.49C1447.04 1491.14 1462.43 1502.61 1471.8 1517.57C1480.25 1531.06 1483.58 1547.1 1481.96 1566.6C1478.98 1602.7 1458.93 1646.21 1436.87 1691.36C1424.35 1716.97 1411.2 1742.28 1398.48 1766.76C1357.38 1845.87 1318.55 1920.61 1301.02 2002.83C1281.04 2096.54 1299.72 2173.78 1353.64 2220.3C1403.64 2263.45 1481.7 2279.15 1579.35 2265.7L1579.18 2266.64C1481.22 2280.13 1402.91 2264.38 1352.72 2221.07C1325.7 2197.75 1307.43 2167.1 1298.41 2129.96C1289.37 2092.74 1289.88 2050.01 1299.91 2002.96C1317.46 1920.62 1356.33 1845.82 1397.47 1766.63C1410.19 1742.17 1423.33 1716.87 1435.84 1691.27C1457.85 1646.21 1477.85 1602.79 1480.83 1566.84C1484.19 1526.25 1466.14 1499.72 1424.02 1483.38C1393.4 1471.5 1351.91 1476.32 1297.16 1498.11C1249.31 1517.15 1197.56 1546.67 1151.89 1572.72C1118.64 1591.7 1087.23 1609.62 1061 1621.51C991.509 1653.01 936.039 1661.23 896.109 1645.94C857.889 1631.3 834.677 1594.71 827.767 1539.03C825.953 1524.42 825.263 1508.48 825.717 1491.28C826.939 1445.64 840.355 1396.98 853.338 1349.93C864.85 1308.21 876.759 1265.06 880.142 1224.09C883.851 1179.23 871.906 1136.6 847.366 1107.13C820.125 1074.42 779.664 1061.54 733.421 1070.87C690.88 1079.46 649.392 1104.45 610.099 1145.15C570.756 1185.92 541.906 1234.04 524.637 1267.22C520.571 1275.03 516.431 1283.11 512.434 1290.92C472.749 1368.38 431.705 1448.47 351.913 1497.22C308.341 1523.83 260.197 1535.4 212.666 1530.67C148.828 1524.32 95.2225 1489.06 72.7664 1438.64C65.6129 1422.44 61.3662 1405.49 59.2027 1388.06Z" fill="#B7B7B7"/>
<path d="M58.9121 1344.22C53.8524 1303.46 60.2011 1260.1 66.4053 1217.75C73.7926 1167.32 81.4232 1115.18 69.5505 1068.48L70.6617 1068.02C82.5618 1114.84 74.9174 1167.06 67.5264 1217.55C58.5649 1278.74 49.3003 1342 74.6176 1396.38C97.7546 1446.08 152.317 1480.97 217.01 1487.43C265.719 1492.29 314.945 1480.8 359.363 1454.2C440.291 1405.74 481.585 1326.02 521.522 1248.93C525.556 1241.14 529.732 1233.08 533.835 1225.28C551.296 1192.09 580.528 1143.97 620.622 1103.16C660.778 1062.28 703.356 1037.15 747.182 1028.47C772.123 1023.53 795.254 1024.53 815.943 1031.46C834.973 1037.82 851.481 1049 865.031 1064.69C890.478 1094.14 903.099 1136.78 899.64 1181.68C896.494 1222.6 884.629 1265.67 873.149 1307.32C860.237 1354.18 846.882 1402.66 845.997 1448.05C844.404 1529.44 869.151 1582.32 917.542 1601C958.349 1616.76 1015.21 1608.67 1086.52 1576.98C1113.21 1565.13 1145.19 1547.24 1179.06 1528.3C1225.66 1502.24 1278.47 1472.71 1327.43 1453.62C1383.65 1431.69 1426.4 1426.82 1458.1 1438.71C1480.99 1447.31 1496.84 1458.72 1506.54 1473.61C1515.3 1487.05 1518.83 1503.03 1517.34 1522.46C1514.56 1558.46 1494.39 1601.86 1472.14 1646.89C1459.53 1672.44 1446.27 1697.69 1433.43 1722.1C1391.96 1801.02 1352.79 1875.57 1335.49 1957.55C1316.06 2049.61 1334.99 2125.87 1388.79 2172.31C1440.26 2216.73 1521.08 2232.94 1622.55 2219.18L1622.37 2220.12C1520.61 2233.92 1439.52 2217.65 1387.88 2173.08C1360.89 2149.79 1342.59 2119.4 1333.47 2082.75C1324.32 2046.03 1324.63 2003.94 1334.39 1957.69C1351.73 1875.58 1390.94 1800.97 1432.44 1721.98C1445.26 1697.57 1458.52 1672.33 1471.13 1646.8C1494.16 1600.13 1513.46 1558.59 1516.23 1522.71C1519.35 1482.25 1500.66 1455.84 1457.41 1439.6C1425.97 1427.81 1383.5 1432.66 1327.6 1454.47C1278.75 1473.51 1226 1503.02 1179.45 1529.05C1145.54 1548.01 1113.53 1565.92 1086.76 1577.8C1015.09 1609.65 957.912 1617.76 916.823 1601.9C892.095 1592.36 873.433 1574.08 861.344 1547.58C849.626 1521.9 844.079 1488.51 844.864 1448.34C845.747 1402.84 859.121 1354.32 872.049 1307.39C883.51 1265.78 895.368 1222.75 898.513 1181.92C901.959 1137.2 889.395 1094.72 864.043 1065.39C835.894 1032.82 794.357 1020.03 747.077 1029.41C703.583 1038.03 661.289 1063 621.382 1103.63C581.413 1144.32 552.26 1192.33 534.836 1225.44C530.732 1233.23 526.567 1241.28 522.533 1249.07C482.5 1326.34 441.113 1406.24 359.793 1454.94C315.082 1481.71 265.549 1493.27 216.544 1488.38C151.579 1481.9 96.7874 1446.86 73.5551 1396.95C65.7049 1380.11 61.1724 1362.43 58.9121 1344.22Z" fill="#B7B7B7"/>
<path d="M58.6165 1300.43C53.655 1260.47 59.7093 1218.07 65.6148 1176.63C72.7897 1126.35 80.206 1074.35 67.702 1027.83L68.7985 1027.36C81.3421 1074.02 73.9119 1126.09 66.7334 1176.43C58.0336 1237.43 49.0325 1300.51 75.3559 1354.68C99.2699 1403.9 155.01 1438.57 220.81 1445.16C271.016 1450.19 321.641 1438.69 367.212 1411.93C449.66 1363.51 491.312 1283.98 531.588 1207.08C535.659 1199.3 539.873 1191.27 544.012 1183.48C561.631 1150.37 591.18 1102.36 631.889 1061.62C672.662 1020.82 716.047 995.708 760.826 986.983C786.301 982.02 809.982 982.993 831.202 989.861C850.721 996.181 867.7 1007.3 881.682 1022.91C907.951 1052.24 921.191 1094.73 917.994 1139.49C915.085 1180.28 903.27 1223.24 891.85 1264.77C878.99 1311.51 865.697 1359.85 865.139 1405.1C864.139 1485.49 889.406 1538.01 938.208 1556.98C980.187 1573.3 1038.76 1565.33 1112.28 1533.31C1139.5 1521.45 1172.1 1503.57 1206.6 1484.64C1254.08 1458.6 1307.9 1429.09 1357.86 1409.98C1415.23 1388.04 1458.94 1383.12 1491.46 1394.93C1514.95 1403.47 1531.25 1414.82 1541.3 1429.65C1550.36 1443.04 1554.1 1458.96 1552.72 1478.34C1550.15 1514.22 1529.82 1557.53 1507.41 1602.45C1494.7 1627.94 1481.32 1653.12 1468.37 1677.48C1426.54 1756.21 1387.02 1830.58 1369.94 1912.32C1351.04 2002.76 1370.19 2078.08 1423.86 2124.42C1476.77 2170.1 1560.4 2186.8 1665.71 2172.73L1665.52 2173.67C1559.92 2187.78 1476.03 2171.02 1422.94 2125.18C1396 2101.93 1377.68 2071.81 1368.44 2035.65C1359.18 1999.4 1359.32 1957.95 1368.82 1912.46C1385.94 1830.58 1425.48 1756.15 1467.36 1677.34C1480.3 1653 1493.68 1627.82 1506.38 1602.34C1528.75 1557.5 1549.03 1514.31 1551.58 1478.59C1554.46 1438.24 1535.13 1411.94 1490.75 1395.82C1458.49 1384.1 1415.06 1389 1358.01 1410.81C1308.16 1429.87 1254.4 1459.36 1206.96 1485.38C1172.42 1504.32 1139.78 1522.22 1112.5 1534.11C1038.62 1566.29 979.726 1574.28 937.477 1557.86C912.55 1548.16 893.648 1529.92 881.302 1503.63C869.323 1478.14 863.504 1445.08 863.996 1405.39C864.554 1360.03 877.863 1311.65 890.74 1264.85C902.153 1223.35 913.951 1180.45 916.857 1139.73C920.041 1095.14 906.858 1052.82 880.696 1023.61C851.638 991.175 809.026 978.481 760.707 987.9C652.423 1008.99 579.071 1119.57 544.995 1183.61C540.855 1191.38 536.653 1199.42 532.581 1207.19C492.211 1284.27 450.452 1363.98 367.614 1412.63C321.751 1439.58 270.819 1451.14 220.33 1446.08C154.258 1439.46 98.2904 1404.65 74.2713 1355.24C65.7958 1337.78 60.9682 1319.37 58.6165 1300.43Z" fill="#B7B7B7"/>
<path d="M58.3097 1256.67C53.443 1217.49 59.2022 1176.01 64.8313 1135.45C71.7952 1085.32 78.9891 1033.48 65.8539 987.112L66.9469 986.64C80.1216 1033.14 72.9141 1085.06 65.9364 1135.27C57.4852 1196.09 48.7566 1258.99 76.086 1312.96C100.766 1361.71 157.673 1396.16 224.593 1402.87C276.305 1408.06 328.342 1396.56 375.065 1369.64C459.034 1321.25 501.05 1241.91 541.679 1165.18C545.788 1157.43 550.028 1149.42 554.205 1141.66C571.984 1108.63 601.85 1060.72 643.189 1020.04C684.59 979.307 728.773 954.222 774.507 945.46C800.527 940.477 824.747 941.411 846.499 948.236C866.507 954.512 883.959 965.577 898.382 981.112C925.473 1010.32 939.33 1052.66 936.393 1097.29C933.722 1137.96 921.955 1180.8 910.582 1222.22C897.783 1268.83 884.542 1317.04 884.307 1362.16C883.888 1441.57 909.676 1493.72 958.867 1512.97C1002.02 1529.86 1062.32 1522 1138.08 1489.63C1165.83 1477.77 1199.04 1459.9 1234.2 1440.98C1282.57 1414.96 1337.39 1385.46 1388.34 1366.35C1446.85 1344.4 1491.51 1339.43 1524.87 1351.16C1548.95 1359.63 1565.71 1370.93 1576.1 1385.71C1585.48 1399.04 1589.41 1414.91 1588.14 1434.24C1585.78 1470.02 1565.32 1513.22 1542.72 1558.04C1529.91 1583.47 1516.41 1608.6 1503.35 1632.89C1461.14 1711.44 1421.28 1785.63 1404.42 1867.15C1386.04 1956.01 1405.39 2030.41 1458.93 2076.62C1513.28 2123.54 1599.72 2140.74 1708.91 2126.36L1708.72 2127.3C1599.23 2141.71 1512.53 2124.46 1458.01 2077.39C1431.13 2054.19 1412.78 2024.33 1403.46 1988.65C1394.11 1952.87 1394.06 1912.04 1403.32 1867.29C1420.21 1785.64 1460.11 1711.37 1502.36 1632.75C1515.4 1608.46 1528.91 1583.34 1541.71 1557.93C1565.1 1511.49 1584.67 1470.15 1587.02 1434.49C1589.66 1394.26 1569.69 1368.07 1524.18 1352.06C1491.08 1340.42 1446.69 1345.37 1388.5 1367.21C1337.66 1386.28 1282.87 1415.74 1234.56 1441.74C1199.36 1460.68 1166.13 1478.56 1138.3 1490.45C1062.19 1522.98 1001.58 1530.85 958.152 1513.86C933.025 1504.03 913.896 1485.82 901.291 1459.74C889.062 1434.43 882.973 1401.7 883.182 1362.47C883.417 1317.25 896.673 1268.99 909.489 1222.32C920.856 1180.94 932.605 1138.14 935.275 1097.55C938.198 1053.1 924.397 1010.93 897.425 981.835C867.458 949.525 823.772 936.936 774.412 946.384C663.796 967.555 589.606 1077.9 555.223 1141.79C551.045 1149.56 546.805 1157.57 542.697 1165.32C501.973 1242.23 459.864 1321.75 375.494 1370.37C328.478 1397.47 276.147 1409.03 224.152 1403.82C156.973 1397.08 99.8398 1362.49 75.0547 1313.55C65.8712 1295.44 60.7537 1276.34 58.3097 1256.67Z" fill="#B7B7B7"/>
<path d="M57.9963 1212.96C53.2224 1174.54 58.7077 1133.96 64.0707 1094.25C70.8252 1044.26 77.8091 992.567 64.0328 946.357L65.1225 945.878C78.9271 992.222 71.9406 1043.99 65.1735 1094.07C56.9813 1154.72 48.5112 1217.44 76.8452 1271.21C102.291 1319.5 160.343 1353.74 228.373 1360.57C281.602 1365.91 335.05 1354.41 382.948 1327.32C468.44 1278.96 510.82 1199.79 551.794 1123.25C555.93 1115.52 560.217 1107.51 564.432 1099.77C582.36 1066.82 612.545 1019.01 654.526 978.395C696.558 937.727 741.539 912.657 788.217 903.863C814.773 898.864 839.542 899.762 861.826 906.536C882.323 912.76 900.245 923.768 915.101 939.242C943.012 968.316 957.486 1010.52 954.808 1055.02C952.372 1095.57 940.652 1138.3 929.325 1179.61C916.575 1226.11 903.395 1274.19 903.483 1319.17C903.633 1397.63 929.92 1449.41 979.5 1468.92C1023.83 1486.37 1085.87 1478.62 1163.88 1445.92C1192.17 1434.05 1225.99 1416.2 1261.8 1397.29C1311.06 1371.27 1366.91 1341.79 1418.85 1322.67C1478.5 1300.72 1524.11 1295.7 1558.29 1307.36C1582.97 1315.77 1600.19 1327.01 1610.91 1341.73C1620.59 1355.01 1624.73 1370.83 1623.57 1390.1C1621.42 1425.78 1600.81 1468.87 1578.05 1513.59C1565.14 1538.95 1551.51 1564.02 1538.34 1588.27C1495.76 1666.64 1455.55 1740.66 1438.91 1821.96C1420.76 1910.57 1439.8 1982.12 1493.96 2028.86C1549.73 2077 1639 2094.67 1752.11 2079.99L1751.93 2080.92C1638.51 2095.65 1549 2077.91 1493.05 2029.62C1466.24 2006.48 1447.87 1976.89 1438.46 1941.67C1429.02 1906.35 1428.81 1866.11 1437.82 1822.1C1454.5 1740.66 1494.75 1666.57 1537.36 1588.13C1550.53 1563.89 1564.15 1538.82 1577.05 1513.47C1600.63 1467.15 1620.33 1425.91 1622.48 1390.35C1624.86 1350.79 1603.65 1323.93 1557.63 1308.24C1523.7 1296.68 1478.36 1301.67 1419.01 1323.52C1367.17 1342.61 1311.38 1372.06 1262.17 1398.05C1226.33 1416.98 1192.48 1434.85 1164.11 1446.74C1085.76 1479.6 1023.41 1487.36 978.798 1469.81C953.483 1459.85 934.123 1441.67 921.282 1415.77C908.814 1390.65 902.454 1358.25 902.383 1319.47C902.293 1274.38 915.49 1226.25 928.257 1179.71C939.577 1138.43 951.28 1095.75 953.704 1055.28C956.368 1010.96 941.95 968.929 914.159 939.976C883.285 907.799 838.525 895.314 788.125 904.801C675.187 926.062 600.133 1036.18 565.439 1099.93C561.223 1107.67 556.946 1115.66 552.811 1123.39C511.731 1200.12 469.259 1279.47 383.353 1328.06C335.173 1355.31 281.421 1366.88 227.921 1361.51C159.644 1354.66 101.356 1320.28 75.8161 1271.81C65.9453 1253.1 60.5282 1233.33 57.9963 1212.96Z" fill="#B7B7B7"/>
<path d="M57.6716 1169.27C52.9876 1131.6 58.1989 1091.89 63.3075 1053.02C69.854 1003.17 76.6174 951.611 62.2244 905.557L63.3109 905.071C77.7444 951.263 70.9672 1002.9 64.4182 1052.82C56.4823 1113.3 48.2703 1175.85 77.6067 1229.43C123.089 1312.5 266.707 1353.91 390.824 1284.97C477.842 1236.64 520.578 1157.66 561.911 1081.28C566.084 1073.56 570.409 1065.58 574.662 1057.85C592.751 1024.97 623.258 977.264 665.859 936.711C708.512 896.113 754.303 871.054 801.939 862.231C829.041 857.212 854.349 858.08 877.164 864.794C898.15 870.975 916.544 881.927 931.83 897.331C960.551 926.29 975.64 968.345 973.232 1012.72C971.031 1053.17 959.367 1095.78 948.085 1136.99C935.394 1183.36 922.261 1231.31 922.67 1276.16C923.377 1353.69 950.152 1405.11 1000.1 1424.86C1045.63 1442.87 1109.41 1435.24 1189.7 1402.19C1218.52 1390.33 1252.96 1372.47 1289.41 1353.58C1339.57 1327.58 1396.42 1298.11 1449.37 1278.97C1510.17 1257.01 1556.73 1251.96 1591.73 1263.52C1617.01 1271.88 1634.68 1283.07 1645.75 1297.72C1655.74 1310.95 1660.09 1326.72 1659.03 1345.94C1657.1 1381.51 1636.34 1424.51 1613.39 1469.13C1600.38 1494.44 1586.64 1519.46 1573.35 1543.64C1530.4 1621.84 1489.83 1695.71 1473.4 1776.78C1455.53 1864.97 1475.38 1936.19 1530.8 1982.73C1588.12 2030.86 1679.58 2048.47 1795.3 2033.64L1795.12 2034.57C1679.1 2049.44 1587.38 2031.78 1529.9 1983.49C1502.46 1960.44 1483.56 1930.99 1473.76 1895.94C1463.92 1860.78 1463.43 1820.74 1472.31 1776.92C1488.76 1695.7 1529.37 1621.77 1572.37 1543.49C1585.65 1519.31 1599.39 1494.3 1612.39 1469C1636.16 1422.78 1656 1381.64 1657.93 1346.19C1660.08 1306.74 1638.22 1279.99 1591.07 1264.41C1556.31 1252.92 1510 1257.96 1449.51 1279.82C1396.66 1298.92 1339.87 1328.36 1289.76 1354.34C1253.28 1373.25 1218.8 1391.12 1189.92 1403.02C1109.29 1436.2 1045.19 1443.85 999.409 1425.74C973.904 1415.65 954.339 1397.51 941.249 1371.82C928.543 1346.87 921.924 1314.8 921.572 1276.46C921.161 1231.51 934.31 1183.5 947.017 1137.07C958.292 1095.89 969.939 1053.32 972.139 1012.97C976.941 924.856 913.196 842.511 801.843 863.142C686.571 884.489 610.661 994.388 575.665 1057.99C571.412 1065.72 567.097 1073.7 562.924 1081.42C521.498 1157.98 478.658 1237.15 391.216 1285.71C333.558 1317.73 267.314 1328.13 204.679 1315C146.97 1302.91 99.0832 1271.14 76.5685 1230.02C66.0041 1210.75 60.2893 1190.33 57.6716 1169.27Z" fill="#B7B7B7"/>
<path d="M57.3357 1125.62C52.7395 1088.68 57.6988 1049.8 62.5401 1011.75C68.8787 962.02 75.4358 910.612 60.4038 864.709L61.4873 864.216C76.5597 910.256 69.991 961.757 63.6487 1011.55C55.9574 1071.87 48.0115 1134.24 78.3383 1187.63C125.379 1270.41 272.372 1311.51 398.683 1242.61C487.229 1194.31 530.334 1115.5 572.027 1039.28C576.238 1031.57 580.591 1023.61 584.882 1015.9C603.132 983.091 633.962 935.476 677.197 894.988C720.484 854.446 767.075 829.408 815.668 820.548C843.306 815.512 869.164 816.336 892.511 823.009C913.988 829.148 932.852 840.036 948.57 855.389C978.11 884.23 993.814 926.142 991.663 970.395C989.696 1010.73 978.076 1053.23 966.837 1094.34C954.192 1140.6 941.118 1188.43 941.848 1233.15C943.099 1309.77 970.35 1360.83 1020.66 1380.82C1067.36 1399.38 1132.92 1391.86 1215.49 1358.48C1244.85 1346.62 1279.9 1328.77 1317.01 1309.87C1368.06 1283.88 1425.92 1254.43 1479.87 1235.27C1541.81 1213.3 1589.33 1208.19 1625.17 1219.68C1651.05 1227.98 1669.17 1239.11 1680.58 1253.71C1690.87 1266.89 1695.42 1282.61 1694.48 1301.77C1692.74 1337.26 1671.83 1380.15 1648.72 1424.68C1635.6 1449.93 1621.74 1474.9 1608.33 1499.03C1565 1577.06 1524.08 1650.77 1507.87 1731.62C1471.25 1914.2 1604.1 2016.97 1838.47 1987.34L1838.29 1988.26C1719.89 2003.22 1626.1 1985.73 1567.04 1937.66C1538.84 1914.72 1519.35 1885.37 1509.08 1850.44C1498.79 1815.38 1498.01 1775.45 1506.77 1731.75C1523.02 1650.75 1563.98 1576.97 1607.35 1498.87C1620.75 1474.74 1634.6 1449.79 1647.72 1424.54C1671.68 1378.43 1691.64 1337.38 1693.38 1302.02C1695.31 1262.69 1672.77 1236.05 1624.51 1220.56C1588.92 1209.15 1541.65 1214.24 1480.01 1236.11C1426.17 1255.22 1368.35 1284.66 1317.36 1310.62C1280.21 1329.53 1245.14 1347.39 1215.71 1359.29C1132.8 1392.8 1066.94 1400.34 1019.97 1381.68C994.273 1371.48 974.499 1353.37 961.185 1327.88C948.251 1303.12 941.372 1271.35 940.763 1233.45C940.032 1188.62 953.121 1140.73 965.782 1094.42C977.003 1053.35 988.617 1010.89 990.583 970.637C994.871 882.771 929.178 800.749 815.583 821.452C697.986 842.892 621.204 952.567 585.906 1016.04C581.614 1023.75 577.262 1031.72 573.05 1039.41C531.263 1115.81 488.054 1194.81 399.086 1243.34C340.42 1275.35 272.828 1285.8 208.77 1272.79C149.742 1260.8 100.614 1229.19 77.3252 1188.22C66.0468 1168.4 60.038 1147.34 57.3357 1125.62Z" fill="#B7B7B7"/>
<path d="M56.99 1082.01C52.4787 1045.77 57.1861 1007.72 61.7934 970.449C67.9265 920.856 74.2655 869.58 58.6076 823.831L59.6881 823.33C75.3874 869.225 69.0357 920.585 62.9001 970.25C55.4621 1030.41 47.772 1092.63 79.0992 1145.82C127.696 1228.32 278.065 1269.12 406.572 1200.24C496.659 1151.96 540.125 1073.32 582.169 997.265C586.419 989.58 590.81 981.634 595.139 973.94C613.552 941.198 644.707 893.678 688.565 853.246C732.487 812.767 779.879 787.739 829.429 778.841C857.615 773.785 884.012 774.578 907.903 781.198C929.869 787.294 949.204 798.128 965.364 813.41C995.722 842.127 1012.04 883.916 1010.13 928.043C1008.4 968.27 996.824 1010.68 985.627 1051.68C973.027 1097.82 960.01 1145.54 961.059 1190.13C962.844 1265.86 990.56 1316.57 1041.22 1336.77C1089.13 1355.87 1156.44 1348.47 1241.33 1314.76C1271.23 1302.89 1306.89 1285.06 1344.65 1266.16C1396.6 1240.18 1455.47 1210.73 1510.42 1191.57C1573.49 1169.58 1621.99 1164.43 1658.64 1175.84C1685.12 1184.08 1703.7 1195.15 1715.44 1209.7C1726.05 1222.82 1730.79 1238.5 1729.97 1257.61C1728.44 1293 1707.39 1335.8 1684.09 1380.24C1670.86 1405.44 1656.88 1430.35 1643.36 1454.44C1599.66 1532.3 1558.37 1605.85 1542.37 1686.51C1506.22 1868.62 1642.58 1970.94 1881.67 1941.09L1881.48 1942.01C1760.71 1957.08 1664.83 1939.75 1604.21 1891.9C1575.27 1869.06 1555.16 1839.81 1544.44 1804.99C1533.69 1770.05 1532.62 1730.23 1541.28 1686.64C1557.31 1605.83 1598.63 1532.22 1642.38 1454.27C1655.89 1430.19 1669.88 1405.28 1683.09 1380.09C1707.24 1334.07 1727.34 1293.12 1728.87 1257.86C1730.57 1218.64 1707.39 1192.1 1658 1176.72C1621.58 1165.39 1573.35 1170.52 1510.54 1192.42C1455.7 1211.54 1396.87 1240.97 1344.98 1266.93C1307.19 1285.83 1271.49 1303.69 1241.52 1315.59C1156.31 1349.43 1088.68 1356.85 1040.52 1337.64C1014.65 1327.32 994.662 1309.27 981.121 1283.96C967.96 1259.38 960.834 1227.92 959.955 1190.44C958.904 1145.73 971.948 1097.96 984.553 1051.77C995.732 1010.81 1007.3 968.438 1009.03 928.313C1012.8 840.678 945.172 758.97 829.324 779.759C709.4 801.284 631.744 910.76 596.139 974.091C591.821 981.78 587.419 989.73 583.18 997.411C562.461 1034.9 541.033 1073.66 513.49 1109.11C482.315 1149.23 447.462 1179.28 406.954 1201C347.279 1232.98 278.35 1243.49 212.857 1230.6C152.512 1218.72 102.128 1187.26 78.09 1146.43C66.0757 1126.06 59.7858 1104.37 56.99 1082.01Z" fill="#B7B7B7"/>
<path d="M56.6429 1038.42C52.2147 1002.87 56.6801 965.622 61.0536 929.118C66.9822 879.655 73.1055 828.516 56.8314 782.897L57.9101 782.397C74.2354 828.15 68.0996 879.373 62.1695 928.917C54.9845 988.926 47.5468 1050.98 79.8746 1103.99C130.016 1186.21 283.772 1226.71 414.477 1157.86C506.095 1109.6 549.934 1031.11 592.343 955.213C596.632 947.54 601.061 939.615 605.418 931.937C623.984 899.263 655.463 851.834 699.969 811.458C744.516 771.042 792.721 746.02 843.219 737.088C898.126 727.378 947.473 739.564 982.152 771.389C1013.33 799.992 1030.26 841.644 1028.61 885.661C1027.11 925.778 1015.57 968.084 1004.43 1009C991.885 1055.02 978.913 1102.62 980.281 1147.1C982.587 1221.96 1010.76 1272.32 1061.76 1292.72C1110.86 1312.36 1179.97 1305.08 1267.17 1271.05C1297.61 1259.17 1333.89 1241.33 1372.3 1222.45C1425.14 1196.48 1485.03 1167.03 1540.99 1147.86C1605.22 1125.85 1654.66 1120.65 1692.13 1131.99C1719.21 1140.18 1738.24 1151.2 1750.33 1165.69C1761.23 1178.77 1766.19 1194.39 1765.47 1213.45C1764.14 1248.74 1742.94 1291.46 1719.46 1335.79C1706.13 1360.94 1692.03 1385.8 1678.38 1409.84C1634.3 1487.55 1592.66 1560.94 1576.85 1641.4C1541.16 1823.05 1681.02 1924.91 1924.84 1894.86L1924.64 1895.78C1801.49 1910.97 1703.53 1893.8 1641.34 1846.15C1611.65 1823.4 1590.93 1794.27 1579.76 1759.56C1568.55 1724.73 1567.2 1685.01 1575.74 1641.53C1591.57 1560.92 1633.25 1487.45 1677.38 1409.67C1691.02 1385.64 1705.11 1360.79 1718.44 1335.65C1742.77 1289.73 1763.03 1248.86 1764.34 1213.7C1765.81 1174.58 1741.97 1148.13 1691.47 1132.86C1654.21 1121.6 1605.02 1126.78 1541.07 1148.69C1485.21 1167.83 1425.37 1197.25 1372.58 1223.21C1334.14 1242.1 1297.83 1259.95 1267.32 1271.87C1179.79 1306.03 1110.39 1313.34 1061.03 1293.59C1034.99 1283.17 1014.81 1265.15 1001.03 1240.04C987.654 1215.63 980.279 1184.46 979.144 1147.4C977.774 1102.82 990.762 1055.17 1003.32 1009.08C1014.46 968.214 1025.98 925.957 1027.48 885.93C1030.75 798.53 961.182 717.122 843.069 738.01C720.804 759.624 642.294 868.891 606.372 932.102C602.014 939.771 597.586 947.705 593.296 955.369C572.394 992.785 550.786 1031.47 522.91 1066.85C491.352 1106.89 455.997 1136.91 414.801 1158.61C354.115 1190.58 283.849 1201.15 216.932 1188.37C186.65 1182.59 158.08 1171.96 134.338 1157.62C110.35 1143.15 91.1585 1124.82 78.8317 1104.59C66.0987 1083.7 59.5079 1061.42 56.6429 1038.42Z" fill="#B7B7B7"/>
</svg>
