<svg width="1920" height="1668" viewBox="0 0 1920 1668" fill="none" xmlns="http://www.w3.org/2000/svg">
<g clip-path="url(#clip0_201_3)">
<path d="M422.703 -219.254C466.547 -213.681 507.892 -198.731 548.276 -184.137C595.437 -167.086 644.205 -149.458 696.036 -147.19L695.992 -146.262C644.023 -148.539 595.184 -166.195 547.959 -183.263C490.744 -203.943 431.575 -225.338 366.198 -219.681C306.074 -214.476 247.229 -182.917 212.61 -137.308C186.889 -103.415 177.069 -65.429 184.212 -27.4427C197.333 42.2707 258.961 90.6256 318.562 137.388C324.587 142.11 330.814 146.998 336.813 151.772C362.351 172.093 397.676 204.387 420.967 242.831C444.297 281.335 450.831 317.938 440.382 351.626C434.438 370.791 423.339 387.275 407.396 400.616C392.737 412.879 374.355 422.214 352.785 428.364C312.253 439.904 264.153 439.118 220.805 426.19C181.296 414.413 143.443 395.84 106.838 377.873C65.6393 357.661 23.0456 336.749 -21.9321 325.565C-103.304 305.322 -167.31 311.2 -207.03 342.549C-239.852 368.449 -256.22 411.116 -255.672 469.35C-255.468 491.377 -251.544 518.644 -247.403 547.507C-241.694 587.224 -235.221 632.235 -237.509 672.036C-240.129 717.757 -253.911 749.771 -279.63 769.921C-298.198 784.458 -316.522 793.26 -335.633 796.811C-352.883 800.021 -370.388 798.86 -389.157 793.255C-423.902 782.895 -458.461 758.228 -493.754 731.704C-513.776 716.656 -533.216 701.207 -552.012 686.269C-612.772 637.978 -670.168 592.363 -744.523 560.817C-829.28 524.862 -914.78 521.243 -985.273 550.631C-1050.65 577.887 -1101.1 632.103 -1131.14 707.405L-1132 707.062C-1101.87 631.53 -1051.26 577.138 -985.632 549.783C-950.302 535.053 -911.536 528.458 -870.402 530.169C-829.185 531.89 -786.719 541.916 -744.163 559.967C-669.692 591.555 -612.255 637.213 -551.435 685.549C-532.649 700.486 -513.217 715.925 -493.202 730.962C-457.977 757.431 -423.495 782.042 -388.895 792.365C-349.827 804.02 -315.283 796.655 -280.198 769.177C-254.698 749.205 -241.037 717.408 -238.434 671.974C-236.157 632.265 -242.618 587.302 -248.323 547.623C-252.479 518.731 -256.399 491.436 -256.605 469.344C-257.15 410.802 -240.668 367.897 -207.607 341.804C-175.965 316.827 -129.058 307.917 -70.3492 315.38C-54.9328 317.339 -38.699 320.429 -21.7133 324.65C23.3539 335.865 66.0027 356.783 107.236 377.018C143.807 394.962 181.624 413.522 221.061 425.28C264.237 438.158 312.16 438.95 352.529 427.445C397.351 414.678 428.237 387.646 439.497 351.318C449.857 317.898 443.355 281.551 420.173 243.28C396.95 204.957 361.709 172.739 336.24 152.465C330.241 147.69 324.014 142.803 317.989 138.081C258.252 91.2166 196.488 42.7512 183.299 -27.3068C176.106 -65.5607 185.977 -103.801 211.865 -137.906C246.63 -183.712 305.736 -215.414 366.115 -220.643C385.496 -222.276 404.321 -221.59 422.703 -219.254Z" fill="#FBFBFB" fill-opacity="0.75"/>
<path d="M465.954 -205.49C509.053 -200.011 549.669 -185.481 589.346 -171.285C636.583 -154.383 685.427 -136.913 737.517 -135.143L737.483 -134.215C685.254 -135.992 636.339 -153.49 589.039 -170.409C531.727 -190.915 472.469 -212.116 406.681 -205.653C346.543 -199.749 287.242 -167.176 251.901 -120.65C225.289 -85.6203 214.84 -46.5018 221.67 -7.52887C234.122 63.4804 295.578 112.168 355.017 159.255C361.018 164.012 367.231 168.935 373.216 173.745C398.68 194.214 433.856 226.798 456.863 265.783C479.91 304.83 486.097 342.107 475.24 376.584C469.06 396.203 457.737 413.135 441.561 426.913C426.691 439.587 408.121 449.3 386.358 455.799C345.489 468.005 297.121 467.707 253.675 454.972C214.078 443.371 176.214 424.814 139.597 406.864C98.3958 386.671 55.7802 365.785 10.6872 354.847C-70.1574 335.231 -134.199 341.609 -174.51 373.274C-208.507 399.976 -225.773 443.985 -225.843 504.063C-225.873 526.545 -222.219 554.319 -218.354 583.734C-213.029 624.204 -207 670.064 -209.721 710.706C-212.836 757.381 -227.028 790.192 -253.093 811.017C-271.92 826.052 -290.431 835.222 -309.68 839.046C-327.054 842.501 -344.644 841.496 -363.454 835.989C-398.283 825.777 -432.769 800.979 -467.974 774.28C-487.948 759.136 -507.327 743.582 -526.062 728.53C-586.647 679.888 -643.871 633.95 -718.3 602.545C-801.876 567.28 -886.744 564.05 -957.294 593.439C-1024.77 621.558 -1077.08 677.842 -1108.57 756.225L-1109.43 755.883C-1077.85 677.268 -1025.37 620.802 -957.653 592.591C-922.274 577.849 -883.654 571.152 -842.861 572.688C-801.974 574.219 -759.942 583.984 -717.95 601.703C-643.406 633.16 -586.132 679.142 -525.496 727.819C-506.76 742.861 -487.389 758.414 -467.424 773.547C-430.94 801.202 -397.923 824.928 -363.202 835.107C-324.046 846.587 -289.241 838.705 -253.674 810.299C-227.827 789.652 -213.746 757.051 -210.646 710.644C-207.937 670.094 -213.963 624.282 -219.274 583.85C-223.145 554.406 -226.804 526.604 -226.775 504.056C-226.704 443.68 -209.314 399.425 -175.088 372.538C-154.492 356.356 -127.852 346.651 -95.9014 343.687C-64.9328 340.812 -29.0016 344.26 10.9049 353.941C56.1069 364.902 98.7569 385.812 140.011 406.031C176.593 423.958 214.422 442.5 253.937 454.082C297.213 466.767 345.384 467.068 386.089 454.906C431.294 441.404 462.646 413.489 474.344 376.292C485.112 342.076 478.959 305.045 456.05 266.24C433.111 227.375 398.017 194.877 372.613 174.452C366.637 169.643 360.423 164.729 354.422 159.973C294.857 112.776 233.257 63.9769 220.745 -7.37578C213.864 -46.6072 224.381 -85.9689 251.151 -121.212C286.639 -167.934 346.199 -200.642 406.583 -206.57C426.954 -208.581 446.699 -207.937 465.954 -205.49Z" fill="#FBFBFB" fill-opacity="0.75"/>
<path d="M509.142 -191.752C551.507 -186.367 591.408 -172.236 630.408 -158.433C677.72 -141.68 726.648 -124.358 778.988 -123.089L778.964 -122.168C726.475 -123.438 677.476 -140.788 630.101 -157.558C572.7 -177.879 513.344 -198.897 447.145 -191.627C386.994 -185.025 327.23 -151.457 291.187 -104.031C263.681 -67.8459 252.594 -27.5956 259.103 12.3629C270.888 84.6589 332.17 133.688 391.437 181.099C397.424 185.891 403.614 190.848 409.585 195.694C434.974 216.312 470.002 249.185 492.736 288.705C515.5 328.285 521.33 366.245 510.072 401.519C503.668 421.586 492.1 438.972 475.71 453.189C460.631 466.266 441.862 476.364 419.924 483.214C378.709 496.085 330.092 496.278 286.547 483.736C246.862 472.31 208.986 453.77 172.357 435.847C131.144 415.671 88.5253 394.812 43.2985 384.118C-37.0272 365.119 -101.093 371.979 -141.984 403.953C-177.156 431.457 -195.34 476.814 -196.038 538.753C-196.293 561.682 -192.911 589.982 -189.319 619.931C-184.388 661.145 -178.794 707.863 -181.94 749.347C-185.55 796.985 -200.151 830.594 -226.564 852.092C-245.64 867.619 -264.337 877.157 -283.734 881.26C-301.241 884.96 -318.909 884.123 -337.766 878.694C-372.67 868.64 -407.091 843.692 -442.21 816.826C-462.133 801.585 -481.452 785.918 -500.136 770.761C-560.538 721.778 -617.598 675.506 -692.091 644.242C-774.513 609.656 -858.755 606.786 -929.313 636.164C-998.876 665.129 -1053.06 723.516 -1086.02 805.007L-1086.88 804.655C-1053.83 722.933 -999.47 664.372 -929.671 635.307C-894.263 620.56 -855.8 613.776 -815.338 615.122C-774.773 616.471 -733.184 625.984 -691.73 643.383C-617.113 674.7 -560.01 721.006 -499.55 770.042C-480.875 785.189 -461.556 800.856 -441.64 816.086C-406.589 842.897 -372.254 867.788 -337.502 877.794C-298.25 889.1 -263.183 880.7 -227.134 851.367C-200.929 830.038 -186.439 796.639 -182.844 749.269C-179.701 707.878 -185.291 661.207 -190.218 620.031C-193.806 590.045 -197.193 561.717 -196.94 538.731C-196.242 476.494 -177.933 430.892 -142.533 403.211C-121.648 386.879 -94.8603 376.97 -62.9254 373.76C-31.954 370.644 3.86171 373.824 43.5266 383.205C88.8532 393.921 131.516 414.804 172.782 435.005C209.375 452.915 247.207 471.43 286.819 482.837C330.194 495.33 378.614 495.14 419.664 482.322C465.251 468.085 497.061 439.285 509.205 401.222C536.44 315.925 458.123 236.273 409.02 196.396C403.058 191.552 396.867 186.604 390.879 181.812C331.477 134.29 270.062 85.1415 258.218 12.5021C251.657 -27.7148 262.813 -68.2082 290.475 -104.598C326.674 -152.218 386.679 -185.924 447.068 -192.561C468.405 -194.896 489.061 -194.305 509.142 -191.752Z" fill="#FBFBFB" fill-opacity="0.75"/>
<path d="M552.296 -178.038C593.945 -172.744 633.15 -159.009 671.488 -145.58C718.875 -128.976 767.879 -111.812 820.478 -111.041L820.464 -110.12C767.715 -110.89 718.64 -128.082 671.182 -144.713C613.693 -164.859 554.238 -185.684 487.62 -177.609C427.446 -170.32 367.24 -135.763 330.493 -87.4284C302.094 -50.0784 290.357 -8.68826 296.545 32.2557C307.672 105.84 368.771 155.209 427.865 202.953C433.838 207.78 440.007 212.763 445.955 217.643C471.259 238.409 506.147 271.572 528.598 311.635C551.087 351.758 556.561 390.391 544.895 426.462C538.255 446.985 526.462 464.818 509.839 479.472C494.55 492.951 475.584 503.435 453.469 510.644C411.908 524.181 363.043 524.865 319.398 512.515C279.616 501.263 241.729 482.741 205.098 464.836C163.872 444.686 121.242 423.845 75.8904 413.396C-3.92464 395.003 -68.0144 402.345 -109.456 434.613C-145.803 462.92 -164.907 509.643 -166.245 573.46C-166.734 596.836 -163.614 625.652 -160.306 656.153C-155.76 698.12 -150.61 745.688 -154.188 788.003C-158.293 836.595 -173.303 871.001 -200.064 893.183C-219.389 909.2 -238.283 919.115 -257.826 923.488C-275.459 927.442 -293.212 926.763 -312.116 921.411C-347.105 911.506 -381.453 886.427 -416.484 859.385C-436.358 844.049 -455.625 828.267 -474.249 813.005C-534.475 763.672 -591.355 717.077 -665.922 685.953C-747.215 652.024 -830.839 649.502 -901.386 678.873C-973.006 708.686 -1029.06 769.177 -1063.51 853.81L-1064.37 853.458C-1029.83 768.595 -973.6 707.92 -901.743 678.016C-866.327 663.27 -828.02 656.392 -787.9 657.573C-747.659 658.75 -706.505 668.012 -665.572 685.102C-590.88 716.279 -533.941 762.918 -473.665 812.296C-455.04 827.548 -435.782 843.329 -415.916 858.655C-379.617 886.66 -346.735 910.648 -311.863 920.52C-272.523 931.65 -237.185 922.734 -200.663 892.463C-174.101 870.452 -159.202 836.256 -155.12 787.921C-151.554 745.698 -156.69 698.17 -161.233 656.25C-164.536 625.712 -167.663 596.876 -167.175 573.435C-165.836 509.32 -146.61 462.369 -110.034 433.877C-88.8676 417.394 -61.9526 407.286 -30.0241 403.834C0.948956 400.484 36.6493 403.398 76.0806 412.488C121.532 422.958 164.215 443.825 205.484 463.999C242.08 481.89 279.933 500.389 319.633 511.621C363.107 523.921 411.776 523.24 453.17 509.767C499.149 494.795 531.408 465.111 544.007 426.181C572.245 338.941 494.322 258.537 445.358 218.369C439.41 213.489 433.242 208.507 427.268 203.679C368.039 155.825 306.796 106.344 295.612 32.4077C289.382 -8.79357 301.185 -50.4178 329.732 -87.973C366.624 -136.494 427.072 -171.189 487.483 -178.513C509.848 -181.231 531.38 -180.696 552.296 -178.038Z" fill="#FBFBFB" fill-opacity="0.75"/>
<path d="M595.388 -164.349C636.33 -159.145 674.864 -145.785 712.558 -132.718C760.02 -116.263 809.099 -99.2482 861.959 -98.9858L861.953 -98.0628C808.945 -98.3347 759.794 -115.368 712.252 -131.851C654.665 -151.814 595.121 -172.454 528.084 -163.574C467.888 -155.597 407.241 -120.07 369.801 -70.8343C340.506 -32.3106 328.121 10.2193 333.985 52.1671C344.445 127.038 405.378 176.75 464.3 224.817C470.252 229.67 476.415 234.698 482.34 239.613C507.571 260.519 542.31 293.971 564.485 334.586C586.691 375.252 591.818 414.559 579.743 451.419C572.87 472.387 560.842 490.676 543.995 505.767C528.506 519.65 509.341 530.519 487.042 538.079C445.144 552.282 396.02 553.455 352.277 541.298C312.407 530.222 274.509 511.717 237.866 493.829C196.629 473.697 153.985 452.881 108.51 442.678C29.1883 424.88 -34.914 432.687 -76.8782 465.252C-114.402 494.37 -134.435 542.459 -136.424 608.171C-137.139 632.003 -134.289 661.327 -131.266 692.379C-127.105 735.1 -122.4 783.525 -126.41 826.671C-131.019 876.217 -146.428 911.421 -173.546 934.276C-193.129 950.783 -212.211 961.075 -231.891 965.72C-249.649 969.92 -267.487 969.397 -286.43 964.134C-321.505 954.385 -355.778 929.157 -390.724 901.959C-410.548 886.526 -429.754 870.63 -448.327 855.263C-508.369 805.58 -565.086 758.661 -639.727 727.677C-721.085 693.898 -801.896 691.781 -873.427 721.549C-947.086 752.204 -1005.02 814.817 -1040.97 902.626L-1041.83 902.274C-1005.78 814.235 -947.68 751.447 -873.786 720.701C-838.37 705.964 -800.238 698.998 -760.444 700.017C-720.527 701.032 -679.79 710.054 -639.377 726.835C-564.612 757.872 -507.846 804.844 -447.744 854.563C-429.18 869.929 -409.973 885.815 -390.156 901.238C-353.954 929.417 -321.145 953.536 -286.189 963.26C-247.303 974.071 -210.651 964.361 -174.148 933.583C-147.238 910.889 -131.92 875.897 -127.343 826.599C-123.343 783.535 -128.045 735.157 -132.203 692.484C-135.232 661.403 -138.088 632.05 -137.364 608.154C-135.376 542.153 -115.219 493.828 -77.4576 464.525C-56.0305 447.898 -28.9784 437.593 2.94132 433.916C33.9149 430.342 69.4999 432.99 108.698 441.788C154.282 452.014 196.969 472.854 238.25 493.01C274.857 510.884 312.712 529.365 352.501 540.413C396.074 552.52 445.001 551.349 486.723 537.208C533.085 521.501 565.792 490.932 578.837 451.135C608.067 361.959 530.541 280.784 481.726 240.328C475.801 235.413 469.647 230.395 463.695 225.543C404.639 177.356 343.561 127.532 333.054 52.3007C327.156 10.1059 339.609 -32.6672 369.05 -71.3869C406.625 -120.801 467.514 -156.475 527.947 -164.478C551.274 -167.577 573.673 -167.11 595.388 -164.349Z" fill="#FBFBFB" fill-opacity="0.75"/>
<path d="M638.446 -150.685C678.699 -145.568 716.571 -132.581 753.629 -119.865C801.165 -103.56 850.33 -86.7018 903.439 -86.9302L903.442 -86.006C850.175 -85.7791 800.94 -102.665 753.331 -118.989C695.655 -138.766 636.013 -159.223 568.565 -149.537C463.987 -134.522 357.457 -36.5567 371.435 72.0702C381.237 148.229 441.988 198.273 500.738 246.672C506.675 251.56 512.815 256.623 518.726 261.573C543.882 282.629 578.473 316.369 600.374 357.519C622.298 398.719 627.077 438.709 614.584 476.364C607.476 497.788 595.213 516.523 578.152 532.054C562.453 546.339 543.09 557.594 520.615 565.504C478.373 580.363 429.001 582.027 385.147 570.071C345.181 559.169 307.279 540.692 270.625 522.821C229.375 502.715 186.729 481.918 141.129 471.96C62.3024 454.747 -1.81108 463.01 -44.2776 495.857C-82.9874 525.794 -103.951 575.258 -106.603 642.882C-107.553 667.16 -104.965 697.01 -102.226 728.605C-98.4588 772.078 -94.1882 821.353 -98.6317 865.34C-103.736 915.849 -119.563 951.839 -147.019 975.379C-166.851 992.377 -186.13 1003.04 -205.948 1007.96C-223.839 1012.41 -241.764 1012.05 -260.745 1006.87C-295.896 997.276 -330.104 971.906 -364.963 944.532C-384.738 929.003 -403.893 913.002 -422.405 897.521C-482.273 847.496 -538.817 800.245 -613.522 769.402C-694.788 735.849 -775.833 734.402 -847.889 765.214C-922.41 797.075 -981.38 861.469 -1018.42 951.435L-1019.28 951.083C-982.145 860.886 -923.004 796.318 -848.257 764.365C-812.57 749.111 -774.253 741.712 -734.35 742.399C-694.317 743.084 -653.553 751.885 -613.172 768.55C-538.333 799.448 -481.738 846.743 -421.812 896.822C-403.299 912.294 -384.153 928.294 -364.386 943.813C-328.271 972.167 -295.536 996.426 -260.502 1005.98C-221.529 1016.62 -184.605 1006.38 -147.621 974.678C-120.353 951.3 -104.625 915.503 -99.5534 865.251C-95.1204 821.346 -99.3876 772.118 -103.151 728.693C-105.896 697.069 -108.48 667.191 -107.533 642.857C-104.872 574.945 -83.7854 525.245 -44.8491 495.14C-23.161 478.369 4.0074 467.883 35.9104 463.97C66.8844 460.172 102.344 462.561 141.317 471.07C187.026 481.051 229.725 501.873 271.027 522.005C307.646 539.861 345.514 558.316 385.389 569.197C472.453 592.953 584.509 564.109 613.705 476.085C643.939 384.964 566.798 303.027 518.131 262.291C512.22 257.341 506.079 252.287 500.141 247.399C441.248 198.888 380.353 148.723 370.515 72.1958C364.025 21.7339 383.288 -30.2036 424.755 -74.0566C462.958 -114.462 516.672 -143.015 568.43 -150.45C592.694 -153.943 615.95 -153.544 638.446 -150.685Z" fill="#FBFBFB" fill-opacity="0.75"/>
<path d="M681.46 -137.044C721.034 -132.014 758.26 -119.379 794.71 -107.021C842.331 -90.8629 891.561 -74.1554 944.93 -74.8919L944.943 -73.9666C891.415 -73.2316 842.096 -89.969 794.412 -106.144C736.64 -125.747 676.908 -146.01 609.051 -135.527C503.818 -119.261 395.863 -18.5193 408.888 91.9551C418.022 169.4 478.599 219.786 537.185 268.519C543.109 273.443 549.227 278.531 555.124 283.517C580.205 304.722 614.647 338.751 636.265 380.443C657.914 422.186 662.337 462.85 649.435 501.302C642.093 523.172 629.605 542.363 612.311 558.331C596.402 573.019 576.849 584.66 554.181 592.919C511.593 608.443 461.972 610.598 418.019 598.835C377.966 588.108 340.052 569.648 303.386 551.795C262.125 531.705 219.466 510.935 173.742 501.223C95.4017 484.585 31.2873 493.295 -11.6712 526.415C-51.5571 557.164 -73.4629 608.019 -76.7885 677.564C-77.9718 702.288 -75.6457 732.656 -73.1913 764.802C-69.8092 809.029 -65.9822 859.152 -70.85 903.981C-76.449 955.444 -92.6852 992.232 -120.489 1016.45C-140.581 1033.95 -160.046 1044.98 -180.002 1050.18C-198.017 1054.87 -216.028 1054.68 -235.057 1049.57C-270.291 1040.13 -304.417 1014.62 -339.198 987.078C-358.924 971.453 -378.018 955.338 -396.479 939.752C-456.162 889.377 -512.544 841.801 -587.314 811.099C-756.15 741.774 -920.338 817.771 -995.863 1000.23L-996.714 999.875C-958.557 907.709 -898.535 841.424 -823.13 808.182C-787.132 792.315 -748.557 784.436 -708.468 784.755C-668.25 785.08 -627.363 793.655 -586.954 810.249C-512.042 841.007 -455.611 888.635 -395.868 939.055C-377.415 954.631 -358.329 970.735 -338.612 986.36C-302.595 1014.9 -269.922 1039.28 -234.814 1048.69C-195.754 1059.16 -158.556 1048.38 -121.092 1015.76C-93.4671 991.703 -77.3392 955.107 -71.7625 903.893C-66.8972 859.157 -70.7288 809.07 -74.1076 764.891C-76.5677 732.716 -78.8914 702.33 -77.7091 677.541C-74.3669 607.718 -52.3379 556.626 -12.2334 525.7C9.69714 508.782 36.9911 498.116 68.8659 493.985C99.83 489.971 135.182 492.104 173.928 500.342C219.762 510.077 262.482 530.874 303.787 550.987C340.419 568.818 378.288 587.263 418.26 597.97C505.522 621.34 618.385 590.919 648.555 501.032C679.781 407.975 603.046 325.268 554.518 284.251C548.629 279.267 542.502 274.178 536.588 269.255C477.867 220.412 417.146 169.905 407.966 92.0899C401.911 40.7782 421.755 -12.2798 463.829 -57.306C502.598 -98.7961 556.824 -128.366 608.903 -136.423C634.106 -140.329 658.193 -140.001 681.46 -137.044Z" fill="#FBFBFB" fill-opacity="0.75"/>
<path d="M724.43 -123.427C763.343 -118.481 799.933 -106.198 835.781 -94.168C883.477 -78.1594 932.792 -61.6091 986.412 -62.8456L986.434 -61.9191C932.647 -60.6853 883.251 -77.2644 835.483 -93.2915C777.622 -112.71 717.783 -132.791 649.515 -121.501C543.639 -103.983 434.249 -0.465885 446.329 111.857C454.795 190.598 515.199 241.317 573.613 290.373C579.514 295.331 585.618 300.455 591.492 305.475C616.498 326.829 650.791 361.147 672.136 403.374C693.502 445.659 697.578 486.997 684.266 526.247C676.689 548.572 663.967 568.209 646.448 584.624C630.329 599.715 610.579 611.741 587.734 620.36C544.81 636.55 494.921 639.194 450.88 627.615C410.729 617.063 372.804 598.62 336.136 580.785C294.872 560.714 252.192 539.969 206.343 530.502C128.472 514.428 64.3672 523.578 20.9456 556.966C-20.1189 588.545 -42.9665 640.792 -46.9861 712.273C-48.4045 737.452 -46.3482 768.326 -44.1694 801.026C-41.1722 846.006 -37.7799 896.979 -43.0891 942.638C-49.1826 995.055 -65.8292 1032.65 -93.9803 1057.55C-114.321 1075.53 -133.974 1086.94 -154.076 1092.41C-172.217 1097.35 -190.312 1097.31 -209.391 1092.3C-244.71 1083.01 -278.762 1057.37 -313.456 1029.65C-333.131 1013.93 -352.164 997.699 -370.575 982.008C-430.084 931.291 -486.284 883.384 -561.137 852.82C-730.133 783.802 -895.794 862.653 -973.339 1049.03L-974.19 1048.68C-935.016 954.535 -874.104 886.534 -798.052 852.022C-761.743 835.541 -722.91 827.172 -682.636 827.132C-642.23 827.09 -601.232 835.445 -560.777 851.97C-485.791 882.588 -429.532 930.54 -369.964 981.311C-351.561 996.992 -332.528 1013.22 -312.861 1028.93C-276.931 1057.65 -244.331 1082.16 -209.148 1091.42C-170 1101.71 -132.53 1090.41 -94.5931 1056.86C-66.6202 1032.12 -50.074 994.727 -44.0096 942.54C-38.7109 896.963 -42.0987 846.028 -45.0925 801.095C-47.269 768.377 -49.3299 737.465 -47.9136 712.23C-43.8866 640.469 -20.9064 587.987 20.3754 556.24C42.5462 539.194 69.9392 528.335 101.804 523.988C132.758 519.759 167.992 521.644 206.523 529.602C252.49 539.093 295.213 559.871 336.53 579.958C373.164 597.77 411.054 616.199 451.105 626.72C538.575 649.707 652.244 617.718 683.38 525.957C715.607 430.966 639.26 347.487 590.888 306.191C585.012 301.181 578.91 296.048 573.008 291.099C544.209 266.921 514.441 241.92 490.806 213.09C464.052 180.457 449.204 147.379 445.391 111.971C439.78 59.8109 460.194 5.64039 502.876 -40.5681C542.203 -83.1443 596.96 -113.738 649.35 -122.4C675.503 -126.735 700.409 -126.471 724.43 -123.427Z" fill="#FBFBFB" fill-opacity="0.75"/>
<path d="M767.365 -109.825C805.626 -104.961 841.597 -93.0182 876.852 -81.3154C924.623 -65.4559 974.014 -49.0638 1027.9 -50.7888L1027.92 -49.8623C973.877 -48.1296 924.405 -64.5506 876.553 -80.4297C818.594 -99.6649 758.666 -119.561 689.979 -107.466C583.45 -88.7058 472.623 17.5956 483.76 131.767C491.567 211.796 551.798 262.857 610.039 312.246C615.926 317.239 622.006 322.397 627.868 327.444C652.8 348.937 686.945 383.545 708.005 426.323C729.089 469.142 732.816 511.163 719.097 551.2C704.177 594.733 669.437 629.038 621.299 647.784C578.029 664.64 527.891 667.774 483.741 656.387C443.503 646.01 405.566 627.584 368.876 609.775C327.6 589.73 284.917 569.003 238.935 559.781C161.535 544.26 97.4312 553.84 53.5647 587.498C11.3322 619.899 -12.4783 673.553 -17.193 746.98C-18.8362 772.607 -17.0519 804.006 -15.1566 837.248C-12.5524 882.971 -9.5959 934.803 -15.3385 981.303C-21.9277 1034.68 -38.9823 1073.07 -67.4896 1098.64C-88.0791 1117.11 -107.928 1128.89 -128.168 1134.64C-146.443 1139.82 -164.616 1139.95 -183.732 1135.02C-219.127 1125.88 -253.114 1100.09 -287.712 1072.21C-307.338 1056.39 -326.32 1040.06 -344.67 1024.25C-403.995 973.188 -460.032 924.956 -534.948 894.524C-704.087 825.814 -871.211 907.521 -950.794 1097.82L-951.644 1097.46C-911.453 1001.34 -849.661 931.618 -772.942 895.828C-736.314 878.745 -697.231 869.875 -656.78 869.475C-616.189 869.074 -575.07 877.211 -534.577 893.657C-459.518 924.144 -403.421 972.421 -344.038 1023.54C-325.697 1039.34 -306.722 1055.66 -287.105 1071.48C-251.273 1100.36 -218.737 1125.02 -183.467 1134.11C-144.232 1144.23 -106.481 1132.4 -68.0725 1097.94C-39.7423 1072.51 -22.7869 1034.32 -16.2268 981.172C-10.4947 934.754 -13.4479 882.969 -16.0567 837.283C-17.9485 804.014 -19.7397 772.595 -18.0975 746.903C-13.3661 673.198 10.5573 619.315 53.0163 586.747C75.4101 569.561 102.917 558.54 134.755 553.966C165.698 549.529 200.824 551.167 239.136 558.855C285.228 568.1 327.963 588.853 369.293 608.922C405.938 626.717 443.831 645.119 483.978 655.475C571.646 678.076 686.13 644.521 718.224 550.875C751.454 453.94 675.501 369.709 627.269 328.123C621.416 323.078 615.326 317.919 609.448 312.926C580.736 288.582 551.046 263.414 527.568 234.296C500.987 201.331 486.361 167.824 482.846 131.838C477.679 78.8288 498.664 23.5459 541.951 -23.8358C561.537 -45.2784 585.295 -64.3153 610.656 -78.8658C636.262 -93.5718 663.637 -103.78 689.835 -108.39C716.901 -113.151 742.611 -112.971 767.365 -109.825Z" fill="#FBFBFB" fill-opacity="0.75"/>
</g>
<g clip-path="url(#clip1_201_3)">
<path d="M1625.32 1511.07C1586.61 1522.17 1546.63 1524.53 1507.57 1526.84C1461.96 1529.53 1414.8 1532.32 1370.6 1549.06L1370.3 1548.27C1414.62 1531.48 1461.86 1528.69 1507.53 1526C1562.86 1522.73 1620.08 1519.35 1672.77 1491.1C1721.23 1465.12 1759.13 1417.53 1771.7 1366.9C1781.04 1329.28 1775.6 1293.95 1755.96 1264.72C1719.9 1211.09 1650.92 1192.78 1584.21 1175.08C1577.47 1173.29 1570.5 1171.44 1563.76 1169.6C1535.07 1161.78 1493.89 1147.45 1460.56 1123.65C1427.18 1099.81 1408.55 1071.52 1405.18 1039.56C1403.26 1021.38 1406.62 1003.59 1415.17 986.69C1423.03 971.153 1435.05 956.726 1450.9 943.819C1480.68 919.58 1521.22 902.937 1562.16 898.166C1599.46 893.813 1637.83 895.745 1674.93 897.618C1716.69 899.717 1759.87 901.901 1801.54 895.085C1876.93 882.76 1928.4 854.816 1950.37 814.288C1968.53 780.803 1966.88 739.2 1945.47 690.651C1937.38 672.286 1924.29 650.873 1910.44 628.203C1891.37 597.011 1869.77 561.662 1857.36 527.523C1843.11 488.309 1843.13 456.553 1857.41 430.435C1867.73 411.588 1879.9 397.629 1894.62 387.782C1907.9 378.891 1922.97 373.567 1940.7 371.507C1973.51 367.681 2011.31 375.898 2050.4 385.406C2072.57 390.8 2094.4 396.739 2115.51 402.483C2183.74 421.051 2248.19 438.588 2321.77 438.248C2405.65 437.859 2478.53 410.133 2526.96 360.178C2571.89 313.845 2594.61 250.318 2592.67 176.479L2593.52 176.456C2595.46 250.522 2572.66 314.254 2527.57 360.759C2503.29 385.797 2473.21 405.261 2438.17 418.625C2403.05 432.01 2363.89 438.892 2321.78 439.089C2248.08 439.435 2183.58 421.877 2115.28 403.293C2094.18 397.547 2072.36 391.613 2050.2 386.225C2011.19 376.74 1973.48 368.542 1940.8 372.346C1903.91 376.642 1877.64 395.233 1858.16 430.854C1844 456.744 1844 488.274 1858.16 527.242C1870.54 561.3 1892.12 596.613 1911.17 627.775C1925.04 650.465 1938.14 671.902 1946.26 690.321C1967.77 739.128 1969.41 780.971 1951.12 814.704C1933.62 846.993 1897.56 871.323 1845.73 886.194C1832.12 890.099 1817.42 893.352 1801.68 895.929C1759.93 902.752 1716.7 900.582 1674.91 898.476C1637.84 896.61 1599.51 894.677 1562.27 899.02C1521.5 903.771 1481.1 920.346 1451.44 944.496C1418.52 971.306 1402.39 1005.04 1406.03 1039.5C1409.38 1071.2 1427.89 1099.29 1461.06 1122.99C1494.29 1146.71 1535.38 1161 1563.99 1168.81C1570.73 1170.65 1577.7 1172.5 1584.44 1174.29C1651.3 1192.03 1720.43 1210.38 1756.67 1264.28C1776.45 1293.72 1781.95 1329.28 1772.54 1367.14C1759.92 1417.98 1721.85 1465.78 1673.19 1491.88C1657.55 1500.21 1641.55 1506.41 1625.32 1511.07Z" fill="#FBFBFB" fill-opacity="0.75"/>
<path d="M1584.16 1515.1C1546.12 1526.02 1506.89 1528.47 1468.57 1530.86C1422.95 1533.7 1375.78 1536.64 1331.54 1553.9L1331.24 1553.11C1375.6 1535.81 1422.84 1532.86 1468.52 1530.01C1523.87 1526.56 1581.09 1522.99 1633.84 1493.92C1682.05 1467.35 1719.98 1418.75 1732.82 1367.09C1742.5 1328.2 1737.18 1291.7 1717.44 1261.53C1681.47 1206.57 1612.52 1187.92 1545.83 1169.88C1539.09 1168.06 1532.12 1166.18 1525.38 1164.3C1496.7 1156.33 1455.54 1141.71 1422.26 1117.35C1388.92 1092.95 1370.33 1063.97 1367.02 1031.21C1365.14 1012.56 1368.52 994.318 1377.11 976.967C1385 961.009 1397.05 946.199 1412.93 932.931C1442.75 908.013 1483.34 890.865 1524.29 885.897C1561.61 881.365 1599.98 883.279 1637.08 885.133C1678.84 887.216 1722.02 889.371 1763.7 882.307C1838.43 869.647 1889.74 841.273 1912.09 800.267C1930.95 765.687 1929.57 722.638 1908.02 672.324C1899.96 653.494 1886.91 631.559 1873.09 608.327C1854.08 576.366 1832.54 540.148 1820.2 505.149C1806.01 464.958 1806.09 432.388 1820.42 405.581C1830.77 386.223 1842.97 371.889 1857.7 361.765C1871 352.623 1886.09 347.137 1903.82 344.981C1936.64 341.001 1974.43 349.354 2013.5 359.04C2035.67 364.532 2057.49 370.581 2078.58 376.441C2146.79 395.366 2211.22 413.236 2284.81 412.752C2367.46 412.209 2439.66 384.386 2488.14 334.408C2534.51 286.599 2558.06 220.67 2556.22 143.731L2557.06 143.708C2558.9 220.874 2535.28 287.019 2488.75 334.989C2464.44 360.055 2434.52 379.553 2399.82 392.939C2365.04 406.365 2326.35 413.31 2284.82 413.583C2211.11 414.064 2146.63 396.176 2078.36 377.241C2057.27 371.388 2035.46 365.337 2013.31 359.851C1972.82 349.825 1936.65 341.842 1903.92 345.81C1867.02 350.285 1840.72 369.402 1821.16 405.973C1806.95 432.553 1806.89 464.907 1820.99 504.868C1833.31 539.785 1854.83 575.966 1873.82 607.899C1887.65 631.153 1900.72 653.11 1908.8 671.994C1930.46 722.558 1931.82 765.858 1912.84 800.675C1901.42 821.629 1882.61 839.335 1856.94 853.308C1832.05 866.854 1800.73 876.893 1763.84 883.143C1722.06 890.227 1678.84 888.065 1637.04 885.98C1599.97 884.132 1561.63 882.218 1524.39 886.737C1483.6 891.685 1443.17 908.76 1413.47 933.581C1380.49 961.144 1364.29 995.788 1367.88 1031.13C1371.17 1063.65 1389.64 1092.43 1422.77 1116.67C1455.96 1140.95 1497.02 1155.53 1525.63 1163.49C1532.36 1165.37 1539.33 1167.25 1546.07 1169.07C1612.9 1187.15 1682.02 1205.84 1718.16 1261.07C1738.03 1291.43 1743.38 1328.16 1733.65 1367.29C1720.75 1419.17 1682.66 1467.97 1634.25 1494.65C1617.92 1503.66 1601.16 1510.23 1584.16 1515.1Z" fill="#FBFBFB" fill-opacity="0.75"/>
<path d="M1543.07 1519.14C1505.67 1529.87 1467.19 1532.39 1429.58 1534.87C1383.95 1537.86 1336.76 1540.96 1292.49 1558.73L1292.18 1557.95C1336.58 1540.13 1383.83 1537.03 1429.52 1534.02C1484.88 1530.39 1542.12 1526.63 1594.92 1496.73C1642.9 1469.57 1680.85 1419.98 1693.96 1367.31C1703.97 1327.13 1698.77 1289.45 1678.95 1258.34C1643.08 1202.07 1574.15 1183.07 1507.48 1164.7C1500.75 1162.84 1493.78 1160.92 1487.04 1159.01C1458.37 1150.88 1417.23 1135.97 1383.99 1111.06C1350.69 1086.12 1332.16 1056.44 1328.89 1022.87C1327.04 1003.77 1330.47 985.051 1339.07 967.255C1346.99 950.885 1359.07 935.681 1374.97 922.057C1404.84 896.457 1445.47 878.809 1486.43 873.644C1523.76 868.934 1562.13 870.829 1599.24 872.656C1640.99 874.721 1684.17 876.851 1725.87 869.535C1799.95 856.545 1851.11 827.759 1873.83 786.286C1893.38 750.612 1892.29 706.105 1870.59 654.007C1862.56 634.721 1849.55 612.249 1835.77 588.472C1816.82 555.747 1795.33 518.653 1783.04 482.797C1768.93 441.621 1769.06 408.237 1783.44 380.741C1793.82 360.882 1806.04 346.173 1820.8 335.761C1834.12 326.367 1849.21 320.713 1866.95 318.475C1899.79 314.335 1937.57 322.837 1976.63 332.694C1998.79 338.284 2020.6 344.45 2041.69 350.417C2109.87 369.692 2174.28 387.901 2247.88 387.276C2329.31 386.58 2400.86 358.681 2449.35 308.709C2497.16 259.443 2521.52 191.079 2519.79 111.011L2520.64 110.996C2522.37 191.291 2497.93 259.862 2449.96 309.298C2425.63 334.379 2395.87 353.892 2361.52 367.32C2327.08 380.781 2288.84 387.778 2247.88 388.125C2174.16 388.75 2109.71 370.529 2041.46 351.229C2020.38 345.268 1998.57 339.102 1976.42 333.517C1937.44 323.683 1899.74 315.198 1867.05 319.322C1830.13 323.978 1803.8 343.622 1784.18 381.143C1769.91 408.422 1769.8 441.591 1783.83 482.536C1796.08 518.314 1817.55 555.37 1836.49 588.064C1850.27 611.874 1863.3 634.368 1871.36 653.7C1893.16 706.048 1894.24 750.806 1874.56 786.709C1862.95 807.893 1844.09 825.823 1818.52 839.996C1793.71 853.746 1762.59 863.966 1726.01 870.381C1684.22 877.715 1640.99 875.581 1599.18 873.514C1562.11 871.685 1523.78 869.794 1486.52 874.494C1445.72 879.639 1405.26 897.215 1375.51 922.709C1342.47 951.025 1326.2 986.573 1329.73 1022.8C1337.61 1104 1431.82 1142.5 1487.26 1158.22C1494 1160.13 1500.96 1162.05 1507.69 1163.9C1574.51 1182.31 1643.6 1201.36 1679.64 1257.91C1699.6 1289.21 1704.83 1327.12 1694.76 1367.53C1681.59 1420.41 1643.48 1470.21 1595.32 1497.49C1578.3 1507.12 1560.8 1514.05 1543.07 1519.14Z" fill="#FBFBFB" fill-opacity="0.75"/>
<path d="M1502.02 1523.18C1465.25 1533.73 1427.49 1536.34 1390.57 1538.89C1344.93 1542.03 1297.74 1545.29 1253.43 1563.57L1253.11 1562.79C1297.54 1544.46 1344.81 1541.2 1390.51 1538.05C1445.88 1534.23 1503.14 1530.28 1556 1499.56C1603.75 1471.81 1641.71 1421.23 1655.09 1367.55C1665.42 1326.07 1660.36 1287.21 1640.45 1255.16C1604.67 1197.57 1535.77 1178.22 1469.13 1159.51C1462.39 1157.62 1455.44 1155.67 1448.7 1153.72C1420.05 1145.44 1378.92 1130.23 1345.72 1104.77C1312.46 1079.27 1293.98 1048.9 1290.77 1014.51C1288.95 994.946 1292.41 975.776 1301.05 957.531C1309 940.749 1321.1 925.151 1337.02 911.161C1366.94 884.881 1407.6 866.732 1448.58 861.37C1485.92 856.479 1524.3 858.355 1561.4 860.167C1603.16 862.205 1646.34 864.317 1688.06 856.75C1761.49 843.437 1812.49 814.238 1835.58 772.322C1855.82 735.553 1855 689.571 1833.17 635.671C1825.17 615.928 1812.19 592.929 1798.45 568.587C1779.55 535.093 1758.13 497.129 1745.91 460.421C1731.86 418.269 1732.05 384.071 1746.47 355.877C1756.89 335.518 1769.14 320.423 1783.92 309.732C1797.26 300.08 1812.37 294.263 1830.12 291.943C1862.97 287.649 1900.74 296.287 1939.79 306.322C1961.94 312.011 1983.75 318.291 2004.83 324.367C2072.98 343.999 2137.36 362.542 2210.97 361.774C2291.22 360.934 2362.13 332.965 2410.61 283.004C2459.84 232.287 2485.01 161.489 2483.4 78.2554L2484.25 78.2406C2485.86 161.701 2460.61 232.715 2411.22 283.593C2386.88 308.676 2357.29 328.212 2323.28 341.655C2289.17 355.144 2251.39 362.194 2210.98 362.613C2137.25 363.381 2072.81 344.822 2004.59 325.171C1983.52 319.103 1961.72 312.821 1939.58 307.138C1899.12 296.752 1862.97 288.5 1830.22 292.78C1793.29 297.614 1766.92 317.788 1747.24 356.264C1732.92 384.243 1732.75 418.227 1746.72 460.154C1758.92 496.78 1780.31 534.717 1799.2 568.173C1812.94 592.547 1825.93 615.56 1833.96 635.357C1855.9 689.507 1856.69 735.724 1836.32 772.73C1824.54 794.141 1805.64 812.283 1780.16 826.657C1755.44 840.602 1724.5 851.004 1688.23 857.579C1646.42 865.163 1603.18 863.049 1561.38 861.007C1524.31 859.194 1485.97 857.325 1448.7 862.203C1407.89 867.545 1367.39 885.621 1337.59 911.788C1304.49 940.859 1288.16 977.31 1291.62 1014.43C1299.36 1097.61 1393.51 1136.89 1448.94 1152.9C1455.68 1154.84 1462.63 1156.79 1469.37 1158.69C1536.16 1177.44 1605.22 1196.83 1641.18 1254.7C1661.22 1286.94 1666.31 1326.03 1655.92 1367.74C1642.49 1421.62 1604.37 1472.41 1556.44 1500.27C1538.7 1510.59 1520.48 1517.88 1502.02 1523.18Z" fill="#FBFBFB" fill-opacity="0.75"/>
<path d="M1461.02 1527.22C1424.88 1537.59 1387.82 1540.27 1351.56 1542.89C1305.92 1546.19 1258.71 1549.6 1214.37 1568.39L1214.05 1567.62C1258.51 1548.78 1305.78 1545.36 1351.51 1542.06C1406.89 1538.05 1464.16 1533.91 1517.08 1502.37C1564.6 1474.04 1602.59 1422.48 1616.22 1367.8C1626.88 1325.02 1621.95 1284.96 1601.95 1251.96C1566.27 1193.05 1497.38 1173.35 1430.77 1154.31C1424.04 1152.39 1417.07 1150.4 1410.35 1148.42C1381.71 1139.99 1340.59 1124.49 1307.42 1098.47C1274.21 1072.41 1255.78 1041.35 1252.63 1006.16C1250.84 986.133 1254.33 966.498 1263 947.806C1270.97 930.613 1283.11 914.621 1299.05 900.273C1329.01 873.314 1369.71 854.662 1410.7 849.103C1448.06 844.034 1486.44 845.892 1523.55 847.685C1565.31 849.704 1608.49 851.789 1650.22 843.972C1723.02 830.339 1773.87 800.747 1797.29 758.393C1818.22 720.522 1817.69 673.063 1795.72 617.342C1787.75 597.135 1774.82 573.615 1761.12 548.709C1742.27 514.446 1720.91 475.604 1708.75 438.045C1694.78 394.914 1695.02 359.903 1709.5 331.018C1719.95 310.156 1732.22 294.678 1747.03 283.71C1760.38 273.808 1775.5 267.829 1793.25 265.42C1826.11 260.964 1863.88 269.754 1902.91 279.951C1925.06 285.739 1946.85 292.136 1967.93 298.318C2036.06 318.31 2100.41 337.183 2174.03 336.271C2254.29 335.282 2322.69 307.986 2371.86 257.339C2422.49 205.184 2448.46 131.934 2446.97 45.5006L2447.82 45.4857C2449.31 132.147 2423.26 205.603 2372.47 257.92C2348.12 282.995 2318.71 302.541 2285.03 316.003C2251.25 329.511 2213.91 336.612 2174.04 337.101C2100.3 338.014 2035.88 319.114 1967.69 299.115C1946.62 292.93 1924.83 286.54 1902.7 280.759C1862.26 270.193 1826.12 261.805 1793.36 266.239C1756.92 271.176 1729.73 292.488 1710.25 331.381C1695.89 360.058 1695.65 394.857 1709.55 437.769C1721.69 475.255 1743.03 514.06 1761.86 548.284C1775.58 573.212 1788.53 596.755 1796.52 617.018C1818.59 672.98 1819.1 720.682 1798.03 758.793C1786.08 780.418 1767.14 798.775 1741.74 813.334C1717.1 827.467 1686.36 838.051 1650.39 844.785C1608.55 852.622 1565.32 850.532 1523.52 848.508C1486.45 846.714 1448.11 844.861 1410.83 849.925C1370 855.464 1329.47 874.043 1299.63 900.887C1266.47 930.711 1250.09 968.064 1253.49 1006.07C1261.1 1091.23 1355.19 1131.29 1410.6 1147.6C1417.33 1149.58 1424.29 1151.57 1431.01 1153.49C1497.78 1172.58 1566.83 1192.32 1602.68 1251.51C1622.8 1284.71 1627.76 1324.99 1617.04 1367.99C1603.36 1422.87 1565.23 1474.64 1517.52 1503.07C1499.11 1514.06 1480.19 1521.72 1461.02 1527.22Z" fill="#FBFBFB" fill-opacity="0.75"/>
<path d="M1420.06 1531.27C1384.53 1541.47 1348.16 1544.22 1312.56 1546.91C1266.91 1550.36 1219.69 1553.93 1175.31 1573.22L1174.98 1572.45C1219.49 1553.1 1266.77 1549.53 1312.5 1546.07C1367.89 1541.87 1425.17 1537.55 1478.15 1505.18C1560.28 1454.99 1614.22 1334.67 1563.44 1248.77C1527.85 1188.55 1458.99 1168.51 1392.41 1149.13C1385.68 1147.17 1378.72 1145.14 1371.99 1143.12C1343.36 1134.55 1302.27 1118.75 1269.13 1092.18C1235.96 1065.58 1217.58 1033.82 1214.49 997.809C1212.73 977.319 1216.26 957.226 1224.95 938.088C1232.96 920.483 1245.12 904.098 1261.08 889.392C1291.1 861.76 1331.83 842.608 1372.84 836.842C1410.21 831.592 1448.59 833.425 1485.7 835.2C1527.46 837.193 1570.63 839.262 1612.39 831.194C1684.56 817.249 1735.26 787.271 1758.99 744.501C1780.62 705.518 1780.38 656.573 1758.27 599.013C1750.34 578.349 1737.43 554.293 1723.78 528.831C1704.99 493.797 1683.69 454.087 1671.58 415.668C1657.69 371.553 1657.99 335.734 1672.51 306.153C1682.99 284.791 1695.3 268.935 1710.11 257.683C1723.49 247.527 1738.62 241.378 1756.38 238.89C1789.25 234.274 1827.01 243.205 1866.04 253.58C1888.17 259.466 1909.96 265.97 1931.03 272.27C1999.14 292.61 2063.46 311.824 2137.09 310.77C2217.18 309.625 2285.55 281.684 2334.78 229.975C2385.7 176.5 2411.9 101.386 2410.54 12.7563L2411.38 12.7415C2412.75 101.599 2386.47 176.919 2335.39 230.553C2311.01 256.157 2281.59 276.133 2247.94 289.911C2214.19 303.738 2176.9 311.033 2137.1 311.609C2063.34 312.665 1998.96 293.432 1930.78 273.068C1909.72 266.777 1887.94 260.271 1865.81 254.39C1825.38 243.646 1789.25 235.115 1756.49 239.717C1720.04 244.832 1692.82 266.681 1673.26 306.524C1658.85 335.901 1658.56 371.523 1672.39 415.411C1684.47 453.757 1705.75 493.429 1724.52 528.425C1738.19 553.909 1751.1 577.989 1759.06 598.699C1781.26 656.504 1781.49 705.69 1759.72 744.895C1747.6 766.735 1728.63 785.285 1703.34 800.036C1678.77 814.356 1648.23 825.111 1612.55 832.007C1570.7 840.094 1527.47 838.023 1485.65 836.028C1448.58 834.252 1410.24 832.426 1372.95 837.661C1291.53 849.092 1208.1 913.543 1215.33 997.727C1222.79 1084.88 1316.84 1125.72 1372.23 1142.31C1378.96 1144.33 1385.92 1146.35 1392.64 1148.3C1459.39 1167.73 1528.41 1187.81 1564.17 1248.33C1587.75 1288.24 1590.31 1338.64 1571.37 1390.27C1553.93 1437.83 1519.24 1481.05 1478.59 1505.89C1459.53 1517.54 1439.92 1525.57 1420.06 1531.27Z" fill="#FBFBFB" fill-opacity="0.75"/>
<path d="M1379.15 1535.33C1344.22 1545.35 1308.51 1548.17 1273.55 1550.93C1227.88 1554.54 1180.66 1558.26 1136.25 1578.07L1135.91 1577.3C1180.45 1557.43 1227.76 1553.7 1273.49 1550.09C1328.9 1545.72 1386.19 1541.19 1439.22 1508.01C1521.45 1456.54 1575.58 1333.39 1524.94 1245.6C1489.44 1184.05 1420.61 1163.67 1354.04 1143.95C1347.31 1141.96 1340.36 1139.9 1333.63 1137.85C1305.01 1129.12 1263.94 1113.02 1230.84 1085.9C1197.71 1058.74 1179.38 1026.3 1176.35 989.47C1174.63 968.522 1178.18 947.966 1186.91 928.379C1194.94 910.362 1207.12 893.585 1223.13 878.518C1253.19 850.205 1293.95 830.552 1334.97 824.589C1372.36 819.161 1410.74 820.975 1447.85 822.731C1489.62 824.706 1532.79 826.748 1574.56 818.43C1646.12 804.179 1696.66 773.826 1720.7 730.65C1743.03 690.564 1743.07 640.116 1720.84 580.706C1712.94 559.584 1700.07 535.002 1686.45 508.976C1667.71 473.172 1646.48 432.592 1634.43 393.316C1620.61 348.224 1620.96 311.591 1635.53 281.313C1646.05 259.44 1658.38 243.208 1673.21 231.679C1686.6 221.274 1701.75 214.954 1719.51 212.384C1752.4 207.614 1790.14 216.691 1829.17 227.234C1851.3 233.219 1873.08 239.839 1894.14 246.246C1962.22 266.945 2026.52 286.489 2100.15 285.294C2266.42 282.593 2376.52 159.921 2374.11 -19.9717L2374.95 -19.9843C2376.16 70.8897 2349.76 147.964 2298.6 202.913C2274.17 229.143 2244.72 249.613 2211.04 263.767C2177.26 277.961 2139.95 285.49 2100.16 286.135C2026.39 287.334 1962.02 267.764 1893.88 247.049C1872.83 240.648 1851.06 234.033 1828.93 228.046C1788.52 217.113 1752.4 208.457 1719.63 213.211C1683.17 218.497 1655.91 240.899 1636.28 281.676C1621.81 311.752 1621.47 348.186 1635.23 393.062C1647.24 432.259 1668.47 472.806 1687.19 508.572C1700.82 534.62 1713.69 559.219 1721.62 580.394C1743.94 640.043 1743.88 690.734 1721.43 731.047C1709.16 753.096 1690.15 771.842 1664.95 786.765C1640.48 801.263 1610.12 812.193 1574.72 819.235C1532.86 827.573 1489.61 825.53 1447.81 823.551C1410.73 821.802 1372.4 819.984 1335.08 825.4C1253.63 837.225 1170.1 903.286 1177.18 989.38C1184.51 1078.51 1278.5 1120.14 1333.87 1137.01C1340.59 1139.07 1347.55 1141.12 1354.27 1143.12C1421 1162.88 1489.99 1183.32 1525.67 1245.15C1549.19 1285.92 1551.66 1337.48 1532.64 1390.3C1515.11 1438.97 1480.36 1483.23 1439.66 1508.71C1419.97 1521.04 1399.69 1529.43 1379.15 1535.33Z" fill="#FBFBFB" fill-opacity="0.75"/>
<path d="M1338.28 1539.39C1303.93 1549.24 1268.89 1552.12 1234.55 1554.95C1188.87 1558.7 1141.64 1562.59 1097.2 1582.91L1096.85 1582.14C1141.43 1561.76 1188.74 1557.87 1234.49 1554.1C1289.9 1549.55 1347.22 1544.83 1400.3 1510.83C1482.62 1458.08 1536.96 1332.08 1486.44 1242.4C1451.03 1179.54 1382.23 1158.81 1315.69 1138.76C1308.96 1136.73 1302.01 1134.64 1295.29 1132.55C1266.67 1123.67 1225.62 1107.28 1192.57 1079.61C1159.47 1051.9 1141.19 1018.76 1138.22 981.118C1136.53 959.705 1140.12 938.691 1148.88 918.649C1156.94 900.219 1169.15 883.049 1185.17 867.617C1215.28 838.625 1256.09 818.467 1297.12 812.317C1334.52 806.708 1372.9 808.505 1410.01 810.244C1451.77 812.202 1494.96 814.216 1536.74 805.648C1607.71 791.094 1658.07 760.376 1682.41 716.81C1705.43 675.605 1705.76 623.653 1683.41 562.372C1675.54 540.785 1662.72 515.681 1649.13 489.093C1630.44 452.52 1609.27 411.073 1597.29 370.943C1583.53 324.875 1583.95 287.419 1598.55 256.452C1609.11 234.078 1621.46 217.463 1636.32 205.655C1649.73 194.991 1664.89 188.518 1682.66 185.848C1715.57 180.916 1753.29 190.137 1792.3 200.859C1814.43 206.942 1836.2 213.679 1857.25 220.192C1925.31 241.24 1989.58 261.127 2063.24 259.786C2229.52 256.772 2339.83 131.18 2337.7 -52.723L2338.54 -52.7356C2339.61 40.161 2313.08 118.992 2261.84 175.236C2237.37 202.092 2207.88 223.065 2174.18 237.586C2140.37 252.155 2103.05 259.908 2063.24 260.627C1989.46 261.97 1925.12 242.067 1856.99 220.995C1835.95 214.488 1814.18 207.75 1792.06 201.673C1751.66 190.562 1715.56 181.77 1682.77 186.675C1646.3 192.14 1619 215.08 1599.31 256.804C1584.8 287.577 1584.4 324.829 1598.09 370.694C1610.05 410.751 1631.21 452.169 1649.88 488.703C1663.47 515.308 1676.31 540.441 1684.2 562.075C1706.64 623.591 1706.29 675.788 1683.15 717.212C1670.72 739.455 1651.7 758.398 1626.59 773.498C1602.2 788.173 1572.03 799.269 1536.91 806.467C1495.02 815.056 1451.79 813.031 1409.98 811.078C1372.9 809.345 1334.56 807.548 1297.25 813.148C1215.76 825.369 1132.12 893.032 1139.06 981.042C1146.26 1072.15 1240.19 1114.56 1295.54 1131.73C1302.26 1133.81 1309.21 1135.91 1315.93 1137.93C1348.73 1147.81 1382.64 1158.03 1412.8 1173.66C1446.93 1191.36 1471.26 1213.7 1487.19 1241.97C1510.65 1283.61 1513.04 1336.3 1493.94 1390.33C1476.33 1440.12 1441.5 1485.42 1400.76 1511.52C1380.43 1524.56 1359.49 1533.29 1338.28 1539.39Z" fill="#FBFBFB" fill-opacity="0.75"/>
<path d="M1297.45 1543.44C1263.68 1553.13 1229.27 1556.08 1195.55 1558.96C1149.86 1562.87 1102.62 1566.91 1058.13 1587.74L1057.78 1586.97C1102.4 1566.08 1149.71 1562.03 1195.48 1558.11C1250.92 1553.36 1308.24 1548.46 1361.38 1513.63C1443.81 1459.61 1498.34 1330.77 1447.95 1239.2C1412.63 1175.02 1343.84 1153.94 1277.33 1133.55C1270.6 1131.49 1263.66 1129.36 1256.94 1127.24C1228.34 1118.22 1187.31 1101.53 1154.29 1073.3C1121.24 1045.04 1103 1011.21 1100.09 972.759C1096.92 930.952 1113.66 889.741 1147.21 856.734C1177.37 827.061 1218.21 806.402 1259.26 800.054C1296.67 794.266 1335.06 796.044 1372.18 797.755C1413.94 799.686 1457.12 801.683 1498.93 792.863C1569.3 778.014 1619.51 746.938 1644.13 702.985C1667.82 660.673 1668.45 607.195 1645.99 544.036C1638.15 521.994 1625.36 496.353 1611.81 469.209C1593.19 431.872 1572.07 389.549 1560.15 348.56C1546.47 301.507 1546.94 263.244 1561.6 231.586C1572.19 208.712 1584.57 191.719 1599.44 179.626C1612.87 168.71 1628.04 162.068 1645.82 159.319C1678.73 154.235 1716.46 163.597 1755.45 174.491C1777.56 180.673 1799.33 187.517 1820.37 194.147C1888.4 215.554 1952.66 235.771 2026.31 234.297C2192.61 230.973 2303.11 102.464 2301.28 -85.4534L2302.12 -85.4578C2303.05 9.46136 2276.41 90.046 2225.06 147.6C2200.55 175.075 2171.02 196.557 2137.3 211.442C2103.47 226.379 2066.12 234.358 2026.31 235.156C1952.52 236.635 1888.2 216.402 1820.1 194.971C1799.07 188.347 1777.31 181.508 1755.2 175.325C1714.82 164.032 1678.72 155.099 1645.92 160.175C1609.44 165.818 1582.09 189.298 1562.34 231.961C1547.77 263.434 1547.31 301.5 1560.94 348.35C1572.84 389.267 1593.94 431.552 1612.56 468.856C1626.11 496.024 1638.91 521.679 1646.77 543.776C1669.32 607.174 1668.68 660.882 1644.85 703.416C1632.29 725.857 1613.23 744.977 1588.23 760.258C1563.92 775.101 1533.93 786.365 1499.09 793.711C1457.18 802.551 1413.95 800.552 1372.13 798.618C1335.06 796.904 1296.72 795.131 1259.39 800.903C1177.88 813.518 1094.12 882.786 1100.93 972.717C1107.99 1065.81 1201.86 1109 1257.19 1126.46C1263.91 1128.58 1270.86 1130.7 1277.58 1132.77C1310.37 1142.82 1344.27 1153.21 1374.4 1169.14C1408.51 1187.17 1432.8 1209.96 1448.69 1238.81C1472.08 1281.33 1474.4 1335.15 1455.21 1390.38C1446.53 1415.38 1433.49 1439.86 1417.49 1461.16C1401.35 1482.68 1382.11 1501.07 1361.83 1514.35C1340.89 1528.07 1319.31 1537.17 1297.45 1543.44Z" fill="#FBFBFB" fill-opacity="0.75"/>
</g>
<defs>
<clipPath id="clip0_201_3">
<rect width="1865.18" height="1348.17" fill="white" transform="translate(1033.01 921.2) rotate(-175.733)"/>
</clipPath>
<clipPath id="clip1_201_3">
<rect width="1865.18" height="1348.17" fill="white" transform="translate(709 371.421) rotate(-16.0099)"/>
</clipPath>
</defs>
</svg>
