<svg width="360" height="102" viewBox="0 0 360 102" fill="none" xmlns="http://www.w3.org/2000/svg">
<path fill-rule="evenodd" clip-rule="evenodd" d="M30.35 81.06L30.43 80.47L30.15 81.06H30.35ZM0 0H69.53L55.93 28.13L55.9 28.19L30.35 81.06H69.52V101.77H0L38.56 20.71H0V0Z" fill="black"/>
<path fill-rule="evenodd" clip-rule="evenodd" d="M85.14 0C113.25 0 136.03 22.78 136.03 50.89C136.03 60.79 133.2 70.02 128.31 77.84L139.41 88.94L128.93 99.42L118.68 89.17C109.73 97.02 97.99 101.79 85.14 101.79C83.19 101.79 81.27 101.68 79.37 101.46V82.96C81.24 83.29 83.17 83.47 85.14 83.47C92.93 83.47 100.08 80.74 105.69 76.17L95.43 65.91L105.91 55.43L114.82 64.34C116.68 60.24 117.72 55.68 117.72 50.88C117.72 32.88 103.13 18.3 85.14 18.3C83.17 18.3 81.24 18.47 79.37 18.81V0.33C81.27 0.11 83.19 0 85.14 0Z" fill="black"/>
<path d="M285.01 43.85C284.56 43.85 284.34 43.61 284.34 43.13V16.74C284.34 13.93 285.15 11.65 286.76 9.90003C288.37 8.15003 290.5 7.28003 293.14 7.28003C295.78 7.28003 297.91 8.15003 299.54 9.90003C301.17 11.65 301.98 13.93 301.98 16.74V43.12C301.98 43.6 301.74 43.84 301.26 43.84H298.02C297.81 43.84 297.64 43.78 297.51 43.66C297.37 43.54 297.3 43.36 297.3 43.12V16.54C297.3 15.07 296.92 13.88 296.17 12.99C295.42 12.1 294.4 11.65 293.14 11.65C291.87 11.65 290.86 12.1 290.11 12.99C289.35 13.88 288.98 15.06 288.98 16.54V43.13C288.98 43.61 288.76 43.85 288.31 43.85H285.01ZM265.99 8.51003C265.99 8.07003 266.23 7.84003 266.71 7.84003H269.95C270.4 7.84003 270.62 8.06003 270.62 8.51003V43.12C270.62 43.6 270.4 43.84 269.95 43.84H266.71C266.23 43.84 265.99 43.6 265.99 43.12V8.51003ZM243.99 7.28003C246.56 7.28003 248.6 8.14003 250.11 9.88003C251.62 11.61 252.37 13.93 252.37 16.85V43.13C252.37 43.61 252.13 43.85 251.65 43.85H248.41C247.96 43.85 247.74 43.61 247.74 43.13V16.64C247.74 15.03 247.41 13.79 246.76 12.94C246.11 12.08 245.18 11.65 243.98 11.65C242.81 11.65 241.89 12.09 241.2 12.96C240.51 13.83 240.17 15.06 240.17 16.64V43.13C240.17 43.61 239.95 43.85 239.5 43.85H236.26C235.81 43.85 235.59 43.61 235.59 43.13V16.64C235.59 15.06 235.25 13.84 234.56 12.96C233.87 12.09 232.97 11.65 231.83 11.65C230.6 11.65 229.65 12.08 229 12.94C228.35 13.8 228.02 15.03 228.02 16.64V43.13C228.02 43.61 227.8 43.85 227.35 43.85H224.11C223.66 43.85 223.44 43.61 223.44 43.13V16.85C223.44 13.94 224.2 11.61 225.7 9.88003C227.21 8.15003 229.25 7.28003 231.82 7.28003C233.19 7.28003 234.36 7.56003 235.32 8.13003C236.28 8.70003 237.14 9.49003 237.89 10.52C239.5 8.36003 241.52 7.28003 243.99 7.28003ZM205.43 27.44V16.59C205.43 15.05 205.07 13.85 204.35 12.99C203.63 12.13 202.6 11.7 201.27 11.7C199.97 11.7 198.95 12.13 198.21 12.99C197.47 13.85 197.11 15.05 197.11 16.59V27.44H205.43ZM193.13 43.85C192.68 43.85 192.46 43.61 192.46 43.13V16.8C192.46 13.95 193.27 11.66 194.88 9.93003C196.49 8.20003 198.62 7.33003 201.26 7.33003C203.9 7.33003 206.03 8.20003 207.66 9.93003C209.29 11.66 210.1 13.95 210.1 16.8V43.13C210.1 43.61 209.86 43.85 209.38 43.85H206.14C205.93 43.85 205.76 43.79 205.63 43.67C205.49 43.55 205.42 43.37 205.42 43.13V31.71H197.09V43.13C197.09 43.61 196.87 43.85 196.42 43.85H193.13ZM179.72 39.53C180.17 39.53 180.39 39.77 180.39 40.25V43.13C180.39 43.61 180.17 43.85 179.72 43.85H165.22C164.5 43.85 163.94 43.65 163.55 43.26C163.15 42.87 162.96 42.33 162.96 41.64V40.66C162.96 40.08 163 39.58 163.09 39.17C163.17 38.76 163.32 38.33 163.53 37.88L175.51 12.17H164.76C164.31 12.17 164.09 11.93 164.09 11.45V8.51003C164.09 8.07003 164.31 7.84003 164.76 7.84003H177.98C179.45 7.84003 180.21 8.56003 180.24 10V10.98C180.27 11.56 180.26 12.06 180.19 12.47C180.12 12.88 179.98 13.31 179.78 13.76L167.69 39.53H179.72Z" fill="black"/>
<path d="M355.18 52.26C355.18 51.81 355.42 51.59 355.9 51.59H359.14C359.58 51.59 359.81 51.81 359.81 52.26V86.87C359.81 87.35 359.59 87.59 359.14 87.59H355.9C355.42 87.59 355.18 87.35 355.18 86.87V71.49H347.26V86.87C347.26 87.35 347.04 87.59 346.59 87.59H343.35C342.87 87.59 342.63 87.35 342.63 86.87V52.26C342.63 51.81 342.87 51.59 343.35 51.59H346.59C347.04 51.59 347.26 51.81 347.26 52.26V67.23H355.18V52.26ZM322.17 88.16C319.49 88.16 317.35 87.24 315.74 85.41C314.13 83.57 313.27 81.1 313.17 77.98C313.17 77.5 313.41 77.26 313.89 77.26H317.13C317.54 77.26 317.78 77.48 317.85 77.93C317.95 81.84 319.41 83.79 322.22 83.79C323.59 83.79 324.63 83.43 325.33 82.71C326.03 81.99 326.38 80.93 326.38 79.52C326.38 77.84 325.88 76.36 324.89 75.07C323.9 73.78 322.42 72.28 320.47 70.57C318.93 69.23 317.7 68.07 316.79 67.1C315.88 66.12 315.1 64.98 314.45 63.65C313.8 62.33 313.47 60.86 313.47 59.25C313.47 56.75 314.24 54.75 315.79 53.26C317.33 51.77 319.39 51.02 321.96 51.02C324.46 51.02 326.49 51.91 328.05 53.69C329.61 55.47 330.44 57.87 330.54 60.89C330.54 61.34 330.32 61.56 329.87 61.56H326.63C326.19 61.56 325.96 61.34 325.96 60.89C325.82 57.19 324.5 55.34 322 55.34C320.73 55.34 319.76 55.67 319.09 56.34C318.42 57.01 318.09 57.98 318.09 59.25C318.09 60.28 318.34 61.25 318.84 62.16C319.34 63.07 319.95 63.9 320.67 64.65C321.39 65.4 322.4 66.35 323.7 67.48C325.28 68.82 326.55 70 327.53 71.03C328.51 72.06 329.34 73.28 330.02 74.71C330.71 76.13 331.05 77.73 331.05 79.52C331.05 82.16 330.24 84.26 328.61 85.82C327 87.38 324.84 88.16 322.17 88.16ZM296.72 52.26C296.72 51.81 296.96 51.59 297.44 51.59H300.68C301.13 51.59 301.35 51.81 301.35 52.26V86.87C301.35 87.35 301.13 87.59 300.68 87.59H297.44C296.96 87.59 296.72 87.35 296.72 86.87V52.26ZM285.37 83.43C285.85 83.43 286.09 83.67 286.09 84.15V87.08C286.09 87.53 285.85 87.75 285.37 87.75H280.18C277.61 87.75 275.55 86.9 274.01 85.2C272.47 83.5 271.7 81.33 271.7 78.69V52.26C271.7 51.81 271.92 51.59 272.37 51.59H275.66C276.14 51.59 276.38 51.81 276.38 52.26V78.54C276.38 79.98 276.76 81.15 277.51 82.06C278.26 82.97 279.24 83.42 280.44 83.42H285.37V83.43ZM254.47 52.26C254.47 51.81 254.71 51.59 255.19 51.59H258.43C258.88 51.59 259.1 51.81 259.1 52.26V86.87C259.1 87.35 258.88 87.59 258.43 87.59H255.19C254.71 87.59 254.47 87.35 254.47 86.87V52.26ZM232.77 69.75C234.11 69.75 235.17 69.3 235.96 68.39C236.75 67.48 237.14 66.27 237.14 64.76V60.34C237.14 58.87 236.75 57.68 235.98 56.77C235.21 55.86 234.21 55.41 232.97 55.41C231.74 55.41 230.73 55.86 229.96 56.77C229.19 57.68 228.8 58.87 228.8 60.34V69.75H232.77ZM224.85 87.59C224.4 87.59 224.18 87.35 224.18 86.87V60.54C224.18 58.69 224.55 57.04 225.29 55.6C226.03 54.16 227.06 53.04 228.38 52.23C229.7 51.42 231.22 51.02 232.93 51.02C235.57 51.02 237.71 51.9 239.36 53.67C241.01 55.44 241.83 57.72 241.83 60.53V64.65C241.83 66.57 241.42 68.24 240.6 69.66C239.78 71.08 238.66 72.17 237.26 72.93L242.76 86.81L242.81 87.02C242.81 87.19 242.74 87.33 242.6 87.43C242.46 87.53 242.29 87.59 242.09 87.59H238.59C238.21 87.59 237.97 87.38 237.87 86.97L232.98 74.01H228.81V86.87C228.81 87.35 228.59 87.59 228.14 87.59H224.85ZM197.76 51.59C198.21 51.59 198.43 51.81 198.43 52.26V78.9C198.43 80.38 198.81 81.56 199.56 82.45C200.31 83.34 201.33 83.79 202.59 83.79C203.86 83.79 204.87 83.34 205.63 82.45C206.38 81.56 206.76 80.38 206.76 78.9V52.26C206.76 52.05 206.83 51.89 206.97 51.77C207.11 51.65 207.28 51.59 207.48 51.59H210.72C211.2 51.59 211.44 51.81 211.44 52.26V78.64C211.44 81.45 210.63 83.74 209.02 85.51C207.41 87.28 205.27 88.16 202.59 88.16C199.95 88.16 197.82 87.28 196.21 85.51C194.6 83.74 193.79 81.46 193.79 78.64V52.26C193.79 51.81 194.01 51.59 194.46 51.59H197.76ZM172.06 83.79C172.47 83.79 172.95 83.72 173.5 83.58L172.06 82.09C171.92 81.95 171.85 81.78 171.85 81.58C171.85 81.37 171.92 81.22 172.06 81.12L173.7 79.53C173.87 79.36 174.03 79.27 174.16 79.27C174.33 79.27 174.5 79.35 174.67 79.53L176.11 81.02C176.35 80.44 176.47 79.77 176.47 79.01V60.18C176.47 58.77 176.06 57.63 175.24 56.74C174.42 55.85 173.35 55.4 172.05 55.4C170.75 55.4 169.69 55.85 168.89 56.74C168.08 57.63 167.68 58.78 167.68 60.18V79C167.68 80.41 168.08 81.55 168.89 82.45C169.7 83.34 170.75 83.79 172.06 83.79ZM181.42 86.36C181.59 86.53 181.68 86.7 181.68 86.87C181.68 87.01 181.59 87.16 181.42 87.33L179.83 88.92C179.66 89.09 179.5 89.18 179.37 89.18C179.2 89.18 179.03 89.09 178.86 88.92L176.85 86.86C175.48 87.68 173.88 88.1 172.07 88.1C170.32 88.1 168.75 87.7 167.36 86.89C165.97 86.08 164.89 84.98 164.12 83.57C163.35 82.16 162.96 80.57 162.96 78.79V60.39C162.96 58.61 163.35 57.01 164.12 55.61C164.89 54.2 165.97 53.1 167.36 52.29C168.75 51.48 170.32 51.08 172.07 51.08C173.85 51.08 175.43 51.48 176.8 52.29C178.17 53.1 179.24 54.2 180.01 55.61C180.78 57.02 181.17 58.61 181.17 60.39V78.8C181.17 80.96 180.62 82.83 179.52 84.41L181.42 86.36Z" fill="black"/>
<path d="M360 94.66L357.7 99.17V101.66H356.11V99.2L353.87 94.66H355.68L356.81 97.27C356.83 97.32 356.88 97.51 356.97 97.84H356.99C357.03 97.61 357.08 97.42 357.14 97.29L358.3 94.66H360ZM349.69 101.66H348.09L345.19 97.26C345.02 97 344.9 96.81 344.83 96.68H344.81C344.84 96.93 344.85 97.31 344.85 97.81V101.66H343.35V94.66H345.06L347.86 98.92C347.99 99.11 348.11 99.3 348.21 99.49H348.23C348.2 99.33 348.19 99.01 348.19 98.53V94.66H349.69V101.66ZM336.48 98.89L335.72 96.54C335.66 96.36 335.62 96.15 335.6 95.91H335.56C335.54 96.11 335.5 96.32 335.44 96.52L334.67 98.89H336.48ZM339.08 101.66H337.35L336.85 100.1H334.34L333.84 101.66H332.12L334.69 94.66H336.57L339.08 101.66ZM325.49 95.87V98.05H326.12C326.97 98.05 327.39 97.68 327.39 96.95C327.39 96.23 326.97 95.87 326.12 95.87H325.49ZM325.49 99.25V101.66H323.9V94.66H326.39C328.17 94.66 329.05 95.4 329.05 96.89C329.05 97.59 328.79 98.16 328.28 98.6C327.77 99.03 327.09 99.25 326.24 99.25H325.49ZM318.91 101.66H317.34V97.47C317.34 97.02 317.36 96.52 317.4 95.97H317.36C317.28 96.4 317.2 96.71 317.14 96.9L315.49 101.66H314.19L312.51 96.95C312.47 96.82 312.39 96.5 312.29 95.97H312.24C312.28 96.66 312.3 97.27 312.3 97.79V101.66H310.87V94.66H313.2L314.64 98.81C314.75 99.14 314.84 99.47 314.89 99.81H314.92C315.01 99.42 315.1 99.09 315.2 98.8L316.64 94.66H318.91V101.66ZM302.9 95.9C302.34 95.9 301.9 96.11 301.57 96.52C301.24 96.93 301.08 97.48 301.08 98.17C301.08 98.86 301.24 99.41 301.57 99.82C301.9 100.22 302.33 100.42 302.86 100.42C303.41 100.42 303.84 100.22 304.16 99.83C304.48 99.44 304.64 98.89 304.64 98.2C304.64 97.47 304.48 96.91 304.17 96.51C303.87 96.1 303.45 95.9 302.9 95.9ZM302.84 101.78C301.83 101.78 301.01 101.45 300.37 100.8C299.73 100.15 299.42 99.3 299.42 98.25C299.42 97.14 299.74 96.25 300.39 95.57C301.04 94.89 301.89 94.54 302.96 94.54C303.97 94.54 304.78 94.87 305.4 95.52C306.02 96.17 306.33 97.04 306.33 98.11C306.33 99.21 306.01 100.1 305.36 100.77C304.71 101.44 303.87 101.78 302.84 101.78ZM295.36 101.41C294.85 101.66 294.17 101.78 293.34 101.78C292.26 101.78 291.41 101.46 290.79 100.83C290.17 100.2 289.86 99.36 289.86 98.3C289.86 97.18 290.21 96.27 290.9 95.58C291.6 94.88 292.5 94.54 293.61 94.54C294.3 94.54 294.88 94.63 295.35 94.8V96.32C294.88 96.04 294.34 95.9 293.74 95.9C293.08 95.9 292.54 96.11 292.14 96.52C291.73 96.93 291.53 97.49 291.53 98.2C291.53 98.88 291.72 99.42 292.11 99.82C292.49 100.22 293.01 100.42 293.66 100.42C294.28 100.42 294.85 100.27 295.36 99.97V101.41ZM276.98 101.66H275.38L272.47 97.26C272.3 97 272.18 96.81 272.12 96.68H272.1C272.13 96.93 272.14 97.31 272.14 97.81V101.66H270.64V94.66H272.35L275.15 98.92C275.28 99.11 275.4 99.3 275.51 99.49H275.53C275.5 99.33 275.49 99.01 275.49 98.53V94.66H276.99V101.66H276.98ZM262.66 95.9C262.1 95.9 261.66 96.11 261.33 96.52C261 96.93 260.84 97.48 260.84 98.17C260.84 98.86 261 99.41 261.33 99.82C261.66 100.22 262.09 100.42 262.62 100.42C263.17 100.42 263.6 100.22 263.92 99.83C264.24 99.44 264.4 98.89 264.4 98.2C264.4 97.47 264.24 96.91 263.93 96.51C263.63 96.1 263.2 95.9 262.66 95.9ZM262.59 101.78C261.58 101.78 260.76 101.45 260.12 100.8C259.48 100.15 259.17 99.3 259.17 98.25C259.17 97.14 259.49 96.25 260.14 95.57C260.79 94.89 261.64 94.54 262.71 94.54C263.72 94.54 264.53 94.87 265.15 95.52C265.77 96.17 266.08 97.04 266.08 98.11C266.08 99.21 265.76 100.1 265.11 100.77C264.47 101.44 263.63 101.78 262.59 101.78ZM254.63 101.66H253.04V94.66H254.63V101.66ZM248.7 95.94H246.69V101.66H245.1V95.94H243.1V94.66H248.7V95.94ZM239.14 101.41C238.63 101.66 237.95 101.78 237.12 101.78C236.04 101.78 235.19 101.46 234.57 100.83C233.95 100.2 233.64 99.36 233.64 98.3C233.64 97.18 233.99 96.27 234.68 95.58C235.38 94.88 236.28 94.54 237.39 94.54C238.08 94.54 238.66 94.63 239.13 94.8V96.32C238.66 96.04 238.12 95.9 237.52 95.9C236.86 95.9 236.32 96.11 235.92 96.52C235.51 96.93 235.31 97.49 235.31 98.2C235.31 98.88 235.5 99.42 235.89 99.82C236.27 100.22 236.79 100.42 237.44 100.42C238.06 100.42 238.63 100.27 239.14 99.97V101.41ZM229.16 98.63C229.16 100.73 228.17 101.78 226.2 101.78C224.29 101.78 223.33 100.75 223.33 98.7V94.66H224.92V98.72C224.92 99.85 225.37 100.42 226.26 100.42C227.13 100.42 227.57 99.87 227.57 98.78V94.66H229.16V98.63ZM215.04 95.84V97.79H215.73C216.07 97.79 216.34 97.69 216.55 97.5C216.76 97.3 216.87 97.06 216.87 96.76C216.87 96.15 216.5 95.84 215.76 95.84H215.04ZM219.37 101.66H217.55L216.45 99.86C216.37 99.72 216.29 99.6 216.21 99.49C216.13 99.38 216.06 99.29 215.98 99.22C215.9 99.14 215.82 99.08 215.74 99.04C215.66 99 215.57 98.98 215.47 98.98H215.04V101.66H213.45V94.66H215.97C217.68 94.66 218.54 95.29 218.54 96.56C218.54 96.8 218.5 97.03 218.43 97.24C218.35 97.45 218.25 97.63 218.11 97.8C217.97 97.97 217.81 98.11 217.61 98.23C217.41 98.35 217.2 98.44 216.96 98.51V98.53C217.07 98.56 217.17 98.61 217.27 98.69C217.37 98.76 217.46 98.85 217.56 98.95C217.65 99.05 217.74 99.15 217.82 99.26C217.9 99.37 217.98 99.48 218.05 99.59L219.37 101.66ZM209.12 95.94H207.11V101.66H205.52V95.94H203.52V94.66H209.13V95.94H209.12ZM194.81 101.39V99.83C195.1 100.07 195.41 100.25 195.74 100.37C196.07 100.49 196.41 100.55 196.75 100.55C196.95 100.55 197.13 100.53 197.27 100.5C197.42 100.46 197.54 100.42 197.64 100.35C197.74 100.29 197.81 100.21 197.86 100.13C197.91 100.04 197.93 99.95 197.93 99.85C197.93 99.71 197.89 99.59 197.81 99.48C197.73 99.37 197.62 99.27 197.49 99.18C197.35 99.09 197.19 99 197 98.92C196.81 98.84 196.61 98.75 196.4 98.66C195.85 98.43 195.44 98.16 195.17 97.83C194.9 97.5 194.77 97.1 194.77 96.64C194.77 96.27 194.84 95.96 194.99 95.7C195.14 95.44 195.34 95.22 195.59 95.05C195.84 94.88 196.14 94.76 196.47 94.68C196.8 94.6 197.16 94.56 197.53 94.56C197.9 94.56 198.22 94.58 198.51 94.63C198.79 94.67 199.05 94.74 199.29 94.83V96.29C199.17 96.21 199.04 96.14 198.9 96.08C198.76 96.02 198.62 95.97 198.47 95.92C198.32 95.88 198.18 95.85 198.03 95.83C197.88 95.81 197.75 95.8 197.62 95.8C197.44 95.8 197.28 95.82 197.13 95.85C196.98 95.88 196.86 95.93 196.76 95.99C196.66 96.05 196.58 96.13 196.52 96.21C196.46 96.3 196.44 96.39 196.44 96.5C196.44 96.62 196.47 96.72 196.53 96.81C196.59 96.9 196.68 96.99 196.8 97.08C196.91 97.16 197.05 97.24 197.22 97.32C197.38 97.4 197.57 97.48 197.78 97.57C198.06 97.69 198.31 97.81 198.54 97.94C198.77 98.07 198.96 98.22 199.12 98.39C199.28 98.56 199.4 98.75 199.49 98.96C199.58 99.17 199.62 99.42 199.62 99.7C199.62 100.09 199.55 100.42 199.4 100.69C199.25 100.95 199.05 101.17 198.79 101.33C198.53 101.49 198.24 101.61 197.9 101.69C197.56 101.76 197.2 101.8 196.82 101.8C196.43 101.8 196.07 101.77 195.72 101.7C195.37 101.62 195.07 101.52 194.81 101.39ZM190.14 101.66H188.54L185.63 97.26C185.46 97 185.34 96.81 185.28 96.68H185.26C185.28 96.93 185.3 97.31 185.3 97.81V101.66H183.8V94.66H185.51L188.31 98.92C188.44 99.11 188.55 99.3 188.66 99.49H188.68C188.65 99.33 188.64 99.01 188.64 98.53V94.66H190.14V101.66ZM175.82 95.9C175.26 95.9 174.82 96.11 174.49 96.52C174.16 96.93 174 97.48 174 98.17C174 98.86 174.17 99.41 174.49 99.82C174.82 100.22 175.25 100.42 175.78 100.42C176.33 100.42 176.76 100.22 177.08 99.83C177.4 99.44 177.56 98.89 177.56 98.2C177.56 97.47 177.4 96.91 177.09 96.51C176.79 96.1 176.36 95.9 175.82 95.9ZM175.75 101.78C174.74 101.78 173.92 101.45 173.28 100.8C172.64 100.15 172.33 99.3 172.33 98.25C172.33 97.14 172.65 96.25 173.3 95.57C173.95 94.89 174.8 94.54 175.87 94.54C176.88 94.54 177.69 94.87 178.31 95.52C178.93 96.17 179.24 97.04 179.24 98.11C179.24 99.21 178.92 100.1 178.27 100.77C177.63 101.44 176.79 101.78 175.75 101.78ZM168.28 101.41C167.77 101.66 167.09 101.78 166.26 101.78C165.18 101.78 164.33 101.46 163.71 100.83C163.09 100.2 162.78 99.36 162.78 98.3C162.78 97.18 163.13 96.27 163.82 95.58C164.52 94.88 165.42 94.54 166.53 94.54C167.22 94.54 167.8 94.63 168.27 94.8V96.32C167.8 96.04 167.26 95.9 166.66 95.9C166 95.9 165.46 96.11 165.06 96.52C164.65 96.93 164.45 97.49 164.45 98.2C164.45 98.88 164.64 99.42 165.03 99.82C165.41 100.22 165.93 100.42 166.58 100.42C167.2 100.42 167.77 100.27 168.28 99.97V101.41Z" fill="black"/>
<path d="M330.1 35.16H330.72C331.61 35.16 332.16 35.12 332.37 35.06C332.58 34.99 332.75 34.88 332.88 34.71C333 34.54 333.06 34.35 333.06 34.13C333.06 33.92 333 33.73 332.88 33.57C332.76 33.41 332.59 33.29 332.36 33.22C332.14 33.15 331.59 33.12 330.71 33.12H330.09V35.16H330.1ZM328.55 39.49V31.9H330.09C331.53 31.9 332.35 31.91 332.52 31.92C333.03 31.96 333.43 32.06 333.71 32.22C333.99 32.38 334.23 32.62 334.42 32.95C334.61 33.28 334.7 33.64 334.7 34.04C334.7 34.59 334.52 35.06 334.16 35.45C333.8 35.84 333.3 36.08 332.65 36.18C332.88 36.27 333.06 36.36 333.18 36.46C333.3 36.56 333.48 36.76 333.69 37.04C333.75 37.12 333.93 37.42 334.25 37.97L335.14 39.5H333.22L332.59 38.26C332.16 37.43 331.81 36.91 331.54 36.69C331.26 36.48 330.91 36.37 330.48 36.37H330.08V39.49H328.55ZM331.8 29.91C330.81 29.91 329.87 30.16 328.96 30.65C328.06 31.14 327.34 31.85 326.82 32.77C326.3 33.69 326.04 34.66 326.04 35.67C326.04 36.67 326.29 37.63 326.8 38.54C327.31 39.45 328.02 40.16 328.93 40.67C329.84 41.18 330.8 41.44 331.79 41.44C332.79 41.44 333.75 41.18 334.66 40.67C335.57 40.16 336.28 39.45 336.79 38.54C337.3 37.63 337.56 36.67 337.56 35.67C337.56 34.66 337.3 33.69 336.78 32.77C336.26 31.85 335.55 31.14 334.64 30.65C333.73 30.15 332.78 29.91 331.8 29.91ZM331.79 28.49C333.02 28.49 334.2 28.8 335.33 29.41C336.46 30.02 337.35 30.91 337.99 32.05C338.63 33.2 338.96 34.4 338.96 35.65C338.96 36.9 338.64 38.09 338.01 39.22C337.37 40.35 336.49 41.23 335.36 41.87C334.23 42.5 333.04 42.82 331.79 42.82C330.54 42.82 329.35 42.5 328.22 41.87C327.09 41.23 326.21 40.35 325.57 39.22C324.94 38.09 324.62 36.9 324.62 35.65C324.62 34.4 324.94 33.19 325.59 32.05C326.24 30.9 327.12 30.02 328.25 29.41C329.38 28.79 330.56 28.49 331.79 28.49Z" fill="black"/>
</svg>
