<svg width="12" height="60" viewBox="0 0 12 60" fill="none" xmlns="http://www.w3.org/2000/svg">
<path d="M-2.01422e-07 4.608L-2.86747e-08 0.655999L11.84 0.656L-2.01422e-07 4.608ZM-6.89591e-07 15.776L-5.17543e-07 11.84L-6.89591e-07 15.776ZM4.592 11.84L11.84 11.84L11.84 15.776L-6.89591e-07 15.776L-5.17543e-07 11.84L7.248 4.608L-2.01422e-07 4.608L-2.86747e-08 0.655999L11.84 0.656L11.84 4.608L4.592 11.84ZM4.608 28.4531L4.608 21.0611L2.8 21.0611L2.864 29.7971L-1.30247e-06 29.7971L-7.47864e-07 17.1091L11.84 17.1091L11.84 29.7971L8.976 29.8131L8.976 21.0611L7.408 21.0611L7.408 28.4531L4.608 28.4531ZM11.84 40.6024L11.84 45.0504L5.872 40.4264L-1.96921e-06 45.0504L-1.77479e-06 40.6024L3.664 37.6904L-1.52021e-06 34.7784L-1.32578e-06 30.3304L5.872 34.9704L11.84 30.3304L11.84 34.7784L8.16 37.6904L11.84 40.6024ZM8.64 45.5566L11.84 45.5566L11.84 59.5406L8.64 45.5566ZM11.84 59.5406L8.624 59.5406L8.624 54.5486L-2.3844e-06 54.5486L-2.21235e-06 50.6126L8.624 50.6126L8.624 45.5566L11.84 45.5566L11.84 59.5406Z" fill="white"/>
</svg>
