<svg width="208" height="56" viewBox="0 0 208 56" fill="none" xmlns="http://www.w3.org/2000/svg">
<path d="M1.17978 28.8532H50.9097C54.723 28.8532 56.6688 27.5499 56.6688 25.4847V24.3968C56.6688 22.823 54.7957 21.4646 52.1622 21.2437L10.9591 18.4716C4.64645 18.0408 0 15.3239 0 10.7019V8.15068C0 3.15314 5.06021 0 11.8594 0H61.3097V5.1632H12.8994C9.22581 5.1632 7.62667 6.95789 7.62667 8.47648V9.72449C7.62667 11.6241 9.49978 13.0378 12.3402 13.2587L54.4379 16.1357C60.4039 16.5167 64.2843 19.344 64.2843 23.7397V26.186C64.2843 30.8577 58.9445 34.0661 52.3523 34.0661H1.17978V28.8532Z" fill="white"/>
<path d="M121.512 34.0661L82.5346 17.1683V34.0661H74.8353V0H82.5346V16.5719L121.372 0H135.245L95.5011 16.8425L135.452 34.0661H121.512Z" fill="white"/>
<path d="M208 0L177.829 21.9505V34.0661H170.269V21.9505L139.751 0H150.157L173.948 17.1683L197.667 0H208Z" fill="white"/>
<path d="M57.5075 54.7136H52.3243L51.4129 56.0002H50.166L54.4714 49.9811H55.3548L59.6434 56.0002H58.4077L57.5075 54.7136ZM56.8589 53.7914L54.9131 51.0469L52.9785 53.7914H56.8589Z" fill="white"/>
<path d="M69.7918 54.0893V51.9357C69.7918 50.7264 70.6585 49.9753 71.8998 49.9753H78.5312V50.8865H72.1905C71.2176 50.8865 70.8598 51.4553 70.8598 52.1235V53.8519C70.8598 54.6305 71.3854 55.0723 72.1122 55.0723H77.6365V52.6591H78.7436V55.9889H71.9165C70.7144 56 69.7918 55.2711 69.7918 54.0893Z" fill="white"/>
<path d="M89.96 49.9809H98.4757V50.892H91.0392V52.4769H97.788V53.3991H91.0392V55.0778H98.4757V56H89.96V49.9809Z" fill="white"/>
<path d="M118.571 49.9809V56H117.542L110.492 51.1239V56H109.452V49.9809H110.492L117.542 54.8569V49.9809H118.571Z" fill="white"/>
<path d="M129.788 54.0893V51.9357C129.788 50.7264 130.654 49.9753 131.895 49.9753H137.778V50.8865H132.186C131.213 50.8865 130.855 51.4553 130.855 52.1235V53.8519C130.855 54.6305 131.381 55.0723 132.108 55.0723H137.778V55.9945H131.912C130.71 56 129.788 55.2711 129.788 54.0893Z" fill="white"/>
<path d="M157.834 49.9809L153.601 53.8629V56.0055H152.539V53.8629L148.261 49.9809H149.721L153.059 53.018L156.386 49.9809H157.834Z" fill="white"/>
</svg>
