<svg width="12" height="61" viewBox="0 0 12 61" fill="none" xmlns="http://www.w3.org/2000/svg">
<path d="M11.84 9.6C11.84 10.592 11.6747 11.4667 11.344 12.224C11.0133 12.992 10.5493 13.584 9.952 14C9.36533 14.4267 8.68267 14.64 7.904 14.64L7.84 14.64C6.56 14.64 5.568 14.2027 4.864 13.328C4.17067 12.4533 3.824 11.2587 3.824 9.744L3.824 4.608L-2.01422e-07 4.608L-2.86747e-08 0.655999L11.84 0.656L11.84 9.6ZM6.624 8.896C6.624 9.45067 6.64 9.86133 6.672 10.128C6.704 10.4053 6.80533 10.6347 6.976 10.816C7.14667 10.9973 7.42933 11.088 7.824 11.088C8.22933 11.088 8.52267 10.9973 8.704 10.816C8.88533 10.6347 8.99733 10.4 9.04 10.112C9.08267 9.824 9.104 9.41867 9.104 8.896L9.104 8.368C9.104 8.15467 9.09867 7.78133 9.088 7.248C9.088 6.71467 9.088 5.83467 9.088 4.608L6.624 4.608L6.624 8.88L6.624 8.896ZM0.0159989 25.1288L3.84 21.8487L3.84 19.4007L0.0159992 19.4007L0.0159993 15.6247L11.856 15.6247L11.856 24.5688C11.856 25.5608 11.6907 26.4354 11.36 27.1928C11.0293 27.9608 10.5653 28.5528 9.968 28.9688C9.38133 29.3954 8.69867 29.6088 7.92 29.6088L7.856 29.6088C6.84267 29.6087 6.00533 29.3101 5.344 28.7128C4.68267 28.1261 4.24 27.3101 4.016 26.2648L0.0159987 29.7048L0.0159989 25.1288ZM7.824 25.8968C8.24 25.8968 8.544 25.8061 8.736 25.6247C8.928 25.4541 9.04533 25.2301 9.088 24.9527C9.13067 24.6754 9.152 24.2701 9.152 23.7368L9.152 23.1608C9.13067 22.3714 9.12 21.1181 9.12 19.4007L6.576 19.4007L6.576 23.7047L6.576 23.7368C6.576 24.2701 6.59733 24.6754 6.64 24.9527C6.68267 25.2301 6.78933 25.4541 6.96 25.6247C7.14133 25.8061 7.42933 25.8968 7.824 25.8968ZM4.608 42.0313L4.608 34.6392L2.8 34.6392L2.864 43.3753L-1.89599e-06 43.3753L-1.34138e-06 30.6872L11.84 30.6872L11.84 43.3753L8.976 43.3913L8.976 34.6393L7.408 34.6392L7.408 42.0313L4.608 42.0313ZM-2.19696e-06 50.2605L11.84 56.7405L-2.19696e-06 50.2605ZM3.744 52.3085L11.84 56.7405L11.84 60.7405L-2.38229e-06 54.5005L-2.18647e-06 50.0205L11.84 43.8285L11.84 48.1165L3.744 52.3085Z" fill="white"/>
</svg>
