<svg width="14" height="155" viewBox="0 0 14 155" fill="none" xmlns="http://www.w3.org/2000/svg">
<path d="M8.04 9.328C8.04 10.3733 7.96533 11.2853 7.816 12.064C7.67733 12.8533 7.37333 13.5093 6.904 14.032C6.43467 14.5653 5.752 14.832 4.856 14.832C3.20267 14.832 2.08267 14.096 1.496 12.624C0.919999 11.1627 0.632 9.52 0.632 7.696C0.632 5.88267 0.925333 4.20267 1.512 2.656C2.10933 1.10933 3.24 0.336001 4.904 0.336001L4.92 4.416C4.184 4.416 3.71467 4.74667 3.512 5.408C3.32 6.08 3.224 6.864 3.224 7.76C3.224 8.60267 3.34667 9.32267 3.592 9.92C3.83733 10.528 4.23733 10.832 4.792 10.832L4.808 10.832C5.11733 10.832 5.34667 10.6453 5.496 10.272C5.64533 9.89867 5.736 9.49867 5.768 9.072C5.8 8.64534 5.82133 8.13333 5.832 7.536L5.832 6.336C5.832 5.184 5.90133 4.18134 6.04 3.328C6.18933 2.48533 6.50933 1.776 7 1.2C7.49067 0.624002 8.216 0.336002 9.176 0.336002C10.84 0.336002 11.9227 1.08267 12.424 2.576C12.936 4.08 13.192 5.78667 13.192 7.696C13.192 9.488 12.8987 11.1253 12.312 12.608C11.7253 14.0907 10.5947 14.832 8.92 14.832L8.92 10.816C9.45333 10.816 9.848 10.512 10.104 9.904C10.3707 9.30667 10.52 8.576 10.552 7.712C10.552 6.784 10.4453 6 10.232 5.36C10.0187 4.72 9.68267 4.4 9.224 4.4C8.744 4.4 8.424 4.72534 8.264 5.376C8.104 6.02667 8.024 6.76267 8.024 7.584L8.04 9.328ZM13.096 23.2679C13.096 24.7292 12.824 26.0465 12.28 27.2199C11.7467 28.4039 11.0053 29.3265 10.056 29.9879C9.11733 30.6599 8.056 30.9959 6.872 30.9959C5.69867 30.9959 4.64267 30.6599 3.704 29.9879C2.76533 29.3265 2.024 28.4092 1.48 27.2359C0.946666 26.0625 0.679999 24.7452 0.679999 23.2839C0.679999 21.8759 0.946666 20.5745 1.48 19.3799C2.024 18.1852 2.76533 17.2359 3.704 16.5319C4.65333 15.8385 5.70933 15.4919 6.872 15.4919C8.04533 15.4919 9.10667 15.8385 10.056 16.5319C11.0053 17.2359 11.7467 18.1799 12.28 19.3639C12.824 20.5585 13.096 21.8599 13.096 23.2679ZM3.672 23.2839C3.672 23.8812 3.8 24.4519 4.056 24.9959C4.312 25.5505 4.68 25.9985 5.16 26.3399C5.64 26.6812 6.21067 26.8519 6.872 26.8519C7.53333 26.8519 8.104 26.6759 8.584 26.3239C9.07467 25.9825 9.44267 25.5345 9.688 24.9799C9.944 24.4252 10.072 23.8492 10.072 23.2519C10.072 22.6439 9.944 22.0679 9.688 21.5239C9.432 20.9799 9.05867 20.5372 8.568 20.1959C8.088 19.8652 7.52267 19.6999 6.872 19.6999C6.21067 19.6999 5.64 19.8705 5.16 20.2119C4.68 20.5532 4.312 20.9959 4.056 21.5399C3.8 22.0945 3.672 22.6759 3.672 23.2839ZM6.904 31.6485C8.088 31.6485 9.15467 31.9952 10.104 32.6885C11.0533 33.3925 11.7947 34.3472 12.328 35.5525C12.872 36.7685 13.144 38.1125 13.144 39.5845C13.144 40.9072 12.9307 42.1018 12.504 43.1685C12.088 44.2352 11.496 45.1098 10.728 45.7925C9.97066 46.4752 9.08 46.9285 8.056 47.1525L8.056 43.0565C8.48267 42.8965 8.85067 42.6245 9.16 42.2405C9.48 41.8672 9.72 41.4458 9.88 40.9765C10.04 40.5072 10.12 40.0485 10.12 39.6005C10.12 38.9712 9.992 38.3578 9.736 37.7605C9.48 37.1738 9.10667 36.6938 8.616 36.3205C8.136 35.9578 7.56533 35.7765 6.904 35.7765C6.24267 35.7765 5.66667 35.9578 5.176 36.3205C4.696 36.6832 4.328 37.1525 4.072 37.7285C3.82667 38.3152 3.704 38.9392 3.704 39.6005C3.704 40.3365 3.88 41.0138 4.232 41.6325C4.584 42.2618 5.08533 42.7258 5.736 43.0245L5.736 47.1365C4.72266 46.9018 3.832 46.4432 3.064 45.7605C2.30666 45.0778 1.72 44.2085 1.304 43.1525C0.887998 42.0965 0.679998 40.9072 0.679998 39.5845C0.679998 38.1232 0.951998 36.7845 1.496 35.5685C2.04 34.3632 2.78667 33.4085 3.736 32.7045C4.68533 32.0005 5.74133 31.6485 6.904 31.6485ZM0.999998 52.0924L0.999998 48.1404L12.84 48.1404L12.84 52.0924L0.999998 52.0924ZM0.999997 69.326L0.999997 65.342L3.032 64.238L3.032 57.534L0.999998 56.43L0.999998 52.446L12.84 58.862L12.84 62.91L0.999997 69.326ZM9.224 60.894L5.704 58.974L5.704 62.798L9.224 60.894ZM12.84 73.6236L4.04 73.6236L4.04 81.0796L0.999996 81.0796L0.999997 69.6716L12.84 69.6716L12.84 73.6236ZM12.84 104.084L0.999995 104.084L0.999996 100.148L6.344 100.148L0.999996 97.5396L0.999996 93.9076L6.408 91.1236L0.999996 91.1236L0.999996 87.1716L12.84 87.1716L12.84 91.6836L4.696 95.7156L12.84 99.6836L12.84 104.084ZM5.608 116.75L5.608 109.358L3.8 109.358L3.86399 118.094L0.999995 118.094L0.999995 105.406L12.84 105.406L12.84 118.094L9.976 118.11L9.976 109.358L8.408 109.358L8.408 116.75L5.608 116.75ZM6.90399 132.723C5.78399 132.723 4.77599 132.425 3.87999 131.827C2.98399 131.241 2.27999 130.403 1.76799 129.315C1.25599 128.227 0.999994 126.963 0.999995 125.523L0.983995 125.523L0.983995 122.339L0.999995 122.339L0.999995 119.187L12.84 119.187L12.84 125.507C12.84 126.947 12.584 128.211 12.072 129.299C11.56 130.398 10.856 131.241 9.95999 131.827C9.06399 132.425 8.04533 132.723 6.90399 132.723ZM4.16799 125.603C4.16799 126.531 4.39199 127.299 4.83999 127.907C5.29866 128.526 5.98666 128.835 6.90399 128.835C7.41599 128.835 7.87999 128.686 8.29599 128.387C8.72266 128.089 9.05333 127.689 9.28799 127.187C9.53333 126.697 9.65599 126.169 9.65599 125.603L9.65599 123.139L4.16799 123.139L4.16799 125.603ZM0.999994 137.671L0.999994 133.719L12.84 133.719L12.84 137.671L0.999994 137.671ZM0.999993 154.904L0.999993 150.92L3.03199 149.816L3.03199 143.112L0.999994 142.008L0.999994 138.024L12.84 144.44L12.84 148.488L0.999993 154.904ZM9.22399 146.472L5.70399 144.552L5.70399 148.376L9.22399 146.472Z" fill="white"/>
</svg>
