<svg width="309" height="124" viewBox="0 0 309 124" fill="none" xmlns="http://www.w3.org/2000/svg">
<path d="M24.91 117.98C24.91 120.35 24.52 121.9 23.74 122.63C22.96 123.36 21.37 123.73 18.97 123.73H5.94C3.53 123.73 1.95 123.36 1.17 122.63C0.39 121.9 0 120.35 0 117.98V101.24H5.16V119.05H19.86V101.24H24.91V117.98Z" fill="#333333"/>
<path d="M53.15 123.73H29.86V121.32L45.91 105.28H29.9V101.24H53.15V103.65L37.34 119.47H53.15V123.73Z" fill="#333333"/>
<path d="M63.47 101.24H58.7V123.73H63.47V101.24Z" fill="#333333"/>
<path d="M95.3 123.73H90.81L73.83 107.97V123.73H69.12V101.24H73.5L90.64 116.95V101.24H95.3V123.73Z" fill="#333333"/>
<path d="M125.83 118.4C125.83 120.53 125.4 121.95 124.55 122.66C123.7 123.37 122.16 123.72 119.95 123.72H106.3C103.89 123.72 102.31 123.32 101.56 122.51C100.8 121.71 100.42 119.98 100.42 117.32H105.69V119.45H121V114.35H106.24C104.02 114.35 102.5 113.99 101.66 113.26C100.83 112.53 100.41 111.12 100.41 109.03V106.56C100.41 104.43 100.83 103.01 101.66 102.3C102.49 101.59 104.02 101.23 106.24 101.23H125.82V105.21H105.18V109.98H119.94C122.16 109.98 123.69 110.35 124.54 111.07C125.39 111.8 125.82 113.21 125.82 115.31V118.4H125.83Z" fill="#333333"/>
<path d="M155.98 117.98C155.98 120.35 155.59 121.9 154.81 122.63C154.03 123.36 152.44 123.73 150.04 123.73H137C134.59 123.73 133.01 123.36 132.23 122.63C131.45 121.9 131.06 120.35 131.06 117.98V101.24H136.22V119.05H150.92V101.24H155.97V117.98H155.98Z" fill="#333333"/>
<path d="M185.1 123.73H178.61L171.01 115.25H166.24V123.73H161.19V101.24H180.11C183.44 101.24 185.1 102.56 185.1 105.2V111.3C185.1 113.22 184.23 114.54 182.49 115.26H177.22L185.1 123.73ZM180.11 109.61V106.9C180.11 105.73 179.63 105.15 178.67 105.15H166.24V111.42H178.67C179.63 111.41 180.11 110.81 180.11 109.61Z" fill="#333333"/>
<path d="M221.06 123.73H215.57L212.35 118.83H196.37L193.32 123.73H187.66L201.53 101.24H207.02L221.06 123.73ZM209.8 114.71L204.31 105.58L198.82 114.71H209.8Z" fill="#333333"/>
<path d="M249.8 123.73H245.31L228.33 107.97V123.73H223.62V101.24H228L245.14 116.95V101.24H249.8V123.73Z" fill="#333333"/>
<path d="M279.44 118.4C279.44 120.51 279.04 121.93 278.25 122.65C277.45 123.37 276 123.73 273.9 123.73H260.53C258.38 123.73 256.91 123.37 256.12 122.65C255.32 121.93 254.93 120.51 254.93 118.4V106.57C254.93 104.5 255.33 103.09 256.12 102.35C256.91 101.61 258.38 101.24 260.53 101.24H273.9C277.49 101.28 279.34 102.52 279.45 104.96V108.29H274.23V105.24H260.14V119.51H274.23V116.18H279.45V118.4H279.44Z" fill="#333333"/>
<path d="M284.56 101.24H307.8V105.06H289.83V110.14H299.93V113.95H289.83V119.53H308.03V123.73H284.56V105.06V101.24Z" fill="#333333"/>
<path d="M154.01 89.97L140.83 76.79H122.2V58.16L109.03 44.99L122.2 31.82V13.18H140.83L154.01 0L167.19 13.18H185.82V31.81L199 44.99L185.82 58.17V76.8H167.19L154.01 89.97ZM126.81 72.18H142.74L154.01 83.45L165.28 72.18H181.21V56.25L192.48 44.98L181.21 33.71V17.79H165.28L154.01 6.52L142.74 17.79H126.81V33.73L115.55 44.99L126.81 56.25V72.18Z" fill="#333333"/>
<path d="M154.01 72.1898L146.04 64.2198H134.77V52.9498L126.8 44.9798L134.77 37.0098V25.7498H146.04L154.01 17.7798L161.98 25.7498H173.25V37.0198L181.22 44.9898L173.25 52.9598V64.2298H161.98L154.01 72.1898ZM137.84 61.1498H147.31L154.01 67.8498L160.71 61.1498H170.18V51.6798L176.88 44.9798L170.18 38.2798V28.8098H160.71L154.01 22.1098L147.31 28.8098H137.84V38.2798L131.14 44.9798L137.84 51.6798V61.1498Z" fill="#333333"/>
<path d="M154.01 61.1001L149.29 56.3801H142.62V49.7001L137.9 44.9801L142.62 40.2601V33.5901H149.29L154.01 28.8701L158.73 33.5901H165.4V40.2601L170.12 44.9801L165.4 49.7001V56.3701H158.73L154.01 61.1001ZM144.07 54.9301H149.9L154.02 59.0501L158.14 54.9301H163.97V49.1101L168.09 44.9901L163.97 40.8701V35.0401H158.14L154.02 30.9201L149.9 35.0401H144.07V40.8701L139.95 44.9901L144.07 49.1101V54.9301Z" fill="#333333"/>
</svg>
