<svg width="220" height="96" viewBox="0 0 220 96" fill="none" xmlns="http://www.w3.org/2000/svg">
<path fill-rule="evenodd" clip-rule="evenodd" d="M195.05 0C198.7 0 202.04 0.98 205.08 2.93C208.12 4.88 210.74 7.44 212.95 10.61C215.16 13.78 216.87 17.36 218.09 21.36C219.31 25.36 219.91 29.37 219.91 33.41C219.91 37.5 219.3 41.52 218.09 45.46C216.87 49.4 215.16 52.91 212.95 56.02C210.74 59.12 208.12 61.63 205.08 63.55C202.04 65.47 198.7 66.43 195.05 66.43C191.34 66.43 187.95 65.45 184.88 63.5C181.81 61.55 179.19 58.97 177.01 55.77C174.83 52.57 173.14 48.96 171.92 44.92C170.7 40.89 170.1 36.79 170.1 32.63C170.1 28.66 170.76 24.73 172.07 20.82C173.38 16.92 175.17 13.43 177.44 10.36C179.71 7.29 182.35 4.79 185.36 2.87C188.37 0.96 191.6 0 195.05 0ZM195.25 1.54C193.2 1.54 191.44 2.07 189.97 3.12C188.5 4.18 187.25 5.58 186.23 7.34C185.21 9.1 184.39 11.08 183.78 13.29C183.17 15.5 182.69 17.77 182.34 20.1C181.99 22.43 181.75 24.74 181.62 27.01C181.49 29.28 181.43 31.31 181.43 33.11C181.43 34.97 181.48 37.03 181.57 39.3C181.67 41.57 181.87 43.87 182.19 46.21C182.51 48.55 182.96 50.83 183.53 53.07C184.11 55.31 184.89 57.31 185.88 59.07C186.87 60.83 188.1 62.24 189.57 63.29C191.04 64.35 192.83 64.87 194.95 64.87C197.07 64.87 198.85 64.33 200.32 63.24C201.79 62.15 203.01 60.73 203.97 58.97C204.93 57.21 205.67 55.19 206.18 52.92C206.69 50.65 207.08 48.34 207.33 46.01C207.59 43.67 207.75 41.37 207.81 39.1C207.87 36.83 207.91 34.8 207.91 33.01C207.91 31.41 207.86 29.52 207.77 27.35C207.67 25.17 207.47 22.93 207.15 20.63C206.83 18.33 206.4 16.02 205.85 13.72C205.31 11.42 204.55 9.37 203.59 7.58C202.63 5.79 201.48 4.33 200.13 3.21C198.8 2.09 197.17 1.54 195.25 1.54Z" fill="#333333"/>
<path fill-rule="evenodd" clip-rule="evenodd" d="M129.39 64.6799H135.45V66.3699H113.01V64.6799H118.47V1.8399H113.01V0.149902H141.7C143.88 0.149902 146.04 0.409902 148.15 0.939902C150.27 1.4699 152.14 2.3499 153.76 3.5699C155.38 4.7899 156.71 6.4199 157.73 8.4299C158.76 10.4499 159.27 12.9799 159.27 16.0299C159.27 18.3499 158.92 20.3699 158.23 22.0899C157.53 23.8099 156.59 25.2799 155.4 26.5099C154.21 27.7299 152.82 28.7399 151.23 29.5399C149.64 30.3299 147.95 30.9299 146.17 31.3299V32.4199C148.95 33.1499 151.12 34.3199 152.67 35.9499C154.22 37.5699 155.4 39.4099 156.19 41.4599C156.98 43.5099 157.48 45.6799 157.68 47.9599C157.88 50.2399 158.01 52.4099 158.08 54.4599C158.15 55.9199 158.23 57.2899 158.33 58.5799C158.43 59.8699 158.61 60.9999 158.88 61.9599C159.15 62.9199 159.54 63.6799 160.07 64.2399C160.6 64.7999 161.33 65.0799 162.25 65.0799C162.84 65.0799 163.41 64.9999 163.94 64.8299C164.47 64.6699 165 64.4799 165.53 64.2799C165.6 64.2799 165.66 64.2499 165.73 64.1799L166.32 65.6699C165.19 66.1999 164.09 66.5599 162.99 66.7599C161.89 66.9599 160.79 67.0599 159.66 67.0599C156.75 67.0599 154.46 66.6299 152.81 65.7699C151.16 64.9099 149.88 63.7199 148.99 62.1999C148.1 60.6799 147.5 58.8599 147.2 56.7399C146.9 54.6199 146.65 52.2699 146.45 49.6899C146.38 48.8999 146.32 48.0699 146.25 47.2099C146.18 46.3499 146.08 45.4599 145.95 44.5299C145.62 41.6799 144.94 39.4699 143.91 37.8799C142.88 36.2899 141.63 35.1199 140.14 34.3599C138.65 33.5999 136.98 33.1399 135.13 32.9699C133.28 32.7999 131.36 32.7199 129.37 32.7199V64.6799H129.39ZM129.39 1.8399V31.1299H132.57C134.42 31.1299 136.26 30.8599 138.08 30.3299C139.9 29.7999 141.51 28.9599 142.89 27.7999C144.28 26.6399 145.41 25.1499 146.27 23.3299C147.13 21.5099 147.56 19.2799 147.56 16.6299C147.56 13.6499 147.16 11.1999 146.37 9.2799C145.58 7.3599 144.48 5.8499 143.09 4.7599C141.7 3.6699 140.08 2.9099 138.23 2.4799C136.38 2.0499 134.39 1.8299 132.27 1.8299H129.39V1.8399Z" fill="#333333"/>
<path fill-rule="evenodd" clip-rule="evenodd" d="M109.64 1.7999H108.08C106.78 1.7999 105.73 1.8299 104.92 1.8999C104.11 1.9599 103.46 2.2399 102.98 2.7299C102.49 3.2199 102.17 4.0099 102.01 5.1099C101.85 6.2099 101.77 7.7699 101.77 9.7799V42.9299C101.77 51.3599 100.07 57.3699 96.67 60.9599C93.27 64.5599 88.16 66.3599 81.36 66.3599C79.22 66.3599 76.87 66.1999 74.31 65.8699C71.75 65.5499 69.32 64.8799 67.02 63.8799C64.72 62.8699 62.71 61.4699 60.99 59.6499C59.27 57.8399 58.22 55.4399 57.83 52.4599C57.7 51.7499 57.64 50.8399 57.64 49.7399V46.1399V1.7999H51.52V0.149902H76.11V1.7999H69.89V43.6999C69.89 46.6799 70.07 49.4199 70.43 51.9099C70.79 54.3999 71.47 56.5599 72.47 58.3699C73.47 60.1799 74.85 61.6099 76.6 62.6499C78.35 63.6899 80.59 64.1999 83.31 64.1999C86.29 64.1999 88.83 63.6699 90.94 62.5999C93.05 61.5299 94.73 60.0099 96 58.0299C97.26 56.0499 98.19 53.6599 98.77 50.8399C99.35 48.0199 99.64 44.8899 99.64 41.4599V9.7699C99.64 7.6999 99.53 6.1099 99.3 5.0099C99.07 3.9099 98.7 3.0999 98.18 2.5799C97.66 2.0599 96.98 1.7699 96.14 1.7099C95.3 1.6399 94.26 1.6399 93.03 1.7099C92.71 1.7099 92.37 1.7299 92.01 1.7599C91.64 1.7799 91.23 1.7999 90.78 1.7999V0.149902H109.64V1.7999Z" fill="#333333"/>
<path fill-rule="evenodd" clip-rule="evenodd" d="M17.3 64.6799H23.65V66.3699H0.0299988V64.6799H5.99V1.8399H0.0299988V0.149902H23.26C25.77 0.149902 28.42 0.379902 31.2 0.839902C33.98 1.2999 36.53 2.1999 38.85 3.5199C41.17 4.8399 43.09 6.6999 44.61 9.0799C46.13 11.4599 46.89 14.5399 46.89 18.3099C46.89 21.7499 46.21 24.6799 44.85 27.0999C43.49 29.5199 41.77 31.4699 39.69 32.9599C37.6 34.4499 35.29 35.5399 32.74 36.2399C30.19 36.9399 27.69 37.2799 25.24 37.2799C23.92 37.2799 22.61 37.1799 21.32 36.9799C20.03 36.7799 18.72 36.2199 17.4 35.2899L17.3 64.6799ZM17.4 33.4099C19.19 34.7299 21.21 35.3999 23.46 35.3999C25.38 35.3999 27.13 34.9999 28.72 34.2099C30.31 33.4199 31.66 32.2899 32.79 30.8299C33.91 29.3699 34.78 27.6899 35.37 25.7699C35.97 23.8499 36.26 21.7299 36.26 19.4199C36.26 16.2399 35.88 13.5299 35.12 11.2799C34.36 9.0299 33.25 7.1899 31.79 5.7699C30.33 4.3499 28.6 3.2999 26.58 2.6399C24.56 1.9799 22.33 1.6499 19.88 1.6499C19.68 1.6499 19.37 1.6799 18.94 1.7499C18.51 1.7999 18.03 1.8699 17.5 1.9399L17.4 33.4099Z" fill="#333333"/>
<path fill-rule="evenodd" clip-rule="evenodd" d="M35.68 95.4101C35.95 95.4101 36.21 95.3901 36.45 95.3401C36.69 95.2901 36.91 95.2201 37.09 95.1301C37.27 95.0401 37.42 94.9301 37.53 94.8001C37.64 94.6701 37.69 94.5401 37.69 94.3901C37.69 94.2401 37.62 94.1101 37.47 94.0001C37.32 93.8901 37.12 93.8001 36.87 93.7201C36.62 93.6401 36.32 93.5701 35.99 93.5101C35.66 93.4501 35.31 93.3901 34.95 93.3301L34.26 93.2101C34.05 93.3701 33.91 93.5401 33.83 93.7201C33.75 93.9001 33.71 94.0601 33.71 94.1901C33.71 94.3801 33.76 94.5501 33.87 94.7001C33.97 94.8501 34.11 94.9801 34.29 95.0901C34.47 95.2001 34.67 95.2801 34.91 95.3301C35.14 95.3901 35.4 95.4101 35.68 95.4101ZM36.42 92.7101C36.78 92.7601 37.08 92.8401 37.32 92.9301C37.56 93.0201 37.75 93.1301 37.9 93.2501C38.04 93.3701 38.14 93.5101 38.2 93.6501C38.25 93.8001 38.28 93.9601 38.28 94.1301C38.28 94.4401 38.2 94.7001 38.03 94.9301C37.86 95.1601 37.65 95.3401 37.38 95.4901C37.11 95.6401 36.81 95.7501 36.47 95.8201C36.13 95.8901 35.79 95.9301 35.44 95.9301C35.1 95.9301 34.77 95.9001 34.45 95.8301C34.13 95.7601 33.86 95.6601 33.61 95.5301C33.37 95.3901 33.17 95.2301 33.03 95.0201C32.89 94.8201 32.81 94.5801 32.81 94.3201C32.81 94.0901 32.88 93.8601 33.03 93.6501C33.17 93.4401 33.41 93.2301 33.73 93.0201C33.41 92.8601 33.17 92.6401 33.01 92.3601C32.84 92.0901 32.76 91.8001 32.76 91.5101C32.76 91.3401 32.8 91.1701 32.88 91.0001C32.96 90.8301 33.09 90.6801 33.27 90.5301C33.12 90.3501 33.01 90.1701 32.95 89.9901C32.89 89.8101 32.86 89.6101 32.86 89.4101C32.86 89.0901 32.93 88.7801 33.06 88.5001C33.2 88.2201 33.38 87.9801 33.61 87.7701C33.84 87.5601 34.12 87.4001 34.43 87.2801C34.75 87.1601 35.08 87.1001 35.44 87.1001C35.82 87.1001 36.18 87.1701 36.52 87.3001C36.86 87.4301 37.15 87.6001 37.39 87.8101H38.36V88.3001H37.74C37.8 88.4401 37.87 88.6001 37.93 88.7801C37.99 88.9601 38.02 89.1601 38.02 89.3501C38.02 89.6401 37.95 89.9101 37.82 90.1701C37.68 90.4301 37.5 90.6501 37.26 90.8501C37.02 91.0401 36.74 91.2001 36.42 91.3101C36.1 91.4201 35.76 91.4801 35.4 91.4801C35.06 91.4801 34.74 91.4301 34.42 91.3301C34.1 91.2301 33.82 91.0901 33.58 90.9001C33.48 90.9601 33.41 91.0401 33.38 91.1401C33.34 91.2301 33.33 91.3301 33.33 91.4301C33.33 91.7201 33.46 91.9401 33.72 92.1001C33.98 92.2601 34.32 92.3701 34.73 92.4301L36.42 92.7101ZM35.29 87.6001C35.08 87.6001 34.87 87.6401 34.68 87.7101C34.49 87.7901 34.33 87.8901 34.18 88.0301C34.04 88.1701 33.92 88.3301 33.84 88.5201C33.75 88.7101 33.71 88.9301 33.71 89.1801C33.71 89.4801 33.77 89.7401 33.89 89.9801C34.01 90.2101 34.17 90.4101 34.35 90.5601C34.54 90.7101 34.75 90.8301 34.98 90.9101C35.21 90.9901 35.43 91.0301 35.63 91.0301C35.85 91.0301 36.06 90.9901 36.24 90.9001C36.42 90.8101 36.58 90.7001 36.72 90.5501C36.85 90.4001 36.96 90.2301 37.03 90.0301C37.1 89.8301 37.14 89.6201 37.14 89.4101C37.14 89.1401 37.09 88.8901 36.98 88.6701C36.87 88.4401 36.73 88.2501 36.56 88.0901C36.38 87.9301 36.19 87.8101 35.96 87.7301C35.74 87.6401 35.52 87.6001 35.29 87.6001ZM43.57 90.1701C43.61 90.4901 43.68 90.7801 43.8 91.0701C43.92 91.3501 44.07 91.6001 44.27 91.8201C44.46 92.0401 44.7 92.2101 44.98 92.3401C45.26 92.4701 45.58 92.5401 45.95 92.5401C46.15 92.5401 46.36 92.5101 46.58 92.4501C46.8 92.3901 47.01 92.3101 47.2 92.2001C47.39 92.0901 47.56 91.9601 47.71 91.8001C47.86 91.6401 47.96 91.4701 48.01 91.2701H48.13V92.2801C48.08 92.2801 48.01 92.3001 47.95 92.3301C47.88 92.3701 47.8 92.4101 47.71 92.4601C47.53 92.5701 47.29 92.6801 46.98 92.8101C46.67 92.9301 46.27 92.9901 45.76 92.9901C45.35 92.9901 44.97 92.9301 44.6 92.8101C44.23 92.6901 43.91 92.5101 43.63 92.2701C43.35 92.0301 43.13 91.7201 42.96 91.3401C42.79 90.9601 42.71 90.5101 42.71 89.9901C42.71 89.6601 42.77 89.3201 42.88 88.9801C42.99 88.6401 43.16 88.3301 43.39 88.0501C43.62 87.7701 43.91 87.5501 44.28 87.3801C44.64 87.2101 45.07 87.1201 45.58 87.1201C46.03 87.1201 46.43 87.2001 46.76 87.3501C47.1 87.5001 47.38 87.7201 47.6 87.9901C47.82 88.2601 47.98 88.5801 48.09 88.9501C48.2 89.3201 48.25 89.7201 48.25 90.1701H43.57ZM45.53 87.5701C45.21 87.5701 44.94 87.6301 44.71 87.7601C44.48 87.8901 44.28 88.0501 44.12 88.2501C43.96 88.4501 43.83 88.6701 43.74 88.9301C43.65 89.1801 43.59 89.4401 43.56 89.6901H47.41C47.4 89.4301 47.35 89.1701 47.27 88.9201C47.18 88.6701 47.06 88.4401 46.91 88.2401C46.76 88.0401 46.56 87.8801 46.33 87.7601C46.11 87.6301 45.84 87.5701 45.53 87.5701ZM52.71 92.9001V92.7601C52.78 92.7601 52.85 92.7301 52.9 92.6801C52.95 92.6301 53 92.5601 53.04 92.4901C53.08 92.4201 53.11 92.3401 53.13 92.2501C53.15 92.1601 53.16 92.0901 53.16 92.0101V85.1001C53.16 84.9501 53.14 84.8001 53.09 84.6701C53.05 84.5401 52.91 84.4601 52.69 84.4501V84.3101L54.06 83.8901V92.0201C54.06 92.0901 54.07 92.1701 54.09 92.2601C54.11 92.3501 54.14 92.4301 54.18 92.5001C54.22 92.5701 54.27 92.6401 54.32 92.6901C54.37 92.7401 54.43 92.7701 54.5 92.7701V92.9101H52.71V92.9001ZM62.62 92.9001V92.2101L62.55 92.2801C62.33 92.5101 62.07 92.6801 61.77 92.8101C61.48 92.9401 61.12 93.0001 60.71 93.0001C60.4 93.0001 60.12 92.9601 59.9 92.8901C59.68 92.8201 59.49 92.7201 59.35 92.5901C59.21 92.4601 59.1 92.3101 59.03 92.1401C58.96 91.9701 58.93 91.7901 58.93 91.6001C58.93 91.2901 59.01 91.0201 59.18 90.7901C59.35 90.5601 59.59 90.3501 59.9 90.1701C60.22 89.9901 60.6 89.8201 61.06 89.6801C61.51 89.5301 62.04 89.3801 62.62 89.2401C62.6 88.8901 62.53 88.6001 62.4 88.3901C62.27 88.1701 62.13 88.0101 61.95 87.8801C61.78 87.7601 61.6 87.6801 61.41 87.6401C61.22 87.6001 61.06 87.5801 60.92 87.5801C60.69 87.5801 60.48 87.6201 60.31 87.6901C60.13 87.7601 59.98 87.8601 59.85 87.9701C59.72 88.0801 59.61 88.2001 59.52 88.3401C59.43 88.4701 59.36 88.5901 59.3 88.7101H59.18V87.7201C59.25 87.7101 59.32 87.6901 59.38 87.6501C59.44 87.6101 59.52 87.5801 59.61 87.5401C59.75 87.4901 59.93 87.4101 60.16 87.3001C60.39 87.2001 60.72 87.1401 61.15 87.1401C61.65 87.1401 62.05 87.2001 62.35 87.3301C62.66 87.4601 62.89 87.6201 63.06 87.8301C63.23 88.0401 63.34 88.2701 63.39 88.5401C63.44 88.8101 63.47 89.0801 63.47 89.3601V92.0401C63.47 92.2201 63.51 92.3901 63.59 92.5501C63.67 92.7101 63.78 92.7901 63.91 92.7901V92.9301H62.62V92.9001ZM62.62 91.6101V89.6801L62.48 89.7101C62.26 89.7601 62 89.8401 61.69 89.9301C61.38 90.0201 61.08 90.1401 60.8 90.2801C60.52 90.4201 60.28 90.5901 60.08 90.7901C59.88 90.9901 59.78 91.2201 59.78 91.4801C59.78 91.7701 59.9 92.0101 60.13 92.2001C60.37 92.3901 60.67 92.4801 61.05 92.4801C61.35 92.4801 61.61 92.4101 61.83 92.2801C62.05 92.1501 62.26 91.9801 62.45 91.7701L62.62 91.6101ZM69.82 87.6801V90.9401C69.82 91.1701 69.82 91.3901 69.83 91.5801C69.84 91.7701 69.86 91.9301 69.9 92.0501C69.94 92.1801 69.99 92.2701 70.06 92.3401C70.13 92.4101 70.23 92.4401 70.36 92.4401C70.55 92.4401 70.73 92.3501 70.89 92.1701C71.06 91.9901 71.16 91.7701 71.21 91.5201H71.33V92.5101C71.25 92.5101 71.18 92.5401 71.13 92.5901C71.06 92.6501 70.96 92.7201 70.83 92.7901C70.7 92.8601 70.5 92.9001 70.24 92.9001C69.92 92.9001 69.66 92.8401 69.48 92.7101C69.3 92.5801 69.17 92.4201 69.09 92.2101C69.01 92.0001 68.96 91.7701 68.95 91.5201C68.94 91.2701 68.93 91.0101 68.93 90.7501V87.6801H68.17V87.2201H68.93V86.0201C68.93 85.8701 68.91 85.7301 68.87 85.5901C68.83 85.4601 68.7 85.3901 68.47 85.3801V85.2501L69.82 84.8201V87.2301H71.33V87.6901H69.82V87.6801ZM76.36 90.1701C76.4 90.4901 76.47 90.7801 76.59 91.0701C76.71 91.3501 76.86 91.6001 77.06 91.8201C77.25 92.0401 77.49 92.2101 77.77 92.3401C78.05 92.4701 78.37 92.5401 78.74 92.5401C78.94 92.5401 79.15 92.5101 79.37 92.4501C79.59 92.3901 79.8 92.3101 79.99 92.2001C80.18 92.0901 80.35 91.9601 80.5 91.8001C80.65 91.6401 80.75 91.4701 80.8 91.2701H80.92V92.2801C80.87 92.2801 80.81 92.3001 80.74 92.3301C80.67 92.3701 80.59 92.4101 80.5 92.4601C80.32 92.5701 80.08 92.6801 79.77 92.8101C79.46 92.9301 79.06 92.9901 78.55 92.9901C78.15 92.9901 77.76 92.9301 77.39 92.8101C77.02 92.6901 76.7 92.5101 76.42 92.2701C76.14 92.0301 75.92 91.7201 75.75 91.3401C75.58 90.9601 75.5 90.5101 75.5 89.9901C75.5 89.6601 75.56 89.3201 75.67 88.9801C75.78 88.6401 75.95 88.3301 76.18 88.0501C76.41 87.7701 76.7 87.5501 77.07 87.3801C77.43 87.2101 77.86 87.1201 78.37 87.1201C78.82 87.1201 79.22 87.2001 79.55 87.3501C79.89 87.5001 80.17 87.7201 80.39 87.9901C80.61 88.2601 80.78 88.5801 80.88 88.9501C80.99 89.3201 81.04 89.7201 81.04 90.1701H76.36ZM78.32 87.5701C78.01 87.5701 77.73 87.6301 77.5 87.7601C77.27 87.8901 77.07 88.0501 76.91 88.2501C76.75 88.4501 76.62 88.6701 76.53 88.9301C76.44 89.1801 76.38 89.4401 76.35 89.6901H80.2C80.19 89.4301 80.14 89.1701 80.06 88.9201C79.97 88.6701 79.85 88.4401 79.7 88.2401C79.55 88.0401 79.35 87.8801 79.12 87.7601C78.9 87.6301 78.63 87.5701 78.32 87.5701ZM88.74 88.2101C88.63 88.0301 88.52 87.9201 88.4 87.8701C88.28 87.8201 88.15 87.8001 87.99 87.8001C87.89 87.8001 87.79 87.8201 87.67 87.8701C87.56 87.9201 87.45 87.9701 87.34 88.0501C87.23 88.1201 87.13 88.2001 87.02 88.2901C86.92 88.3701 86.83 88.4501 86.76 88.5301V92.0501C86.76 92.1201 86.77 92.2001 86.79 92.2801C86.81 92.3601 86.84 92.4401 86.88 92.5201C86.92 92.6001 86.97 92.6601 87.02 92.7101C87.07 92.7601 87.13 92.7801 87.2 92.7801V92.9201H85.44V92.7801C85.5 92.7801 85.56 92.7601 85.62 92.7101C85.67 92.6601 85.72 92.6001 85.76 92.5201C85.8 92.4401 85.83 92.3601 85.85 92.2801C85.87 92.2001 85.88 92.1201 85.88 92.0501V88.2801C85.88 88.1501 85.84 88.0301 85.76 87.9001C85.68 87.7701 85.56 87.6901 85.41 87.6601V87.5501L86.78 87.1401V87.9501C86.86 87.8501 86.95 87.7501 87.04 87.6601C87.13 87.5601 87.23 87.4801 87.34 87.4001C87.45 87.3201 87.58 87.2601 87.71 87.2101C87.85 87.1601 88 87.1401 88.18 87.1401C88.31 87.1401 88.47 87.1701 88.67 87.2201C88.87 87.2701 89.03 87.3301 89.16 87.3901L88.74 88.2101ZM93.46 92.9001V92.7601C93.53 92.7601 93.6 92.7301 93.65 92.6801C93.7 92.6301 93.75 92.5601 93.79 92.4901C93.83 92.4201 93.85 92.3401 93.87 92.2501C93.89 92.1601 93.9 92.0901 93.9 92.0101V88.2601C93.9 88.1101 93.88 87.9601 93.83 87.8201C93.78 87.6801 93.65 87.6101 93.44 87.6001V87.4801L94.79 87.0501V92.0101C94.79 92.0801 94.8 92.1601 94.82 92.2501C94.84 92.3401 94.86 92.4201 94.9 92.4901C94.94 92.5601 94.98 92.6301 95.03 92.6801C95.08 92.7301 95.15 92.7601 95.22 92.7601V92.9001H93.46ZM93.53 85.7601C93.53 85.5801 93.59 85.4301 93.71 85.3001C93.83 85.1701 93.98 85.1101 94.16 85.1101C94.34 85.1101 94.49 85.1701 94.62 85.3001C94.75 85.4301 94.81 85.5801 94.81 85.7601C94.81 85.9401 94.75 86.0901 94.62 86.2101C94.49 86.3301 94.34 86.3901 94.16 86.3901C93.98 86.3901 93.83 86.3301 93.71 86.2101C93.59 86.0901 93.53 85.9401 93.53 85.7601ZM103.5 92.9001V92.2101L103.43 92.2801C103.2 92.5101 102.95 92.6801 102.65 92.8101C102.36 92.9401 102 93.0001 101.59 93.0001C101.27 93.0001 101 92.9601 100.78 92.8901C100.55 92.8201 100.37 92.7201 100.23 92.5901C100.09 92.4601 99.98 92.3101 99.91 92.1401C99.84 91.9701 99.81 91.7901 99.81 91.6001C99.81 91.2901 99.89 91.0201 100.06 90.7901C100.23 90.5601 100.47 90.3501 100.78 90.1701C101.1 89.9901 101.48 89.8201 101.94 89.6801C102.39 89.5301 102.91 89.3801 103.5 89.2401C103.48 88.8901 103.41 88.6001 103.28 88.3901C103.15 88.1701 103 88.0101 102.83 87.8801C102.66 87.7601 102.48 87.6801 102.29 87.6401C102.1 87.6001 101.94 87.5801 101.8 87.5801C101.57 87.5801 101.36 87.6201 101.18 87.6901C101 87.7601 100.85 87.8601 100.72 87.9701C100.59 88.0801 100.48 88.2001 100.39 88.3401C100.3 88.4701 100.23 88.5901 100.17 88.7101H100.05V87.7201C100.12 87.7101 100.19 87.6901 100.25 87.6501C100.31 87.6101 100.39 87.5801 100.48 87.5401C100.62 87.4901 100.8 87.4101 101.04 87.3001C101.27 87.2001 101.6 87.1401 102.03 87.1401C102.53 87.1401 102.93 87.2001 103.23 87.3301C103.54 87.4601 103.77 87.6201 103.94 87.8301C104.11 88.0401 104.22 88.2701 104.27 88.5401C104.32 88.8101 104.35 89.0801 104.35 89.3601V92.0401C104.35 92.2201 104.39 92.3901 104.47 92.5501C104.55 92.7101 104.66 92.7901 104.79 92.7901V92.9301H103.5V92.9001ZM103.5 91.6101V89.6801L103.36 89.7101C103.14 89.7601 102.88 89.8401 102.57 89.9301C102.26 90.0201 101.96 90.1401 101.68 90.2801C101.4 90.4201 101.16 90.5901 100.96 90.7901C100.76 90.9901 100.66 91.2201 100.66 91.4801C100.66 91.7701 100.78 92.0101 101.01 92.2001C101.24 92.3901 101.55 92.4801 101.93 92.4801C102.23 92.4801 102.49 92.4101 102.71 92.2801C102.94 92.1501 103.14 91.9801 103.33 91.7701L103.5 91.6101Z" fill="#333333"/>
<path fill-rule="evenodd" clip-rule="evenodd" d="M113.98 89.0801C114.52 89.0801 114.95 89.5101 114.95 90.0501C114.95 90.5901 114.52 91.0201 113.98 91.0201C113.45 91.0201 113.01 90.5901 113.01 90.0501C113.02 89.5201 113.45 89.0801 113.98 89.0801Z" fill="#333333"/>
<path d="M125 87.3101C125.49 87.3101 125.91 87.3901 126.26 87.5601C126.62 87.7301 126.91 87.9401 127.15 88.2201C127.39 88.4901 127.57 88.8001 127.68 89.1501C127.8 89.5001 127.86 89.8601 127.86 90.2301C127.86 90.5901 127.8 90.9501 127.69 91.3001C127.58 91.6501 127.41 91.9701 127.18 92.2501C126.95 92.5301 126.66 92.7601 126.32 92.9301C125.98 93.1001 125.57 93.1901 125.1 93.1901C124.82 93.1901 124.53 93.1201 124.24 92.9701C123.95 92.8201 123.68 92.6401 123.45 92.4101V95.0601C123.45 95.1301 123.46 95.2101 123.48 95.3001C123.5 95.3901 123.53 95.4701 123.57 95.5401C123.61 95.6101 123.66 95.6801 123.71 95.7301C123.76 95.7801 123.82 95.8101 123.89 95.8101V95.9501H122.13V95.8101C122.19 95.8101 122.25 95.7801 122.31 95.7301C122.36 95.6801 122.41 95.6101 122.45 95.5401C122.49 95.4701 122.52 95.3901 122.54 95.3001C122.56 95.2101 122.57 95.1401 122.57 95.0601V88.2001C122.57 88.1201 122.57 88.0401 122.56 87.9601C122.56 87.8801 122.54 87.8201 122.51 87.7601C122.48 87.7001 122.44 87.6501 122.38 87.6101C122.32 87.5701 122.24 87.5401 122.13 87.5401V87.4001H123.46V88.0001C123.64 87.7801 123.86 87.6101 124.12 87.4901C124.37 87.3701 124.67 87.3101 125 87.3101ZM125.12 92.7201C125.44 92.7101 125.71 92.6401 125.95 92.5001C126.18 92.3601 126.38 92.1901 126.53 91.9701C126.68 91.7501 126.8 91.5101 126.87 91.2501C126.94 90.9801 126.98 90.7101 126.98 90.4201C126.98 90.1001 126.93 89.7801 126.84 89.4601C126.75 89.1401 126.62 88.8601 126.45 88.6101C126.28 88.3601 126.07 88.1601 125.82 88.0001C125.57 87.8401 125.29 87.7601 124.97 87.7601C124.78 87.7601 124.59 87.8001 124.41 87.8701C124.22 87.9401 124.06 88.0501 123.92 88.1801C123.78 88.3201 123.67 88.4801 123.58 88.6601C123.49 88.8401 123.45 89.0501 123.45 89.2801V91.0501C123.45 91.2901 123.5 91.5201 123.6 91.7201C123.7 91.9201 123.83 92.1001 123.99 92.2501C124.15 92.4001 124.33 92.5101 124.53 92.5901C124.72 92.6801 124.92 92.7201 125.12 92.7201Z" fill="#333333"/>
<path d="M132.66 93.09V92.95C132.73 92.95 132.8 92.92 132.85 92.87C132.9 92.82 132.95 92.75 132.99 92.68C133.03 92.61 133.05 92.53 133.07 92.44C133.09 92.35 133.1 92.28 133.1 92.2V88.45C133.1 88.3 133.08 88.15 133.03 88.01C132.99 87.87 132.85 87.8 132.64 87.79V87.67L133.99 87.24V92.21C133.99 92.28 134 92.36 134.02 92.45C134.04 92.54 134.06 92.62 134.1 92.69C134.14 92.76 134.18 92.83 134.24 92.88C134.29 92.93 134.36 92.96 134.43 92.96V93.1H132.66V93.09ZM132.73 85.94C132.73 85.76 132.79 85.61 132.91 85.48C133.03 85.35 133.18 85.29 133.36 85.29C133.54 85.29 133.69 85.35 133.82 85.48C133.95 85.61 134.01 85.76 134.01 85.94C134.01 86.12 133.95 86.27 133.82 86.39C133.69 86.51 133.54 86.57 133.36 86.57C133.18 86.57 133.03 86.51 132.91 86.39C132.79 86.27 132.73 86.12 132.73 85.94Z" fill="#333333"/>
<path d="M138.82 93.0899L142.53 87.8799H140.31C140.16 87.8799 140.02 87.9099 139.89 87.9799C139.76 88.0399 139.66 88.1199 139.57 88.2199C139.48 88.3199 139.42 88.4199 139.37 88.5399C139.32 88.6499 139.3 88.7599 139.3 88.8599H139.16V87.3999H143.94L140.23 92.5999H142.75C142.95 92.5999 143.12 92.5699 143.25 92.5099C143.39 92.4499 143.5 92.3699 143.58 92.2699C143.67 92.1799 143.73 92.0699 143.76 91.9499C143.8 91.8299 143.81 91.7199 143.81 91.6199H143.93V93.0799H138.82V93.0899Z" fill="#333333"/>
<path d="M148.01 93.0899L151.72 87.8799H149.5C149.35 87.8799 149.21 87.9099 149.08 87.9799C148.95 88.0399 148.85 88.1199 148.76 88.2199C148.67 88.3199 148.61 88.4199 148.56 88.5399C148.51 88.6499 148.49 88.7599 148.49 88.8599H148.36V87.3999H153.14L149.43 92.5999H151.95C152.15 92.5999 152.32 92.5699 152.45 92.5099C152.59 92.4499 152.7 92.3699 152.78 92.2699C152.87 92.1799 152.93 92.0699 152.96 91.9499C152.99 91.8299 153.01 91.7199 153.01 91.6199H153.13V93.0799H148.01V93.0899Z" fill="#333333"/>
<path d="M158.37 90.3498C158.4 90.6698 158.48 90.9698 158.6 91.2498C158.72 91.5298 158.87 91.7898 159.07 91.9998C159.26 92.2198 159.5 92.3898 159.78 92.5198C160.06 92.6498 160.38 92.7198 160.75 92.7198C160.95 92.7198 161.16 92.6898 161.38 92.6298C161.6 92.5698 161.81 92.4898 162 92.3798C162.19 92.2698 162.36 92.1398 162.51 91.9798C162.66 91.8198 162.76 91.6398 162.81 91.4398H162.93V92.4498C162.88 92.4498 162.81 92.4698 162.75 92.4998C162.68 92.5398 162.6 92.5798 162.51 92.6398C162.33 92.7498 162.09 92.8598 161.78 92.9798C161.47 93.0998 161.07 93.1598 160.56 93.1598C160.15 93.1598 159.77 93.0998 159.4 92.9798C159.03 92.8598 158.71 92.6798 158.43 92.4398C158.15 92.1998 157.93 91.8898 157.76 91.5098C157.59 91.1298 157.51 90.6798 157.51 90.1598C157.51 89.8298 157.57 89.4898 157.68 89.1398C157.79 88.7998 157.96 88.4898 158.19 88.2098C158.42 87.9298 158.72 87.7098 159.08 87.5398C159.44 87.3698 159.87 87.2798 160.38 87.2798C160.83 87.2798 161.23 87.3598 161.56 87.5098C161.9 87.6598 162.18 87.8798 162.4 88.1498C162.62 88.4198 162.79 88.7398 162.89 89.1098C163 89.4798 163.05 89.8898 163.05 90.3298H158.37V90.3498ZM160.34 87.7498C160.02 87.7498 159.75 87.8098 159.52 87.9398C159.29 88.0698 159.09 88.2298 158.93 88.4298C158.77 88.6298 158.64 88.8498 158.55 89.1098C158.46 89.3598 158.4 89.6198 158.37 89.8698H162.23C162.22 89.6098 162.17 89.3498 162.09 89.0998C162 88.8498 161.88 88.6198 161.73 88.4198C161.58 88.2198 161.38 88.0598 161.15 87.9398C160.91 87.8098 160.64 87.7498 160.34 87.7498Z" fill="#333333"/>
<path d="M170.88 88.3901C170.77 88.2101 170.66 88.1001 170.54 88.0501C170.42 88.0001 170.29 87.9801 170.13 87.9801C170.03 87.9801 169.92 88.0001 169.81 88.0501C169.7 88.0901 169.59 88.1501 169.48 88.2301C169.37 88.3001 169.27 88.3801 169.16 88.4701C169.06 88.5601 168.97 88.6401 168.9 88.7101V92.2301C168.9 92.3001 168.91 92.3801 168.93 92.4601C168.95 92.5401 168.98 92.6201 169.02 92.7001C169.06 92.7801 169.11 92.8401 169.16 92.8901C169.21 92.9401 169.27 92.9601 169.34 92.9601V93.1001H167.58V92.9601C167.64 92.9601 167.7 92.9401 167.76 92.8901C167.81 92.8401 167.86 92.7801 167.9 92.7001C167.94 92.6201 167.97 92.5401 167.99 92.4601C168.01 92.3801 168.02 92.3001 168.02 92.2301V88.4501C168.02 88.3201 167.98 88.2001 167.9 88.0701C167.82 87.9401 167.7 87.8601 167.55 87.8301V87.7201L168.92 87.3101V88.1201C169 88.0201 169.09 87.9201 169.18 87.8301C169.27 87.7401 169.37 87.6501 169.48 87.5701C169.59 87.4901 169.72 87.4301 169.85 87.3801C169.99 87.3301 170.14 87.3101 170.32 87.3101C170.45 87.3101 170.61 87.3401 170.81 87.3901C171.01 87.4401 171.17 87.5001 171.3 87.5701L170.88 88.3901Z" fill="#333333"/>
<path d="M175.71 93.09V92.95C175.78 92.95 175.85 92.92 175.9 92.87C175.95 92.82 176 92.75 176.04 92.68C176.08 92.61 176.1 92.53 176.12 92.44C176.14 92.35 176.15 92.28 176.15 92.2V88.45C176.15 88.3 176.13 88.15 176.08 88.01C176.03 87.87 175.9 87.8 175.69 87.79V87.67L177.04 87.24V92.21C177.04 92.28 177.05 92.36 177.07 92.45C177.09 92.54 177.12 92.62 177.15 92.69C177.18 92.76 177.23 92.83 177.28 92.88C177.33 92.93 177.4 92.96 177.47 92.96V93.1H175.71V93.09ZM175.78 85.94C175.78 85.76 175.84 85.61 175.96 85.48C176.08 85.35 176.23 85.29 176.41 85.29C176.59 85.29 176.74 85.35 176.87 85.48C177 85.61 177.06 85.76 177.06 85.94C177.06 86.12 177 86.27 176.87 86.39C176.74 86.51 176.59 86.57 176.41 86.57C176.23 86.57 176.08 86.51 175.96 86.39C175.84 86.27 175.78 86.12 175.78 85.94Z" fill="#333333"/>
<path d="M185.87 93.0801V92.3901L185.8 92.4601C185.57 92.6901 185.32 92.8601 185.02 92.9901C184.73 93.1201 184.37 93.1801 183.96 93.1801C183.64 93.1801 183.37 93.1401 183.15 93.0701C182.92 93.0001 182.74 92.9001 182.59 92.7601C182.45 92.6301 182.34 92.4801 182.27 92.3101C182.2 92.1401 182.17 91.9601 182.17 91.7701C182.17 91.4601 182.25 91.1901 182.42 90.9601C182.59 90.7301 182.83 90.5201 183.14 90.3401C183.45 90.1601 183.84 90.0001 184.3 89.8501C184.75 89.7001 185.28 89.5501 185.86 89.4101C185.84 89.0601 185.77 88.7701 185.64 88.5601C185.51 88.3401 185.36 88.1701 185.19 88.0501C185.02 87.9301 184.84 87.8501 184.65 87.8101C184.46 87.7701 184.3 87.7501 184.16 87.7501C183.93 87.7501 183.72 87.7901 183.55 87.8601C183.37 87.9301 183.22 88.0201 183.09 88.1401C182.96 88.2501 182.85 88.3701 182.76 88.5101C182.67 88.6401 182.6 88.7701 182.54 88.8801H182.42V87.8901C182.49 87.8801 182.56 87.8601 182.62 87.8201C182.68 87.7801 182.76 87.7501 182.85 87.7101C182.99 87.6601 183.17 87.5801 183.4 87.4701C183.64 87.3701 183.96 87.3101 184.39 87.3101C184.89 87.3101 185.29 87.3701 185.59 87.5001C185.9 87.6301 186.13 87.7901 186.3 88.0001C186.47 88.2101 186.58 88.4401 186.63 88.7101C186.68 88.9801 186.71 89.2501 186.71 89.5301V92.2101C186.71 92.3901 186.75 92.5601 186.83 92.7201C186.91 92.8801 187.02 92.9601 187.16 92.9601V93.1001H185.87V93.0801ZM185.87 91.8001V89.8601L185.73 89.8901C185.51 89.9401 185.25 90.0201 184.94 90.1101C184.63 90.2001 184.33 90.3201 184.05 90.4601C183.77 90.6001 183.53 90.7801 183.33 90.9701C183.13 91.1701 183.03 91.4001 183.03 91.6601C183.03 91.9501 183.15 92.1901 183.38 92.3801C183.61 92.5701 183.92 92.6601 184.3 92.6601C184.6 92.6601 184.86 92.5901 185.09 92.4601C185.32 92.3301 185.52 92.1601 185.71 91.9501L185.87 91.8001Z" fill="#333333"/>
</svg>
