<svg width="275" height="78" viewBox="0 0 275 78" fill="none" xmlns="http://www.w3.org/2000/svg">
<path fill-rule="evenodd" clip-rule="evenodd" d="M23.99 61.65L24.05 61.2L23.83 61.65H23.99ZM0.910034 0H53.78L43.45 21.39L43.43 21.43L23.99 61.65H53.78V77.4H0.910034L30.23 15.75H0.910034V0Z" fill="black"/>
<path fill-rule="evenodd" clip-rule="evenodd" d="M65.66 0C87.03 0 104.36 17.33 104.36 38.7C104.36 46.23 102.21 53.25 98.49 59.19L106.93 67.63L98.96 75.6L91.16 67.8C84.35 73.77 75.43 77.39 65.66 77.39C64.18 77.39 62.71 77.3 61.27 77.14V63.09C62.69 63.34 64.16 63.48 65.66 63.48C71.59 63.48 77.02 61.4 81.29 57.93L73.49 50.13L81.46 42.16L88.24 48.94C89.66 45.82 90.45 42.36 90.45 38.7C90.45 25.01 79.36 13.92 65.67 13.92C64.17 13.92 62.71 14.05 61.28 14.31V0.25C62.71 0.09 64.17 0 65.66 0Z" fill="black"/>
<path d="M217.65 33.34C217.31 33.34 217.14 33.16 217.14 32.79V12.73C217.14 10.59 217.75 8.86004 218.98 7.53004C220.21 6.20004 221.82 5.54004 223.83 5.54004C225.84 5.54004 227.46 6.20004 228.7 7.53004C229.94 8.86004 230.56 10.59 230.56 12.73V32.8C230.56 33.16 230.38 33.35 230.01 33.35H227.55C227.39 33.35 227.26 33.3 227.16 33.21C227.06 33.12 227 32.98 227 32.8V12.58C227 11.46 226.71 10.56 226.14 9.88004C225.57 9.20004 224.8 8.86004 223.83 8.86004C222.87 8.86004 222.1 9.20004 221.52 9.88004C220.95 10.56 220.66 11.46 220.66 12.58V32.8C220.66 33.16 220.49 33.35 220.15 33.35H217.65V33.34ZM203.19 6.47004C203.19 6.13004 203.37 5.96004 203.74 5.96004H206.2C206.54 5.96004 206.71 6.13004 206.71 6.47004V32.8C206.71 33.16 206.54 33.35 206.2 33.35H203.74C203.38 33.35 203.19 33.17 203.19 32.8V6.47004ZM186.46 5.54004C188.42 5.54004 189.97 6.20004 191.11 7.51004C192.26 8.83004 192.83 10.59 192.83 12.81V32.8C192.83 33.16 192.65 33.35 192.28 33.35H189.82C189.48 33.35 189.31 33.17 189.31 32.8V12.65C189.31 11.42 189.06 10.49 188.57 9.83004C188.07 9.18004 187.37 8.85004 186.46 8.85004C185.57 8.85004 184.87 9.18004 184.35 9.85004C183.83 10.51 183.57 11.45 183.57 12.65V32.8C183.57 33.16 183.4 33.35 183.06 33.35H180.6C180.26 33.35 180.09 33.17 180.09 32.8V12.65C180.09 11.45 179.83 10.52 179.31 9.85004C178.79 9.19004 178.1 8.85004 177.24 8.85004C176.3 8.85004 175.58 9.18004 175.09 9.83004C174.59 10.48 174.35 11.42 174.35 12.65V32.8C174.35 33.16 174.18 33.35 173.84 33.35H171.38C171.04 33.35 170.87 33.17 170.87 32.8V12.81C170.87 10.59 171.44 8.83004 172.59 7.51004C173.74 6.19004 175.29 5.54004 177.24 5.54004C178.28 5.54004 179.17 5.75004 179.9 6.18004C180.63 6.61004 181.28 7.22004 181.86 8.00004C183.04 6.36004 184.58 5.54004 186.46 5.54004ZM157.13 20.87V12.62C157.13 11.45 156.86 10.53 156.31 9.88004C155.76 9.23004 154.98 8.90004 153.96 8.90004C152.97 8.90004 152.19 9.23004 151.63 9.88004C151.07 10.53 150.79 11.44 150.79 12.62V20.87H157.13ZM147.78 33.34C147.44 33.34 147.27 33.16 147.27 32.79V12.77C147.27 10.61 147.88 8.86004 149.11 7.55004C150.34 6.23004 151.95 5.57004 153.96 5.57004C155.97 5.57004 157.59 6.23004 158.83 7.55004C160.07 8.87004 160.69 10.61 160.69 12.77V32.8C160.69 33.16 160.51 33.35 160.14 33.35H157.68C157.52 33.35 157.39 33.3 157.29 33.21C157.19 33.12 157.13 32.98 157.13 32.8V24.12H150.8V32.8C150.8 33.16 150.63 33.35 150.29 33.35H147.78V33.34ZM137.58 30.06C137.92 30.06 138.09 30.24 138.09 30.61V32.8C138.09 33.16 137.92 33.35 137.58 33.35H126.55C126 33.35 125.58 33.2 125.28 32.9C124.98 32.6 124.83 32.19 124.83 31.67V30.93C124.83 30.49 124.86 30.11 124.93 29.8C124.99 29.49 125.11 29.16 125.26 28.82L134.37 9.27004H126.2C125.86 9.27004 125.69 9.09004 125.69 8.72004V6.47004C125.69 6.13004 125.86 5.96004 126.2 5.96004H136.25C137.37 5.96004 137.94 6.51004 137.97 7.60004V8.34004C138 8.78004 137.98 9.16004 137.93 9.47004C137.88 9.78004 137.77 10.11 137.62 10.45L128.43 30.04H137.58V30.06Z" fill="black"/>
<path d="M271.01 39.7401C271.01 39.4001 271.19 39.2301 271.56 39.2301H274.02C274.36 39.2301 274.53 39.4001 274.53 39.7401V66.0601C274.53 66.4301 274.36 66.6101 274.02 66.6101H271.56C271.19 66.6101 271.01 66.4301 271.01 66.0601V54.3701H264.99V66.0601C264.99 66.4301 264.82 66.6101 264.48 66.6101H262.02C261.66 66.6101 261.47 66.4301 261.47 66.0601V39.7401C261.47 39.4001 261.65 39.2301 262.02 39.2301H264.48C264.82 39.2301 264.99 39.4001 264.99 39.7401V51.1201H271.01V39.7401ZM245.91 67.0401C243.88 67.0401 242.25 66.3401 241.02 64.9501C239.79 63.5501 239.14 61.6701 239.06 59.3001C239.06 58.9301 239.24 58.7501 239.61 58.7501H242.07C242.38 58.7501 242.57 58.9201 242.62 59.2601C242.7 62.2301 243.81 63.7201 245.94 63.7201C246.98 63.7201 247.77 63.4501 248.31 62.9001C248.84 62.3501 249.11 61.5401 249.11 60.4801C249.11 59.2001 248.73 58.0701 247.98 57.1001C247.22 56.1201 246.1 54.9801 244.62 53.6801C243.45 52.6601 242.52 51.7801 241.82 51.0401C241.13 50.3001 240.54 49.4201 240.04 48.4201C239.54 47.4201 239.3 46.3001 239.3 45.0801C239.3 43.1801 239.89 41.6601 241.06 40.5201C242.23 39.3901 243.8 38.8201 245.75 38.8201C247.65 38.8201 249.2 39.5001 250.38 40.8501C251.57 42.2101 252.2 44.0301 252.28 46.3201C252.28 46.6601 252.11 46.8301 251.77 46.8301H249.31C248.97 46.8301 248.8 46.6601 248.8 46.3201C248.7 43.5001 247.69 42.1001 245.79 42.1001C244.82 42.1001 244.09 42.3501 243.58 42.8601C243.07 43.3701 242.82 44.1101 242.82 45.0701C242.82 45.8501 243.01 46.5901 243.39 47.2801C243.77 47.9701 244.23 48.6001 244.78 49.1801C245.33 49.7501 246.1 50.4701 247.09 51.3301C248.29 52.3501 249.26 53.2501 250 54.0301C250.74 54.8101 251.38 55.7401 251.9 56.8301C252.42 57.9101 252.68 59.1301 252.68 60.4901C252.68 62.5001 252.06 64.0901 250.82 65.2801C249.58 66.4501 247.94 67.0401 245.91 67.0401ZM226.56 39.7401C226.56 39.4001 226.74 39.2301 227.11 39.2301H229.57C229.91 39.2301 230.08 39.4001 230.08 39.7401V66.0601C230.08 66.4301 229.91 66.6101 229.57 66.6101H227.11C226.75 66.6101 226.56 66.4301 226.56 66.0601V39.7401ZM217.92 63.4401C218.29 63.4401 218.47 63.6201 218.47 63.9901V66.2201C218.47 66.5601 218.29 66.7301 217.92 66.7301H213.97C212.02 66.7301 210.45 66.0801 209.28 64.7901C208.11 63.5001 207.52 61.8501 207.52 59.8401V39.7401C207.52 39.4001 207.69 39.2301 208.03 39.2301H210.53C210.89 39.2301 211.08 39.4001 211.08 39.7401V59.7201C211.08 60.8201 211.37 61.7101 211.94 62.4001C212.51 63.0901 213.26 63.4401 214.17 63.4401H217.92ZM194.42 39.7401C194.42 39.4001 194.6 39.2301 194.97 39.2301H197.43C197.77 39.2301 197.94 39.4001 197.94 39.7401V66.0601C197.94 66.4301 197.77 66.6101 197.43 66.6101H194.97C194.6 66.6101 194.42 66.4301 194.42 66.0601V39.7401ZM177.93 53.0401C178.95 53.0401 179.76 52.7001 180.36 52.0001C180.96 51.3101 181.26 50.3901 181.26 49.2401V45.8801C181.26 44.7601 180.97 43.8501 180.38 43.1601C179.79 42.4701 179.03 42.1201 178.09 42.1201C177.15 42.1201 176.39 42.4701 175.8 43.1601C175.21 43.8501 174.92 44.7601 174.92 45.8801V53.0401H177.93ZM171.9 66.6101C171.56 66.6101 171.39 66.4301 171.39 66.0601V46.0401C171.39 44.6301 171.67 43.3801 172.23 42.2901C172.79 41.2001 173.57 40.3401 174.58 39.7301C175.58 39.1201 176.74 38.8101 178.04 38.8101C180.05 38.8101 181.68 39.4801 182.93 40.8201C184.18 42.1601 184.81 43.9001 184.81 46.0401V49.1701C184.81 50.6301 184.5 51.9001 183.87 52.9801C183.24 54.0601 182.4 54.8901 181.33 55.4601L185.52 66.0201L185.56 66.1801C185.56 66.3101 185.51 66.4101 185.4 66.4901C185.3 66.5701 185.16 66.6101 185.01 66.6101H182.35C182.06 66.6101 181.88 66.4501 181.8 66.1401L178.08 56.2801H174.91V66.0601C174.91 66.4301 174.74 66.6101 174.4 66.6101H171.9ZM151.3 39.2301C151.64 39.2301 151.81 39.4001 151.81 39.7401V60.0001C151.81 61.1201 152.1 62.0201 152.67 62.7001C153.24 63.3801 154.01 63.7201 154.98 63.7201C155.94 63.7201 156.71 63.3801 157.29 62.7001C157.86 62.0201 158.15 61.1201 158.15 60.0001V39.7401C158.15 39.5801 158.2 39.4601 158.31 39.3701C158.41 39.2801 158.54 39.2301 158.7 39.2301H161.16C161.52 39.2301 161.71 39.4001 161.71 39.7401V59.8001C161.71 61.9401 161.1 63.6801 159.87 65.0201C158.64 66.3601 157.02 67.0301 154.98 67.0301C152.97 67.0301 151.36 66.3601 150.13 65.0201C148.9 63.6801 148.29 61.9401 148.29 59.8001V39.7401C148.29 39.4001 148.46 39.2301 148.8 39.2301H151.3ZM131.75 63.7201C132.06 63.7201 132.43 63.6701 132.84 63.5601L131.75 62.4301C131.65 62.3301 131.59 62.2001 131.59 62.0401C131.59 61.8801 131.64 61.7701 131.75 61.6901L133 60.4801C133.13 60.3501 133.25 60.2801 133.35 60.2801C133.48 60.2801 133.61 60.3401 133.74 60.4801L134.83 61.6101C135.01 61.1701 135.1 60.6601 135.1 60.0901V45.7601C135.1 44.6901 134.79 43.8201 134.16 43.1401C133.53 42.4601 132.73 42.1201 131.74 42.1201C130.75 42.1201 129.95 42.4601 129.33 43.1401C128.72 43.8201 128.41 44.6901 128.41 45.7601V60.0701C128.41 61.1401 128.72 62.0101 129.33 62.6901C129.96 63.3801 130.76 63.7201 131.75 63.7201ZM138.87 65.6701C139 65.8001 139.07 65.9301 139.07 66.0601C139.07 66.1601 139.01 66.2801 138.87 66.4101L137.66 67.6201C137.53 67.7501 137.41 67.8201 137.31 67.8201C137.18 67.8201 137.05 67.7601 136.92 67.6201L135.39 66.0501C134.35 66.6801 133.13 66.9901 131.75 66.9901C130.42 66.9901 129.23 66.6801 128.17 66.0701C127.11 65.4601 126.29 64.6201 125.71 63.5501C125.12 62.4801 124.83 61.2701 124.83 59.9101V45.9101C124.83 44.5501 125.12 43.3401 125.71 42.2701C126.3 41.2001 127.12 40.3601 128.17 39.7501C129.23 39.1401 130.42 38.8301 131.75 38.8301C133.11 38.8301 134.3 39.1401 135.35 39.7501C136.39 40.3601 137.21 41.2001 137.79 42.2701C138.38 43.3401 138.67 44.5501 138.67 45.9101V59.9101C138.67 61.5501 138.25 62.9701 137.42 64.1701L138.87 65.6701Z" fill="black"/>
<path d="M274.68 71.9799L272.93 75.4099V77.2999H271.72V75.4299L270.02 71.9799H271.4L272.26 73.9699C272.28 74.0099 272.32 74.1499 272.38 74.3999H272.4C272.43 74.2199 272.47 74.0799 272.52 73.9799L273.4 71.9799H274.68ZM266.84 77.3099H265.62L263.41 73.9599C263.28 73.7699 263.19 73.6199 263.14 73.5199H263.13C263.15 73.7099 263.16 73.9999 263.16 74.3799V77.3099H262.02V71.9899H263.32L265.45 75.2299C265.55 75.3799 265.64 75.5199 265.72 75.6599H265.74C265.72 75.5399 265.71 75.2899 265.71 74.9299V71.9899H266.85V77.3099H266.84ZM256.8 75.1999L256.22 73.4099C256.18 73.2799 256.15 73.1199 256.13 72.9299H256.1C256.09 73.0899 256.06 73.2399 256.01 73.3899L255.43 75.1899H256.8V75.1999ZM258.77 77.3099H257.45L257.07 76.1299H255.16L254.78 77.3099H253.47L255.42 71.9899H256.85L258.77 77.3099ZM248.44 72.8999V74.5599H248.91C249.55 74.5599 249.87 74.2799 249.87 73.7199C249.87 73.1699 249.55 72.8999 248.91 72.8999H248.44ZM248.44 75.4699V77.2999H247.23V71.9799H249.12C250.47 71.9799 251.15 72.5399 251.15 73.6799C251.15 74.2099 250.96 74.6499 250.57 74.9799C250.18 75.3099 249.67 75.4799 249.02 75.4799H248.44V75.4699ZM243.43 77.3099H242.24V74.1199C242.24 73.7799 242.26 73.3999 242.28 72.9799H242.25C242.19 73.3099 242.13 73.5399 242.08 73.6899L240.83 77.3099H239.84L238.56 73.7299C238.53 73.6299 238.47 73.3899 238.39 72.9899H238.36C238.39 73.5099 238.41 73.9699 238.41 74.3699V77.3099H237.32V71.9899H239.09L240.19 75.1499C240.28 75.3999 240.34 75.6599 240.38 75.9099H240.4C240.47 75.6099 240.54 75.3599 240.61 75.1399L241.7 71.9899H243.42V77.3099H243.43ZM231.26 72.9299C230.84 72.9299 230.5 73.0899 230.25 73.3999C230 73.7199 229.88 74.1299 229.88 74.6499C229.88 75.1799 230.01 75.5899 230.25 75.8999C230.5 76.2099 230.83 76.3599 231.23 76.3599C231.65 76.3599 231.98 76.2099 232.22 75.9099C232.46 75.6099 232.59 75.1999 232.59 74.6699C232.59 74.1199 232.47 73.6899 232.24 73.3799C232 73.0799 231.67 72.9299 231.26 72.9299ZM231.21 77.3999C230.44 77.3999 229.82 77.1499 229.33 76.6599C228.85 76.1599 228.61 75.5199 228.61 74.7199C228.61 73.8799 228.86 73.1999 229.35 72.6799C229.84 72.1599 230.49 71.8999 231.3 71.8999C232.07 71.8999 232.68 72.1499 233.16 72.6499C233.63 73.1499 233.87 73.7999 233.87 74.6199C233.87 75.4599 233.62 76.1299 233.14 76.6399C232.64 77.1399 232 77.3999 231.21 77.3999ZM225.52 77.1199C225.13 77.3099 224.62 77.3999 223.99 77.3999C223.17 77.3999 222.52 77.1599 222.05 76.6799C221.58 76.1999 221.34 75.5599 221.34 74.7599C221.34 73.9099 221.6 73.2199 222.13 72.6899C222.66 72.1599 223.35 71.8999 224.19 71.8999C224.71 71.8999 225.15 71.9699 225.51 72.0999V73.2499C225.15 73.0399 224.74 72.9299 224.28 72.9299C223.78 72.9299 223.37 73.0899 223.06 73.3999C222.75 73.7099 222.6 74.1399 222.6 74.6799C222.6 75.1899 222.74 75.6099 223.04 75.9099C223.33 76.2199 223.72 76.3699 224.22 76.3699C224.69 76.3699 225.12 76.2599 225.51 76.0299V77.1199H225.52ZM211.55 77.3099H210.33L208.12 73.9599C207.99 73.7699 207.9 73.6199 207.85 73.5199H207.84C207.86 73.7099 207.87 73.9999 207.87 74.3799V77.3099H206.73V71.9899H208.03L210.16 75.2299C210.26 75.3799 210.35 75.5199 210.43 75.6599H210.44C210.42 75.5399 210.41 75.2899 210.41 74.9299V71.9899H211.55V77.3099ZM200.66 72.9299C200.24 72.9299 199.9 73.0899 199.65 73.3999C199.4 73.7199 199.28 74.1299 199.28 74.6499C199.28 75.1799 199.41 75.5899 199.65 75.8999C199.9 76.2099 200.23 76.3599 200.63 76.3599C201.05 76.3599 201.38 76.2099 201.62 75.9099C201.86 75.6099 201.99 75.1999 201.99 74.6699C201.99 74.1199 201.87 73.6899 201.63 73.3799C201.39 73.0799 201.07 72.9299 200.66 72.9299ZM200.6 77.3999C199.83 77.3999 199.21 77.1499 198.72 76.6599C198.24 76.1599 197.99 75.5199 197.99 74.7199C197.99 73.8799 198.24 73.1999 198.73 72.6799C199.22 72.1599 199.87 71.8999 200.68 71.8999C201.45 71.8999 202.06 72.1499 202.54 72.6499C203.01 73.1499 203.25 73.7999 203.25 74.6199C203.25 75.4599 203.01 76.1299 202.51 76.6399C202.03 77.1399 201.39 77.3999 200.6 77.3999ZM194.55 77.3099H193.34V71.9899H194.55V77.3099ZM190.04 72.9599H188.51V77.3099H187.3V72.9599H185.78V71.9799H190.04V72.9599ZM182.76 77.1199C182.37 77.3099 181.86 77.3999 181.23 77.3999C180.41 77.3999 179.76 77.1599 179.29 76.6799C178.82 76.1999 178.58 75.5599 178.58 74.7599C178.58 73.9099 178.84 73.2199 179.37 72.6899C179.9 72.1599 180.59 71.8999 181.43 71.8999C181.95 71.8999 182.39 71.9699 182.75 72.0999V73.2499C182.39 73.0399 181.98 72.9299 181.52 72.9299C181.02 72.9299 180.61 73.0899 180.3 73.3999C179.99 73.7099 179.84 74.1399 179.84 74.6799C179.84 75.1899 179.99 75.6099 180.28 75.9099C180.57 76.2199 180.96 76.3699 181.46 76.3699C181.93 76.3699 182.36 76.2599 182.75 76.0299V77.1199H182.76ZM175.18 74.9999C175.18 76.5999 174.43 77.3999 172.93 77.3999C171.47 77.3999 170.75 76.6199 170.75 75.0599V71.9899H171.96V75.0799C171.96 75.9399 172.3 76.3699 172.98 76.3699C173.64 76.3699 173.98 75.9499 173.98 75.1199V71.9899H175.19V74.9999H175.18ZM164.44 72.8799V74.3599H164.96C165.22 74.3599 165.43 74.2799 165.58 74.1399C165.74 73.9899 165.82 73.7999 165.82 73.5799C165.82 73.1099 165.54 72.8799 164.98 72.8799H164.44ZM167.73 77.3099H166.34L165.51 75.9399C165.45 75.8399 165.39 75.7399 165.33 75.6599C165.27 75.5799 165.21 75.5099 165.16 75.4499C165.1 75.3899 165.04 75.3499 164.98 75.3199C164.92 75.2899 164.85 75.2699 164.77 75.2699H164.44V77.3099H163.23V71.9899H165.14C166.44 71.9899 167.09 72.4699 167.09 73.4399C167.09 73.6299 167.06 73.7999 167 73.9499C166.94 74.1099 166.86 74.2499 166.76 74.3799C166.66 74.5099 166.53 74.6099 166.38 74.7099C166.23 74.7999 166.07 74.8699 165.88 74.9199V74.9399C165.96 74.9599 166.04 74.9999 166.11 75.0599C166.19 75.1199 166.26 75.1799 166.33 75.2599C166.4 75.3299 166.47 75.4099 166.53 75.4999C166.59 75.5899 166.65 75.6699 166.7 75.7499L167.73 77.3099ZM159.94 72.9599H158.41V77.3099H157.2V72.9599H155.68V71.9799H159.94V72.9599ZM149.06 77.0999V75.9099C149.28 76.0899 149.51 76.2299 149.77 76.3199C150.02 76.4099 150.28 76.4599 150.54 76.4599C150.69 76.4599 150.83 76.4499 150.94 76.4199C151.05 76.3899 151.15 76.3599 151.23 76.3099C151.31 76.2599 151.36 76.1999 151.4 76.1399C151.44 76.0699 151.46 75.9999 151.46 75.9299C151.46 75.8299 151.43 75.7299 151.37 75.6499C151.31 75.5699 151.23 75.4899 151.13 75.4199C151.03 75.3499 150.9 75.2799 150.76 75.2199C150.62 75.1599 150.47 75.0899 150.3 75.0199C149.88 74.8499 149.57 74.6399 149.36 74.3899C149.15 74.1399 149.05 73.8399 149.05 73.4899C149.05 73.2099 149.11 72.9699 149.22 72.7699C149.33 72.5699 149.49 72.4099 149.68 72.2799C149.87 72.1499 150.1 72.0599 150.35 71.9999C150.6 71.9399 150.87 71.9099 151.16 71.9099C151.44 71.9099 151.69 71.9299 151.9 71.9599C152.11 71.9899 152.31 72.0399 152.5 72.1099V73.2199C152.41 73.1599 152.31 73.0999 152.21 73.0599C152.1 73.0099 151.99 72.9699 151.88 72.9399C151.77 72.9099 151.66 72.8899 151.55 72.8699C151.44 72.8599 151.33 72.8499 151.23 72.8499C151.09 72.8499 150.97 72.8599 150.86 72.8899C150.75 72.9199 150.65 72.9499 150.58 72.9999C150.5 73.0499 150.44 73.0999 150.4 73.1699C150.36 73.2399 150.34 73.3099 150.34 73.3899C150.34 73.4799 150.36 73.5599 150.41 73.6299C150.46 73.6999 150.52 73.7699 150.61 73.8299C150.7 73.8899 150.8 73.9499 150.93 74.0199C151.05 74.0799 151.2 74.1399 151.35 74.2099C151.56 74.2999 151.76 74.3899 151.93 74.4899C152.1 74.5899 152.25 74.6999 152.37 74.8299C152.49 74.9599 152.59 75.0999 152.65 75.2599C152.72 75.4199 152.75 75.6099 152.75 75.8299C152.75 76.1299 152.69 76.3799 152.58 76.5799C152.47 76.7799 152.31 76.9399 152.12 77.0699C151.93 77.1999 151.7 77.2899 151.44 77.3399C151.18 77.3899 150.91 77.4199 150.62 77.4199C150.33 77.4199 150.05 77.3999 149.78 77.3499C149.48 77.2799 149.25 77.1999 149.06 77.0999ZM145.5 77.3099H144.28L142.07 73.9599C141.94 73.7699 141.85 73.6199 141.8 73.5199H141.79C141.81 73.7099 141.82 73.9999 141.82 74.3799V77.3099H140.68V71.9899H141.98L144.11 75.2299C144.21 75.3799 144.3 75.5199 144.38 75.6599H144.4C144.38 75.5399 144.37 75.2899 144.37 74.9299V71.9899H145.51V77.3099H145.5ZM134.62 72.9299C134.2 72.9299 133.86 73.0899 133.61 73.3999C133.36 73.7199 133.24 74.1299 133.24 74.6499C133.24 75.1799 133.37 75.5899 133.61 75.8999C133.86 76.2099 134.19 76.3599 134.59 76.3599C135.01 76.3599 135.34 76.2099 135.58 75.9099C135.82 75.6099 135.95 75.1999 135.95 74.6699C135.95 74.1199 135.83 73.6899 135.6 73.3799C135.35 73.0799 135.03 72.9299 134.62 72.9299ZM134.56 77.3999C133.79 77.3999 133.17 77.1499 132.68 76.6599C132.2 76.1599 131.96 75.5199 131.96 74.7199C131.96 73.8799 132.2 73.1999 132.7 72.6799C133.19 72.1599 133.84 71.8999 134.65 71.8999C135.41 71.8999 136.03 72.1499 136.51 72.6499C136.98 73.1499 137.22 73.7999 137.22 74.6199C137.22 75.4599 136.97 76.1299 136.48 76.6399C135.99 77.1399 135.35 77.3999 134.56 77.3999ZM128.88 77.1199C128.49 77.3099 127.98 77.3999 127.35 77.3999C126.53 77.3999 125.88 77.1599 125.41 76.6799C124.94 76.1999 124.7 75.5599 124.7 74.7599C124.7 73.9099 124.96 73.2199 125.49 72.6899C126.02 72.1599 126.71 71.8999 127.55 71.8999C128.07 71.8999 128.51 71.9699 128.87 72.0999V73.2499C128.51 73.0399 128.1 72.9299 127.64 72.9299C127.14 72.9299 126.73 73.0899 126.42 73.3999C126.11 73.7099 125.96 74.1399 125.96 74.6799C125.96 75.1899 126.11 75.6099 126.4 75.9099C126.69 76.2199 127.08 76.3699 127.58 76.3699C128.05 76.3699 128.48 76.2599 128.87 76.0299V77.1199H128.88Z" fill="black"/>
<path d="M251.94 26.7402H252.41C253.09 26.7402 253.51 26.7102 253.67 26.6602C253.83 26.6102 253.96 26.5202 254.06 26.3902C254.15 26.2602 254.2 26.1102 254.2 25.9502C254.2 25.7902 254.15 25.6502 254.06 25.5202C253.97 25.4002 253.84 25.3102 253.67 25.2502C253.5 25.2002 253.08 25.1702 252.42 25.1702H251.95V26.7402H251.94ZM250.76 30.0302V24.2602H251.93C253.03 24.2602 253.64 24.2702 253.78 24.2702C254.17 24.3002 254.47 24.3802 254.69 24.5002C254.9 24.6202 255.08 24.8002 255.23 25.0502C255.37 25.3002 255.45 25.5802 255.45 25.8802C255.45 26.3002 255.31 26.6502 255.04 26.9502C254.77 27.2502 254.39 27.4302 253.9 27.5002C254.07 27.5702 254.21 27.6402 254.31 27.7202C254.4 27.8002 254.54 27.9502 254.7 28.1602C254.74 28.2202 254.88 28.4502 255.13 28.8602L255.81 30.0202H254.35L253.87 29.0802C253.55 28.4502 253.28 28.0502 253.07 27.8902C252.86 27.7302 252.59 27.6502 252.26 27.6502H251.96V30.0302H250.76ZM253.23 22.7402C252.48 22.7402 251.76 22.9302 251.07 23.3002C250.38 23.6802 249.84 24.2102 249.44 24.9102C249.04 25.6102 248.85 26.3502 248.85 27.1102C248.85 27.8702 249.04 28.6002 249.43 29.2902C249.82 29.9802 250.36 30.5202 251.05 30.9102C251.74 31.3002 252.47 31.4902 253.23 31.4902C253.99 31.4902 254.72 31.3002 255.41 30.9102C256.1 30.5202 256.64 29.9802 257.03 29.2902C257.42 28.6002 257.61 27.8702 257.61 27.1102C257.61 26.3402 257.41 25.6102 257.01 24.9102C256.61 24.2102 256.07 23.6702 255.38 23.3002C254.7 22.9302 253.98 22.7402 253.23 22.7402ZM253.23 21.6602C254.17 21.6602 255.06 21.8902 255.92 22.3602C256.78 22.8302 257.46 23.5002 257.95 24.3702C258.44 25.2402 258.69 26.1602 258.69 27.1102C258.69 28.0602 258.45 28.9602 257.97 29.8302C257.49 30.6902 256.82 31.3602 255.96 31.8402C255.1 32.3202 254.19 32.5602 253.24 32.5602C252.29 32.5602 251.39 32.3202 250.52 31.8402C249.66 31.3602 248.99 30.6902 248.51 29.8302C248.03 28.9702 247.79 28.0602 247.79 27.1102C247.79 26.1602 248.04 25.2402 248.53 24.3702C249.02 23.5002 249.7 22.8302 250.56 22.3602C251.39 21.9002 252.29 21.6602 253.23 21.6602Z" fill="black"/>
</svg>
